<svg width="41" height="24" viewBox="0 0 41 24" fill="none" xmlns="http://www.w3.org/2000/svg">
<path d="M29.4243 15.5815C28.54 16.4981 27.3609 16.9564 26.1818 16.9564C23.4699 16.9564 21.2885 14.534 21.2885 11.5225C21.2885 8.51091 23.4699 6.08857 26.1818 6.08857C27.3609 6.08857 28.54 6.54685 29.4243 7.46341L29.7191 7.79076L32.7847 2.68421L32.49 2.42234C30.6624 0.851092 28.4221 0 26.1228 0C22.0549 0 18.5176 2.61874 16.808 6.41592C15.9826 2.68421 13.3296 0 10.146 0H0.00580597V23.1104H5.54757V20.0988V17.8074V12.0462V8.77279V5.76123H9.20277C10.4998 5.76123 11.6199 7.13607 11.6199 8.90372C11.6199 10.6059 10.5587 12.0462 9.20277 12.0462H6.72666V17.8074H10.205C12.6222 17.8074 14.7445 16.2362 15.9826 13.8139C16.9259 19.1168 21.1706 23.1104 26.1818 23.1104C28.54 23.1104 30.7213 22.2593 32.5489 20.6881L32.8437 20.4262L29.778 15.3196L29.4243 15.5815Z" fill="#02B3AC"/>
<path d="M35.6735 0L32.372 5.49936L31.1929 7.46341H32.9026H33.4332H35.6735V22.7831H40.6257V0H35.6735Z" fill="#02B3AC"/>
</svg>
