<svg width="42" height="42" viewBox="0 0 42 42" fill="none" xmlns="http://www.w3.org/2000/svg">
<path fill-rule="evenodd" clip-rule="evenodd" d="M24.2569 29.712C23.964 30.0049 23.4891 30.0049 23.1962 29.712L17.2772 23.7929L17.2556 23.7714C16.8779 23.3937 16.5627 23.0784 16.3261 22.7998C16.0795 22.5093 15.8747 22.2096 15.7578 21.8496C15.5783 21.2973 15.5783 20.7023 15.7578 20.15C15.8747 19.79 16.0795 19.4904 16.3261 19.1998C16.5627 18.9212 16.8779 18.606 17.2556 18.2283L17.2772 18.2068L23.1962 12.2877C23.4891 11.9948 23.964 11.9948 24.2569 12.2877C24.5498 12.5806 24.5498 13.0554 24.2569 13.3483L18.3378 19.2674C17.933 19.6722 17.6618 19.9443 17.4697 20.1706C17.2832 20.3902 17.2158 20.5169 17.1844 20.6136C17.1028 20.8646 17.1028 21.135 17.1844 21.3861C17.2158 21.4828 17.2832 21.6094 17.4697 21.8291C17.6618 22.0554 17.933 22.3275 18.3378 22.7322L24.2569 28.6513C24.5498 28.9442 24.5498 29.4191 24.2569 29.712Z" fill="#7D7D7D"/>
<circle cx="21" cy="21" r="20" transform="rotate(-180 21 21)" stroke="#EBEBEB"/>
</svg>
