<svg width="25" height="25" viewBox="0 0 25 25" fill="none" xmlns="http://www.w3.org/2000/svg">
<path d="M12.3668 16.6445C12.6304 16.637 12.8715 16.5391 13.0674 16.3281L18.7928 10.4671C18.9586 10.3013 19.049 10.0904 19.049 9.8418C19.049 9.34459 18.6572 8.94531 18.16 8.94531C17.9189 8.94531 17.6854 9.04325 17.5121 9.21652L12.3743 14.4975L7.2214 9.21652C7.04813 9.05078 6.82213 8.94531 6.57352 8.94531C6.07631 8.94531 5.68457 9.34459 5.68457 9.8418C5.68457 10.0904 5.77497 10.3013 5.94071 10.4671L11.6737 16.3281C11.8771 16.5391 12.1031 16.6445 12.3668 16.6445Z" fill="white"/>
</svg>
