<svg width="18" height="18" viewBox="0 0 18 18" fill="none" xmlns="http://www.w3.org/2000/svg">
<path fill-rule="evenodd" clip-rule="evenodd" d="M6.3 1.75H6.27779H6.27779C5.45652 1.75 4.80954 1.74999 4.28889 1.79253C3.75771 1.83593 3.31413 1.92609 2.91103 2.13148C2.25247 2.46703 1.71703 3.00247 1.38148 3.66103C1.17609 4.06413 1.08593 4.50771 1.04253 5.03889C0.999994 5.55954 0.999997 6.20652 1 7.02779V7.02779V7.05V10.95V10.9722V10.9722C0.999997 11.7935 0.999994 12.4405 1.04253 12.9611C1.08593 13.4923 1.17609 13.9359 1.38148 14.339C1.71703 14.9975 2.25247 15.533 2.91103 15.8685C3.31413 16.0739 3.75771 16.1641 4.28889 16.2075C4.80954 16.25 5.45651 16.25 6.27778 16.25H6.3H11.7H11.7222C12.5435 16.25 13.1905 16.25 13.7111 16.2075C14.2423 16.1641 14.6859 16.0739 15.089 15.8685C15.7475 15.533 16.283 14.9975 16.6185 14.339C16.8239 13.9359 16.9141 13.4923 16.9575 12.9611C17 12.4405 17 11.7935 17 10.9723V10.9722V10.95V7.05V7.02778V7.02773C17 6.20649 17 5.55953 16.9575 5.03889C16.9141 4.50771 16.8239 4.06413 16.6185 3.66103C16.283 3.00247 15.7475 2.46703 15.089 2.13148C14.6859 1.92609 14.2423 1.83593 13.7111 1.79253C13.1905 1.74999 12.5435 1.75 11.7222 1.75H11.7222H11.7H6.3ZM3.36502 3.02248C3.60366 2.90089 3.90099 2.82756 4.37032 2.78921C4.84549 2.75039 5.45167 2.75 6.3 2.75H11.7C12.5483 2.75 13.1545 2.75039 13.6297 2.78921C14.099 2.82756 14.3963 2.90089 14.635 3.02248C15.1054 3.26217 15.4878 3.64462 15.7275 4.11502C15.8491 4.35366 15.9224 4.65099 15.9608 5.12032C15.9996 5.59549 16 6.20167 16 7.05V10.95C16 11.7983 15.9996 12.4045 15.9608 12.8797C15.9224 13.349 15.8491 13.6463 15.7275 13.885C15.4878 14.3554 15.1054 14.7378 14.635 14.9775C14.3963 15.0991 14.099 15.1724 13.6297 15.2108C13.1545 15.2496 12.5483 15.25 11.7 15.25H6.3C5.45167 15.25 4.84549 15.2496 4.37032 15.2108C3.90099 15.1724 3.60366 15.0991 3.36502 14.9775C2.89462 14.7378 2.51217 14.3554 2.27248 13.885C2.15089 13.6463 2.07756 13.349 2.03921 12.8797C2.00039 12.4045 2 11.7983 2 10.95V7.05C2 6.20167 2.00039 5.5955 2.03921 5.12032C2.07756 4.65099 2.15089 4.35366 2.27248 4.11502C2.51217 3.64462 2.89462 3.26217 3.36502 3.02248ZM4.77735 5.58397C4.54759 5.4308 4.23715 5.49289 4.08398 5.72265C3.9308 5.95241 3.99289 6.26285 4.22265 6.41603L4.97265 6.91603L4.9936 6.92999C5.37903 7.18695 5.59595 7.33157 5.80711 7.45065C7.78899 8.56831 10.211 8.56831 12.1929 7.45065C12.404 7.33158 12.6209 7.18697 13.0063 6.93004L13.0064 6.93001L13.0274 6.91603L13.7774 6.41603C14.0071 6.26285 14.0692 5.95241 13.916 5.72265C13.7628 5.49289 13.4524 5.4308 13.2226 5.58397L12.4727 6.08397C12.0607 6.35861 11.8764 6.4811 11.7017 6.57961C10.0247 7.52533 7.9753 7.52533 6.29833 6.57961C6.12364 6.4811 5.9393 6.35861 5.52735 6.08397L4.77735 5.58397Z" fill="#787878"/>
</svg>
