<svg width="75" height="67" viewBox="0 0 75 67" fill="none" xmlns="http://www.w3.org/2000/svg">
<g clip-path="url(#clip0_1974_3775)">
<path d="M62.9774 21.8521C62.8478 21.8023 62.7096 21.7784 62.5707 21.782C62.4319 21.7856 62.295 21.8166 62.1681 21.8731C62.0412 21.9296 61.9267 22.0106 61.8311 22.1114C61.7354 22.2123 61.6605 22.331 61.6107 22.4608C61.5609 22.5907 61.5371 22.729 61.5407 22.868C61.5443 23.0071 61.5752 23.144 61.6316 23.2711C61.6881 23.3981 61.769 23.5128 61.8697 23.6086C61.9704 23.7043 62.089 23.7793 62.2187 23.8292C68.9807 26.4292 72.8538 29.9526 72.8538 33.4982C72.8538 37.7892 67.3981 41.694 59.0773 44.2178C57.4424 38.239 54.7058 31.8215 51.1232 25.6139C50.0994 23.8387 49.0279 22.1175 47.9231 20.4695C51.0018 20.8382 54.0522 21.4143 57.0535 22.1938C56.5678 23.9738 55.9693 25.8285 55.2598 27.7372C55.2112 27.8675 55.1888 28.0061 55.1938 28.1451C55.1988 28.2841 55.2312 28.4208 55.289 28.5473C55.3468 28.6738 55.4289 28.7876 55.5306 28.8823C55.6324 28.977 55.7518 29.0507 55.882 29.0992C56.0002 29.1442 56.1255 29.1674 56.2519 29.1675C56.4675 29.1672 56.6779 29.1009 56.8549 28.9777C57.0319 28.8544 57.167 28.68 57.2424 28.4777C62.2441 15.0294 61.8456 4.24155 56.2265 0.993108C52.5169 -1.1508 47.1437 0.209623 41.1008 4.82801C40.8866 5.00162 40.7486 5.25193 40.7158 5.52583C40.6831 5.79973 40.7583 6.07561 40.9254 6.29489C41.0926 6.51418 41.3386 6.65959 41.6111 6.70024C41.8836 6.74089 42.1612 6.67358 42.3849 6.5126C47.6231 2.50449 52.2867 1.16158 55.1677 2.82871C58.7742 4.91382 59.5789 11.5045 57.5725 20.1389C53.8831 19.1891 50.1249 18.5302 46.3326 18.1682C42.5325 12.8601 38.3817 8.3625 34.253 5.12677C28.0465 0.266818 22.5369 -1.20166 18.7384 0.994698C14.859 3.23714 13.3986 8.90921 14.624 16.9652C14.6401 17.1068 14.6846 17.2436 14.7548 17.3676C14.825 17.4916 14.9194 17.6001 15.0324 17.6867C15.1454 17.7733 15.2748 17.8363 15.4126 17.8717C15.5505 17.9071 15.694 17.9144 15.8348 17.893C15.9755 17.8717 16.1105 17.8221 16.2316 17.7473C16.3528 17.6725 16.4576 17.574 16.5399 17.4577C16.6222 17.3414 16.6802 17.2097 16.7104 17.0705C16.7407 16.9313 16.7427 16.7873 16.7161 16.6473C15.6463 9.61643 16.7701 4.58008 19.7971 2.8303C22.7543 1.12026 27.5481 2.56807 32.9482 6.80345C33.9562 7.59808 34.9641 8.4642 35.9642 9.40346C31.6117 13.8089 27.4227 19.4015 23.8369 25.6139C22.8194 27.3796 21.8654 29.1707 20.9797 30.957C19.7591 28.106 18.7325 25.1756 17.9066 22.1859C19.5479 21.7536 21.2876 21.3706 23.1162 21.0496C23.3926 21.0011 23.6385 20.8447 23.7997 20.6148C23.9609 20.3848 24.0242 20.1002 23.9758 19.8235C23.9274 19.5468 23.7711 19.3006 23.5415 19.1392C23.3118 18.9778 23.0275 18.9144 22.7511 18.9629C8.70641 21.4326 -0.0175781 27.0029 -0.0175781 33.4982C-0.0175781 37.9561 4.1095 42.0421 11.616 45.0045C11.7394 45.053 11.8707 45.0784 12.0033 45.0791C12.2492 45.0778 12.4869 44.991 12.6759 44.8335C12.8648 44.6761 12.9933 44.4577 13.0392 44.2159C13.0852 43.9741 13.0458 43.7238 12.9277 43.5079C12.8097 43.292 12.6204 43.1238 12.3922 43.0322C5.85083 40.4497 2.09835 36.9755 2.09835 33.4966C2.09835 29.3471 7.40958 25.3453 15.8717 22.7628C17.5066 28.7432 20.24 35.159 23.829 41.3825C24.8464 43.1466 25.9195 44.8694 27.0259 46.5254C23.9498 46.1571 20.9021 45.5815 17.9035 44.8026C18.3267 43.2504 18.8331 41.6485 19.4225 39.9967C19.5174 39.7324 19.5036 39.4412 19.3841 39.1871C19.2646 38.933 19.0492 38.7369 18.7852 38.6419C18.5213 38.5468 18.2304 38.5607 17.9766 38.6803C17.7229 38.8 17.527 39.0157 17.432 39.2799C12.67 52.5439 13.1605 62.7835 18.7257 66.0018C19.9145 66.6756 21.2614 67.0196 22.6274 66.9982C26.0132 66.9982 30.1116 65.169 34.5609 61.6138C34.6742 61.5286 34.7693 61.4215 34.8405 61.2989C34.9117 61.1763 34.9576 61.0406 34.9754 60.8998C34.9933 60.7591 34.9828 60.6162 34.9445 60.4797C34.9062 60.3431 34.8409 60.2156 34.7525 60.1047C34.6641 59.9939 34.5544 59.9019 34.4298 59.8343C34.3053 59.7667 34.1684 59.7248 34.0274 59.7111C33.8864 59.6974 33.7441 59.7122 33.6089 59.7545C33.4737 59.7969 33.3483 59.866 33.2403 59.9578C27.71 64.3775 22.8035 65.9112 19.7844 64.1662C16.205 62.1001 15.3955 55.4809 17.3876 46.856C23.375 48.4293 30.291 49.2685 37.4705 49.2685C39.5341 49.2685 41.5531 49.1985 43.5183 49.0698C41.6607 51.5543 39.6381 53.9106 37.4642 56.1229C35.8876 54.5177 34.3925 52.8341 32.9847 51.0786C32.8088 50.8598 32.5532 50.72 32.2743 50.6899C31.9953 50.6598 31.7159 50.7419 31.4974 50.9181C31.2789 51.0943 31.1393 51.3501 31.1092 51.6294C31.0791 51.9087 31.1611 52.1885 31.3371 52.4072C38.8229 61.7108 46.585 66.9839 52.347 66.9839C53.7002 67.0062 55.0349 66.6672 56.2138 66.0018C60.0964 63.7561 61.5568 58.0761 60.325 50.0059C60.2739 49.7363 60.1204 49.4971 59.8968 49.3385C59.6732 49.1799 59.3969 49.1143 59.126 49.1555C58.855 49.1967 58.6106 49.3414 58.4441 49.5593C58.2775 49.7771 58.2018 50.0511 58.2329 50.3237C59.3075 57.3673 58.1868 62.4116 55.155 64.163C51.5184 66.264 45.4453 63.6719 38.9785 57.5993C41.6443 54.8745 44.0931 51.945 46.3025 48.8378C62.9234 47.2072 74.957 41.0504 74.957 33.4935C74.9745 28.9609 70.7077 24.8241 62.9774 21.8521ZM43.5452 17.9346C41.5563 17.8027 39.5341 17.728 37.488 17.728C35.4419 17.728 33.4276 17.7979 31.4371 17.9299C33.2948 15.4441 35.318 13.0866 37.4927 10.8735C39.6678 13.0871 41.69 15.4463 43.5452 17.9346ZM37.488 47.15C34.8752 47.15 32.3022 47.034 29.7958 46.8131C29.7862 46.7972 29.7799 46.7797 29.7688 46.7638C28.3402 44.7232 26.9671 42.557 25.6798 40.3241C24.3734 38.061 23.1877 35.7709 22.1257 33.4903C22.1257 33.4807 22.1385 33.4728 22.1432 33.4633C23.1956 31.2033 24.3845 28.9196 25.6798 26.6756C26.9751 24.4315 28.3783 22.2367 29.8164 20.1723C29.8423 20.1739 29.8683 20.1739 29.8942 20.1723C32.3688 19.9577 34.9244 19.8544 37.488 19.8544C40.096 19.8544 42.6659 19.9705 45.1691 20.1898C46.5977 22.2431 47.9882 24.4125 49.2962 26.6803C50.6042 28.9482 51.7851 31.2272 52.8486 33.5141C51.7803 35.8074 50.5851 38.1023 49.2978 40.3352C47.9962 42.592 46.6152 44.7597 45.1707 46.8178C42.6897 47.0292 40.1182 47.15 37.488 47.15ZM51.1295 41.3841C52.1407 39.6359 53.0947 37.8401 53.9867 36.0395C55.2046 38.8862 56.2297 41.8117 57.0551 44.7963C54.0582 45.5703 51.0133 46.1447 47.9406 46.5158C49.039 44.8614 50.1105 43.1514 51.1295 41.3841Z" fill="white"/>
<path d="M37.4817 26.3057C35.9004 26.3068 34.3637 26.8303 33.1098 27.7949C31.8559 28.7595 30.9549 30.1114 30.5465 31.6409C30.1381 33.1703 30.2451 34.792 30.8509 36.2544C31.4567 37.7168 32.5275 38.9382 33.8972 39.7293C35.2669 40.5204 36.8591 40.8369 38.4267 40.6298C39.9944 40.4228 41.4501 39.7036 42.568 38.5839C43.686 37.4642 44.4037 36.0065 44.6099 34.4368C44.8162 32.8672 44.4994 31.2732 43.7088 29.9021C43.0777 28.808 42.1699 27.8996 41.0767 27.2682C39.9836 26.6369 38.7436 26.3049 37.4817 26.3057ZM40.0214 37.8929C39.1534 38.3951 38.1561 38.6282 37.1557 38.5628C36.1553 38.4974 35.1968 38.1365 34.4013 37.5256C33.6058 36.9148 33.0092 36.0814 32.6868 35.131C32.3644 34.1806 32.3307 33.1558 32.5901 32.1863C32.8494 31.2167 33.3902 30.3459 34.1438 29.6841C34.8975 29.0222 35.8303 28.599 36.8243 28.468C37.8182 28.337 38.8286 28.504 39.7277 28.948C40.6268 29.3919 41.3743 30.0929 41.8754 30.9622C42.2085 31.5391 42.4248 32.176 42.5118 32.8366C42.5989 33.4973 42.5551 34.1686 42.383 34.8122C42.2108 35.4559 41.9136 36.0593 41.5084 36.5879C41.1032 37.1165 40.5979 37.56 40.0214 37.8929Z" fill="white"/>
</g>
<defs>
<clipPath id="clip0_1974_3775">
<rect width="74.9762" height="67" fill="white"/>
</clipPath>
</defs>
</svg>
