<svg width="149" height="52" viewBox="0 0 149 52" fill="none" xmlns="http://www.w3.org/2000/svg">
<g clip-path="url(#clip0_1916_1064)">
<path d="M32.3239 38.3813H35.2614L39.2619 44.9535L43.2623 38.3813H46.1998L46.2227 51.3543H42.9652V45.1821L39.2619 50.9771L35.5586 45.1821V51.3543H32.3125L32.3239 38.3813Z" fill="#0A66C2"/>
<path d="M52.451 38.3813H48.6562V51.3543H52.451V38.3813Z" fill="#0A66C2"/>
<path d="M55.8684 46.188H54.6797V43.2048H55.8684V38.3813H65.6067V41.3303H59.6517V43.2048H64.6808V46.188H59.6517V48.3939H65.6067V51.3543H55.8684V46.188Z" fill="#0A66C2"/>
<path d="M70.9455 44.1877V51.3543H67.6309V38.3813H70.2826L75.7461 43.7077V38.3813H79.0722V51.5943H78.6607L70.9455 44.1877Z" fill="#0A66C2"/>
<path d="M90.674 44.1877V51.3543H87.3594V38.3813H90.0111L95.4746 43.7077V38.3813H98.8007V51.5943H98.3892L90.674 44.1877Z" fill="#0A66C2"/>
<path d="M105.579 38.3701H109.008L114.448 51.343H110.699L109.716 48.8285H104.824L103.864 51.343H100.115L105.579 38.3701ZM108.63 45.8224L107.247 42.1763L105.865 45.8224H108.63Z" fill="#0A66C2"/>
<path d="M115.601 38.3813H118.527L122.539 44.9535L126.539 38.3813H129.477L129.488 51.3543H126.231V45.1821L122.539 50.9771L118.836 45.1821V51.3543H115.578L115.601 38.3813Z" fill="#0A66C2"/>
<path d="M65.7912 24.1056C64.7814 25.0074 63.4761 25.5076 62.1223 25.5115C60.652 25.5115 59.2421 24.9275 58.2025 23.8879C57.1628 22.8482 56.5787 21.4382 56.5787 19.968C56.5817 18.4998 57.1671 17.0927 58.2064 16.0555C59.2456 15.0184 60.654 14.4359 62.1223 14.4359C63.4748 14.4356 64.7803 14.9318 65.7912 15.8304L66.1456 16.139L69.6315 10.9384L69.3232 10.6984C67.2663 9.09369 64.731 8.22448 62.1223 8.22951C59.9313 8.23073 57.7841 8.8433 55.9223 9.99832C54.0606 11.1533 52.5582 12.805 51.5839 14.7674C50.6467 11.007 47.6406 8.24095 44.0973 8.24095H32.5645V31.7065H38.8166V14.1159H42.9543C43.733 14.183 44.4537 14.554 44.9607 15.1487C45.4677 15.7435 45.72 16.514 45.6631 17.2934C45.72 18.0728 45.4677 18.8434 44.9607 19.4381C44.4537 20.0328 43.733 20.4039 42.9543 20.4709H40.1769V26.3916H44.0973C45.4437 26.3522 46.7552 25.9557 47.898 25.2427C49.0407 24.5297 49.9735 23.5259 50.6008 22.334C51.1411 24.9914 52.5832 27.3806 54.6828 29.0969C56.7824 30.8132 59.4105 31.7512 62.1223 31.7522C64.7349 31.7598 67.2747 30.8905 69.3346 29.2834L69.6315 29.0433L66.1456 23.8427L65.7912 24.1056Z" fill="#02B3AC"/>
<path d="M72.8304 8.53809L69.0586 14.173L67.7441 16.139H69.6644H70.2816H72.7847V31.695H78.4197V8.53809H72.8304Z" fill="#02B3AC"/>
<path d="M12.8129 27.7861L12.1271 27.1003L11.7042 26.6774L5.30347 20.2881L0 25.5801L12.8129 38.3816L25.6144 25.5801L20.3109 20.2881L12.8129 27.7861Z" fill="#02B3AC"/>
<path d="M0 12.79L5.30347 18.0935L11.7042 11.6928L12.8129 10.5955L13.9102 11.6928L20.3109 18.0935L25.6144 12.79L12.8129 0L0 12.79Z" fill="#02B3AC"/>
<path d="M6.40039 19.1908L12.8126 25.5801L19.2133 19.1908L12.8126 12.79L6.40039 19.1908Z" fill="#02B3AC"/>
<path d="M83.38 25.8659C83.383 27.4292 84.0056 28.9275 85.111 30.0329C86.2164 31.1383 87.7148 31.7607 89.278 31.7637H95.1872V24.9858H89.1979V26.7574H93.3812V29.9921H89.2437C88.1494 29.9921 87.0998 29.5574 86.326 28.7835C85.5521 28.0097 85.1174 26.9602 85.1174 25.8659C85.1204 24.7735 85.5567 23.727 86.3301 22.9556C87.1036 22.1843 88.1513 21.7511 89.2437 21.7511H95.1529V19.9795H89.2437C87.6815 19.9795 86.1829 20.5993 85.0772 21.7029C83.9715 22.8065 83.3487 24.3037 83.3457 25.8659" fill="#A09F9F"/>
<path d="M109.132 23.3626C109.132 22.4531 108.771 21.581 108.128 20.9379C107.485 20.2949 106.613 19.9336 105.703 19.9336H97.291V31.7178H99.0739V26.7115H102.366C103.681 26.7115 104.943 27.2341 105.873 28.1644C106.804 29.0947 107.326 30.3565 107.326 31.6721H109.098C109.097 30.6982 108.886 29.7361 108.477 28.852C108.069 27.968 107.473 27.1831 106.732 26.5515C107.416 26.3286 108.012 25.8963 108.437 25.3158C108.861 24.7353 109.093 24.036 109.098 23.3168M99.0739 21.7052H105.703C106.132 21.7052 106.543 21.8747 106.847 22.1766C107.151 22.4785 107.323 22.8884 107.326 23.3168C107.323 23.7464 107.151 24.1575 106.848 24.4612C106.544 24.7649 106.133 24.9369 105.703 24.9399H99.0739V21.7052Z" fill="#A09F9F"/>
<path d="M116.277 19.9795C114.714 19.9795 113.216 20.5993 112.11 21.7029C111.005 22.8065 110.382 24.3037 110.379 25.8659C110.379 27.4301 111 28.9302 112.106 30.0363C113.212 31.1423 114.712 31.7637 116.277 31.7637C117.841 31.7637 119.341 31.1423 120.447 30.0363C121.553 28.9302 122.175 27.4301 122.175 25.8659C122.172 24.3037 121.549 22.8065 120.443 21.7029C119.337 20.5993 117.839 19.9795 116.277 19.9795ZM116.277 29.9921C115.182 29.9921 114.133 29.5574 113.359 28.7835C112.585 28.0097 112.151 26.9602 112.151 25.8659C112.154 24.7735 112.59 23.727 113.363 22.9556C114.137 22.1843 115.184 21.7511 116.277 21.7511C117.369 21.7511 118.417 22.1843 119.19 22.9556C119.964 23.727 120.4 24.7735 120.403 25.8659C120.403 26.4077 120.296 26.9443 120.089 27.4449C119.881 27.9455 119.578 28.4004 119.194 28.7835C118.811 29.1667 118.356 29.4706 117.856 29.678C117.355 29.8853 116.818 29.9921 116.277 29.9921Z" fill="#A09F9F"/>
<path d="M133.65 25.8659C133.65 26.9602 133.216 28.0097 132.442 28.7835C131.668 29.5574 130.619 29.9921 129.524 29.9921C128.43 29.9921 127.38 29.5574 126.607 28.7835C125.833 28.0097 125.398 26.9602 125.398 25.8659V19.9795H123.615V25.8659C123.618 27.4311 124.242 28.9312 125.35 30.037C126.458 31.1427 127.959 31.7637 129.524 31.7637C131.088 31.7607 132.586 31.1383 133.691 30.0329C134.797 28.9275 135.419 27.4292 135.422 25.8659V19.9795H133.65V25.8659Z" fill="#A09F9F"/>
<path d="M145.604 19.9794H137.203V31.7636H138.975V26.7573H145.616C146.525 26.7573 147.397 26.3961 148.04 25.753C148.683 25.11 149.045 24.2378 149.045 23.3284C149.045 22.419 148.683 21.5468 148.04 20.9037C147.397 20.2607 146.525 19.8994 145.616 19.8994M145.616 24.9057H138.975V21.671H145.616C146.044 21.671 146.455 21.8405 146.759 22.1424C147.063 22.4443 147.236 22.8542 147.239 23.2827C147.236 23.7122 147.063 24.1233 146.76 24.427C146.456 24.7308 146.045 24.9027 145.616 24.9057Z" fill="#A09F9F"/>
</g>
<defs>
<clipPath id="clip0_1916_1064">
<rect width="149" height="51.5945" fill="white"/>
</clipPath>
</defs>
</svg>
