<svg width="281" height="281" viewBox="0 0 281 281" fill="none" xmlns="http://www.w3.org/2000/svg">
<path d="M210.221 210.221C248.921 171.52 248.921 108.774 210.221 70.0739C171.52 31.3733 108.774 31.3733 70.0736 70.0739C31.373 108.774 31.373 171.52 70.0736 210.221C108.774 248.922 171.52 248.922 210.221 210.221Z" fill="#F4F5F6"/>
<path d="M136.89 73.6631H125.55V96.3831H136.89V73.6631Z" fill="white"/>
<path d="M136.89 73.8828H125.55V75.5228H136.89V73.8828Z" fill="#C9CED7"/>
<path d="M217.939 81.1533C217.659 81.1533 217.439 80.9333 217.439 80.6533V79.6533C217.439 79.3733 217.659 79.1533 217.939 79.1533C218.219 79.1533 218.439 79.3733 218.439 79.6533V80.6533C218.439 80.9333 218.219 81.1533 217.939 81.1533Z" fill="#374450"/>
<path d="M217.939 181.393C217.659 181.393 217.439 181.173 217.439 180.893V178.893C217.439 178.613 217.659 178.393 217.939 178.393C218.219 178.393 218.439 178.613 218.439 178.893V180.893C218.439 181.173 218.219 181.393 217.939 181.393ZM217.939 177.383C217.659 177.383 217.439 177.163 217.439 176.883V174.883C217.439 174.603 217.659 174.383 217.939 174.383C218.219 174.383 218.439 174.603 218.439 174.883V176.883C218.439 177.163 218.219 177.383 217.939 177.383ZM217.939 173.373C217.659 173.373 217.439 173.153 217.439 172.873V170.873C217.439 170.593 217.659 170.373 217.939 170.373C218.219 170.373 218.439 170.593 218.439 170.873V172.873C218.439 173.153 218.219 173.373 217.939 173.373ZM217.939 169.363C217.659 169.363 217.439 169.143 217.439 168.863V166.863C217.439 166.583 217.659 166.363 217.939 166.363C218.219 166.363 218.439 166.583 218.439 166.863V168.863C218.439 169.143 218.219 169.363 217.939 169.363ZM217.939 165.353C217.659 165.353 217.439 165.133 217.439 164.853V162.853C217.439 162.573 217.659 162.353 217.939 162.353C218.219 162.353 218.439 162.573 218.439 162.853V164.853C218.439 165.133 218.219 165.353 217.939 165.353ZM217.939 161.343C217.659 161.343 217.439 161.123 217.439 160.843V158.843C217.439 158.563 217.659 158.343 217.939 158.343C218.219 158.343 218.439 158.563 218.439 158.843V160.843C218.439 161.123 218.219 161.343 217.939 161.343ZM217.939 157.333C217.659 157.333 217.439 157.113 217.439 156.833V154.833C217.439 154.553 217.659 154.333 217.939 154.333C218.219 154.333 218.439 154.553 218.439 154.833V156.833C218.439 157.113 218.219 157.333 217.939 157.333ZM217.939 153.323C217.659 153.323 217.439 153.103 217.439 152.823V150.823C217.439 150.543 217.659 150.323 217.939 150.323C218.219 150.323 218.439 150.543 218.439 150.823V152.823C218.439 153.103 218.219 153.323 217.939 153.323ZM217.939 149.313C217.659 149.313 217.439 149.093 217.439 148.813V146.813C217.439 146.533 217.659 146.313 217.939 146.313C218.219 146.313 218.439 146.533 218.439 146.813V148.813C218.439 149.093 218.219 149.313 217.939 149.313ZM217.939 145.303C217.659 145.303 217.439 145.083 217.439 144.803V142.803C217.439 142.523 217.659 142.303 217.939 142.303C218.219 142.303 218.439 142.523 218.439 142.803V144.803C218.439 145.083 218.219 145.303 217.939 145.303ZM217.939 141.303C217.659 141.303 217.439 141.083 217.439 140.803V138.803C217.439 138.523 217.659 138.303 217.939 138.303C218.219 138.303 218.439 138.523 218.439 138.803V140.803C218.439 141.073 218.219 141.303 217.939 141.303ZM217.939 137.293C217.659 137.293 217.439 137.073 217.439 136.793V134.793C217.439 134.513 217.659 134.293 217.939 134.293C218.219 134.293 218.439 134.513 218.439 134.793V136.793C218.439 137.063 218.219 137.293 217.939 137.293ZM217.939 133.283C217.659 133.283 217.439 133.063 217.439 132.783V130.783C217.439 130.503 217.659 130.283 217.939 130.283C218.219 130.283 218.439 130.503 218.439 130.783V132.783C218.439 133.053 218.219 133.283 217.939 133.283ZM217.939 129.273C217.659 129.273 217.439 129.053 217.439 128.773V126.773C217.439 126.493 217.659 126.273 217.939 126.273C218.219 126.273 218.439 126.493 218.439 126.773V128.773C218.439 129.043 218.219 129.273 217.939 129.273ZM217.939 125.263C217.659 125.263 217.439 125.043 217.439 124.763V122.763C217.439 122.483 217.659 122.263 217.939 122.263C218.219 122.263 218.439 122.483 218.439 122.763V124.763C218.439 125.033 218.219 125.263 217.939 125.263ZM217.939 121.253C217.659 121.253 217.439 121.033 217.439 120.753V118.753C217.439 118.473 217.659 118.253 217.939 118.253C218.219 118.253 218.439 118.473 218.439 118.753V120.753C218.439 121.023 218.219 121.253 217.939 121.253ZM217.939 117.243C217.659 117.243 217.439 117.023 217.439 116.743V114.743C217.439 114.463 217.659 114.243 217.939 114.243C218.219 114.243 218.439 114.463 218.439 114.743V116.743C218.439 117.023 218.219 117.243 217.939 117.243ZM217.939 113.233C217.659 113.233 217.439 113.013 217.439 112.733V110.733C217.439 110.453 217.659 110.233 217.939 110.233C218.219 110.233 218.439 110.453 218.439 110.733V112.733C218.439 113.013 218.219 113.233 217.939 113.233ZM217.939 109.223C217.659 109.223 217.439 109.003 217.439 108.723V106.723C217.439 106.443 217.659 106.223 217.939 106.223C218.219 106.223 218.439 106.443 218.439 106.723V108.723C218.439 109.003 218.219 109.223 217.939 109.223ZM217.939 105.213C217.659 105.213 217.439 104.993 217.439 104.713V102.713C217.439 102.433 217.659 102.213 217.939 102.213C218.219 102.213 218.439 102.433 218.439 102.713V104.713C218.439 104.993 218.219 105.213 217.939 105.213ZM217.939 101.203C217.659 101.203 217.439 100.983 217.439 100.703V98.7031C217.439 98.4231 217.659 98.2031 217.939 98.2031C218.219 98.2031 218.439 98.4231 218.439 98.7031V100.703C218.439 100.983 218.219 101.203 217.939 101.203ZM217.939 97.1931C217.659 97.1931 217.439 96.9731 217.439 96.6931V94.6931C217.439 94.4131 217.659 94.1931 217.939 94.1931C218.219 94.1931 218.439 94.4131 218.439 94.6931V96.6931C218.439 96.9731 218.219 97.1931 217.939 97.1931ZM217.939 93.1831C217.659 93.1831 217.439 92.9631 217.439 92.6831V90.6831C217.439 90.4031 217.659 90.1831 217.939 90.1831C218.219 90.1831 218.439 90.4031 218.439 90.6831V92.6831C218.439 92.9631 218.219 93.1831 217.939 93.1831ZM217.939 89.1731C217.659 89.1731 217.439 88.9531 217.439 88.6731V86.6731C217.439 86.3931 217.659 86.1731 217.939 86.1731C218.219 86.1731 218.439 86.3931 218.439 86.6731V88.6731C218.439 88.9531 218.219 89.1731 217.939 89.1731ZM217.939 85.1631C217.659 85.1631 217.439 84.9431 217.439 84.6631V82.6631C217.439 82.3831 217.659 82.1631 217.939 82.1631C218.219 82.1631 218.439 82.3831 218.439 82.6631V84.6631C218.439 84.9431 218.219 85.1631 217.939 85.1631Z" fill="#374450"/>
<path d="M218.439 184.394H216.939C216.659 184.394 216.439 184.174 216.439 183.894C216.439 183.614 216.659 183.394 216.939 183.394H217.439V182.894C217.439 182.614 217.659 182.394 217.939 182.394C218.219 182.394 218.439 182.614 218.439 182.894V184.394Z" fill="#374450"/>
<path d="M214.929 184.394H212.909C212.629 184.394 212.409 184.174 212.409 183.894C212.409 183.614 212.629 183.394 212.909 183.394H214.929C215.209 183.394 215.429 183.614 215.429 183.894C215.429 184.174 215.199 184.394 214.929 184.394ZM210.889 184.394H208.869C208.589 184.394 208.369 184.174 208.369 183.894C208.369 183.614 208.589 183.394 208.869 183.394H210.889C211.169 183.394 211.389 183.614 211.389 183.894C211.389 184.174 211.169 184.394 210.889 184.394ZM206.849 184.394H204.829C204.549 184.394 204.329 184.174 204.329 183.894C204.329 183.614 204.549 183.394 204.829 183.394H206.849C207.129 183.394 207.349 183.614 207.349 183.894C207.349 184.174 207.129 184.394 206.849 184.394ZM202.819 184.394H200.799C200.519 184.394 200.299 184.174 200.299 183.894C200.299 183.614 200.519 183.394 200.799 183.394H202.819C203.099 183.394 203.319 183.614 203.319 183.894C203.319 184.174 203.099 184.394 202.819 184.394ZM198.779 184.394H196.759C196.479 184.394 196.259 184.174 196.259 183.894C196.259 183.614 196.479 183.394 196.759 183.394H198.779C199.059 183.394 199.279 183.614 199.279 183.894C199.279 184.174 199.059 184.394 198.779 184.394ZM194.749 184.394H192.729C192.449 184.394 192.229 184.174 192.229 183.894C192.229 183.614 192.449 183.394 192.729 183.394H194.749C195.029 183.394 195.249 183.614 195.249 183.894C195.249 184.174 195.019 184.394 194.749 184.394ZM190.709 184.394H188.689C188.409 184.394 188.189 184.174 188.189 183.894C188.189 183.614 188.409 183.394 188.689 183.394H190.709C190.989 183.394 191.209 183.614 191.209 183.894C191.209 184.174 190.989 184.394 190.709 184.394ZM186.679 184.394H184.659C184.379 184.394 184.159 184.174 184.159 183.894C184.159 183.614 184.379 183.394 184.659 183.394H186.679C186.959 183.394 187.179 183.614 187.179 183.894C187.179 184.174 186.949 184.394 186.679 184.394ZM182.639 184.394H180.619C180.339 184.394 180.119 184.174 180.119 183.894C180.119 183.614 180.339 183.394 180.619 183.394H182.639C182.919 183.394 183.139 183.614 183.139 183.894C183.139 184.174 182.919 184.394 182.639 184.394ZM178.599 184.394H176.579C176.299 184.394 176.079 184.174 176.079 183.894C176.079 183.614 176.299 183.394 176.579 183.394H178.599C178.879 183.394 179.099 183.614 179.099 183.894C179.099 184.174 178.879 184.394 178.599 184.394ZM174.569 184.394H172.549C172.269 184.394 172.049 184.174 172.049 183.894C172.049 183.614 172.269 183.394 172.549 183.394H174.569C174.849 183.394 175.069 183.614 175.069 183.894C175.069 184.174 174.849 184.394 174.569 184.394ZM170.529 184.394H168.509C168.229 184.394 168.009 184.174 168.009 183.894C168.009 183.614 168.229 183.394 168.509 183.394H170.529C170.809 183.394 171.029 183.614 171.029 183.894C171.029 184.174 170.809 184.394 170.529 184.394ZM166.499 184.394H164.479C164.199 184.394 163.979 184.174 163.979 183.894C163.979 183.614 164.199 183.394 164.479 183.394H166.499C166.779 183.394 166.999 183.614 166.999 183.894C166.999 184.174 166.769 184.394 166.499 184.394ZM162.459 184.394H160.439C160.159 184.394 159.939 184.174 159.939 183.894C159.939 183.614 160.159 183.394 160.439 183.394H162.459C162.739 183.394 162.959 183.614 162.959 183.894C162.959 184.174 162.739 184.394 162.459 184.394Z" fill="#374450"/>
<path d="M158.43 184.394H157.43C157.15 184.394 156.93 184.174 156.93 183.894C156.93 183.614 157.15 183.394 157.43 183.394H158.43C158.71 183.394 158.93 183.614 158.93 183.894C158.93 184.174 158.7 184.394 158.43 184.394Z" fill="#374450"/>
<path d="M137.39 96.8831H125.05V73.1631H137.39V80.9831C137.39 81.2631 137.17 81.4831 136.89 81.4831C136.61 81.4831 136.39 81.2631 136.39 80.9831V74.1631H126.05V95.8831H136.39V83.3531C136.39 83.0731 136.61 82.8531 136.89 82.8531C137.17 82.8531 137.39 83.0731 137.39 83.3531V96.8831Z" fill="#374450"/>
<path d="M137.819 70.7432H124.609V73.6632H137.819V70.7432Z" fill="white"/>
<path d="M138.319 74.1632H124.109V70.2432H138.319V74.1632ZM125.109 73.1632H137.319V71.2432H125.109V73.1632Z" fill="#374450"/>
<path d="M131.779 82.4028C131.499 82.4028 131.279 82.1828 131.279 81.9028V77.4229C131.279 77.1429 131.499 76.9229 131.779 76.9229C132.059 76.9229 132.279 77.1429 132.279 77.4229V81.9028C132.279 82.1728 132.059 82.4028 131.779 82.4028Z" fill="#374450"/>
<path d="M155.239 205.294H52.459V109.754L103.849 69.0537L155.239 109.754V205.294Z" fill="white"/>
<path d="M103.49 148.144H52.8398V151.444H103.49V148.144Z" fill="#C9CED7"/>
<path d="M155.74 205.793H51.96V109.513L52.15 109.363L103.85 68.4131L155.74 109.513V205.793ZM52.96 204.793H154.75V110.003L103.86 69.6931L52.96 110.003V204.793Z" fill="#374450"/>
<path d="M103.85 205.793C103.57 205.793 103.35 205.573 103.35 205.293V116.543C103.35 116.263 103.57 116.043 103.85 116.043C104.13 116.043 104.35 116.263 104.35 116.543V205.293C104.35 205.573 104.13 205.793 103.85 205.793Z" fill="#374450"/>
<path d="M103.85 112.793C103.57 112.793 103.35 112.573 103.35 112.293V110.413C103.35 110.133 103.57 109.913 103.85 109.913C104.13 109.913 104.35 110.133 104.35 110.413V112.293C104.35 112.573 104.13 112.793 103.85 112.793Z" fill="#374450"/>
<path d="M103.85 104.174C103.57 104.174 103.35 103.954 103.35 103.674V69.0537C103.35 68.7737 103.57 68.5537 103.85 68.5537C104.13 68.5537 104.35 68.7737 104.35 69.0537V103.674C104.35 103.944 104.13 104.174 103.85 104.174Z" fill="#374450"/>
<path d="M52.4596 197.773H50.3096V205.293H52.4596V197.773Z" fill="white"/>
<path d="M52.9596 205.793H49.8096V197.273H52.9596V205.793ZM50.8096 204.793H51.9596V198.273H50.8096V204.793Z" fill="#374450"/>
<path d="M136.89 96.8828H71C70.72 96.8828 70.5 96.6628 70.5 96.3828C70.5 96.1028 70.72 95.8828 71 95.8828H136.89C137.17 95.8828 137.39 96.1028 137.39 96.3828C137.39 96.6628 137.16 96.8828 136.89 96.8828Z" fill="#374450"/>
<path d="M103.849 96.8835C103.719 96.8835 103.599 96.8335 103.499 96.7435L88.0194 81.6435C87.8194 81.4535 87.8194 81.1335 88.0094 80.9335C88.1994 80.7335 88.5194 80.7335 88.7194 80.9235L104.199 96.0235C104.399 96.2135 104.399 96.5335 104.209 96.7335C104.109 96.8335 103.979 96.8835 103.849 96.8835Z" fill="#374450"/>
<path d="M103.85 96.8835C103.72 96.8835 103.59 96.8335 103.49 96.7335C103.3 96.5335 103.3 96.2235 103.5 96.0235L118.98 80.9235C119.18 80.7335 119.49 80.7335 119.69 80.9335C119.88 81.1335 119.88 81.4435 119.68 81.6435L104.2 96.7435C104.1 96.8335 103.98 96.8835 103.85 96.8835Z" fill="#374450"/>
<path d="M149.3 148.144H109.92V151.444H149.3V148.144Z" fill="#C9CED7"/>
<path d="M147.93 115.813H111.3V146.173H147.93V115.813Z" fill="white"/>
<path d="M148.42 146.664H110.79V115.304H148.42V146.664ZM111.8 145.664H147.43V116.304H111.8V145.664Z" fill="#374450"/>
<path d="M146.61 117.134H112.62V144.854H146.61V117.134Z" fill="white"/>
<path d="M147.1 145.344H112.11V116.624H147.1V145.344ZM113.12 144.344H146.11V117.624H113.12V144.344Z" fill="#374450"/>
<path d="M135.27 145.303C134.99 145.303 134.77 145.083 134.77 144.803V117.193C134.77 116.913 134.99 116.693 135.27 116.693C135.55 116.693 135.77 116.913 135.77 117.193V144.803C135.77 145.083 135.55 145.303 135.27 145.303Z" fill="#374450"/>
<path d="M123.939 145.303C123.659 145.303 123.439 145.083 123.439 144.803V117.193C123.439 116.913 123.659 116.693 123.939 116.693C124.219 116.693 124.439 116.913 124.439 117.193V144.803C124.439 145.083 124.219 145.303 123.939 145.303Z" fill="#374450"/>
<path d="M114.21 127.224C114.08 127.224 113.95 127.174 113.86 127.074C113.66 126.874 113.66 126.564 113.86 126.364L118.95 121.274C119.15 121.074 119.46 121.074 119.66 121.274C119.86 121.474 119.86 121.784 119.66 121.984L114.57 127.074C114.47 127.184 114.34 127.224 114.21 127.224Z" fill="#374450"/>
<path d="M118.02 125.424C117.89 125.424 117.76 125.374 117.67 125.274C117.47 125.074 117.47 124.764 117.67 124.564L119.69 122.544C119.89 122.344 120.2 122.344 120.4 122.544C120.6 122.744 120.6 123.054 120.4 123.254L118.38 125.274C118.27 125.374 118.15 125.424 118.02 125.424Z" fill="#374450"/>
<path d="M126.689 127.224C126.559 127.224 126.429 127.174 126.339 127.074C126.139 126.874 126.139 126.564 126.339 126.364L131.429 121.274C131.629 121.074 131.939 121.074 132.139 121.274C132.339 121.474 132.339 121.784 132.139 121.984L127.049 127.074C126.949 127.184 126.819 127.224 126.689 127.224Z" fill="#374450"/>
<path d="M130.5 125.424C130.37 125.424 130.24 125.374 130.15 125.274C129.95 125.074 129.95 124.764 130.15 124.564L132.17 122.544C132.37 122.344 132.68 122.344 132.88 122.544C133.08 122.744 133.08 123.054 132.88 123.254L130.86 125.274C130.76 125.374 130.63 125.424 130.5 125.424Z" fill="#374450"/>
<path d="M139.18 127.224C139.05 127.224 138.92 127.174 138.83 127.074C138.63 126.874 138.63 126.564 138.83 126.364L143.92 121.274C144.12 121.074 144.43 121.074 144.63 121.274C144.83 121.474 144.83 121.784 144.63 121.984L139.54 127.074C139.43 127.184 139.31 127.224 139.18 127.224Z" fill="#374450"/>
<path d="M142.99 125.424C142.86 125.424 142.73 125.374 142.64 125.274C142.44 125.074 142.44 124.764 142.64 124.564L144.66 122.544C144.86 122.344 145.17 122.344 145.37 122.544C145.57 122.744 145.57 123.054 145.37 123.254L143.35 125.274C143.24 125.374 143.11 125.424 142.99 125.424Z" fill="#374450"/>
<path d="M149.8 148.644H109.42V145.664H149.8V148.644ZM110.42 147.644H148.8V146.664H110.42V147.644Z" fill="#374450"/>
<path d="M149.3 194.473H109.92V197.773H149.3V194.473Z" fill="#C9CED7"/>
<path d="M147.93 162.143H111.3V192.503H147.93V162.143Z" fill="white"/>
<path d="M148.42 192.993H110.79V161.633H148.42V192.993ZM111.8 191.993H147.43V162.633H111.8V191.993Z" fill="#374450"/>
<path d="M146.61 163.463H112.62V191.183H146.61V163.463Z" fill="white"/>
<path d="M147.1 191.673H112.11V162.953H147.1V191.673ZM113.12 190.673H146.11V163.953H113.12V190.673Z" fill="#374450"/>
<path d="M135.27 191.632C134.99 191.632 134.77 191.412 134.77 191.132V163.522C134.77 163.242 134.99 163.022 135.27 163.022C135.55 163.022 135.77 163.242 135.77 163.522V191.132C135.77 191.412 135.55 191.632 135.27 191.632Z" fill="#374450"/>
<path d="M123.939 191.632C123.659 191.632 123.439 191.412 123.439 191.132V163.522C123.439 163.242 123.659 163.022 123.939 163.022C124.219 163.022 124.439 163.242 124.439 163.522V191.132C124.439 191.412 124.219 191.632 123.939 191.632Z" fill="#374450"/>
<path d="M114.21 173.553C114.08 173.553 113.95 173.503 113.86 173.403C113.66 173.203 113.66 172.893 113.86 172.693L118.95 167.603C119.15 167.403 119.46 167.403 119.66 167.603C119.86 167.803 119.86 168.113 119.66 168.313L114.57 173.403C114.47 173.503 114.34 173.553 114.21 173.553Z" fill="#374450"/>
<path d="M118.02 171.753C117.89 171.753 117.76 171.703 117.67 171.603C117.47 171.403 117.47 171.093 117.67 170.893L119.69 168.873C119.89 168.673 120.2 168.673 120.4 168.873C120.6 169.073 120.6 169.383 120.4 169.583L118.38 171.603C118.27 171.703 118.15 171.753 118.02 171.753Z" fill="#374450"/>
<path d="M126.689 173.553C126.559 173.553 126.429 173.503 126.339 173.403C126.139 173.203 126.139 172.893 126.339 172.693L131.429 167.603C131.629 167.403 131.939 167.403 132.139 167.603C132.339 167.803 132.339 168.113 132.139 168.313L127.049 173.403C126.949 173.503 126.819 173.553 126.689 173.553Z" fill="#374450"/>
<path d="M130.5 171.753C130.37 171.753 130.24 171.703 130.15 171.603C129.95 171.403 129.95 171.093 130.15 170.893L132.17 168.873C132.37 168.673 132.68 168.673 132.88 168.873C133.08 169.073 133.08 169.383 132.88 169.583L130.86 171.603C130.76 171.703 130.63 171.753 130.5 171.753Z" fill="#374450"/>
<path d="M139.18 173.553C139.05 173.553 138.92 173.503 138.83 173.403C138.63 173.203 138.63 172.893 138.83 172.693L143.92 167.603C144.12 167.403 144.43 167.403 144.63 167.603C144.83 167.803 144.83 168.113 144.63 168.313L139.54 173.403C139.43 173.503 139.31 173.553 139.18 173.553Z" fill="#374450"/>
<path d="M142.99 171.753C142.86 171.753 142.73 171.703 142.64 171.603C142.44 171.403 142.44 171.093 142.64 170.893L144.66 168.873C144.86 168.673 145.17 168.673 145.37 168.873C145.57 169.073 145.57 169.383 145.37 169.583L143.35 171.603C143.24 171.703 143.11 171.753 142.99 171.753Z" fill="#374450"/>
<path d="M149.8 194.973H109.42V191.993H149.8V194.973ZM110.42 193.973H148.8V192.993H110.42V193.973Z" fill="#374450"/>
<path d="M173.12 125.713C172.69 125.713 172.25 125.573 171.88 125.283L103.85 71.5932L36.2399 125.033C35.3699 125.723 34.1099 125.573 33.4299 124.703C32.7399 123.833 32.8899 122.583 33.7599 121.893L103.85 66.4932L174.36 122.133C175.23 122.813 175.38 124.073 174.69 124.943C174.3 125.453 173.71 125.713 173.12 125.713Z" fill="#374450"/>
<path d="M173.12 124.713C172.9 124.713 172.68 124.643 172.5 124.503L103.85 70.3232L35.6201 124.253C35.1901 124.593 34.5601 124.523 34.2201 124.093C33.8801 123.663 33.9501 123.033 34.3801 122.693L103.85 67.7832L173.74 122.943C174.17 123.283 174.25 123.913 173.91 124.343C173.71 124.583 173.42 124.713 173.12 124.713Z" fill="#02B3AC"/>
<path d="M157.42 197.773H103.88V205.293H157.42V197.773Z" fill="white"/>
<path d="M157.93 205.793H103.39V197.273H157.93V205.793ZM104.38 204.793H156.92V198.273H104.38V204.793Z" fill="#374450"/>
<path d="M58.9798 134.563H103.85V148.143H47.5498V134.563H55.5698H58.9798Z" fill="white"/>
<path d="M104.35 148.643H47.0498V134.063H55.5698C55.8498 134.063 56.0698 134.283 56.0698 134.563C56.0698 134.843 55.8498 135.063 55.5698 135.063H48.0498V147.643H103.35V135.063H58.9798C58.6998 135.063 58.4798 134.843 58.4798 134.563C58.4798 134.283 58.6998 134.063 58.9798 134.063H104.35V148.643Z" fill="#374450"/>
<path d="M90.5593 159.963H66.2793V205.293H90.5593V159.963Z" fill="white"/>
<path d="M91.0593 205.793H65.7793V159.463H91.0593V205.793ZM66.7793 204.793H90.0593V160.463H66.7793V204.793Z" fill="#374450"/>
<path d="M88.379 162.144H68.459V205.294H88.379V162.144Z" fill="white"/>
<path d="M88.869 205.794H67.959V161.644H88.879V205.794H88.869ZM68.959 204.794H87.879V162.644H68.959V204.794Z" fill="#374450"/>
<path d="M86.9202 163.593H69.9102V182.263H86.9202V163.593Z" fill="white"/>
<path d="M87.4202 182.763H69.4102V163.093H87.4202V182.763ZM70.4102 181.763H86.4202V164.093H70.4102V181.763Z" fill="#374450"/>
<path d="M135.269 80.1533H131.779C131.499 80.1533 131.279 79.9333 131.279 79.6533C131.279 79.3733 131.499 79.1533 131.779 79.1533H135.269C135.549 79.1533 135.769 79.3733 135.769 79.6533C135.769 79.9333 135.549 80.1533 135.269 80.1533Z" fill="#374450"/>
<path d="M77.6892 185.173H69.9092V203.843H77.6892V185.173Z" fill="white"/>
<path d="M78.1892 204.333H69.4092V184.663H78.1892V204.333ZM70.4092 203.333H77.1892V185.663H70.4092V203.333Z" fill="#374450"/>
<path d="M86.9196 185.173H79.1396V203.843H86.9196V185.173Z" fill="white"/>
<path d="M87.4196 204.333H78.6396V184.663H87.4196V204.333ZM79.6396 203.333H86.4196V185.663H79.6396V203.333Z" fill="#374450"/>
<path d="M81.25 182.713C80.97 182.713 80.75 182.493 80.75 182.213V163.593C80.75 163.313 80.97 163.093 81.25 163.093C81.53 163.093 81.75 163.313 81.75 163.593V182.213C81.75 182.493 81.53 182.713 81.25 182.713Z" fill="#374450"/>
<path d="M86.9191 170.313H69.8691C69.5891 170.313 69.3691 170.093 69.3691 169.813C69.3691 169.533 69.5891 169.313 69.8691 169.313H86.9191C87.1991 169.313 87.4191 169.533 87.4191 169.813C87.4191 170.093 87.1991 170.313 86.9191 170.313Z" fill="#374450"/>
<path d="M86.9191 176.543H69.8691C69.5891 176.543 69.3691 176.323 69.3691 176.043C69.3691 175.763 69.5891 175.543 69.8691 175.543H86.9191C87.1991 175.543 87.4191 175.763 87.4191 176.043C87.4191 176.313 87.1991 176.543 86.9191 176.543Z" fill="#374450"/>
<path d="M75.5801 182.713C75.3001 182.713 75.0801 182.493 75.0801 182.213V163.593C75.0801 163.313 75.3001 163.093 75.5801 163.093C75.8601 163.093 76.0801 163.313 76.0801 163.593V182.213C76.0801 182.493 75.8601 182.713 75.5801 182.713Z" fill="#374450"/>
<path d="M164.82 205.793H33.2695C32.9895 205.793 32.7695 205.573 32.7695 205.293C32.7695 205.013 32.9895 204.793 33.2695 204.793H164.82C165.1 204.793 165.32 205.013 165.32 205.293C165.32 205.573 165.1 205.793 164.82 205.793Z" fill="#374450"/>
<path d="M44.9296 188.703C45.6796 191.833 43.3096 194.853 40.0896 194.853H36.3596H32.6396C29.4196 194.853 27.0396 191.843 27.7996 188.703L35.7196 155.753C35.8796 155.073 36.8596 155.073 37.0196 155.753L44.9296 188.703Z" fill="#02B3AC"/>
<path d="M35.7092 159.303C35.8692 158.623 36.8492 158.623 37.0092 159.303L44.7592 191.573C45.0792 190.693 45.1592 189.703 44.9192 188.703L36.9992 155.753C36.8392 155.073 35.8592 155.073 35.6992 155.753L27.7792 188.703C27.5392 189.703 27.6192 190.683 27.9392 191.573L35.7092 159.303Z" fill="white"/>
<path d="M40.0896 195.353H32.6496C30.9596 195.353 29.3896 194.593 28.3396 193.263C27.2896 191.933 26.9196 190.233 27.3196 188.593L35.2396 155.643C35.3696 155.103 35.8296 154.743 36.3796 154.743C36.9296 154.743 37.3896 155.103 37.5196 155.643L45.4396 188.593C45.8296 190.233 45.4596 191.943 44.4096 193.263C43.3496 194.593 41.7796 195.353 40.0896 195.353ZM36.3596 155.743C36.2996 155.743 36.2196 155.763 36.1996 155.873L28.2796 188.823C27.9596 190.163 28.2596 191.563 29.1196 192.643C29.9696 193.723 31.2596 194.353 32.6396 194.353H40.0796C41.4596 194.353 42.7496 193.733 43.5996 192.643C44.4496 191.563 44.7596 190.163 44.4396 188.823L36.5196 155.873C36.4996 155.773 36.4296 155.743 36.3596 155.743Z" fill="#374450"/>
<path d="M36.3594 205.583C36.0794 205.583 35.8594 205.363 35.8594 205.083V173.063C35.8594 172.783 36.0794 172.563 36.3594 172.563C36.6394 172.563 36.8594 172.783 36.8594 173.063V205.083C36.8594 205.353 36.6394 205.583 36.3594 205.583Z" fill="#374450"/>
<path d="M36.3593 184.033C36.2293 184.033 36.0993 183.983 36.0093 183.883L33.6793 181.553C33.4793 181.353 33.4793 181.043 33.6793 180.843C33.8793 180.643 34.1893 180.643 34.3893 180.843L36.7193 183.173C36.9193 183.373 36.9193 183.683 36.7193 183.883C36.6193 183.983 36.4893 184.033 36.3593 184.033Z" fill="#374450"/>
<path d="M36.3594 178.343C36.2294 178.343 36.0994 178.293 36.0094 178.193C35.8094 177.993 35.8094 177.683 36.0094 177.483L38.3194 175.173C38.5194 174.973 38.8294 174.973 39.0294 175.173C39.2294 175.373 39.2294 175.683 39.0294 175.883L36.7194 178.193C36.6194 178.293 36.4894 178.343 36.3594 178.343Z" fill="#374450"/>
<path d="M36.3594 190.393C36.2294 190.393 36.0994 190.343 36.0094 190.243C35.8094 190.043 35.8094 189.733 36.0094 189.533L40.1794 185.363C40.3794 185.163 40.6894 185.163 40.8894 185.363C41.0894 185.563 41.0894 185.873 40.8894 186.073L36.7194 190.243C36.6194 190.353 36.4894 190.393 36.3594 190.393Z" fill="#374450"/>
<path d="M39.2891 187.473C39.1591 187.473 39.0291 187.423 38.9391 187.323L37.6891 186.073C37.4891 185.873 37.4891 185.563 37.6891 185.363C37.8891 185.163 38.1991 185.163 38.3991 185.363L39.6491 186.613C39.8491 186.813 39.8491 187.123 39.6491 187.323C39.5391 187.423 39.4091 187.473 39.2891 187.473Z" fill="#374450"/>
<path d="M219.799 153.823H216.159V205.293H219.799V153.823Z" fill="#C9CED7"/>
<path d="M220.299 205.793H215.659V153.323H220.299V205.793ZM216.659 204.793H219.299V154.323H216.659V204.793Z" fill="#374450"/>
<path d="M219.799 153.823H216.159V172.533H219.799V153.823Z" fill="#374450"/>
<path d="M224.409 178.743H217.939V189.043H224.409V178.743Z" fill="white"/>
<path d="M224.909 189.553H217.439V178.253H224.909V189.553ZM218.439 188.553H223.909V179.253H218.439V188.553Z" fill="#374450"/>
<path d="M226.08 205.293H209.81V205.273C209.81 204.133 210.74 203.203 211.88 203.203H224.01C225.15 203.203 226.08 204.133 226.08 205.273V205.293Z" fill="white"/>
<path d="M226.08 205.793H209.31V205.293C209.31 203.853 210.46 202.703 211.88 202.703H224.01C225.43 202.703 226.58 203.853 226.58 205.273V205.773L226.08 205.793ZM210.38 204.793H225.5C225.3 204.163 224.7 203.703 224 203.703H211.87C211.18 203.703 210.59 204.163 210.38 204.793Z" fill="#374450"/>
<path d="M205.35 126.433H182.43L183.81 110.993H205.84L205.35 126.433Z" fill="white"/>
<path d="M205.84 126.933H181.88L183.35 110.493H206.36L205.84 126.933ZM182.97 125.933H204.86L205.32 111.493H184.26L182.97 125.933Z" fill="#374450"/>
<path d="M229.44 126.433H206.52L206.97 110.993H229L229.44 126.433Z" fill="white"/>
<path d="M229.96 126.933H206.01L206.48 110.493H229.48L229.96 126.933ZM207.03 125.933H228.92L228.5 111.493H207.44L207.03 125.933Z" fill="#374450"/>
<path d="M238.779 110.993H252.159L253.539 126.433H230.609L230.119 110.993H235.339H238.779Z" fill="white"/>
<path d="M254.079 126.933H230.129L229.609 110.493H235.339C235.619 110.493 235.839 110.713 235.839 110.993C235.839 111.273 235.619 111.493 235.339 111.493H230.639L231.099 125.933H252.989L251.699 111.493H238.779C238.499 111.493 238.279 111.273 238.279 110.993C238.279 110.713 238.499 110.493 238.779 110.493H252.619L254.079 126.933Z" fill="#374450"/>
<path d="M204.77 144.673H180.8L182.3 127.813H205.31L204.77 144.673Z" fill="white"/>
<path d="M205.26 145.173H180.25L181.85 127.313H205.83L205.26 145.173ZM181.34 144.173H204.28L204.78 128.313H182.76L181.34 144.173Z" fill="#374450"/>
<path d="M229.969 144.673H205.989L206.479 127.813H229.479L229.969 144.673Z" fill="white"/>
<path d="M230.479 145.173H205.479L205.999 127.313H229.969L230.479 145.173ZM206.509 144.173H229.46L228.999 128.313H206.969L206.509 144.173Z" fill="#374450"/>
<path d="M255.17 144.673H231.19L230.66 127.813H253.66L255.17 144.673Z" fill="white"/>
<path d="M255.71 145.173H230.7L230.13 127.313H254.11L255.71 145.173ZM231.68 144.173H254.62L253.2 128.313H231.17L231.68 144.173Z" fill="#374450"/>
<path d="M204.15 164.233H179.05L180.7 145.783H204.74L204.15 164.233Z" fill="white"/>
<path d="M204.63 164.733H178.5L180.24 145.283H205.25L204.63 164.733ZM179.59 163.733H203.66L204.21 146.283H181.14L179.59 163.733Z" fill="#374450"/>
<path d="M230.53 164.233H205.43L205.96 145.783H230L230.53 164.233Z" fill="white"/>
<path d="M231.05 164.733H204.92L205.48 145.283H230.49L231.05 164.733ZM205.95 163.733H230.02L229.52 146.283H206.45L205.95 163.733Z" fill="#374450"/>
<path d="M256.919 164.233H231.809L231.229 145.783H255.27L256.919 164.233Z" fill="white"/>
<path d="M257.46 164.733H231.33L230.71 145.283H255.72L257.46 164.733ZM232.3 163.733H256.37L254.81 146.283H231.74L232.3 163.733Z" fill="#374450"/>
<path d="M256.92 164.233H179.05V166.743H256.92V164.233Z" fill="#02B3AC"/>
<path d="M257.42 167.243H178.55V163.733H257.42V167.243ZM179.55 166.243H256.42V164.733H179.55V166.243Z" fill="#374450"/>
<path d="M233.489 54.2571C235.49 45.6727 230.153 37.0916 221.569 35.0907C212.984 33.0898 204.403 38.4268 202.402 47.0112C200.401 55.5956 205.738 64.1767 214.323 66.1776C222.907 68.1785 231.488 62.8415 233.489 54.2571Z" fill="#02B3AC"/>
<path d="M202.979 51.6231C202.979 42.8131 210.129 35.6631 218.939 35.6631C223.089 35.6631 226.859 37.2631 229.699 39.8631C226.779 36.6731 222.599 34.6631 217.939 34.6631C209.129 34.6631 201.979 41.8131 201.979 50.6231C201.979 55.2831 203.99 59.4631 207.18 62.3831C204.58 59.5531 202.979 55.7831 202.979 51.6231Z" fill="white"/>
<path d="M217.939 67.0831C208.859 67.0831 201.479 59.7031 201.479 50.6231C201.479 41.5431 208.859 34.1631 217.939 34.1631C227.019 34.1631 234.399 41.5431 234.399 50.6231C234.399 59.7031 227.019 67.0831 217.939 67.0831ZM217.939 35.1631C209.419 35.1631 202.479 42.1031 202.479 50.6231C202.479 59.1431 209.419 66.0831 217.939 66.0831C226.459 66.0831 233.399 59.1431 233.399 50.6231C233.399 42.1031 226.469 35.1631 217.939 35.1631Z" fill="#374450"/>
<path d="M82.1795 41.8529C82.1795 36.2329 77.6195 31.6729 71.9995 31.6729C66.3795 31.6729 61.8195 36.2329 61.8195 41.8529H53.5195H82.1795Z" fill="white"/>
<path d="M82.1795 42.3529C81.8995 42.3529 81.6795 42.1329 81.6795 41.8529C81.6795 36.5129 77.3395 32.1729 71.9995 32.1729C66.6595 32.1729 62.3195 36.5129 62.3195 41.8529V42.3529H53.5195C53.2395 42.3529 53.0195 42.1329 53.0195 41.8529C53.0195 41.5729 53.2395 41.3529 53.5195 41.3529H61.3295C61.5895 35.6929 66.2795 31.1729 71.9995 31.1729C77.8895 31.1729 82.6795 35.9629 82.6795 41.8529C82.6795 42.1329 82.4495 42.3529 82.1795 42.3529Z" fill="#374450"/>
<path d="M97.9293 46.9525C97.9293 41.3325 93.3693 36.7725 87.7493 36.7725C82.1293 36.7725 77.5693 41.3325 77.5693 46.9525H97.9293Z" fill="white"/>
<path d="M97.9293 47.4525C97.6493 47.4525 97.4293 47.2325 97.4293 46.9525C97.4293 41.6125 93.0893 37.2725 87.7493 37.2725C82.4093 37.2725 78.0693 41.6125 78.0693 46.9525C78.0693 47.2325 77.8493 47.4525 77.5693 47.4525C77.2893 47.4525 77.0693 47.2325 77.0693 46.9525C77.0693 41.0625 81.8593 36.2725 87.7493 36.2725C93.6393 36.2725 98.4293 41.0625 98.4293 46.9525C98.4293 47.2225 98.2093 47.4525 97.9293 47.4525Z" fill="#374450"/>
<path d="M84.3992 50.2831C84.2892 47.4631 81.9692 45.2031 79.1192 45.2031C76.2692 45.2031 73.9492 47.4631 73.8392 50.2831H68.6592H84.3992Z" fill="white"/>
<path d="M84.3992 50.7831C84.1292 50.7831 83.9092 50.5731 83.8992 50.3031C83.7992 47.7231 81.6992 45.7031 79.1192 45.7031C76.5392 45.7031 74.4392 47.7231 74.3392 50.3031L74.3192 50.7831H68.6592C68.3792 50.7831 68.1592 50.5631 68.1592 50.2831C68.1592 50.0031 68.3792 49.7831 68.6592 49.7831H73.3892C73.7392 46.8931 76.1692 44.7031 79.1292 44.7031C82.2492 44.7031 84.7892 47.1431 84.9092 50.2631C84.9192 50.5431 84.7092 50.7731 84.4292 50.7831C84.4192 50.7831 84.4092 50.7831 84.3992 50.7831Z" fill="#374450"/>
<path d="M102.25 50.0228C102.02 47.8428 100.17 46.1328 97.9297 46.1328C95.5997 46.1328 93.6997 47.9728 93.5897 50.2828H89.9297L102.25 50.0228Z" fill="white"/>
<path d="M94.0597 50.7828H89.9297C89.6497 50.7828 89.4297 50.5628 89.4297 50.2828C89.4297 50.0028 89.6497 49.7828 89.9297 49.7828H93.1297C93.4697 47.4228 95.4897 45.6328 97.9297 45.6328C100.41 45.6328 102.49 47.4928 102.75 49.9628C102.78 50.2328 102.58 50.4828 102.31 50.5128C102.03 50.5428 101.79 50.3428 101.76 50.0728C101.55 48.1128 99.9097 46.6328 97.9297 46.6328C95.8697 46.6328 94.1797 48.2428 94.0897 50.3028L94.0597 50.7828Z" fill="#374450"/>
<path d="M63.6293 47.6328H61.5693C61.2893 47.6328 61.0693 47.4128 61.0693 47.1328C61.0693 46.8528 61.2893 46.6328 61.5693 46.6328H63.6293C63.9093 46.6328 64.1293 46.8528 64.1293 47.1328C64.1293 47.4128 63.8993 47.6328 63.6293 47.6328Z" fill="#374450"/>
<path d="M71.9895 47.6328H67.0195C66.7395 47.6328 66.5195 47.4128 66.5195 47.1328C66.5195 46.8528 66.7395 46.6328 67.0195 46.6328H71.9895C72.2695 46.6328 72.4895 46.8528 72.4895 47.1328C72.4895 47.4128 72.2695 47.6328 71.9895 47.6328Z" fill="#374450"/>
<path d="M66.7792 50.7832H65.4492C65.1692 50.7832 64.9492 50.5632 64.9492 50.2832C64.9492 50.0032 65.1692 49.7832 65.4492 49.7832H66.7792C67.0592 49.7832 67.2792 50.0032 67.2792 50.2832C67.2792 50.5532 67.0492 50.7832 66.7792 50.7832Z" fill="#374450"/>
<path d="M250.92 205.793H171.06C170.78 205.793 170.56 205.573 170.56 205.293C170.56 205.013 170.78 204.793 171.06 204.793H250.92C251.2 204.793 251.42 205.013 251.42 205.293C251.42 205.573 251.2 205.793 250.92 205.793Z" fill="#374450"/>
<path d="M174.62 201.533L176.22 205.293L174.62 201.533Z" fill="white"/>
<path d="M176.21 205.793C176.02 205.793 175.83 205.683 175.75 205.493L174.15 201.733C174.04 201.483 174.16 201.183 174.42 201.073C174.67 200.963 174.97 201.083 175.08 201.343L176.68 205.103C176.79 205.353 176.67 205.653 176.41 205.763C176.35 205.783 176.28 205.793 176.21 205.793Z" fill="#374450"/>
<path d="M179.9 201.532L178.83 205.292L179.9 201.532Z" fill="white"/>
<path d="M178.82 205.793C178.77 205.793 178.73 205.783 178.68 205.773C178.41 205.693 178.26 205.423 178.34 205.153L179.41 201.393C179.49 201.123 179.76 200.973 180.03 201.053C180.3 201.133 180.45 201.403 180.37 201.673L179.3 205.433C179.24 205.653 179.04 205.793 178.82 205.793Z" fill="#374450"/>
<path d="M217.939 31.3932C217.659 31.3932 217.439 31.1732 217.439 30.8932V23.8232C217.439 23.5432 217.659 23.3232 217.939 23.3232C218.219 23.3232 218.439 23.5432 218.439 23.8232V30.8932C218.439 31.1632 218.219 31.3932 217.939 31.3932Z" fill="#374450"/>
<path d="M203.989 37.1731C203.859 37.1731 203.729 37.1231 203.639 37.0231L198.639 32.0231C198.439 31.8231 198.439 31.5131 198.639 31.3131C198.839 31.1131 199.149 31.1131 199.349 31.3131L204.349 36.3131C204.549 36.5131 204.549 36.8231 204.349 37.0231C204.249 37.1231 204.119 37.1731 203.989 37.1731Z" fill="#374450"/>
<path d="M198.21 51.123H191.14C190.86 51.123 190.64 50.903 190.64 50.623C190.64 50.343 190.86 50.123 191.14 50.123H198.21C198.49 50.123 198.71 50.343 198.71 50.623C198.71 50.903 198.49 51.123 198.21 51.123Z" fill="#374450"/>
<path d="M198.989 70.0735C198.859 70.0735 198.729 70.0235 198.639 69.9235C198.439 69.7235 198.439 69.4135 198.639 69.2135L203.639 64.2135C203.839 64.0135 204.149 64.0135 204.349 64.2135C204.549 64.4135 204.549 64.7235 204.349 64.9235L199.349 69.9235C199.249 70.0335 199.119 70.0735 198.989 70.0735Z" fill="#374450"/>
<path d="M217.939 77.9233C217.659 77.9233 217.439 77.7033 217.439 77.4233V70.3633C217.439 70.0833 217.659 69.8633 217.939 69.8633C218.219 69.8633 218.439 70.0833 218.439 70.3633V77.4233C218.439 77.7033 218.219 77.9233 217.939 77.9233Z" fill="#374450"/>
<path d="M236.899 70.0735C236.769 70.0735 236.639 70.0235 236.549 69.9235L231.549 64.9235C231.349 64.7235 231.349 64.4135 231.549 64.2135C231.749 64.0135 232.059 64.0135 232.259 64.2135L237.259 69.2135C237.459 69.4135 237.459 69.7235 237.259 69.9235C237.149 70.0335 237.019 70.0735 236.899 70.0735Z" fill="#374450"/>
<path d="M244.74 51.123H237.68C237.4 51.123 237.18 50.903 237.18 50.623C237.18 50.343 237.4 50.123 237.68 50.123H244.74C245.02 50.123 245.24 50.343 245.24 50.623C245.24 50.903 245.02 51.123 244.74 51.123Z" fill="#374450"/>
<path d="M231.899 37.1731C231.769 37.1731 231.639 37.1231 231.549 37.0231C231.349 36.8231 231.349 36.5131 231.549 36.3131L236.549 31.3131C236.749 31.1131 237.059 31.1131 237.259 31.3131C237.459 31.5131 237.459 31.8231 237.259 32.0231L232.259 37.0231C232.149 37.1231 232.029 37.1731 231.899 37.1731Z" fill="#374450"/>
<path d="M95.6192 109.423H75.6992V134.393H95.6192V109.423Z" fill="white"/>
<path d="M96.1192 134.893H75.1992V108.923H96.1192V134.893ZM76.1992 133.893H95.1192V109.923H76.1992V133.893Z" fill="#374450"/>
<path d="M93.4299 111.613H77.8799V128.933H93.4299V111.613Z" fill="white"/>
<path d="M93.9299 129.433H77.3799V111.113H93.9299V129.433ZM78.3799 128.433H92.9299V112.113H78.3799V128.433Z" fill="#374450"/>
<path d="M93.4299 130.383H77.8799V134.473H93.4299V130.383Z" fill="white"/>
<path d="M93.9299 134.973H77.3799V129.883H93.9299V134.973ZM78.3799 133.973H92.9299V130.883H78.3799V133.973Z" fill="#374450"/>
<path d="M73.7998 76.043C73.5198 76.043 73.2998 75.823 73.2998 75.543V71.793C73.2998 71.513 73.5198 71.293 73.7998 71.293C74.0798 71.293 74.2998 71.513 74.2998 71.793V75.543C74.2998 75.813 74.0798 76.043 73.7998 76.043Z" fill="#374450"/>
<path d="M75.6797 74.1631H71.9297C71.6497 74.1631 71.4297 73.9431 71.4297 73.6631C71.4297 73.3831 71.6497 73.1631 71.9297 73.1631H75.6797C75.9597 73.1631 76.1797 73.3831 76.1797 73.6631C76.1797 73.9431 75.9497 74.1631 75.6797 74.1631Z" fill="#374450"/>
<path d="M165.919 147.224C165.639 147.224 165.419 147.004 165.419 146.724V142.974C165.419 142.694 165.639 142.474 165.919 142.474C166.199 142.474 166.419 142.694 166.419 142.974V146.724C166.419 147.004 166.189 147.224 165.919 147.224Z" fill="#374450"/>
<path d="M167.789 145.344H164.039C163.759 145.344 163.539 145.124 163.539 144.844C163.539 144.564 163.759 144.344 164.039 144.344H167.789C168.069 144.344 168.289 144.564 168.289 144.844C168.289 145.124 168.069 145.344 167.789 145.344Z" fill="#374450"/>
<path d="M203.989 105.213C202.679 105.213 201.609 104.143 201.609 102.833C201.609 101.523 202.679 100.453 203.989 100.453C205.299 100.453 206.369 101.523 206.369 102.833C206.359 104.143 205.299 105.213 203.989 105.213ZM203.989 101.463C203.229 101.463 202.609 102.083 202.609 102.843C202.609 103.603 203.229 104.223 203.989 104.223C204.749 104.223 205.369 103.603 205.369 102.843C205.369 102.083 204.749 101.463 203.989 101.463Z" fill="#374450"/>
<path d="M36.3595 143.734C35.0495 143.734 33.9795 142.664 33.9795 141.354C33.9795 140.044 35.0495 138.974 36.3595 138.974C37.6695 138.974 38.7395 140.044 38.7395 141.354C38.7395 142.664 37.6695 143.734 36.3595 143.734ZM36.3595 139.984C35.5995 139.984 34.9795 140.604 34.9795 141.364C34.9795 142.124 35.5995 142.744 36.3595 142.744C37.1195 142.744 37.7395 142.124 37.7395 141.364C37.7395 140.594 37.1195 139.984 36.3595 139.984Z" fill="#374450"/>
<path d="M163.58 80.8535C163.3 80.8535 163.08 80.6335 163.08 80.3535V79.6035C163.08 79.3235 163.3 79.1035 163.58 79.1035C163.86 79.1035 164.08 79.3235 164.08 79.6035V80.3535C164.08 80.6335 163.86 80.8535 163.58 80.8535Z" fill="#374450"/>
<path d="M162.82 81.0835C162.65 81.0835 162.48 80.9935 162.39 80.8335L162.01 80.1835C161.87 79.9435 161.95 79.6435 162.19 79.5035C162.43 79.3635 162.73 79.4435 162.87 79.6835L163.25 80.3335C163.39 80.5735 163.31 80.8735 163.07 81.0135C162.99 81.0635 162.9 81.0835 162.82 81.0835Z" fill="#374450"/>
<path d="M162.27 81.6631C162.18 81.6631 162.1 81.6431 162.02 81.5931L161.37 81.2131C161.13 81.0731 161.05 80.7731 161.19 80.5331C161.33 80.2931 161.63 80.2131 161.87 80.3531L162.52 80.7331C162.76 80.8731 162.84 81.1731 162.7 81.4131C162.61 81.5731 162.44 81.6631 162.27 81.6631Z" fill="#374450"/>
<path d="M162.08 82.4434H161.33C161.05 82.4434 160.83 82.2234 160.83 81.9434C160.83 81.6634 161.05 81.4434 161.33 81.4434H162.08C162.36 81.4434 162.58 81.6634 162.58 81.9434C162.58 82.2134 162.36 82.4434 162.08 82.4434Z" fill="#374450"/>
<path d="M161.66 83.584C161.49 83.584 161.32 83.494 161.23 83.334C161.09 83.094 161.17 82.794 161.41 82.654L162.06 82.274C162.3 82.134 162.6 82.214 162.74 82.454C162.88 82.694 162.8 82.994 162.56 83.134L161.91 83.514C161.83 83.564 161.75 83.584 161.66 83.584Z" fill="#374450"/>
<path d="M162.52 84.4038C162.44 84.4038 162.35 84.3838 162.27 84.3338C162.03 84.1938 161.95 83.8938 162.09 83.6538L162.47 83.0038C162.61 82.7638 162.91 82.6838 163.15 82.8238C163.39 82.9638 163.47 83.2638 163.33 83.5038L162.95 84.1538C162.86 84.3138 162.69 84.4038 162.52 84.4038Z" fill="#374450"/>
<path d="M163.67 84.6934C163.39 84.6934 163.17 84.4734 163.17 84.1934V83.4434C163.17 83.1634 163.39 82.9434 163.67 82.9434C163.95 82.9434 164.17 83.1634 164.17 83.4434V84.1934C164.17 84.4634 163.94 84.6934 163.67 84.6934Z" fill="#374450"/>
<path d="M164.811 84.3637C164.641 84.3637 164.471 84.2737 164.381 84.1137L164.001 83.4637C163.861 83.2237 163.941 82.9237 164.181 82.7837C164.421 82.6437 164.721 82.7237 164.861 82.9637L165.241 83.6137C165.381 83.8537 165.301 84.1537 165.061 84.2937C164.981 84.3437 164.891 84.3637 164.811 84.3637Z" fill="#374450"/>
<path d="M165.63 83.5137C165.55 83.5137 165.46 83.4937 165.38 83.4437L164.73 83.0637C164.49 82.9237 164.41 82.6236 164.55 82.3836C164.69 82.1436 164.99 82.0637 165.23 82.2037L165.88 82.5837C166.12 82.7237 166.2 83.0237 166.06 83.2637C165.97 83.4237 165.8 83.5137 165.63 83.5137Z" fill="#374450"/>
<path d="M165.92 82.3535H165.17C164.89 82.3535 164.67 82.1335 164.67 81.8535C164.67 81.5735 164.89 81.3535 165.17 81.3535H165.92C166.2 81.3535 166.42 81.5735 166.42 81.8535C166.42 82.1335 166.19 82.3535 165.92 82.3535Z" fill="#374450"/>
<path d="M164.94 81.5937C164.77 81.5937 164.6 81.5037 164.51 81.3437C164.37 81.1037 164.45 80.8037 164.69 80.6637L165.34 80.2837C165.58 80.1437 165.88 80.2237 166.02 80.4637C166.16 80.7037 166.08 81.0037 165.84 81.1437L165.19 81.5237C165.11 81.5737 165.03 81.5937 164.94 81.5937Z" fill="#374450"/>
<path d="M164.36 81.0434C164.28 81.0434 164.19 81.0234 164.11 80.9734C163.87 80.8334 163.79 80.5334 163.93 80.2934L164.31 79.6434C164.45 79.4034 164.75 79.3234 164.99 79.4634C165.23 79.6034 165.31 79.9034 165.17 80.1434L164.79 80.7934C164.7 80.9534 164.53 81.0434 164.36 81.0434Z" fill="#374450"/>
</svg>
