<svg width="281" height="281" viewBox="0 0 281 281" fill="none" xmlns="http://www.w3.org/2000/svg">
<path d="M210.221 210.221C248.921 171.52 248.921 108.774 210.221 70.0738C171.52 31.3733 108.774 31.3733 70.0736 70.0738C31.373 108.774 31.373 171.52 70.0736 210.221C108.774 248.922 171.52 248.922 210.221 210.221Z" fill="#F4F5F6"/>
<path d="M234.223 205.733H43.5527C43.2727 205.733 43.0527 205.513 43.0527 205.233C43.0527 204.953 43.2727 204.733 43.5527 204.733H234.223C234.503 204.733 234.723 204.953 234.723 205.233C234.723 205.513 234.493 205.733 234.223 205.733Z" fill="#374450"/>
<path d="M126.092 160.414C125.812 160.414 125.592 160.194 125.592 159.914V156.164C125.592 155.884 125.812 155.664 126.092 155.664C126.372 155.664 126.592 155.884 126.592 156.164V159.914C126.592 160.184 126.372 160.414 126.092 160.414Z" fill="#374450"/>
<path d="M127.962 158.534H124.212C123.932 158.534 123.712 158.314 123.712 158.034C123.712 157.754 123.932 157.534 124.212 157.534H127.962C128.242 157.534 128.462 157.754 128.462 158.034C128.462 158.314 128.242 158.534 127.962 158.534Z" fill="#374450"/>
<path d="M195.552 151.814C194.242 151.814 193.172 150.744 193.172 149.434C193.172 148.124 194.242 147.054 195.552 147.054C196.862 147.054 197.932 148.124 197.932 149.434C197.922 150.744 196.862 151.814 195.552 151.814ZM195.552 148.064C194.792 148.064 194.172 148.684 194.172 149.444C194.172 150.204 194.792 150.824 195.552 150.824C196.312 150.824 196.932 150.204 196.932 149.444C196.932 148.684 196.302 148.064 195.552 148.064Z" fill="#374450"/>
<path d="M74.2316 163.064C72.9216 163.064 71.8516 161.994 71.8516 160.684C71.8516 159.374 72.9216 158.304 74.2316 158.304C75.5416 158.304 76.6115 159.374 76.6115 160.684C76.6115 161.994 75.5416 163.064 74.2316 163.064ZM74.2316 159.314C73.4716 159.314 72.8516 159.934 72.8516 160.694C72.8516 161.454 73.4716 162.074 74.2316 162.074C74.9916 162.074 75.6115 161.454 75.6115 160.694C75.6115 159.934 74.9816 159.314 74.2316 159.314Z" fill="#374450"/>
<path d="M97.4521 104.624C97.1721 104.624 96.9521 104.404 96.9521 104.124V103.374C96.9521 103.094 97.1721 102.874 97.4521 102.874C97.7321 102.874 97.9521 103.094 97.9521 103.374V104.124C97.9521 104.404 97.7321 104.624 97.4521 104.624Z" fill="#374450"/>
<path d="M96.6924 104.854C96.5224 104.854 96.3524 104.764 96.2624 104.604L95.8824 103.954C95.7424 103.714 95.8224 103.414 96.0624 103.274C96.3024 103.134 96.6024 103.214 96.7424 103.454L97.1224 104.104C97.2624 104.344 97.1824 104.644 96.9424 104.784C96.8624 104.834 96.7724 104.854 96.6924 104.854Z" fill="#374450"/>
<path d="M96.142 105.434C96.062 105.434 95.972 105.414 95.892 105.364L95.242 104.984C95.002 104.844 94.9221 104.544 95.0621 104.304C95.2021 104.064 95.502 103.984 95.742 104.124L96.392 104.504C96.632 104.644 96.7121 104.944 96.5721 105.184C96.4821 105.344 96.312 105.434 96.142 105.434Z" fill="#374450"/>
<path d="M95.9521 106.214H95.2021C94.9221 106.214 94.7021 105.994 94.7021 105.714C94.7021 105.434 94.9221 105.214 95.2021 105.214H95.9521C96.2321 105.214 96.4521 105.434 96.4521 105.714C96.4521 105.984 96.2321 106.214 95.9521 106.214Z" fill="#374450"/>
<path d="M95.5321 107.354C95.3621 107.354 95.1921 107.264 95.1021 107.104C94.9621 106.864 95.0421 106.564 95.2821 106.424L95.9321 106.044C96.1721 105.904 96.4721 105.984 96.6121 106.224C96.7521 106.464 96.6721 106.764 96.4321 106.904L95.7821 107.284C95.7021 107.324 95.6221 107.354 95.5321 107.354Z" fill="#374450"/>
<path d="M96.3817 108.174C96.3017 108.174 96.2117 108.154 96.1317 108.104C95.8917 107.964 95.8117 107.664 95.9517 107.424L96.3317 106.774C96.4717 106.534 96.7717 106.454 97.0117 106.594C97.2517 106.734 97.3317 107.034 97.1917 107.274L96.8117 107.924C96.7317 108.084 96.5617 108.174 96.3817 108.174Z" fill="#374450"/>
<path d="M97.542 108.464C97.262 108.464 97.042 108.244 97.042 107.964V107.214C97.042 106.934 97.262 106.714 97.542 106.714C97.822 106.714 98.042 106.934 98.042 107.214V107.964C98.042 108.234 97.812 108.464 97.542 108.464Z" fill="#374450"/>
<path d="M98.6826 108.134C98.5126 108.134 98.3426 108.044 98.2526 107.884L97.8726 107.234C97.7326 106.994 97.8126 106.694 98.0526 106.554C98.2926 106.414 98.5926 106.494 98.7326 106.734L99.1126 107.384C99.2526 107.624 99.1726 107.924 98.9326 108.064C98.8526 108.114 98.7626 108.134 98.6826 108.134Z" fill="#374450"/>
<path d="M99.5024 107.274C99.4224 107.274 99.3324 107.254 99.2524 107.204L98.6024 106.824C98.3624 106.684 98.2824 106.384 98.4224 106.144C98.5624 105.904 98.8624 105.824 99.1024 105.964L99.7524 106.344C99.9924 106.484 100.072 106.784 99.9324 107.024C99.8424 107.184 99.6724 107.274 99.5024 107.274Z" fill="#374450"/>
<path d="M99.792 106.124H99.042C98.762 106.124 98.542 105.904 98.542 105.624C98.542 105.344 98.762 105.124 99.042 105.124H99.792C100.072 105.124 100.292 105.344 100.292 105.624C100.292 105.904 100.062 106.124 99.792 106.124Z" fill="#374450"/>
<path d="M98.8124 105.364C98.6424 105.364 98.4724 105.274 98.3824 105.114C98.2424 104.874 98.3224 104.574 98.5624 104.434L99.2124 104.054C99.4524 103.914 99.7523 103.994 99.8923 104.234C100.032 104.474 99.9524 104.774 99.7124 104.914L99.0624 105.294C98.9824 105.344 98.8924 105.364 98.8124 105.364Z" fill="#374450"/>
<path d="M98.2323 104.814C98.1523 104.814 98.0623 104.794 97.9823 104.744C97.7423 104.604 97.6623 104.304 97.8023 104.064L98.1823 103.414C98.3223 103.174 98.6223 103.094 98.8623 103.234C99.1023 103.374 99.1823 103.674 99.0423 103.914L98.6623 104.564C98.5723 104.724 98.4023 104.814 98.2323 104.814Z" fill="#374450"/>
<path d="M86.6727 73.3639C86.6627 73.3639 86.6627 73.3639 86.6527 73.3639C85.9627 73.3339 85.2727 73.2739 84.5927 73.1839C84.3227 73.1439 84.1227 72.8939 84.1628 72.6239C84.2028 72.3539 84.4427 72.1539 84.7227 72.1939C85.3727 72.2839 86.0428 72.3339 86.7028 72.3639C86.9828 72.3739 87.1927 72.6139 87.1827 72.8839C87.1627 73.1539 86.9427 73.3639 86.6727 73.3639ZM88.7028 73.3639C88.4328 73.3639 88.2128 73.1539 88.2028 72.8839C88.1928 72.6039 88.4027 72.3739 88.6827 72.3639C89.3427 72.3339 90.0027 72.2739 90.6527 72.1839C90.9227 72.1439 91.1827 72.3439 91.2127 72.6139C91.2527 72.8839 91.0627 73.1439 90.7827 73.1739C90.1027 73.2639 89.4127 73.3239 88.7227 73.3639C88.7127 73.3639 88.7028 73.3639 88.7028 73.3639ZM82.6628 72.8339C82.6227 72.8339 82.5927 72.8339 82.5527 72.8239C81.8827 72.6739 81.2127 72.4839 80.5527 72.2739C80.2927 72.1839 80.1428 71.9039 80.2328 71.6439C80.3128 71.3839 80.6027 71.2339 80.8627 71.3239C81.4927 71.5239 82.1327 71.7039 82.7727 71.8439C83.0427 71.9039 83.2127 72.1739 83.1527 72.4439C83.0927 72.6739 82.8827 72.8339 82.6628 72.8339ZM92.7127 72.8239C92.4827 72.8239 92.2827 72.6639 92.2227 72.4339C92.1627 72.1639 92.3328 71.8939 92.6028 71.8339C93.2428 71.6839 93.8828 71.5139 94.5128 71.3039C94.7728 71.2139 95.0527 71.3639 95.1427 71.6239C95.2327 71.8839 95.0828 72.1639 94.8228 72.2539C94.1628 72.4639 93.4928 72.6539 92.8228 72.8039C92.7828 72.8139 92.7527 72.8239 92.7127 72.8239ZM78.8027 71.5839C78.7327 71.5839 78.6728 71.5739 78.6028 71.5439C77.9728 71.2739 77.3428 70.9739 76.7328 70.6439C76.4928 70.5139 76.4027 70.2139 76.5327 69.9639C76.6627 69.7239 76.9627 69.6339 77.2127 69.7639C77.7927 70.0739 78.3927 70.3639 79.0027 70.6239C79.2527 70.7339 79.3728 71.0239 79.2628 71.2839C79.1828 71.4739 79.0027 71.5839 78.8027 71.5839ZM96.5627 71.5639C96.3727 71.5639 96.1828 71.4539 96.1028 71.2639C95.9928 71.0139 96.1127 70.7139 96.3627 70.6039C96.9727 70.3439 97.5727 70.0539 98.1427 69.7439C98.3827 69.6139 98.6928 69.7039 98.8228 69.9439C98.9528 70.1839 98.8627 70.4939 98.6227 70.6239C98.0227 70.9539 97.3927 71.2539 96.7527 71.5239C96.6927 71.5539 96.6327 71.5639 96.5627 71.5639ZM75.2328 69.6639C75.1428 69.6639 75.0427 69.6339 74.9627 69.5839C74.3927 69.2039 73.8227 68.7939 73.2827 68.3639C73.0627 68.1939 73.0328 67.8739 73.2028 67.6639C73.3728 67.4439 73.6927 67.4139 73.9027 67.5839C74.4227 67.9939 74.9627 68.3839 75.5027 68.7439C75.7327 68.8939 75.7927 69.2039 75.6427 69.4339C75.5527 69.5839 75.4028 69.6639 75.2328 69.6639ZM100.123 69.6439C99.9627 69.6439 99.8028 69.5639 99.7028 69.4239C99.5528 69.1939 99.6127 68.8839 99.8427 68.7339C100.393 68.3739 100.933 67.9839 101.443 67.5639C101.663 67.3939 101.973 67.4239 102.143 67.6439C102.313 67.8639 102.283 68.1739 102.063 68.3439C101.523 68.7739 100.963 69.1839 100.393 69.5639C100.313 69.6139 100.223 69.6439 100.123 69.6439ZM72.0627 67.1439C71.9427 67.1439 71.8127 67.0939 71.7227 67.0039C71.2227 66.5339 70.7428 66.0239 70.2928 65.5139C70.1128 65.3039 70.1327 64.9939 70.3427 64.8039C70.5527 64.6239 70.8627 64.6439 71.0527 64.8539C71.4927 65.3539 71.9527 65.8339 72.4227 66.2839C72.6227 66.4739 72.6327 66.7939 72.4427 66.9939C72.3327 67.0939 72.2027 67.1439 72.0627 67.1439ZM103.293 67.1139C103.163 67.1139 103.033 67.0639 102.933 66.9639C102.743 66.7639 102.753 66.4439 102.953 66.2539C103.423 65.8039 103.893 65.3139 104.323 64.8239C104.503 64.6139 104.823 64.5939 105.033 64.7739C105.243 64.9539 105.263 65.2739 105.083 65.4839C104.633 66.0039 104.143 66.5039 103.653 66.9839C103.543 67.0639 103.413 67.1139 103.293 67.1139ZM69.3927 64.0939C69.2427 64.0939 69.0827 64.0239 68.9927 63.8839C68.5927 63.3339 68.2027 62.7439 67.8427 62.1539C67.7027 61.9139 67.7728 61.6139 68.0128 61.4639C68.2528 61.3239 68.5528 61.3939 68.7028 61.6339C69.0428 62.2039 69.4127 62.7539 69.8027 63.2839C69.9627 63.5039 69.9127 63.8239 69.6927 63.9839C69.6027 64.0639 69.5027 64.0939 69.3927 64.0939ZM105.953 64.0639C105.853 64.0639 105.743 64.0339 105.663 63.9639C105.443 63.8039 105.393 63.4839 105.553 63.2639C105.943 62.7339 106.303 62.1739 106.643 61.6139C106.783 61.3739 107.093 61.3039 107.333 61.4439C107.573 61.5839 107.643 61.8939 107.503 62.1339C107.153 62.7239 106.763 63.3039 106.363 63.8639C106.263 63.9939 106.113 64.0639 105.953 64.0639ZM67.3127 60.6239C67.1227 60.6239 66.9527 60.5239 66.8627 60.3439C66.5627 59.7239 66.2828 59.0839 66.0428 58.4439C65.9428 58.1839 66.0727 57.8939 66.3327 57.8039C66.5927 57.7139 66.8827 57.8339 66.9727 58.0939C67.2027 58.7039 67.4727 59.3239 67.7527 59.9139C67.8727 60.1639 67.7727 60.4639 67.5227 60.5839C67.4527 60.6139 67.3827 60.6239 67.3127 60.6239ZM108.033 60.5839C107.963 60.5839 107.883 60.5639 107.813 60.5339C107.563 60.4139 107.463 60.1139 107.583 59.8639C107.873 59.2739 108.133 58.6639 108.363 58.0439C108.463 57.7839 108.753 57.6539 109.003 57.7539C109.263 57.8539 109.393 58.1439 109.293 58.3939C109.053 59.0439 108.773 59.6839 108.473 60.3039C108.393 60.4839 108.223 60.5839 108.033 60.5839ZM65.8828 56.8439C65.6628 56.8439 65.4627 56.6939 65.4027 56.4739C65.2227 55.8139 65.0627 55.1339 64.9427 54.4539C64.8927 54.1839 65.0727 53.9239 65.3427 53.8739C65.6127 53.8239 65.8727 54.0039 65.9227 54.2739C66.0427 54.9239 66.1927 55.5739 66.3627 56.2039C66.4327 56.4739 66.2828 56.7439 66.0128 56.8239C65.9728 56.8339 65.9228 56.8439 65.8828 56.8439ZM109.453 56.7939C109.413 56.7939 109.363 56.7839 109.323 56.7739C109.053 56.7039 108.903 56.4239 108.973 56.1639C109.143 55.5339 109.293 54.8839 109.413 54.2339C109.463 53.9639 109.723 53.7839 109.993 53.8339C110.263 53.8839 110.443 54.1439 110.393 54.4139C110.273 55.0939 110.113 55.7739 109.933 56.4339C109.873 56.6439 109.673 56.7939 109.453 56.7939ZM65.1527 52.8539C64.8927 52.8539 64.6827 52.6539 64.6527 52.4039C64.5927 51.7239 64.5627 51.0239 64.5527 50.3339C64.5527 50.0539 64.7727 49.8339 65.0527 49.8339C65.3327 49.8339 65.5527 50.0539 65.5527 50.3339C65.5527 50.9939 65.5827 51.6639 65.6427 52.3139C65.6627 52.5939 65.4627 52.8339 65.1927 52.8539C65.1827 52.8539 65.1627 52.8539 65.1527 52.8539ZM110.173 52.8039C110.163 52.8039 110.143 52.8039 110.133 52.8039C109.853 52.7839 109.653 52.5339 109.683 52.2639C109.743 51.6139 109.773 50.9439 109.773 50.2839C109.773 50.0039 109.993 49.7339 110.273 49.7339C110.553 49.7339 110.773 49.9139 110.773 50.1839V50.2839C110.773 50.9739 110.743 51.6739 110.683 52.3539C110.653 52.6139 110.433 52.8039 110.173 52.8039ZM65.1427 48.8039C65.1327 48.8039 65.1128 48.8039 65.1028 48.8039C64.8228 48.7839 64.6227 48.5339 64.6427 48.2639C64.7027 47.5839 64.7928 46.8839 64.9128 46.2139C64.9628 45.9439 65.2127 45.7539 65.4927 45.8139C65.7627 45.8639 65.9427 46.1239 65.8927 46.3939C65.7727 47.0439 65.6928 47.7039 65.6328 48.3539C65.6228 48.6139 65.4027 48.8039 65.1427 48.8039ZM110.163 48.6639C109.903 48.6639 109.693 48.4739 109.663 48.2139C109.603 47.5639 109.513 46.9039 109.393 46.2539C109.343 45.9839 109.523 45.7239 109.793 45.6739C110.073 45.6239 110.323 45.8039 110.373 46.0739C110.493 46.7539 110.593 47.4439 110.653 48.1239C110.683 48.3939 110.473 48.6439 110.203 48.6639C110.193 48.6639 110.183 48.6639 110.163 48.6639ZM65.8528 44.8239C65.8128 44.8239 65.7627 44.8139 65.7227 44.8039C65.4527 44.7339 65.3027 44.4539 65.3727 44.1939C65.5527 43.5239 65.7728 42.8639 66.0128 42.2239C66.1128 41.9639 66.3927 41.8339 66.6527 41.9339C66.9127 42.0339 67.0427 42.3139 66.9427 42.5739C66.7127 43.1939 66.5127 43.8239 66.3327 44.4639C66.2727 44.6739 66.0728 44.8239 65.8528 44.8239ZM109.433 44.6839C109.213 44.6839 109.013 44.5439 108.953 44.3139C108.773 43.6839 108.563 43.0439 108.333 42.4339C108.233 42.1739 108.363 41.8839 108.623 41.7939C108.883 41.6939 109.173 41.8239 109.263 42.0839C109.513 42.7339 109.723 43.3939 109.913 44.0539C109.983 44.3239 109.833 44.5939 109.563 44.6739C109.523 44.6739 109.473 44.6839 109.433 44.6839ZM67.2628 41.0239C67.1928 41.0239 67.1128 41.0039 67.0428 40.9739C66.7928 40.8539 66.6927 40.5539 66.8127 40.3039C67.1127 39.6839 67.4428 39.0739 67.7928 38.4739C67.9328 38.2339 68.2428 38.1539 68.4828 38.3039C68.7228 38.4439 68.7927 38.7539 68.6527 38.9939C68.3127 39.5639 68.0027 40.1439 67.7127 40.7439C67.6327 40.9239 67.4528 41.0239 67.2628 41.0239ZM107.993 40.8939C107.803 40.8939 107.633 40.7939 107.543 40.6139C107.253 40.0239 106.933 39.4339 106.593 38.8739C106.453 38.6339 106.523 38.3339 106.763 38.1839C107.003 38.0339 107.303 38.1139 107.453 38.3539C107.813 38.9439 108.143 39.5539 108.443 40.1739C108.563 40.4239 108.463 40.7239 108.213 40.8439C108.143 40.8739 108.063 40.8939 107.993 40.8939ZM69.3427 37.5439C69.2427 37.5439 69.1427 37.5139 69.0527 37.4439C68.8327 37.2839 68.7827 36.9739 68.9427 36.7439C69.3427 36.1839 69.7828 35.6439 70.2328 35.1239C70.4128 34.9139 70.7327 34.8939 70.9427 35.0739C71.1527 35.2539 71.1727 35.5739 70.9927 35.7839C70.5627 36.2839 70.1428 36.8039 69.7628 37.3339C69.6428 37.4739 69.4927 37.5439 69.3427 37.5439ZM105.903 37.4239C105.753 37.4239 105.593 37.3539 105.503 37.2239C105.113 36.6939 104.693 36.1739 104.263 35.6839C104.083 35.4739 104.103 35.1639 104.303 34.9739C104.513 34.7939 104.823 34.8139 105.013 35.0139C105.473 35.5339 105.903 36.0739 106.313 36.6239C106.473 36.8439 106.433 37.1639 106.203 37.3239C106.103 37.3939 106.003 37.4239 105.903 37.4239ZM72.0027 34.4839C71.8727 34.4839 71.7427 34.4339 71.6427 34.3339C71.4527 34.1339 71.4627 33.8139 71.6527 33.6239C72.1527 33.1439 72.6727 32.6839 73.2127 32.2539C73.4327 32.0839 73.7428 32.1139 73.9128 32.3339C74.0828 32.5539 74.0527 32.8639 73.8327 33.0339C73.3227 33.4439 72.8227 33.8839 72.3427 34.3439C72.2527 34.4439 72.1227 34.4839 72.0027 34.4839ZM103.223 34.3839C103.103 34.3839 102.973 34.3339 102.883 34.2439C102.403 33.7939 101.903 33.3539 101.383 32.9439C101.163 32.7739 101.133 32.4539 101.303 32.2439C101.473 32.0339 101.793 31.9939 102.003 32.1639C102.543 32.5939 103.073 33.0539 103.563 33.5239C103.763 33.7139 103.773 34.0339 103.583 34.2339C103.483 34.3339 103.353 34.3839 103.223 34.3839ZM75.1628 31.9539C75.0028 31.9539 74.8427 31.8739 74.7427 31.7339C74.5927 31.5039 74.6528 31.1939 74.8828 31.0439C75.4528 30.6639 76.0527 30.3039 76.6527 29.9739C76.8927 29.8439 77.2027 29.9339 77.3327 30.1739C77.4627 30.4139 77.3728 30.7239 77.1328 30.8539C76.5528 31.1639 75.9827 31.5139 75.4327 31.8739C75.3527 31.9239 75.2528 31.9539 75.1628 31.9539ZM100.043 31.8739C99.9528 31.8739 99.8527 31.8439 99.7727 31.7939C99.2227 31.4339 98.6428 31.0939 98.0728 30.7839C97.8328 30.6539 97.7327 30.3539 97.8627 30.1039C97.9927 29.8639 98.2928 29.7739 98.5428 29.8939C99.1428 30.2139 99.7428 30.5739 100.323 30.9539C100.553 31.1039 100.613 31.4139 100.463 31.6439C100.373 31.7939 100.213 31.8739 100.043 31.8739ZM78.7127 30.0239C78.5227 30.0239 78.3327 29.9139 78.2527 29.7239C78.1427 29.4739 78.2628 29.1739 78.5128 29.0639C79.1428 28.7939 79.7928 28.5439 80.4528 28.3339C80.7228 28.2439 80.9927 28.3939 81.0827 28.6539C81.1727 28.9139 81.0228 29.1939 80.7628 29.2839C80.1328 29.4939 79.5128 29.7239 78.9128 29.9839C78.8527 30.0039 78.7827 30.0239 78.7127 30.0239ZM96.4727 29.9639C96.4027 29.9639 96.3427 29.9539 96.2727 29.9239C95.6627 29.6639 95.0427 29.4339 94.4128 29.2339C94.1528 29.1539 94.0027 28.8639 94.0927 28.6039C94.1727 28.3439 94.4527 28.1939 94.7227 28.2839C95.3827 28.4939 96.0328 28.7339 96.6628 29.0039C96.9128 29.1139 97.0327 29.4039 96.9327 29.6639C96.8527 29.8439 96.6727 29.9639 96.4727 29.9639ZM82.5627 28.7539C82.3327 28.7539 82.1328 28.5939 82.0728 28.3639C82.0128 28.0939 82.1828 27.8239 82.4528 27.7639C83.1228 27.6139 83.8127 27.4839 84.4927 27.3939C84.7627 27.3539 85.0227 27.5439 85.0527 27.8239C85.0927 28.0939 84.9027 28.3539 84.6227 28.3839C83.9727 28.4739 83.3127 28.5939 82.6727 28.7439C82.6427 28.7539 82.6027 28.7539 82.5627 28.7539ZM92.6127 28.7239C92.5727 28.7239 92.5427 28.7239 92.5027 28.7139C91.8627 28.5739 91.2027 28.4539 90.5527 28.3639C90.2827 28.3239 90.0827 28.0739 90.1227 27.8039C90.1627 27.5339 90.4127 27.3339 90.6827 27.3739C91.3627 27.4639 92.0527 27.5839 92.7227 27.7339C92.9927 27.7939 93.1628 28.0639 93.1028 28.3339C93.0528 28.5639 92.8427 28.7239 92.6127 28.7239ZM86.5728 28.2039C86.3028 28.2039 86.0828 27.9939 86.0728 27.7239C86.0628 27.4439 86.2727 27.2139 86.5527 27.2039C87.2427 27.1739 87.9327 27.1639 88.6227 27.1939C88.9027 27.2039 89.1128 27.4339 89.1028 27.7139C89.0928 27.9939 88.8627 28.2139 88.5827 28.1939C87.9227 28.1639 87.2528 28.1739 86.6028 28.2039C86.5928 28.2039 86.5828 28.2039 86.5728 28.2039Z" fill="#374450"/>
<path d="M87.6621 81.1533C87.3821 81.1533 87.1621 80.9333 87.1621 80.6533V79.6533C87.1621 79.3733 87.3821 79.1533 87.6621 79.1533C87.9421 79.1533 88.1621 79.3733 88.1621 79.6533V80.6533C88.1621 80.9333 87.9421 81.1533 87.6621 81.1533Z" fill="#374450"/>
<path d="M87.6621 181.393C87.3821 181.393 87.1621 181.173 87.1621 180.893V178.893C87.1621 178.613 87.3821 178.393 87.6621 178.393C87.9421 178.393 88.1621 178.613 88.1621 178.893V180.893C88.1621 181.173 87.9421 181.393 87.6621 181.393ZM87.6621 177.383C87.3821 177.383 87.1621 177.163 87.1621 176.883V174.883C87.1621 174.603 87.3821 174.383 87.6621 174.383C87.9421 174.383 88.1621 174.603 88.1621 174.883V176.883C88.1621 177.163 87.9421 177.383 87.6621 177.383ZM87.6621 173.373C87.3821 173.373 87.1621 173.153 87.1621 172.873V170.873C87.1621 170.593 87.3821 170.373 87.6621 170.373C87.9421 170.373 88.1621 170.593 88.1621 170.873V172.873C88.1621 173.153 87.9421 173.373 87.6621 173.373ZM87.6621 169.363C87.3821 169.363 87.1621 169.143 87.1621 168.863V166.863C87.1621 166.583 87.3821 166.363 87.6621 166.363C87.9421 166.363 88.1621 166.583 88.1621 166.863V168.863C88.1621 169.143 87.9421 169.363 87.6621 169.363ZM87.6621 165.353C87.3821 165.353 87.1621 165.133 87.1621 164.853V162.853C87.1621 162.573 87.3821 162.353 87.6621 162.353C87.9421 162.353 88.1621 162.573 88.1621 162.853V164.853C88.1621 165.133 87.9421 165.353 87.6621 165.353ZM87.6621 161.343C87.3821 161.343 87.1621 161.123 87.1621 160.843V158.843C87.1621 158.563 87.3821 158.343 87.6621 158.343C87.9421 158.343 88.1621 158.563 88.1621 158.843V160.843C88.1621 161.123 87.9421 161.343 87.6621 161.343ZM87.6621 157.333C87.3821 157.333 87.1621 157.113 87.1621 156.833V154.833C87.1621 154.553 87.3821 154.333 87.6621 154.333C87.9421 154.333 88.1621 154.553 88.1621 154.833V156.833C88.1621 157.113 87.9421 157.333 87.6621 157.333ZM87.6621 153.323C87.3821 153.323 87.1621 153.103 87.1621 152.823V150.823C87.1621 150.543 87.3821 150.323 87.6621 150.323C87.9421 150.323 88.1621 150.543 88.1621 150.823V152.823C88.1621 153.103 87.9421 153.323 87.6621 153.323ZM87.6621 149.313C87.3821 149.313 87.1621 149.093 87.1621 148.813V146.813C87.1621 146.533 87.3821 146.313 87.6621 146.313C87.9421 146.313 88.1621 146.533 88.1621 146.813V148.813C88.1621 149.093 87.9421 149.313 87.6621 149.313ZM87.6621 145.303C87.3821 145.303 87.1621 145.083 87.1621 144.803V142.803C87.1621 142.523 87.3821 142.303 87.6621 142.303C87.9421 142.303 88.1621 142.523 88.1621 142.803V144.803C88.1621 145.083 87.9421 145.303 87.6621 145.303ZM87.6621 141.303C87.3821 141.303 87.1621 141.083 87.1621 140.803V138.803C87.1621 138.523 87.3821 138.303 87.6621 138.303C87.9421 138.303 88.1621 138.523 88.1621 138.803V140.803C88.1621 141.073 87.9421 141.303 87.6621 141.303ZM87.6621 137.293C87.3821 137.293 87.1621 137.073 87.1621 136.793V134.793C87.1621 134.513 87.3821 134.293 87.6621 134.293C87.9421 134.293 88.1621 134.513 88.1621 134.793V136.793C88.1621 137.063 87.9421 137.293 87.6621 137.293ZM87.6621 133.283C87.3821 133.283 87.1621 133.063 87.1621 132.783V130.783C87.1621 130.503 87.3821 130.283 87.6621 130.283C87.9421 130.283 88.1621 130.503 88.1621 130.783V132.783C88.1621 133.053 87.9421 133.283 87.6621 133.283ZM87.6621 129.273C87.3821 129.273 87.1621 129.053 87.1621 128.773V126.773C87.1621 126.493 87.3821 126.273 87.6621 126.273C87.9421 126.273 88.1621 126.493 88.1621 126.773V128.773C88.1621 129.043 87.9421 129.273 87.6621 129.273ZM87.6621 125.263C87.3821 125.263 87.1621 125.043 87.1621 124.763V122.763C87.1621 122.483 87.3821 122.263 87.6621 122.263C87.9421 122.263 88.1621 122.483 88.1621 122.763V124.763C88.1621 125.033 87.9421 125.263 87.6621 125.263ZM87.6621 121.253C87.3821 121.253 87.1621 121.033 87.1621 120.753V118.753C87.1621 118.473 87.3821 118.253 87.6621 118.253C87.9421 118.253 88.1621 118.473 88.1621 118.753V120.753C88.1621 121.023 87.9421 121.253 87.6621 121.253ZM87.6621 117.243C87.3821 117.243 87.1621 117.023 87.1621 116.743V114.743C87.1621 114.463 87.3821 114.243 87.6621 114.243C87.9421 114.243 88.1621 114.463 88.1621 114.743V116.743C88.1621 117.023 87.9421 117.243 87.6621 117.243ZM87.6621 113.233C87.3821 113.233 87.1621 113.013 87.1621 112.733V110.733C87.1621 110.453 87.3821 110.233 87.6621 110.233C87.9421 110.233 88.1621 110.453 88.1621 110.733V112.733C88.1621 113.013 87.9421 113.233 87.6621 113.233ZM87.6621 109.223C87.3821 109.223 87.1621 109.003 87.1621 108.723V106.723C87.1621 106.443 87.3821 106.223 87.6621 106.223C87.9421 106.223 88.1621 106.443 88.1621 106.723V108.723C88.1621 109.003 87.9421 109.223 87.6621 109.223ZM87.6621 105.213C87.3821 105.213 87.1621 104.993 87.1621 104.713V102.713C87.1621 102.433 87.3821 102.213 87.6621 102.213C87.9421 102.213 88.1621 102.433 88.1621 102.713V104.713C88.1621 104.993 87.9421 105.213 87.6621 105.213ZM87.6621 101.203C87.3821 101.203 87.1621 100.983 87.1621 100.703V98.7031C87.1621 98.4231 87.3821 98.2031 87.6621 98.2031C87.9421 98.2031 88.1621 98.4231 88.1621 98.7031V100.703C88.1621 100.983 87.9421 101.203 87.6621 101.203ZM87.6621 97.1931C87.3821 97.1931 87.1621 96.9731 87.1621 96.6931V94.6931C87.1621 94.4131 87.3821 94.1931 87.6621 94.1931C87.9421 94.1931 88.1621 94.4131 88.1621 94.6931V96.6931C88.1621 96.9731 87.9421 97.1931 87.6621 97.1931ZM87.6621 93.1831C87.3821 93.1831 87.1621 92.9631 87.1621 92.6831V90.6831C87.1621 90.4031 87.3821 90.1831 87.6621 90.1831C87.9421 90.1831 88.1621 90.4031 88.1621 90.6831V92.6831C88.1621 92.9631 87.9421 93.1831 87.6621 93.1831ZM87.6621 89.1731C87.3821 89.1731 87.1621 88.9531 87.1621 88.6731V86.6731C87.1621 86.3931 87.3821 86.1731 87.6621 86.1731C87.9421 86.1731 88.1621 86.3931 88.1621 86.6731V88.6731C88.1621 88.9531 87.9421 89.1731 87.6621 89.1731ZM87.6621 85.1631C87.3821 85.1631 87.1621 84.9431 87.1621 84.6631V82.6631C87.1621 82.3831 87.3821 82.1631 87.6621 82.1631C87.9421 82.1631 88.1621 82.3831 88.1621 82.6631V84.6631C88.1621 84.9431 87.9421 85.1631 87.6621 85.1631Z" fill="#374450"/>
<path d="M88.6621 184.394H87.1621V182.894C87.1621 182.614 87.3821 182.394 87.6621 182.394C87.9421 182.394 88.1621 182.614 88.1621 182.894V183.394H88.6621C88.9421 183.394 89.1621 183.614 89.1621 183.894C89.1621 184.174 88.9421 184.394 88.6621 184.394Z" fill="#374450"/>
<path d="M145.162 184.394H143.142C142.862 184.394 142.642 184.174 142.642 183.894C142.642 183.614 142.862 183.394 143.142 183.394H145.162C145.442 183.394 145.662 183.614 145.662 183.894C145.662 184.174 145.442 184.394 145.162 184.394ZM141.122 184.394H139.102C138.822 184.394 138.602 184.174 138.602 183.894C138.602 183.614 138.822 183.394 139.102 183.394H141.122C141.402 183.394 141.622 183.614 141.622 183.894C141.622 184.174 141.402 184.394 141.122 184.394ZM137.092 184.394H135.072C134.792 184.394 134.572 184.174 134.572 183.894C134.572 183.614 134.792 183.394 135.072 183.394H137.092C137.372 183.394 137.592 183.614 137.592 183.894C137.592 184.174 137.362 184.394 137.092 184.394ZM133.052 184.394H131.032C130.752 184.394 130.532 184.174 130.532 183.894C130.532 183.614 130.752 183.394 131.032 183.394H133.052C133.332 183.394 133.552 183.614 133.552 183.894C133.552 184.174 133.332 184.394 133.052 184.394ZM129.022 184.394H127.002C126.722 184.394 126.502 184.174 126.502 183.894C126.502 183.614 126.722 183.394 127.002 183.394H129.022C129.302 183.394 129.522 183.614 129.522 183.894C129.522 184.174 129.292 184.394 129.022 184.394ZM124.982 184.394H122.962C122.682 184.394 122.462 184.174 122.462 183.894C122.462 183.614 122.682 183.394 122.962 183.394H124.982C125.262 183.394 125.482 183.614 125.482 183.894C125.482 184.174 125.262 184.394 124.982 184.394ZM120.942 184.394H118.922C118.642 184.394 118.422 184.174 118.422 183.894C118.422 183.614 118.642 183.394 118.922 183.394H120.942C121.222 183.394 121.442 183.614 121.442 183.894C121.442 184.174 121.222 184.394 120.942 184.394ZM116.912 184.394H114.892C114.612 184.394 114.392 184.174 114.392 183.894C114.392 183.614 114.612 183.394 114.892 183.394H116.912C117.192 183.394 117.412 183.614 117.412 183.894C117.412 184.174 117.192 184.394 116.912 184.394ZM112.872 184.394H110.852C110.572 184.394 110.352 184.174 110.352 183.894C110.352 183.614 110.572 183.394 110.852 183.394H112.872C113.152 183.394 113.372 183.614 113.372 183.894C113.372 184.174 113.152 184.394 112.872 184.394ZM108.842 184.394H106.822C106.542 184.394 106.322 184.174 106.322 183.894C106.322 183.614 106.542 183.394 106.822 183.394H108.842C109.122 183.394 109.342 183.614 109.342 183.894C109.342 184.174 109.112 184.394 108.842 184.394ZM104.802 184.394H102.782C102.502 184.394 102.282 184.174 102.282 183.894C102.282 183.614 102.502 183.394 102.782 183.394H104.802C105.082 183.394 105.302 183.614 105.302 183.894C105.302 184.174 105.082 184.394 104.802 184.394ZM100.772 184.394H98.7519C98.4719 184.394 98.2519 184.174 98.2519 183.894C98.2519 183.614 98.4719 183.394 98.7519 183.394H100.772C101.052 183.394 101.272 183.614 101.272 183.894C101.272 184.174 101.042 184.394 100.772 184.394ZM96.7319 184.394H94.7119C94.4319 184.394 94.2119 184.174 94.2119 183.894C94.2119 183.614 94.4319 183.394 94.7119 183.394H96.7319C97.0119 183.394 97.2319 183.614 97.2319 183.894C97.2319 184.174 97.0119 184.394 96.7319 184.394ZM92.6919 184.394H90.6719C90.3919 184.394 90.1719 184.174 90.1719 183.894C90.1719 183.614 90.3919 183.394 90.6719 183.394H92.6919C92.9719 183.394 93.1919 183.614 93.1919 183.894C93.1919 184.174 92.9719 184.394 92.6919 184.394Z" fill="#374450"/>
<path d="M148.182 184.394H147.182C146.902 184.394 146.682 184.174 146.682 183.894C146.682 183.614 146.902 183.394 147.182 183.394H148.182C148.462 183.394 148.682 183.614 148.682 183.894C148.682 184.174 148.452 184.394 148.182 184.394Z" fill="#374450"/>
<path d="M173.973 143.613C173.973 146.833 171.362 149.443 168.142 149.443C164.922 149.443 162.312 146.833 162.312 143.613C162.312 140.393 164.922 137.783 168.142 137.783C171.362 137.783 173.973 140.393 173.973 143.613Z" fill="white"/>
<path d="M168.152 149.933C164.662 149.933 161.822 147.093 161.822 143.603C161.822 140.113 164.662 137.273 168.152 137.273C171.642 137.273 174.482 140.113 174.482 143.603C174.472 147.093 171.632 149.933 168.152 149.933ZM168.152 138.283C165.212 138.283 162.822 140.673 162.822 143.613C162.822 146.553 165.212 148.943 168.152 148.943C171.092 148.943 173.482 146.553 173.482 143.613C173.482 140.673 171.082 138.283 168.152 138.283Z" fill="#374450"/>
<path d="M168.232 112.804C178.726 112.804 187.232 104.297 187.232 93.8037C187.232 83.3103 178.726 74.8037 168.232 74.8037C157.739 74.8037 149.232 83.3103 149.232 93.8037C149.232 104.297 157.739 112.804 168.232 112.804Z" fill="#02B3AC"/>
<path d="M168.232 132.614C165.152 132.614 162.252 131.914 160.072 130.654C158.172 129.554 156.972 128.104 156.652 126.524L156.522 124.784C156.332 118.524 156.292 117.044 149.012 105.294C146.792 101.724 145.622 97.6037 145.622 93.3837C145.622 80.9137 155.772 70.7637 168.242 70.7637C180.712 70.7637 190.862 80.9137 190.862 93.3837C190.862 97.6037 189.692 101.724 187.472 105.294C180.192 117.054 180.152 118.374 179.962 124.734L179.852 126.454C179.552 128.064 178.352 129.544 176.422 130.654C174.212 131.914 171.312 132.614 168.232 132.614Z" fill="white"/>
<path d="M168.232 133.114C165.072 133.114 162.082 132.394 159.822 131.084C157.812 129.924 156.512 128.334 156.162 126.614L156.022 124.804C155.832 118.634 155.792 117.174 148.592 105.544C146.322 101.894 145.122 97.6839 145.122 93.3739C145.122 80.6239 155.492 70.2539 168.242 70.2539C180.992 70.2539 191.362 80.6239 191.362 93.3739C191.362 97.6839 190.162 101.894 187.892 105.544C180.682 117.184 180.642 118.484 180.452 124.744L180.342 126.474C180.012 128.284 178.712 129.894 176.662 131.074C174.382 132.394 171.402 133.114 168.232 133.114ZM168.232 71.2639C156.042 71.2639 146.112 81.1839 146.112 93.3839C146.112 97.5039 147.262 101.534 149.432 105.034C156.782 116.894 156.822 118.404 157.012 124.764L157.142 126.484C157.422 127.854 158.552 129.204 160.312 130.224C162.422 131.444 165.232 132.114 168.222 132.114C171.212 132.114 174.022 131.444 176.132 130.224C177.922 129.194 179.052 127.824 179.322 126.364L179.432 124.704C179.622 118.244 179.662 116.904 187.022 105.034C189.192 101.534 190.342 97.5139 190.342 93.3839C190.352 81.1839 180.432 71.2639 168.232 71.2639Z" fill="#374450"/>
<path d="M168.232 131.283C173.594 131.283 177.941 128.772 177.941 125.673C177.941 122.575 173.594 120.063 168.232 120.063C162.869 120.063 158.521 122.575 158.521 125.673C158.521 128.772 162.869 131.283 168.232 131.283Z" fill="#F4F5F6"/>
<path d="M169.682 131.764C169.522 131.764 169.382 131.634 169.382 131.464V98.8936H167.092V131.324C167.092 131.484 166.962 131.624 166.792 131.624C166.632 131.624 166.492 131.494 166.492 131.324V98.8936H162.952C160.682 98.8936 158.822 97.0435 158.822 94.7635C158.822 92.4935 160.672 90.6436 162.952 90.6436C165.222 90.6436 167.072 92.4935 167.072 94.7635L167.082 98.2935H169.372V94.7635C169.372 92.4935 171.222 90.6436 173.492 90.6436C175.762 90.6436 177.612 92.4935 177.612 94.7635C177.612 97.0335 175.762 98.8936 173.492 98.8936H169.962V131.464C169.972 131.624 169.842 131.764 169.682 131.764ZM169.972 98.3036H173.502C175.452 98.3036 177.032 96.7235 177.032 94.7735C177.032 92.8235 175.452 91.2435 173.502 91.2435C171.552 91.2435 169.972 92.8235 169.972 94.7735V98.3036ZM162.962 91.2435C161.012 91.2435 159.432 92.8235 159.432 94.7735C159.432 96.7235 161.012 98.3036 162.962 98.3036H166.502L166.492 94.7735C166.492 92.8235 164.912 91.2435 162.962 91.2435Z" fill="#374450"/>
<path d="M168.233 65.4539C167.813 65.4539 167.473 65.1139 167.473 64.6939V57.2639C167.473 56.8439 167.813 56.5039 168.233 56.5039C168.653 56.5039 168.993 56.8439 168.993 57.2639V64.6939C168.993 65.1139 168.653 65.4539 168.233 65.4539Z" fill="white"/>
<path d="M168.233 65.9539C167.533 65.9539 166.973 65.3839 166.973 64.6939V57.2639C166.973 56.5639 167.543 56.0039 168.233 56.0039C168.933 56.0039 169.493 56.5739 169.493 57.2639V64.6939C169.493 65.3839 168.933 65.9539 168.233 65.9539ZM168.233 57.0039C168.093 57.0039 167.973 57.1239 167.973 57.2639V64.6939C167.973 64.9839 168.493 64.9839 168.493 64.6939V57.2639C168.493 57.1139 168.383 57.0039 168.233 57.0039Z" fill="#02B3AC"/>
<path d="M182.143 69.1842C182.013 69.1842 181.883 69.1542 181.763 69.0842C181.403 68.8742 181.273 68.4042 181.483 68.0442L185.193 61.6142C185.403 61.2542 185.873 61.1242 186.233 61.3342C186.593 61.5442 186.723 62.0142 186.513 62.3742L182.803 68.8042C182.663 69.0442 182.413 69.1842 182.143 69.1842Z" fill="white"/>
<path d="M182.142 69.6841C181.922 69.6841 181.702 69.6241 181.512 69.5141C180.912 69.1641 180.702 68.3941 181.052 67.7941L184.762 61.3641C185.092 60.7841 185.902 60.5641 186.482 60.9041C187.082 61.2541 187.292 62.0241 186.942 62.6241L183.232 69.0541C183.012 69.4341 182.592 69.6841 182.142 69.6841ZM185.862 61.7241C185.762 61.7241 185.682 61.7741 185.632 61.8541L181.922 68.2841C181.852 68.4041 181.892 68.5741 182.022 68.6441C182.142 68.7141 182.312 68.6741 182.382 68.5441L186.092 62.1141C186.162 61.9941 186.122 61.8241 185.992 61.7541C185.952 61.7341 185.912 61.7241 185.862 61.7241Z" fill="#02B3AC"/>
<path d="M192.331 79.3638C192.071 79.3638 191.811 79.2238 191.671 78.9838C191.461 78.6238 191.581 78.1538 191.951 77.9438L198.381 74.2338C198.751 74.0238 199.211 74.1438 199.421 74.5138C199.631 74.8738 199.511 75.3438 199.141 75.5538L192.711 79.2638C192.591 79.3338 192.461 79.3638 192.331 79.3638Z" fill="white"/>
<path d="M192.332 79.8635C191.882 79.8635 191.462 79.6235 191.242 79.2335C190.892 78.6335 191.102 77.8535 191.702 77.5135L198.132 73.8035C198.712 73.4635 199.522 73.6835 199.852 74.2635C200.202 74.8635 199.992 75.6435 199.392 75.9835L192.962 79.6935C192.772 79.8035 192.552 79.8635 192.332 79.8635ZM198.762 74.6235C198.712 74.6235 198.672 74.6335 198.632 74.6635L192.202 78.3735C192.082 78.4435 192.032 78.6035 192.102 78.7335C192.172 78.8535 192.332 78.9035 192.462 78.8335L198.892 75.1235C199.012 75.0535 199.062 74.8935 198.992 74.7635C198.942 74.6735 198.862 74.6235 198.762 74.6235Z" fill="#02B3AC"/>
<path d="M203.492 93.2739H196.062C195.642 93.2739 195.302 92.9339 195.302 92.5139C195.302 92.0939 195.642 91.7539 196.062 91.7539H203.492C203.912 91.7539 204.252 92.0939 204.252 92.5139C204.252 92.9339 203.912 93.2739 203.492 93.2739Z" fill="white"/>
<path d="M203.482 93.7739H196.052C195.352 93.7739 194.792 93.2039 194.792 92.5139C194.792 91.8239 195.362 91.2539 196.052 91.2539H203.482C204.182 91.2539 204.742 91.8239 204.742 92.5139C204.742 93.2039 204.182 93.7739 203.482 93.7739ZM196.062 92.2539C195.922 92.2539 195.802 92.3739 195.802 92.5139C195.802 92.6539 195.922 92.7739 196.062 92.7739H203.492C203.632 92.7739 203.752 92.6539 203.752 92.5139C203.752 92.3739 203.632 92.2539 203.492 92.2539H196.062Z" fill="#02B3AC"/>
<path d="M198.762 110.904C198.632 110.904 198.502 110.874 198.382 110.804L191.952 107.094C191.592 106.884 191.462 106.414 191.672 106.054C191.882 105.694 192.352 105.564 192.712 105.774L199.142 109.484C199.502 109.694 199.632 110.164 199.422 110.524C199.282 110.764 199.022 110.904 198.762 110.904Z" fill="white"/>
<path d="M198.762 111.404C198.542 111.404 198.322 111.344 198.132 111.234L191.702 107.524C191.102 107.174 190.892 106.404 191.242 105.804C191.582 105.224 192.382 105.004 192.972 105.344L199.402 109.054C200.002 109.404 200.212 110.174 199.862 110.774C199.632 111.164 199.212 111.404 198.762 111.404ZM192.332 106.164C192.242 106.164 192.152 106.214 192.102 106.294C192.032 106.414 192.072 106.574 192.202 106.654L198.632 110.364C198.742 110.424 198.902 110.424 198.992 110.264C199.062 110.144 199.022 109.984 198.892 109.904L192.462 106.194C192.422 106.184 192.382 106.164 192.332 106.164Z" fill="#02B3AC"/>
<path d="M137.702 110.904C137.442 110.904 137.182 110.764 137.042 110.524C136.832 110.164 136.952 109.694 137.322 109.484L143.752 105.774C144.112 105.564 144.582 105.684 144.792 106.054C145.002 106.414 144.882 106.884 144.512 107.094L138.082 110.804C137.962 110.874 137.832 110.904 137.702 110.904Z" fill="white"/>
<path d="M137.702 111.404C137.252 111.404 136.832 111.164 136.612 110.774C136.442 110.484 136.402 110.144 136.482 109.814C136.572 109.484 136.782 109.214 137.072 109.044L143.502 105.334C144.082 104.994 144.892 105.214 145.222 105.794C145.392 106.084 145.432 106.424 145.352 106.754C145.262 107.084 145.052 107.354 144.762 107.524L138.332 111.234C138.142 111.344 137.932 111.404 137.702 111.404ZM144.132 106.164C144.082 106.164 144.042 106.174 144.002 106.204L137.572 109.914C137.512 109.954 137.472 110.004 137.452 110.074C137.432 110.144 137.442 110.214 137.482 110.274C137.572 110.434 137.732 110.434 137.842 110.374L144.272 106.664C144.332 106.624 144.372 106.574 144.392 106.504C144.412 106.434 144.402 106.364 144.362 106.304C144.312 106.214 144.232 106.164 144.132 106.164Z" fill="#02B3AC"/>
<path d="M140.413 93.2739H132.983C132.563 93.2739 132.223 92.9339 132.223 92.5139C132.223 92.0939 132.563 91.7539 132.983 91.7539H140.413C140.833 91.7539 141.173 92.0939 141.173 92.5139C141.173 92.9339 140.833 93.2739 140.413 93.2739Z" fill="white"/>
<path d="M140.413 93.7739H132.983C132.283 93.7739 131.723 93.2039 131.723 92.5139C131.723 91.8239 132.293 91.2539 132.983 91.2539H140.413C141.113 91.2539 141.673 91.8239 141.673 92.5139C141.673 93.2039 141.103 93.7739 140.413 93.7739ZM132.983 92.2539C132.843 92.2539 132.723 92.3739 132.723 92.5139C132.723 92.6539 132.843 92.7739 132.983 92.7739H140.413C140.553 92.7739 140.673 92.6539 140.673 92.5139C140.673 92.3739 140.553 92.2539 140.413 92.2539H132.983Z" fill="#02B3AC"/>
<path d="M144.131 79.3636C144.001 79.3636 143.871 79.3336 143.751 79.2636L137.321 75.5536C136.961 75.3436 136.831 74.8736 137.041 74.5136C137.251 74.1536 137.721 74.0236 138.081 74.2336L144.511 77.9436C144.871 78.1536 145.001 78.6236 144.791 78.9836C144.651 79.2236 144.401 79.3636 144.131 79.3636Z" fill="white"/>
<path d="M144.132 79.8637C143.912 79.8637 143.692 79.8037 143.502 79.6937L137.072 75.9837C136.782 75.8137 136.572 75.5437 136.482 75.2137C136.392 74.8837 136.442 74.5437 136.612 74.2537C136.942 73.6737 137.752 73.4537 138.332 73.7937L144.762 77.5037C145.052 77.6737 145.262 77.9437 145.352 78.2737C145.442 78.6037 145.392 78.9437 145.222 79.2337C145.002 79.6237 144.582 79.8637 144.132 79.8637ZM137.702 74.6237C137.612 74.6237 137.522 74.6737 137.472 74.7537C137.432 74.8137 137.432 74.8837 137.442 74.9537C137.462 75.0237 137.502 75.0737 137.562 75.1137L143.992 78.8237C144.102 78.8837 144.262 78.8837 144.352 78.7337C144.392 78.6737 144.392 78.6037 144.382 78.5337C144.362 78.4637 144.322 78.4137 144.262 78.3737L137.832 74.6637C137.792 74.6437 137.752 74.6237 137.702 74.6237Z" fill="#02B3AC"/>
<path d="M154.323 69.1834C154.063 69.1834 153.803 69.0434 153.663 68.8034L149.953 62.3734C149.743 62.0134 149.863 61.5434 150.233 61.3334C150.593 61.1234 151.063 61.2434 151.273 61.6134L154.983 68.0434C155.193 68.4034 155.073 68.8734 154.703 69.0834C154.583 69.1434 154.453 69.1834 154.323 69.1834Z" fill="white"/>
<path d="M154.322 69.6833C153.872 69.6833 153.452 69.4434 153.232 69.0534L149.522 62.6233C149.352 62.3333 149.312 61.9934 149.392 61.6634C149.482 61.3334 149.692 61.0634 149.982 60.8934C150.562 60.5534 151.372 60.7733 151.702 61.3533L155.412 67.7834C155.762 68.3834 155.552 69.1634 154.952 69.5034C154.762 69.6234 154.542 69.6833 154.322 69.6833ZM150.602 61.7234C150.552 61.7234 150.512 61.7334 150.472 61.7534C150.412 61.7934 150.372 61.8434 150.352 61.9134C150.332 61.9834 150.342 62.0534 150.382 62.1134L154.092 68.5433C154.162 68.6633 154.322 68.7134 154.452 68.6434C154.572 68.5734 154.622 68.4134 154.552 68.2834L150.842 61.8533C150.792 61.7733 150.702 61.7234 150.602 61.7234Z" fill="#02B3AC"/>
<path d="M177.302 136.253H158.992C156.982 136.253 155.352 134.623 155.352 132.613V132.543C155.352 130.533 156.982 128.903 158.992 128.903H177.302C179.312 128.903 180.942 130.533 180.942 132.543V132.613C180.942 134.623 179.312 136.253 177.302 136.253Z" fill="white"/>
<path d="M177.302 136.753H158.992C156.712 136.753 154.852 134.893 154.852 132.613C154.852 130.253 156.712 128.403 158.992 128.403H177.302C179.582 128.403 181.442 130.263 181.442 132.543C181.442 134.893 179.592 136.753 177.302 136.753ZM158.992 129.403C157.262 129.403 155.852 130.813 155.852 132.543C155.852 134.353 157.262 135.753 158.992 135.753H177.302C179.032 135.753 180.442 134.343 180.442 132.613C180.442 130.803 179.032 129.403 177.302 129.403H158.992Z" fill="#374450"/>
<path d="M177.302 143.614H158.992C156.982 143.614 155.352 141.984 155.352 139.974V139.904C155.352 137.894 156.982 136.264 158.992 136.264H177.302C179.312 136.264 180.942 137.894 180.942 139.904V139.974C180.942 141.984 179.312 143.614 177.302 143.614Z" fill="white"/>
<path d="M177.302 144.114H158.992C156.712 144.114 154.852 142.254 154.852 139.974C154.852 137.614 156.712 135.764 158.992 135.764H177.302C179.582 135.764 181.442 137.624 181.442 139.904C181.442 142.254 179.592 144.114 177.302 144.114ZM158.992 136.754C157.262 136.754 155.852 138.164 155.852 139.894C155.852 141.704 157.262 143.104 158.992 143.104H177.302C179.032 143.104 180.442 141.694 180.442 139.964C180.442 138.154 179.032 136.754 177.302 136.754H158.992Z" fill="#374450"/>
<path d="M169.422 179.833C169.422 179.833 167.732 171.643 173.042 168.023C178.352 164.403 187.662 166.213 190.352 163.273C190.352 163.273 187.982 184.773 169.422 179.833Z" fill="#02B3AC"/>
<path d="M173.421 168.773C178.401 165.373 186.911 166.753 190.161 164.513C190.311 163.743 190.361 163.273 190.361 163.273C187.671 166.213 178.361 164.393 173.051 168.023C167.741 171.653 169.431 179.833 169.431 179.833C169.521 179.853 169.611 179.873 169.701 179.893C169.421 177.863 169.031 171.763 173.421 168.773Z" fill="#F4F5F6"/>
<path d="M174.653 181.074C172.973 181.074 171.173 180.824 169.293 180.324C169.113 180.274 168.973 180.124 168.933 179.944C168.863 179.594 167.243 171.384 172.763 167.614C175.613 165.664 179.533 165.234 182.983 164.854C185.983 164.524 188.823 164.214 189.993 162.934C190.143 162.774 190.373 162.724 190.573 162.814C190.773 162.904 190.883 163.114 190.863 163.324C190.833 163.504 188.733 181.074 174.653 181.074ZM169.853 179.434C171.533 179.854 173.153 180.074 174.653 180.074C185.723 180.074 188.913 168.294 189.663 164.434C188.093 165.304 185.733 165.564 183.093 165.854C179.753 166.224 175.973 166.634 173.333 168.444C168.903 171.454 169.623 177.954 169.853 179.434Z" fill="#374450"/>
<path d="M168.152 187.394C167.872 187.394 167.652 187.174 167.652 186.894C167.652 174.054 179.542 171.454 179.662 171.424C179.932 171.374 180.192 171.544 180.252 171.814C180.312 172.084 180.132 172.344 179.862 172.404C179.402 172.504 168.652 174.874 168.652 186.894C168.652 187.174 168.422 187.394 168.152 187.394Z" fill="#374450"/>
<path d="M166.211 167.994C167.101 166.354 168.591 159.484 163.731 155.784C158.861 152.084 150.401 152.694 146.201 151.554C142.761 150.614 138.891 147.414 138.891 147.414C138.891 147.414 140.711 163.414 149.091 168.704C158.421 174.594 165.321 169.634 166.211 167.994Z" fill="#02B3AC"/>
<path d="M139.242 148.794C139.242 148.794 143.112 152.004 146.552 152.934C150.752 154.074 159.222 153.464 164.082 157.164C165.552 158.284 166.432 159.684 166.932 161.154C166.572 159.214 165.652 157.254 163.722 155.794C158.852 152.094 150.392 152.704 146.192 151.564C142.752 150.624 138.882 147.424 138.882 147.424C138.882 147.424 139.212 150.344 140.252 154.094C139.502 151.014 139.242 148.794 139.242 148.794Z" fill="#F4F5F6"/>
<path d="M157.901 172.004C154.901 172.004 151.851 171.034 148.811 169.114C140.331 163.764 138.461 148.124 138.381 147.464C138.361 147.264 138.461 147.064 138.641 146.964C138.821 146.864 139.041 146.884 139.201 147.014C139.241 147.044 143.031 150.164 146.321 151.064C147.621 151.414 149.421 151.604 151.321 151.804C155.461 152.234 160.611 152.774 164.031 155.374C169.191 159.294 167.571 166.524 166.651 168.224C165.931 169.554 162.641 172.004 157.901 172.004ZM139.561 148.574C140.181 152.364 142.601 164.024 149.351 168.284C152.221 170.094 155.101 171.014 157.901 171.014C162.251 171.014 165.251 168.724 165.771 167.764C166.561 166.294 168.001 159.664 163.421 156.194C160.221 153.764 155.231 153.244 151.211 152.824C149.271 152.624 147.441 152.424 146.061 152.054C143.591 151.364 140.951 149.594 139.561 148.574Z" fill="#374450"/>
<path d="M168.142 180.574C168.132 180.574 168.132 180.574 168.122 180.574C167.842 180.564 167.632 180.334 167.642 180.054C167.642 180.004 167.822 175.304 166.182 170.524C164.582 165.854 153.262 160.324 153.152 160.274C152.902 160.154 152.802 159.854 152.922 159.604C153.042 159.354 153.342 159.254 153.592 159.374C154.072 159.604 165.402 165.134 167.132 170.204C168.832 175.164 168.652 179.894 168.642 180.094C168.632 180.364 168.402 180.574 168.142 180.574Z" fill="#374450"/>
<path d="M168.152 205.794C167.872 205.794 167.652 205.574 167.652 205.294V149.434C167.652 149.154 167.872 148.934 168.152 148.934C168.432 148.934 168.652 149.154 168.652 149.434V205.294C168.652 205.574 168.422 205.794 168.152 205.794Z" fill="#374450"/>
<path d="M157.192 162.394C157.132 162.394 157.072 162.384 157.022 162.364C156.762 162.264 156.632 161.984 156.722 161.724C157.932 158.414 156.762 156.114 156.752 156.084C156.622 155.844 156.722 155.534 156.962 155.414C157.202 155.284 157.502 155.374 157.632 155.624C157.692 155.734 159.032 158.324 157.662 162.074C157.582 162.274 157.392 162.394 157.192 162.394Z" fill="#374450"/>
<path d="M156.192 166.924C155.612 166.924 155.272 166.844 155.232 166.834C154.962 166.774 154.802 166.504 154.862 166.234C154.922 165.964 155.182 165.804 155.462 165.864C155.492 165.874 157.882 166.374 161.112 164.214C161.342 164.064 161.652 164.124 161.802 164.354C161.952 164.584 161.892 164.894 161.662 165.044C159.282 166.644 157.302 166.924 156.192 166.924Z" fill="#374450"/>
<path d="M174.962 174.494C174.722 174.494 174.512 174.324 174.472 174.074C174.042 171.464 175.492 168.504 175.552 168.384C175.672 168.134 175.972 168.034 176.222 168.154C176.472 168.274 176.572 168.574 176.452 168.824C176.442 168.854 175.082 171.614 175.462 173.914C175.502 174.184 175.322 174.444 175.052 174.484C175.022 174.494 174.992 174.494 174.962 174.494Z" fill="#374450"/>
<path d="M177.252 178.294C173.412 178.294 171.792 176.794 171.722 176.734C171.522 176.544 171.512 176.224 171.702 176.024C171.892 175.824 172.202 175.814 172.402 176.004C172.432 176.024 173.852 177.294 177.242 177.294C177.522 177.294 177.742 177.514 177.742 177.794C177.752 178.074 177.522 178.294 177.252 178.294Z" fill="#374450"/>
<path d="M94.2219 50.6238H90.2419C89.6319 50.6238 89.1719 50.0738 89.2719 49.4738L91.9619 33.9738C92.1419 32.9138 90.7319 32.3738 90.162 33.2838L80.262 49.1138C79.852 49.7638 80.3219 50.6138 81.0919 50.6138H85.072C85.682 50.6138 86.142 51.1638 86.042 51.7638L83.352 67.2638C83.172 68.3238 84.5819 68.8638 85.1519 67.9538L95.0519 52.1238C95.4619 51.4738 94.9919 50.6238 94.2219 50.6238Z" fill="#02B3AC"/>
<path d="M84.3322 68.924C83.8822 68.924 83.4521 68.724 83.1721 68.384C82.8921 68.054 82.7822 67.624 82.8622 67.184L85.5522 51.684C85.5822 51.494 85.5022 51.354 85.4422 51.294C85.3922 51.234 85.2722 51.124 85.0722 51.124H81.0922C80.5422 51.124 80.0622 50.834 79.7922 50.364C79.5222 49.884 79.5422 49.324 79.8322 48.864L89.7322 33.034C90.0122 32.594 90.4622 32.334 90.9722 32.334C91.4222 32.334 91.8522 32.534 92.1322 32.874C92.4122 33.204 92.5222 33.634 92.4422 34.074L89.7522 49.574C89.7222 49.764 89.8022 49.904 89.8622 49.964C89.9122 50.024 90.0322 50.134 90.2322 50.134H94.2122C94.7622 50.134 95.2422 50.424 95.5122 50.894C95.7822 51.374 95.7622 51.934 95.4722 52.394L85.5722 68.224C85.3022 68.674 84.8422 68.924 84.3322 68.924ZM90.9822 33.324C90.8222 33.324 90.6822 33.404 90.5922 33.554L80.6922 49.384C80.5522 49.604 80.6422 49.794 80.6822 49.874C80.7222 49.944 80.8522 50.124 81.1022 50.124H85.0822C85.5222 50.124 85.9322 50.314 86.2122 50.654C86.4922 50.994 86.6122 51.434 86.5422 51.864L83.8522 67.364C83.8222 67.514 83.8522 67.644 83.9422 67.754C84.0322 67.864 84.1922 67.934 84.3422 67.934C84.5022 67.934 84.6422 67.854 84.7322 67.704L94.6322 51.874C94.7722 51.654 94.6822 51.464 94.6422 51.384C94.6022 51.314 94.4722 51.134 94.2222 51.134H90.2422C89.8022 51.134 89.3922 50.944 89.1122 50.604C88.8322 50.264 88.7122 49.824 88.7822 49.394L91.4722 33.894C91.5022 33.744 91.4722 33.614 91.3822 33.504C91.2922 33.394 91.1422 33.324 90.9822 33.324Z" fill="#374450"/>
</svg>
