<svg width="281" height="281" viewBox="0 0 281 281" fill="none" xmlns="http://www.w3.org/2000/svg">
<path d="M210.221 210.221C248.921 171.521 248.921 108.774 210.221 70.0739C171.52 31.3733 108.774 31.3733 70.0736 70.0739C31.373 108.774 31.373 171.52 70.0736 210.221C108.774 248.922 171.52 248.922 210.221 210.221Z" fill="#F4F5F6"/>
<path d="M195.447 205.287L166.707 153.097C165.237 150.437 161.417 150.437 159.957 153.097L131.217 205.287H195.447Z" fill="white"/>
<path d="M190.237 205.417L163.937 157.667V205.417H190.237Z" fill="#F4F5F6"/>
<path d="M195.446 205.786C195.266 205.786 195.096 205.696 195.006 205.526L166.266 153.336C165.666 152.246 164.566 151.596 163.326 151.596C162.086 151.596 160.986 152.246 160.386 153.336L138.076 193.856C137.946 194.096 137.636 194.186 137.396 194.056C137.156 193.926 137.066 193.616 137.196 193.376L159.506 152.856C160.286 151.446 161.706 150.606 163.316 150.606C164.926 150.606 166.356 151.446 167.126 152.856L195.866 205.046C195.996 205.286 195.916 205.596 195.666 205.726C195.616 205.766 195.526 205.786 195.446 205.786Z" fill="#C9CED7"/>
<path d="M169.776 168.757C169.596 168.757 169.426 168.667 169.336 168.497L163.506 157.897C163.376 157.657 163.466 157.347 163.706 157.217C163.946 157.087 164.256 157.167 164.386 157.417L170.216 168.017C170.346 168.257 170.256 168.567 170.016 168.697C169.936 168.737 169.856 168.757 169.776 168.757Z" fill="#C9CED7"/>
<path d="M144.006 205.286L103.396 131.546C101.496 128.096 96.5364 128.096 94.6364 131.546L54.0264 205.286H144.006Z" fill="white"/>
<path d="M60.1066 201.967L58.2666 205.297H60.1066V201.967Z" fill="white"/>
<path d="M137.227 205.417L99.8066 137.467V205.417H137.227Z" fill="#F4F5F6"/>
<path d="M54.0259 205.787C53.9459 205.787 53.8559 205.767 53.7859 205.727C53.5459 205.597 53.4559 205.287 53.5859 205.047L94.1959 131.307C95.1759 129.527 96.9759 128.457 99.0159 128.457C101.056 128.457 102.856 129.517 103.836 131.307L142.396 201.327C142.526 201.567 142.446 201.877 142.196 202.007C141.956 202.137 141.646 202.057 141.516 201.807L102.956 131.787C102.156 130.327 100.676 129.457 99.0159 129.457C97.3559 129.457 95.8759 130.327 95.0759 131.787L54.4659 205.527C54.3759 205.697 54.2059 205.787 54.0259 205.787Z" fill="#C9CED7"/>
<path d="M107.376 151.717C107.196 151.717 107.026 151.627 106.936 151.457L99.3663 137.717C99.2363 137.477 99.3162 137.167 99.5662 137.037C99.8062 136.907 100.116 136.987 100.246 137.237L107.816 150.977C107.946 151.217 107.866 151.527 107.616 151.657C107.546 151.697 107.456 151.717 107.376 151.717Z" fill="#C9CED7"/>
<path d="M108.987 154.636C108.807 154.636 108.637 154.546 108.547 154.376L107.927 153.246C107.797 153.006 107.877 152.696 108.127 152.566C108.367 152.436 108.677 152.516 108.807 152.766L109.427 153.896C109.557 154.136 109.477 154.446 109.227 154.576C109.147 154.616 109.067 154.636 108.987 154.636Z" fill="#C9CED7"/>
<path d="M236.066 205.797H45.4062C45.1262 205.797 44.9062 205.577 44.9062 205.297C44.9062 205.017 45.1262 204.797 45.4062 204.797H236.076C236.356 204.797 236.576 205.017 236.576 205.297C236.566 205.577 236.346 205.797 236.066 205.797Z" fill="#374450"/>
<path d="M164.935 100.167H161.785V202.787H164.935V100.167Z" fill="white"/>
<path d="M165.435 203.287H161.285V99.667H165.435V203.287ZM162.285 202.287H164.435V100.667H162.285V202.287Z" fill="#374450"/>
<path d="M170.045 99.8678C170.045 98.4778 169.215 97.3178 168.115 97.0278C168.105 97.0278 168.105 97.0278 168.095 97.0278C168.095 97.0278 168.095 97.0278 168.085 97.0278C165.145 96.2778 165.135 96.2778 160.025 94.9678V104.768C165.135 103.468 165.145 103.458 168.085 102.708H168.095C168.105 102.708 168.105 102.708 168.115 102.708C169.215 102.418 170.045 101.258 170.045 99.8678Z" fill="white"/>
<path d="M159.525 105.407V94.3174L168.585 96.6574C169.755 97.1374 170.545 98.3974 170.545 99.8574C170.545 101.427 169.635 102.777 168.325 103.157L168.215 103.187L159.525 105.407ZM160.525 95.6074V104.127L167.965 102.227C168.895 101.987 169.545 100.997 169.545 99.8674C169.545 98.7374 168.895 97.7474 167.985 97.5174L160.525 95.6074Z" fill="#374450"/>
<path d="M159.835 95.147V38.207H158.715L155.535 83.387C155.535 83.387 158.275 89.137 158.335 95.157H159.835V95.147Z" fill="white"/>
<path d="M160.335 95.647H157.845V95.147C157.785 89.307 155.125 83.647 155.095 83.597L155.035 83.477L155.045 83.347L158.255 37.707H160.335V95.647ZM158.835 94.647H159.345V38.707H159.195L156.065 83.287C156.445 84.147 158.655 89.187 158.835 94.647Z" fill="#374450"/>
<path d="M156.286 100.747L114.676 129.217L115.236 130.367L149.836 111.037C149.836 111.037 152.666 105.357 157.036 102.287L156.286 100.747Z" fill="white"/>
<path d="M115.026 131.057L114.046 129.047L156.486 100.007L157.676 102.447L157.326 102.697C153.106 105.657 150.316 111.207 150.286 111.267L150.216 111.407L115.026 131.057ZM115.326 129.387L115.466 129.667L149.476 110.667C149.936 109.777 152.516 105.027 156.416 102.117L156.106 101.477L115.326 129.387Z" fill="#374450"/>
<path d="M162.155 101.588L203.765 130.058L204.325 128.908L172.905 103.058C172.905 103.058 167.335 102.998 162.905 100.048L162.155 101.588Z" fill="white"/>
<path d="M203.956 130.797L161.516 101.757L162.706 99.3174L163.186 99.6374C167.436 102.477 172.856 102.567 172.906 102.567H173.086L204.946 128.777L203.956 130.797ZM162.796 101.417L203.566 129.317L203.696 129.047L172.706 103.557C171.726 103.517 167.106 103.227 163.096 100.777L162.796 101.417Z" fill="#374450"/>
<path d="M163.366 99.8674C163.366 102.637 161.476 104.877 159.136 104.877C156.796 104.877 154.906 102.627 154.906 99.8674C154.906 97.0974 156.796 94.8574 159.136 94.8574C161.476 94.8574 163.366 97.0974 163.366 99.8674Z" fill="white"/>
<path d="M159.136 105.377C156.526 105.377 154.406 102.907 154.406 99.8674C154.406 96.8274 156.526 94.3574 159.136 94.3574C161.746 94.3574 163.866 96.8274 163.866 99.8674C163.866 102.907 161.736 105.377 159.136 105.377ZM159.136 95.3474C157.076 95.3474 155.406 97.3774 155.406 99.8574C155.406 102.347 157.076 104.367 159.136 104.367C161.196 104.367 162.866 102.337 162.866 99.8574C162.866 97.3774 161.186 95.3474 159.136 95.3474Z" fill="#374450"/>
<path d="M161.646 99.8667C161.646 101.507 160.526 102.847 159.136 102.847C157.746 102.847 156.626 101.517 156.626 99.8667C156.626 98.2267 157.746 96.8867 159.136 96.8867C160.526 96.8867 161.646 98.2167 161.646 99.8667Z" fill="#374450"/>
<path d="M159.125 96.8867H156.615V102.837H159.125V96.8867Z" fill="#374450"/>
<path d="M159.135 99.8667C159.135 101.507 158.015 102.847 156.625 102.847C155.235 102.847 154.115 101.517 154.115 99.8667C154.115 98.2267 155.235 96.8867 156.625 96.8867C158.005 96.8867 159.135 98.2167 159.135 99.8667Z" fill="white"/>
<path d="M156.615 103.337C154.955 103.337 153.605 101.777 153.605 99.8569C153.605 97.9369 154.955 96.377 156.615 96.377C158.275 96.377 159.625 97.9369 159.625 99.8569C159.635 101.777 158.275 103.337 156.615 103.337ZM156.615 97.3869C155.505 97.3869 154.605 98.497 154.605 99.867C154.605 101.237 155.505 102.347 156.615 102.347C157.725 102.347 158.625 101.237 158.625 99.867C158.635 98.497 157.725 97.3869 156.615 97.3869Z" fill="#374450"/>
<path d="M158.216 99.8666C158.216 100.917 157.496 101.757 156.616 101.757C155.736 101.757 155.016 100.907 155.016 99.8666C155.016 98.8166 155.736 97.9766 156.616 97.9766C157.506 97.9666 158.216 98.8166 158.216 99.8666Z" fill="#374450"/>
<path d="M167.506 205.287H159.136V182.027C159.136 179.737 160.996 177.887 163.286 177.887H163.366C165.656 177.887 167.516 179.747 167.516 182.027V205.287H167.506Z" fill="white"/>
<path d="M168.006 205.787H158.636V182.027C158.636 179.467 160.716 177.377 163.276 177.377C165.916 177.377 168.006 179.457 168.006 182.027V205.787ZM159.636 204.787H167.006V182.027C167.006 180.017 165.376 178.377 163.366 178.377C161.276 178.377 159.636 180.017 159.636 182.027V204.787Z" fill="#374450"/>
<path d="M161.786 185.296C161.506 185.296 161.286 185.076 161.286 184.796V183.066C161.286 182.786 161.506 182.566 161.786 182.566C162.066 182.566 162.286 182.786 162.286 183.066V184.796C162.286 185.066 162.066 185.296 161.786 185.296Z" fill="#374450"/>
<path d="M161.786 198.007C161.506 198.007 161.286 197.787 161.286 197.507V189.257C161.286 188.977 161.506 188.757 161.786 188.757C162.066 188.757 162.286 188.977 162.286 189.257V197.507C162.286 197.777 162.066 198.007 161.786 198.007Z" fill="#374450"/>
<path d="M73.6064 125.287C73.3264 125.287 73.1064 125.067 73.1064 124.787V121.037C73.1064 120.757 73.3264 120.537 73.6064 120.537C73.8864 120.537 74.1064 120.757 74.1064 121.037V124.787C74.1064 125.057 73.8764 125.287 73.6064 125.287Z" fill="#374450"/>
<path d="M75.4766 123.407H71.7266C71.4466 123.407 71.2266 123.187 71.2266 122.907C71.2266 122.627 71.4466 122.407 71.7266 122.407H75.4766C75.7566 122.407 75.9766 122.627 75.9766 122.907C75.9766 123.187 75.7566 123.407 75.4766 123.407Z" fill="#374450"/>
<path d="M184.687 93.2764C184.407 93.2764 184.187 93.0564 184.187 92.7764V89.0264C184.187 88.7464 184.407 88.5264 184.687 88.5264C184.967 88.5264 185.187 88.7464 185.187 89.0264V92.7764C185.187 93.0564 184.957 93.2764 184.687 93.2764Z" fill="#374450"/>
<path d="M186.557 91.4062H182.807C182.527 91.4062 182.307 91.1862 182.307 90.9062C182.307 90.6262 182.527 90.4062 182.807 90.4062H186.557C186.837 90.4062 187.057 90.6262 187.057 90.9062C187.057 91.1762 186.837 91.4062 186.557 91.4062Z" fill="#374450"/>
<path d="M181.066 136.027C179.756 136.027 178.687 134.957 178.687 133.647C178.687 132.337 179.756 131.267 181.066 131.267C182.376 131.267 183.446 132.337 183.446 133.647C183.436 134.967 182.376 136.027 181.066 136.027ZM181.066 132.277C180.306 132.277 179.687 132.897 179.687 133.657C179.687 134.417 180.306 135.037 181.066 135.037C181.826 135.037 182.446 134.417 182.446 133.657C182.446 132.897 181.826 132.277 181.066 132.277Z" fill="#374450"/>
<path d="M128.456 97.3372C127.146 97.3372 126.076 96.2672 126.076 94.9572C126.076 93.6472 127.146 92.5771 128.456 92.5771C129.766 92.5771 130.836 93.6472 130.836 94.9572C130.836 96.2672 129.766 97.3372 128.456 97.3372ZM128.456 93.5872C127.696 93.5872 127.076 94.2071 127.076 94.9671C127.076 95.7271 127.696 96.3472 128.456 96.3472C129.216 96.3472 129.836 95.7271 129.836 94.9671C129.836 94.2071 129.216 93.5872 128.456 93.5872Z" fill="#374450"/>
<path d="M139.887 158.917C139.607 158.917 139.387 158.697 139.387 158.417V157.667C139.387 157.387 139.607 157.167 139.887 157.167C140.167 157.167 140.387 157.387 140.387 157.667V158.417C140.387 158.687 140.167 158.917 139.887 158.917Z" fill="#374450"/>
<path d="M139.127 159.137C138.957 159.137 138.787 159.047 138.697 158.887L138.317 158.237C138.177 157.997 138.257 157.697 138.497 157.557C138.737 157.417 139.037 157.497 139.177 157.737L139.557 158.387C139.697 158.627 139.617 158.927 139.377 159.067C139.297 159.117 139.207 159.137 139.127 159.137Z" fill="#374450"/>
<path d="M138.577 159.717C138.487 159.717 138.407 159.697 138.327 159.647L137.677 159.267C137.437 159.127 137.357 158.827 137.497 158.587C137.637 158.347 137.947 158.267 138.177 158.407L138.827 158.787C139.067 158.927 139.147 159.227 139.007 159.467C138.917 159.627 138.747 159.717 138.577 159.717Z" fill="#374450"/>
<path d="M138.387 160.497H137.637C137.357 160.497 137.137 160.277 137.137 159.997C137.137 159.717 137.357 159.497 137.637 159.497H138.387C138.667 159.497 138.887 159.717 138.887 159.997C138.887 160.277 138.667 160.497 138.387 160.497Z" fill="#374450"/>
<path d="M137.967 161.637C137.797 161.637 137.627 161.547 137.537 161.387C137.397 161.147 137.477 160.847 137.717 160.707L138.367 160.327C138.607 160.187 138.917 160.267 139.047 160.507C139.187 160.747 139.107 161.047 138.867 161.187L138.217 161.567C138.137 161.617 138.047 161.637 137.967 161.637Z" fill="#374450"/>
<path d="M138.817 162.457C138.737 162.457 138.647 162.436 138.567 162.386C138.327 162.246 138.247 161.947 138.387 161.707L138.767 161.057C138.907 160.817 139.207 160.737 139.447 160.877C139.687 161.017 139.767 161.317 139.627 161.557L139.247 162.207C139.157 162.367 138.997 162.457 138.817 162.457Z" fill="#374450"/>
<path d="M139.967 162.747C139.687 162.747 139.467 162.527 139.467 162.247V161.497C139.467 161.217 139.687 160.997 139.967 160.997C140.247 160.997 140.467 161.217 140.467 161.497V162.247C140.467 162.527 140.247 162.747 139.967 162.747Z" fill="#374450"/>
<path d="M141.117 162.417C140.947 162.417 140.777 162.327 140.687 162.167L140.307 161.517C140.167 161.277 140.247 160.977 140.487 160.837C140.727 160.697 141.037 160.777 141.167 161.017L141.547 161.667C141.687 161.907 141.607 162.207 141.367 162.347C141.287 162.397 141.197 162.417 141.117 162.417Z" fill="#374450"/>
<path d="M141.936 161.567C141.856 161.567 141.766 161.547 141.686 161.497L141.036 161.117C140.796 160.977 140.716 160.677 140.856 160.437C140.996 160.197 141.296 160.117 141.536 160.257L142.186 160.637C142.426 160.777 142.506 161.077 142.366 161.317C142.276 161.477 142.106 161.567 141.936 161.567Z" fill="#374450"/>
<path d="M142.217 160.417H141.467C141.187 160.417 140.967 160.197 140.967 159.917C140.967 159.637 141.187 159.417 141.467 159.417H142.217C142.497 159.417 142.717 159.637 142.717 159.917C142.717 160.187 142.497 160.417 142.217 160.417Z" fill="#374450"/>
<path d="M141.247 159.647C141.077 159.647 140.907 159.557 140.817 159.397C140.677 159.157 140.757 158.857 140.997 158.717L141.647 158.337C141.887 158.197 142.187 158.277 142.327 158.517C142.467 158.757 142.387 159.057 142.147 159.197L141.497 159.577C141.417 159.627 141.327 159.647 141.247 159.647Z" fill="#374450"/>
<path d="M140.667 159.097C140.587 159.097 140.497 159.077 140.417 159.027C140.177 158.887 140.097 158.587 140.237 158.347L140.617 157.697C140.757 157.457 141.057 157.377 141.297 157.517C141.537 157.657 141.617 157.957 141.477 158.197L141.097 158.847C141.007 159.007 140.837 159.097 140.667 159.097Z" fill="#374450"/>
<path d="M100.526 66.2471C109.341 66.2471 116.486 59.1016 116.486 50.2871C116.486 41.4727 109.341 34.3271 100.526 34.3271C91.712 34.3271 84.5664 41.4727 84.5664 50.2871C84.5664 59.1016 91.712 66.2471 100.526 66.2471Z" fill="#02B3AC"/>
<path d="M85.5664 51.2871C85.5664 42.4771 92.7164 35.3271 101.526 35.3271C105.676 35.3271 109.446 36.9271 112.286 39.5271C109.366 36.3371 105.186 34.3271 100.526 34.3271C91.7164 34.3271 84.5664 41.4771 84.5664 50.2871C84.5664 54.9471 86.5764 59.1271 89.7664 62.0471C87.1664 59.2071 85.5664 55.4371 85.5664 51.2871Z" fill="white"/>
<path d="M100.526 66.7471C91.4464 66.7471 84.0664 59.3671 84.0664 50.2871C84.0664 41.2071 91.4464 33.8271 100.526 33.8271C109.606 33.8271 116.986 41.2071 116.986 50.2871C116.986 59.3671 109.596 66.7471 100.526 66.7471ZM100.526 34.8271C92.0064 34.8271 85.0664 41.7571 85.0664 50.2871C85.0664 58.8071 91.9964 65.7471 100.526 65.7471C109.046 65.7471 115.986 58.8171 115.986 50.2871C115.986 41.7571 109.046 34.8271 100.526 34.8271Z" fill="#374450"/>
<path d="M100.946 81.1572C100.666 81.1572 100.446 80.9372 100.446 80.6572V79.6572C100.446 79.3772 100.666 79.1572 100.946 79.1572C101.226 79.1572 101.446 79.3772 101.446 79.6572V80.6572C101.446 80.9372 101.226 81.1572 100.946 81.1572Z" fill="#374450"/>
<path d="M100.946 181.397C100.666 181.397 100.446 181.177 100.446 180.897V178.897C100.446 178.617 100.666 178.397 100.946 178.397C101.226 178.397 101.446 178.617 101.446 178.897V180.897C101.446 181.177 101.226 181.397 100.946 181.397ZM100.946 177.387C100.666 177.387 100.446 177.167 100.446 176.887V174.887C100.446 174.607 100.666 174.387 100.946 174.387C101.226 174.387 101.446 174.607 101.446 174.887V176.887C101.446 177.167 101.226 177.387 100.946 177.387ZM100.946 173.377C100.666 173.377 100.446 173.157 100.446 172.877V170.877C100.446 170.597 100.666 170.377 100.946 170.377C101.226 170.377 101.446 170.597 101.446 170.877V172.877C101.446 173.157 101.226 173.377 100.946 173.377ZM100.946 169.367C100.666 169.367 100.446 169.147 100.446 168.867V166.867C100.446 166.587 100.666 166.367 100.946 166.367C101.226 166.367 101.446 166.587 101.446 166.867V168.867C101.446 169.147 101.226 169.367 100.946 169.367ZM100.946 165.357C100.666 165.357 100.446 165.137 100.446 164.857V162.857C100.446 162.577 100.666 162.357 100.946 162.357C101.226 162.357 101.446 162.577 101.446 162.857V164.857C101.446 165.137 101.226 165.357 100.946 165.357ZM100.946 161.347C100.666 161.347 100.446 161.127 100.446 160.847V158.847C100.446 158.567 100.666 158.347 100.946 158.347C101.226 158.347 101.446 158.567 101.446 158.847V160.847C101.446 161.127 101.226 161.347 100.946 161.347ZM100.946 157.337C100.666 157.337 100.446 157.117 100.446 156.837V154.837C100.446 154.557 100.666 154.337 100.946 154.337C101.226 154.337 101.446 154.557 101.446 154.837V156.837C101.446 157.117 101.226 157.337 100.946 157.337ZM100.946 153.327C100.666 153.327 100.446 153.107 100.446 152.827V150.827C100.446 150.547 100.666 150.327 100.946 150.327C101.226 150.327 101.446 150.547 101.446 150.827V152.827C101.446 153.107 101.226 153.327 100.946 153.327ZM100.946 149.317C100.666 149.317 100.446 149.097 100.446 148.817V146.817C100.446 146.537 100.666 146.317 100.946 146.317C101.226 146.317 101.446 146.537 101.446 146.817V148.817C101.446 149.097 101.226 149.317 100.946 149.317ZM100.946 145.307C100.666 145.307 100.446 145.087 100.446 144.807V142.807C100.446 142.527 100.666 142.307 100.946 142.307C101.226 142.307 101.446 142.527 101.446 142.807V144.807C101.446 145.087 101.226 145.307 100.946 145.307ZM100.946 141.307C100.666 141.307 100.446 141.087 100.446 140.807V138.807C100.446 138.527 100.666 138.307 100.946 138.307C101.226 138.307 101.446 138.527 101.446 138.807V140.807C101.446 141.077 101.226 141.307 100.946 141.307ZM100.946 137.297C100.666 137.297 100.446 137.077 100.446 136.797V134.797C100.446 134.517 100.666 134.297 100.946 134.297C101.226 134.297 101.446 134.517 101.446 134.797V136.797C101.446 137.067 101.226 137.297 100.946 137.297ZM100.946 133.287C100.666 133.287 100.446 133.067 100.446 132.787V130.787C100.446 130.507 100.666 130.287 100.946 130.287C101.226 130.287 101.446 130.507 101.446 130.787V132.787C101.446 133.057 101.226 133.287 100.946 133.287ZM100.946 129.277C100.666 129.277 100.446 129.057 100.446 128.777V126.777C100.446 126.497 100.666 126.277 100.946 126.277C101.226 126.277 101.446 126.497 101.446 126.777V128.777C101.446 129.047 101.226 129.277 100.946 129.277ZM100.946 125.267C100.666 125.267 100.446 125.047 100.446 124.767V122.767C100.446 122.487 100.666 122.267 100.946 122.267C101.226 122.267 101.446 122.487 101.446 122.767V124.767C101.446 125.037 101.226 125.267 100.946 125.267ZM100.946 121.257C100.666 121.257 100.446 121.037 100.446 120.757V118.757C100.446 118.477 100.666 118.257 100.946 118.257C101.226 118.257 101.446 118.477 101.446 118.757V120.757C101.446 121.027 101.226 121.257 100.946 121.257ZM100.946 117.247C100.666 117.247 100.446 117.027 100.446 116.747V114.747C100.446 114.467 100.666 114.247 100.946 114.247C101.226 114.247 101.446 114.467 101.446 114.747V116.747C101.446 117.027 101.226 117.247 100.946 117.247ZM100.946 113.237C100.666 113.237 100.446 113.017 100.446 112.737V110.737C100.446 110.457 100.666 110.237 100.946 110.237C101.226 110.237 101.446 110.457 101.446 110.737V112.737C101.446 113.017 101.226 113.237 100.946 113.237ZM100.946 109.227C100.666 109.227 100.446 109.007 100.446 108.727V106.727C100.446 106.447 100.666 106.227 100.946 106.227C101.226 106.227 101.446 106.447 101.446 106.727V108.727C101.446 109.007 101.226 109.227 100.946 109.227ZM100.946 105.217C100.666 105.217 100.446 104.997 100.446 104.717V102.717C100.446 102.437 100.666 102.217 100.946 102.217C101.226 102.217 101.446 102.437 101.446 102.717V104.717C101.446 104.997 101.226 105.217 100.946 105.217ZM100.946 101.207C100.666 101.207 100.446 100.987 100.446 100.707V98.707C100.446 98.427 100.666 98.207 100.946 98.207C101.226 98.207 101.446 98.427 101.446 98.707V100.707C101.446 100.987 101.226 101.207 100.946 101.207ZM100.946 97.197C100.666 97.197 100.446 96.977 100.446 96.697V94.697C100.446 94.417 100.666 94.197 100.946 94.197C101.226 94.197 101.446 94.417 101.446 94.697V96.697C101.446 96.977 101.226 97.197 100.946 97.197ZM100.946 93.187C100.666 93.187 100.446 92.967 100.446 92.687V90.687C100.446 90.407 100.666 90.187 100.946 90.187C101.226 90.187 101.446 90.407 101.446 90.687V92.687C101.446 92.967 101.226 93.187 100.946 93.187ZM100.946 89.177C100.666 89.177 100.446 88.957 100.446 88.677V86.677C100.446 86.397 100.666 86.177 100.946 86.177C101.226 86.177 101.446 86.397 101.446 86.677V88.677C101.446 88.957 101.226 89.177 100.946 89.177ZM100.946 85.167C100.666 85.167 100.446 84.947 100.446 84.667V82.667C100.446 82.387 100.666 82.167 100.946 82.167C101.226 82.167 101.446 82.387 101.446 82.667V84.667C101.446 84.947 101.226 85.167 100.946 85.167Z" fill="#374450"/>
<path d="M101.946 184.397H100.446V182.897C100.446 182.617 100.666 182.397 100.946 182.397C101.226 182.397 101.446 182.617 101.446 182.897V183.397H101.946C102.226 183.397 102.446 183.617 102.446 183.897C102.446 184.177 102.226 184.397 101.946 184.397Z" fill="#374450"/>
<path d="M158.447 184.397H156.427C156.147 184.397 155.927 184.177 155.927 183.897C155.927 183.617 156.147 183.397 156.427 183.397H158.447C158.727 183.397 158.947 183.617 158.947 183.897C158.947 184.177 158.727 184.397 158.447 184.397ZM154.417 184.397H152.397C152.117 184.397 151.897 184.177 151.897 183.897C151.897 183.617 152.117 183.397 152.397 183.397H154.417C154.697 183.397 154.917 183.617 154.917 183.897C154.917 184.177 154.687 184.397 154.417 184.397ZM150.377 184.397H148.357C148.077 184.397 147.857 184.177 147.857 183.897C147.857 183.617 148.077 183.397 148.357 183.397H150.377C150.657 183.397 150.877 183.617 150.877 183.897C150.877 184.177 150.657 184.397 150.377 184.397ZM146.347 184.397H144.327C144.047 184.397 143.827 184.177 143.827 183.897C143.827 183.617 144.047 183.397 144.327 183.397H146.347C146.627 183.397 146.847 183.617 146.847 183.897C146.847 184.177 146.617 184.397 146.347 184.397ZM142.307 184.397H140.287C140.007 184.397 139.787 184.177 139.787 183.897C139.787 183.617 140.007 183.397 140.287 183.397H142.307C142.587 183.397 142.807 183.617 142.807 183.897C142.807 184.177 142.587 184.397 142.307 184.397ZM138.277 184.397H136.257C135.977 184.397 135.757 184.177 135.757 183.897C135.757 183.617 135.977 183.397 136.257 183.397H138.277C138.557 183.397 138.777 183.617 138.777 183.897C138.777 184.177 138.547 184.397 138.277 184.397ZM134.237 184.397H132.217C131.937 184.397 131.717 184.177 131.717 183.897C131.717 183.617 131.937 183.397 132.217 183.397H134.237C134.517 183.397 134.737 183.617 134.737 183.897C134.737 184.177 134.517 184.397 134.237 184.397ZM130.197 184.397H128.177C127.897 184.397 127.677 184.177 127.677 183.897C127.677 183.617 127.897 183.397 128.177 183.397H130.197C130.477 183.397 130.697 183.617 130.697 183.897C130.697 184.177 130.477 184.397 130.197 184.397ZM126.167 184.397H124.147C123.867 184.397 123.647 184.177 123.647 183.897C123.647 183.617 123.867 183.397 124.147 183.397H126.167C126.447 183.397 126.667 183.617 126.667 183.897C126.667 184.177 126.437 184.397 126.167 184.397ZM122.127 184.397H120.107C119.827 184.397 119.607 184.177 119.607 183.897C119.607 183.617 119.827 183.397 120.107 183.397H122.127C122.407 183.397 122.627 183.617 122.627 183.897C122.627 184.177 122.407 184.397 122.127 184.397ZM118.097 184.397H116.077C115.797 184.397 115.577 184.177 115.577 183.897C115.577 183.617 115.797 183.397 116.077 183.397H118.097C118.377 183.397 118.597 183.617 118.597 183.897C118.597 184.177 118.367 184.397 118.097 184.397ZM114.057 184.397H112.037C111.757 184.397 111.537 184.177 111.537 183.897C111.537 183.617 111.757 183.397 112.037 183.397H114.057C114.337 183.397 114.557 183.617 114.557 183.897C114.557 184.177 114.337 184.397 114.057 184.397ZM110.027 184.397H108.007C107.727 184.397 107.507 184.177 107.507 183.897C107.507 183.617 107.727 183.397 108.007 183.397H110.027C110.307 183.397 110.527 183.617 110.527 183.897C110.527 184.177 110.297 184.397 110.027 184.397ZM105.987 184.397H103.967C103.687 184.397 103.467 184.177 103.467 183.897C103.467 183.617 103.687 183.397 103.967 183.397H105.987C106.267 183.397 106.487 183.617 106.487 183.897C106.487 184.177 106.267 184.397 105.987 184.397Z" fill="#374450"/>
<path d="M161.467 184.397H160.467C160.187 184.397 159.967 184.177 159.967 183.897C159.967 183.617 160.187 183.397 160.467 183.397H161.467C161.747 183.397 161.967 183.617 161.967 183.897C161.967 184.177 161.747 184.397 161.467 184.397Z" fill="#374450"/>
<path d="M191.487 192.197C192.087 194.687 190.197 197.077 187.637 197.077H184.677H181.717C179.157 197.077 177.267 194.687 177.867 192.197L184.157 166.027C184.287 165.487 185.057 165.487 185.187 166.027L191.487 192.197Z" fill="#02B3AC"/>
<path d="M184.167 168.837C184.297 168.297 185.067 168.297 185.197 168.837L191.357 194.477C191.617 193.777 191.677 192.997 191.487 192.197L185.197 166.027C185.067 165.487 184.297 165.487 184.167 166.027L177.877 192.197C177.687 192.987 177.747 193.777 178.007 194.477L184.167 168.837Z" fill="white"/>
<path d="M187.637 197.587H181.727C180.357 197.587 179.077 196.967 178.227 195.887C177.377 194.807 177.077 193.427 177.397 192.087L183.687 165.917C183.797 165.447 184.207 165.127 184.687 165.127C185.177 165.127 185.577 165.447 185.687 165.917L191.977 192.087C192.297 193.427 191.997 194.807 191.147 195.887C190.287 196.967 189.017 197.587 187.637 197.587ZM184.717 166.147L178.367 192.317C178.117 193.357 178.357 194.427 179.017 195.267C179.677 196.107 180.667 196.587 181.737 196.587H187.647C188.717 196.587 189.707 196.107 190.367 195.267C191.027 194.427 191.257 193.357 191.017 192.317L184.717 166.147Z" fill="#374450"/>
<path d="M184.687 205.707C184.407 205.707 184.187 205.487 184.187 205.207V179.767C184.187 179.487 184.407 179.267 184.687 179.267C184.967 179.267 185.187 179.487 185.187 179.767V205.207C185.187 205.487 184.957 205.707 184.687 205.707Z" fill="#374450"/>
<path d="M184.686 188.587C184.556 188.587 184.426 188.537 184.336 188.437L182.486 186.587C182.286 186.387 182.286 186.077 182.486 185.877C182.686 185.677 182.996 185.677 183.196 185.877L185.046 187.727C185.246 187.927 185.246 188.237 185.046 188.437C184.936 188.537 184.806 188.587 184.686 188.587Z" fill="#374450"/>
<path d="M184.687 184.067C184.557 184.067 184.427 184.017 184.337 183.917C184.137 183.717 184.137 183.407 184.337 183.207L186.177 181.367C186.377 181.167 186.687 181.167 186.887 181.367C187.087 181.567 187.087 181.877 186.887 182.077L185.047 183.917C184.937 184.017 184.807 184.067 184.687 184.067Z" fill="#374450"/>
<path d="M184.687 193.647C184.557 193.647 184.427 193.597 184.337 193.497C184.137 193.297 184.137 192.987 184.337 192.787L187.647 189.477C187.847 189.277 188.157 189.277 188.357 189.477C188.557 189.677 188.557 189.987 188.357 190.187L185.047 193.497C184.937 193.597 184.807 193.647 184.687 193.647Z" fill="#374450"/>
<path d="M187.007 191.327C186.877 191.327 186.747 191.277 186.657 191.177L185.667 190.187C185.467 189.987 185.467 189.677 185.667 189.477C185.867 189.277 186.177 189.277 186.377 189.477L187.367 190.467C187.567 190.667 187.567 190.977 187.367 191.177C187.257 191.277 187.127 191.327 187.007 191.327Z" fill="#374450"/>
<path d="M219.436 185.856C220.326 189.576 217.506 193.156 213.686 193.156H209.266H204.846C201.016 193.156 198.196 189.576 199.096 185.856L208.496 146.736C208.686 145.926 209.846 145.926 210.036 146.736L219.436 185.856Z" fill="#02B3AC"/>
<path d="M208.496 150.936C208.686 150.126 209.846 150.126 210.036 150.936L219.246 189.256C219.626 188.206 219.726 187.036 219.436 185.856L210.036 146.736C209.846 145.926 208.686 145.926 208.496 146.736L199.096 185.856C198.816 187.046 198.906 188.216 199.286 189.256L208.496 150.936Z" fill="white"/>
<path d="M213.686 193.657H204.846C202.866 193.657 201.036 192.767 199.806 191.217C198.586 189.667 198.146 187.667 198.606 185.747L208.006 146.627C208.146 146.037 208.656 145.637 209.266 145.637C209.876 145.637 210.386 146.037 210.526 146.627L219.926 185.747C220.386 187.667 219.946 189.667 218.726 191.217C217.496 192.757 215.666 193.657 213.686 193.657ZM209.266 146.627C209.196 146.627 209.026 146.647 208.976 146.857L199.576 185.977C199.186 187.597 199.556 189.287 200.586 190.597C201.616 191.907 203.166 192.657 204.836 192.657H213.676C215.346 192.657 216.896 191.907 217.926 190.597C218.956 189.287 219.326 187.607 218.936 185.977L209.536 146.857C209.506 146.647 209.336 146.627 209.266 146.627Z" fill="#374450"/>
<path d="M209.266 205.796C208.986 205.796 208.766 205.576 208.766 205.296V167.276C208.766 166.996 208.986 166.776 209.266 166.776C209.546 166.776 209.766 166.996 209.766 167.276V205.296C209.766 205.576 209.546 205.796 209.266 205.796Z" fill="#374450"/>
<path d="M209.266 180.217C209.136 180.217 209.006 180.167 208.916 180.067L206.146 177.297C205.946 177.097 205.946 176.787 206.146 176.587C206.346 176.387 206.656 176.387 206.856 176.587L209.626 179.357C209.826 179.557 209.826 179.867 209.626 180.067C209.526 180.167 209.396 180.217 209.266 180.217Z" fill="#374450"/>
<path d="M209.266 173.456C209.136 173.456 209.006 173.406 208.916 173.306C208.716 173.106 208.716 172.796 208.916 172.596L211.666 169.846C211.866 169.646 212.176 169.646 212.376 169.846C212.576 170.046 212.576 170.356 212.376 170.556L209.626 173.306C209.526 173.406 209.396 173.456 209.266 173.456Z" fill="#374450"/>
<path d="M209.266 187.767C209.136 187.767 209.006 187.717 208.916 187.617C208.716 187.417 208.716 187.107 208.916 186.907L213.866 181.957C214.066 181.757 214.376 181.757 214.576 181.957C214.776 182.157 214.776 182.467 214.576 182.667L209.626 187.617C209.526 187.717 209.396 187.767 209.266 187.767Z" fill="#374450"/>
<path d="M212.736 184.297C212.606 184.297 212.476 184.247 212.386 184.147L210.906 182.667C210.706 182.467 210.706 182.157 210.906 181.957C211.106 181.757 211.416 181.757 211.616 181.957L213.096 183.437C213.296 183.637 213.296 183.947 213.096 184.147C212.996 184.247 212.866 184.297 212.736 184.297Z" fill="#374450"/>
<path d="M99.9559 73.3668C99.9459 73.3668 99.946 73.3668 99.936 73.3668C99.246 73.3368 98.5559 73.2768 97.8759 73.1868C97.6059 73.1468 97.4059 72.8968 97.4459 72.6268C97.4859 72.3568 97.7359 72.1568 98.0059 72.1968C98.6559 72.2868 99.326 72.3368 99.986 72.3668C100.266 72.3768 100.476 72.6168 100.466 72.8868C100.446 73.1568 100.226 73.3668 99.9559 73.3668ZM101.986 73.3668C101.716 73.3668 101.496 73.1568 101.486 72.8868C101.476 72.6068 101.686 72.3768 101.966 72.3668C102.626 72.3368 103.286 72.2768 103.936 72.1868C104.216 72.1468 104.466 72.3368 104.496 72.6168C104.536 72.8868 104.346 73.1468 104.066 73.1768C103.386 73.2668 102.686 73.3268 102.006 73.3668C102.006 73.3668 101.996 73.3668 101.986 73.3668ZM95.9459 72.8368C95.9059 72.8368 95.8759 72.8368 95.8359 72.8268C95.1659 72.6768 94.4959 72.4868 93.8359 72.2768C93.5759 72.1968 93.4259 71.9068 93.5159 71.6468C93.5959 71.3868 93.8859 71.2368 94.1459 71.3268C94.7759 71.5268 95.416 71.7068 96.056 71.8468C96.326 71.9068 96.496 72.1768 96.436 72.4468C96.386 72.6768 96.1759 72.8368 95.9459 72.8368ZM105.996 72.8268C105.766 72.8268 105.566 72.6668 105.506 72.4368C105.446 72.1668 105.616 71.8968 105.886 71.8368C106.526 71.6868 107.166 71.5168 107.796 71.3068C108.056 71.2268 108.336 71.3668 108.426 71.6268C108.516 71.8868 108.366 72.1668 108.106 72.2568C107.446 72.4668 106.776 72.6568 106.106 72.8068C106.076 72.8168 106.036 72.8268 105.996 72.8268ZM92.0959 71.5868C92.0259 71.5868 91.9659 71.5768 91.8959 71.5468C91.2659 71.2768 90.6359 70.9768 90.0259 70.6468C89.7859 70.5168 89.6959 70.2168 89.8259 69.9668C89.9559 69.7268 90.2559 69.6368 90.5059 69.7668C91.0859 70.0768 91.686 70.3668 92.296 70.6268C92.546 70.7368 92.666 71.0268 92.556 71.2868C92.466 71.4768 92.2859 71.5868 92.0959 71.5868ZM109.846 71.5668C109.656 71.5668 109.466 71.4568 109.386 71.2668C109.276 71.0168 109.396 70.7168 109.646 70.6068C110.246 70.3468 110.846 70.0568 111.426 69.7468C111.666 69.6168 111.976 69.7068 112.106 69.9468C112.236 70.1868 112.146 70.4968 111.906 70.6268C111.296 70.9568 110.676 71.2568 110.046 71.5268C109.986 71.5568 109.916 71.5668 109.846 71.5668ZM88.5259 69.6668C88.4359 69.6668 88.336 69.6368 88.246 69.5868C87.666 69.2068 87.1059 68.7968 86.5659 68.3668C86.3459 68.1968 86.316 67.8768 86.486 67.6668C86.656 67.4468 86.976 67.4168 87.186 67.5868C87.696 67.9968 88.2359 68.3868 88.7859 68.7468C89.0159 68.8968 89.076 69.2068 88.926 69.4368C88.846 69.5868 88.6859 69.6668 88.5259 69.6668ZM113.416 69.6468C113.256 69.6468 113.096 69.5668 112.996 69.4268C112.846 69.1968 112.906 68.8868 113.136 68.7368C113.686 68.3668 114.226 67.9768 114.736 67.5668C114.956 67.3968 115.266 67.4268 115.436 67.6468C115.606 67.8668 115.576 68.1768 115.356 68.3468C114.816 68.7768 114.256 69.1868 113.686 69.5668C113.606 69.6168 113.506 69.6468 113.416 69.6468ZM85.356 67.1468C85.236 67.1468 85.1059 67.0968 85.0159 67.0068C84.5159 66.5268 84.0359 66.0268 83.5859 65.5068C83.4059 65.2968 83.4259 64.9868 83.6359 64.7968C83.8459 64.6168 84.1559 64.6368 84.3459 64.8468C84.7759 65.3368 85.2359 65.8168 85.7159 66.2768C85.9159 66.4668 85.926 66.7868 85.736 66.9868C85.616 67.0968 85.486 67.1468 85.356 67.1468ZM116.576 67.1168C116.446 67.1168 116.316 67.0668 116.216 66.9668C116.026 66.7668 116.036 66.4468 116.236 66.2568C116.716 65.7968 117.176 65.3168 117.606 64.8268C117.786 64.6168 118.106 64.5968 118.316 64.7768C118.526 64.9568 118.546 65.2768 118.366 65.4868C117.916 66.0068 117.436 66.5068 116.936 66.9868C116.826 67.0668 116.706 67.1168 116.576 67.1168ZM82.686 64.0968C82.536 64.0968 82.3759 64.0268 82.2859 63.8868C81.8759 63.3368 81.4959 62.7468 81.1359 62.1568C80.9959 61.9168 81.066 61.6168 81.306 61.4668C81.546 61.3268 81.846 61.3968 81.996 61.6368C82.336 62.1968 82.7059 62.7568 83.0959 63.2868C83.2559 63.5068 83.206 63.8268 82.986 63.9868C82.886 64.0668 82.786 64.0968 82.686 64.0968ZM119.246 64.0668C119.146 64.0668 119.036 64.0368 118.956 63.9668C118.736 63.8068 118.686 63.4868 118.846 63.2668C119.236 62.7368 119.596 62.1768 119.936 61.6168C120.076 61.3768 120.386 61.3068 120.626 61.4468C120.866 61.5868 120.936 61.8968 120.796 62.1368C120.446 62.7268 120.056 63.3068 119.656 63.8668C119.546 63.9968 119.396 64.0668 119.246 64.0668ZM80.5959 60.6268C80.4059 60.6268 80.2359 60.5268 80.1459 60.3468C79.8459 59.7268 79.5659 59.0868 79.3259 58.4468C79.2259 58.1868 79.356 57.8968 79.616 57.8068C79.876 57.7168 80.1659 57.8368 80.2559 58.0968C80.4859 58.7068 80.7459 59.3168 81.0359 59.9168C81.1559 60.1668 81.056 60.4668 80.806 60.5868C80.746 60.6168 80.6659 60.6268 80.5959 60.6268ZM121.326 60.5868C121.256 60.5868 121.176 60.5668 121.106 60.5368C120.856 60.4168 120.756 60.1168 120.876 59.8668C121.166 59.2668 121.426 58.6568 121.656 58.0468C121.756 57.7868 122.036 57.6568 122.296 57.7568C122.556 57.8568 122.686 58.1468 122.586 58.3968C122.346 59.0368 122.076 59.6768 121.776 60.3068C121.686 60.4868 121.506 60.5868 121.326 60.5868ZM79.166 56.8368C78.946 56.8368 78.746 56.6968 78.686 56.4668C78.506 55.8068 78.346 55.1268 78.226 54.4468C78.176 54.1768 78.3559 53.9168 78.6259 53.8668C78.9059 53.8168 79.1559 53.9968 79.2059 54.2668C79.3259 54.9168 79.4759 55.5668 79.6459 56.1968C79.7159 56.4668 79.566 56.7368 79.296 56.8168C79.256 56.8368 79.206 56.8368 79.166 56.8368ZM122.746 56.7968C122.706 56.7968 122.656 56.7868 122.616 56.7768C122.346 56.7068 122.196 56.4268 122.266 56.1668C122.446 55.5268 122.586 54.8768 122.706 54.2368C122.756 53.9668 123.016 53.7768 123.286 53.8368C123.556 53.8868 123.736 54.1468 123.686 54.4168C123.566 55.0968 123.406 55.7768 123.226 56.4368C123.166 56.6468 122.966 56.7968 122.746 56.7968ZM78.436 52.8568C78.186 52.8568 77.966 52.6568 77.936 52.4068C77.876 51.7268 77.8459 51.0368 77.8359 50.3368C77.8359 50.0568 78.0559 49.8368 78.3359 49.8368C78.6159 49.8368 78.8359 50.0568 78.8359 50.3368C78.8359 51.0068 78.866 51.6668 78.926 52.3168C78.946 52.5968 78.746 52.8368 78.476 52.8568C78.466 52.8568 78.456 52.8568 78.436 52.8568ZM123.466 52.8068C123.446 52.8068 123.436 52.8068 123.416 52.8068C123.146 52.7868 122.936 52.5368 122.966 52.2668C123.026 51.6168 123.056 50.9468 123.056 50.2868C123.056 50.0068 123.276 49.7368 123.556 49.7368C123.836 49.7368 124.056 49.9168 124.056 50.1868H123.556L124.056 50.2668C124.056 50.9768 124.026 51.6668 123.966 52.3468C123.936 52.6168 123.716 52.8068 123.466 52.8068ZM78.436 48.8068C78.426 48.8068 78.4059 48.8068 78.3959 48.8068C78.1159 48.7868 77.916 48.5368 77.936 48.2668C77.996 47.5768 78.0859 46.8868 78.2059 46.2168C78.2559 45.9468 78.5159 45.7668 78.7859 45.8168C79.0559 45.8668 79.236 46.1268 79.186 46.3968C79.066 47.0468 78.986 47.7068 78.926 48.3568C78.906 48.6068 78.686 48.8068 78.436 48.8068ZM123.456 48.6668C123.206 48.6668 122.986 48.4768 122.956 48.2168C122.896 47.5568 122.806 46.8968 122.686 46.2568C122.636 45.9868 122.816 45.7268 123.086 45.6768C123.356 45.6268 123.616 45.8068 123.666 46.0768C123.786 46.7468 123.886 47.4368 123.956 48.1268C123.986 48.3968 123.776 48.6468 123.506 48.6668C123.486 48.6668 123.466 48.6668 123.456 48.6668ZM79.1459 44.8168C79.1059 44.8168 79.0559 44.8068 79.0159 44.7968C78.7459 44.7268 78.596 44.4468 78.666 44.1868C78.846 43.5268 79.056 42.8668 79.296 42.2168C79.396 41.9568 79.686 41.8268 79.936 41.9268C80.196 42.0268 80.326 42.3068 80.236 42.5668C80.006 43.1868 79.7959 43.8268 79.6259 44.4568C79.5659 44.6768 79.3659 44.8168 79.1459 44.8168ZM122.716 44.6868C122.496 44.6868 122.296 44.5468 122.236 44.3168C122.056 43.6868 121.856 43.0568 121.616 42.4368C121.516 42.1768 121.646 41.8868 121.906 41.7868C122.166 41.6868 122.456 41.8168 122.556 42.0768C122.806 42.7268 123.016 43.3868 123.206 44.0468C123.276 44.3168 123.126 44.5868 122.856 44.6668C122.806 44.6768 122.766 44.6868 122.716 44.6868ZM80.556 41.0268C80.486 41.0268 80.4059 41.0068 80.3359 40.9768C80.0859 40.8568 79.9859 40.5568 80.0959 40.3068C80.3959 39.6868 80.7259 39.0668 81.0759 38.4768C81.2159 38.2368 81.5259 38.1668 81.7659 38.3068C82.0059 38.4468 82.086 38.7568 81.936 38.9968C81.606 39.5568 81.286 40.1468 80.996 40.7468C80.926 40.9168 80.746 41.0268 80.556 41.0268ZM121.276 40.8968C121.096 40.8968 120.916 40.7968 120.826 40.6168C120.536 40.0268 120.216 39.4368 119.876 38.8768C119.736 38.6368 119.806 38.3368 120.046 38.1868C120.286 38.0468 120.586 38.1168 120.736 38.3568C121.096 38.9468 121.426 39.5568 121.726 40.1768C121.846 40.4268 121.746 40.7268 121.496 40.8468C121.426 40.8868 121.356 40.8968 121.276 40.8968ZM82.6259 37.5468C82.5259 37.5468 82.4259 37.5168 82.3359 37.4568C82.1159 37.2968 82.066 36.9868 82.226 36.7568C82.626 36.1968 83.0659 35.6568 83.5159 35.1368C83.6959 34.9268 84.016 34.9068 84.226 35.0868C84.436 35.2668 84.4559 35.5868 84.2759 35.7968C83.8459 36.2968 83.426 36.8168 83.046 37.3468C82.936 37.4768 82.7859 37.5468 82.6259 37.5468ZM119.186 37.4268C119.036 37.4268 118.876 37.3568 118.786 37.2268C118.396 36.6968 117.986 36.1768 117.546 35.6868C117.366 35.4768 117.386 35.1668 117.586 34.9768C117.796 34.7968 118.106 34.8168 118.296 35.0168C118.756 35.5368 119.186 36.0768 119.596 36.6268C119.756 36.8468 119.716 37.1668 119.486 37.3268C119.396 37.3968 119.286 37.4268 119.186 37.4268ZM85.2859 34.4868C85.1559 34.4868 85.026 34.4368 84.926 34.3368C84.736 34.1368 84.736 33.8168 84.936 33.6268C85.436 33.1468 85.956 32.6868 86.486 32.2568C86.696 32.0868 87.016 32.1168 87.186 32.3368C87.356 32.5568 87.326 32.8668 87.106 33.0368C86.596 33.4468 86.096 33.8868 85.616 34.3468C85.536 34.4468 85.4159 34.4868 85.2859 34.4868ZM116.506 34.3968C116.386 34.3968 116.256 34.3468 116.166 34.2568C115.686 33.8068 115.186 33.3668 114.666 32.9568C114.446 32.7868 114.416 32.4668 114.586 32.2568C114.756 32.0368 115.076 32.0068 115.286 32.1768C115.826 32.6068 116.356 33.0568 116.846 33.5368C117.046 33.7268 117.056 34.0468 116.866 34.2468C116.776 34.3368 116.646 34.3968 116.506 34.3968ZM88.4459 31.9568C88.2859 31.9568 88.1259 31.8768 88.0259 31.7368C87.8759 31.5068 87.936 31.1968 88.166 31.0468C88.736 30.6668 89.336 30.3068 89.936 29.9768C90.176 29.8468 90.476 29.9368 90.616 30.1768C90.746 30.4168 90.656 30.7268 90.416 30.8568C89.836 31.1668 89.2659 31.5168 88.7159 31.8768C88.6359 31.9268 88.5459 31.9568 88.4459 31.9568ZM113.336 31.8768C113.246 31.8768 113.146 31.8468 113.066 31.7968C112.516 31.4368 111.946 31.0968 111.366 30.7868C111.126 30.6568 111.026 30.3568 111.156 30.1068C111.286 29.8668 111.596 29.7768 111.836 29.8968C112.446 30.2168 113.046 30.5768 113.616 30.9568C113.846 31.1068 113.906 31.4168 113.756 31.6468C113.656 31.7968 113.496 31.8768 113.336 31.8768ZM92.0059 30.0268C91.8159 30.0268 91.626 29.9168 91.546 29.7268C91.436 29.4768 91.556 29.1768 91.806 29.0668C92.436 28.7968 93.086 28.5468 93.746 28.3368C94.006 28.2468 94.2859 28.3968 94.3759 28.6568C94.4659 28.9168 94.316 29.1968 94.056 29.2868C93.436 29.4968 92.8059 29.7268 92.2059 29.9868C92.1359 30.0068 92.0759 30.0268 92.0059 30.0268ZM109.766 29.9668C109.696 29.9668 109.636 29.9568 109.576 29.9268C108.966 29.6668 108.336 29.4368 107.716 29.2368C107.456 29.1568 107.306 28.8668 107.396 28.6068C107.476 28.3468 107.766 28.1968 108.026 28.2868C108.676 28.4968 109.336 28.7368 109.966 29.0068C110.216 29.1168 110.336 29.4068 110.236 29.6668C110.146 29.8468 109.956 29.9668 109.766 29.9668ZM95.856 28.7568C95.626 28.7568 95.426 28.5968 95.366 28.3668C95.306 28.0968 95.476 27.8268 95.746 27.7668C96.416 27.6168 97.1059 27.4868 97.7859 27.3968C98.0459 27.3568 98.3159 27.5468 98.3459 27.8268C98.3859 28.0968 98.196 28.3568 97.916 28.3868C97.266 28.4768 96.6059 28.5968 95.9659 28.7468C95.9259 28.7568 95.886 28.7568 95.856 28.7568ZM105.906 28.7268C105.866 28.7268 105.836 28.7268 105.796 28.7168C105.156 28.5768 104.496 28.4568 103.846 28.3668C103.576 28.3268 103.376 28.0768 103.416 27.8068C103.456 27.5268 103.716 27.3368 103.976 27.3768C104.656 27.4668 105.346 27.5868 106.016 27.7368C106.286 27.7968 106.456 28.0668 106.396 28.3368C106.346 28.5668 106.136 28.7268 105.906 28.7268ZM99.866 28.2068C99.596 28.2068 99.376 27.9968 99.366 27.7268C99.356 27.4468 99.5659 27.2168 99.8459 27.2068C100.536 27.1768 101.226 27.1668 101.916 27.1968C102.196 27.2068 102.406 27.4368 102.396 27.7168C102.386 27.9968 102.186 28.1968 101.876 28.1968C101.216 28.1668 100.556 28.1768 99.8959 28.2068C99.8759 28.2068 99.876 28.2068 99.866 28.2068Z" fill="#374450"/>
<path d="M90.1465 50.7872C89.8665 50.7872 89.6465 50.5672 89.6465 50.2872C89.6465 48.7572 89.9465 47.2772 90.5365 45.8872C91.1065 44.5372 91.9165 43.3372 92.9565 42.2972C93.9965 41.2572 95.2065 40.4472 96.5465 39.8772C99.3365 38.6972 102.566 38.6972 105.346 39.8772C106.696 40.4472 107.907 41.2672 108.937 42.2972C109.977 43.3372 110.787 44.5472 111.357 45.8872C111.467 46.1372 111.346 46.4372 111.086 46.5472C110.836 46.6572 110.537 46.5372 110.427 46.2772C109.907 45.0472 109.166 43.9472 108.216 42.9972C107.266 42.0472 106.167 41.3072 104.937 40.7872C102.397 39.7172 99.4565 39.7172 96.9165 40.7872C95.6865 41.3072 94.5865 42.0472 93.6365 42.9972C92.6865 43.9472 91.9465 45.0472 91.4265 46.2772C90.8865 47.5472 90.6165 48.8972 90.6165 50.2872C90.6465 50.5572 90.4165 50.7872 90.1465 50.7872Z" fill="#374450"/>
<path d="M100.946 61.5969C99.4159 61.5969 97.9359 61.2969 96.5459 60.7069C95.1959 60.1369 93.9859 59.3269 92.9559 58.2869C91.9159 57.2469 91.1059 56.0369 90.5359 54.6969C90.4259 54.4469 90.5459 54.1469 90.8059 54.0369C91.0559 53.9269 91.3559 54.0469 91.4659 54.3069C91.9859 55.5369 92.7259 56.6369 93.6759 57.5869C94.6259 58.5369 95.7259 59.2769 96.9559 59.7969C99.4959 60.8769 102.436 60.8769 104.986 59.7969C106.216 59.2769 107.316 58.5369 108.266 57.5869C109.216 56.6369 109.956 55.5369 110.476 54.3069C111.016 53.0369 111.286 51.6869 111.286 50.2969C111.286 50.0169 111.506 49.7969 111.786 49.7969C112.066 49.7969 112.286 50.0169 112.286 50.2969C112.286 51.8269 111.986 53.3069 111.396 54.6969C110.826 56.0469 110.006 57.2569 108.976 58.2869C107.936 59.3269 106.726 60.1369 105.386 60.7069C103.956 61.2969 102.476 61.5969 100.946 61.5969Z" fill="#374450"/>
<path d="M108.426 45.7968L112.486 44.4268L111.646 48.6268L108.426 45.7968Z" fill="#374450"/>
<path d="M93.7065 55.1272L89.6865 56.6372L90.3965 52.4072L93.7065 55.1272Z" fill="#374450"/>
<path d="M75.4766 187.286C75.4766 187.286 80.2265 209.136 96.5165 203.296C97.8065 186.046 75.4766 187.286 75.4766 187.286Z" fill="#02B3AC"/>
<path d="M91.226 204.787C78.916 204.787 75.026 187.567 74.996 187.387L74.876 186.817L75.466 186.787C75.466 186.787 75.826 186.767 76.466 186.767C79.226 186.767 88.636 187.187 93.706 192.657C96.236 195.387 97.356 198.977 97.036 203.337L97.016 203.657L96.706 203.767C94.796 204.447 92.956 204.787 91.226 204.787ZM76.116 187.767C76.906 190.727 80.976 203.787 91.226 203.787C92.746 203.787 94.366 203.497 96.036 202.927C96.266 199.007 95.226 195.787 92.946 193.327C88.146 188.157 79.096 187.757 76.436 187.757C76.326 187.767 76.216 187.767 76.116 187.767Z" fill="#374450"/>
<path d="M99.066 205.737C98.956 205.737 98.856 205.707 98.766 205.637L82.456 193.217C82.236 193.047 82.1961 192.737 82.3661 192.517C82.5361 192.297 82.846 192.257 83.066 192.417L99.376 204.837C99.596 205.007 99.636 205.317 99.466 205.537C99.366 205.677 99.216 205.737 99.066 205.737Z" fill="#374450"/>
<path d="M91.2759 199.807H85.0059C84.7259 199.807 84.5059 199.587 84.5059 199.307C84.5059 199.027 84.7259 198.807 85.0059 198.807H91.2759C91.5559 198.807 91.7759 199.027 91.7759 199.307C91.7759 199.587 91.5459 199.807 91.2759 199.807Z" fill="#374450"/>
<path d="M87.3062 196.787C87.0362 196.787 86.8162 196.567 86.8062 196.297L86.7161 191.937C86.7061 191.657 86.9261 191.437 87.2061 191.427C87.4461 191.437 87.7061 191.637 87.7161 191.917L87.8062 196.277C87.8062 196.557 87.5862 196.777 87.3062 196.787Z" fill="#374450"/>
<path d="M100.936 165.617C100.936 165.617 83.0057 188.927 100.936 196.257C118.866 188.937 100.936 165.617 100.936 165.617Z" fill="#02B3AC"/>
<path d="M100.936 196.797L100.746 196.717C96.5357 194.997 93.9056 192.267 92.9156 188.597C90.2756 178.817 100.126 165.857 100.546 165.307L100.946 164.787L101.346 165.307C101.766 165.857 111.616 178.807 108.976 188.587C107.986 192.257 105.346 194.987 101.146 196.707L100.936 196.797ZM100.936 166.467C99.1057 169.027 91.6556 180.127 93.8756 188.347C94.7656 191.647 97.1357 194.127 100.936 195.717C104.726 194.117 107.106 191.637 107.996 188.347C110.216 180.117 102.766 169.027 100.936 166.467Z" fill="#374450"/>
<path d="M100.936 201.937C100.656 201.937 100.436 201.717 100.436 201.437V174.667C100.436 174.387 100.656 174.167 100.936 174.167C101.216 174.167 101.436 174.387 101.436 174.667V201.437C101.436 201.717 101.216 201.937 100.936 201.937Z" fill="#374450"/>
<path d="M100.936 187.158C100.846 187.158 100.746 187.128 100.666 187.078L96.4363 184.368C96.2063 184.218 96.1363 183.908 96.2863 183.678C96.4363 183.448 96.7463 183.378 96.9763 183.528L101.206 186.238C101.436 186.388 101.506 186.698 101.356 186.928C101.266 187.078 101.106 187.158 100.936 187.158Z" fill="#374450"/>
<path d="M100.935 181.437C100.805 181.437 100.675 181.387 100.575 181.287C100.385 181.087 100.385 180.777 100.585 180.577L103.675 177.567C103.875 177.377 104.185 177.377 104.385 177.577C104.575 177.777 104.575 178.087 104.375 178.287L101.285 181.297C101.185 181.387 101.065 181.437 100.935 181.437Z" fill="#374450"/>
<path d="M227.636 58.4166C226.686 51.9666 221.126 47.0166 214.416 47.0166C207.956 47.0166 202.566 51.5966 201.316 57.6866L227.636 58.4166Z" fill="white"/>
<path d="M227.636 58.9166C227.396 58.9166 227.176 58.7366 227.146 58.4866C226.226 52.2266 220.746 47.5166 214.416 47.5166C208.326 47.5166 203.026 51.8366 201.806 57.7866C201.746 58.0566 201.486 58.2366 201.216 58.1766C200.946 58.1166 200.776 57.8566 200.826 57.5866C202.136 51.1666 207.856 46.5166 214.416 46.5166C221.246 46.5166 227.136 51.5966 228.136 58.3466C228.176 58.6166 227.986 58.8766 227.716 58.9166C227.686 58.9066 227.666 58.9166 227.636 58.9166Z" fill="#374450"/>
<path d="M238.697 64.3665H235.267C234.487 60.9465 231.437 58.3965 227.787 58.3965C226.177 58.3965 224.677 58.8965 223.447 59.7465L238.697 64.3665Z" fill="white"/>
<path d="M238.697 64.8667H234.867L234.777 64.4767C234.027 61.1867 231.157 58.8967 227.777 58.8967C226.317 58.8967 224.917 59.3367 223.717 60.1567C223.497 60.3167 223.177 60.2567 223.017 60.0267C222.857 59.7967 222.917 59.4867 223.147 59.3267C224.507 58.3867 226.107 57.8867 227.777 57.8867C231.487 57.8867 234.667 60.3267 235.647 63.8567H238.687C238.967 63.8567 239.187 64.0767 239.187 64.3567C239.197 64.6367 238.977 64.8667 238.697 64.8667Z" fill="#374450"/>
<path d="M234.646 57.6465H232.836C232.556 57.6465 232.336 57.4265 232.336 57.1465C232.336 56.8665 232.556 56.6465 232.836 56.6465H234.646C234.926 56.6465 235.146 56.8665 235.146 57.1465C235.146 57.4265 234.916 57.6465 234.646 57.6465Z" fill="#374450"/>
<path d="M246.056 57.6465H236.666C236.386 57.6465 236.166 57.4265 236.166 57.1465C236.166 56.8665 236.386 56.6465 236.666 56.6465H246.056C246.336 56.6465 246.556 56.8665 246.556 57.1465C246.556 57.4265 246.336 57.6465 246.056 57.6465Z" fill="#374450"/>
<path d="M197.626 64.8662H193.156C192.876 64.8662 192.656 64.6462 192.656 64.3662C192.656 64.0862 192.876 63.8662 193.156 63.8662H197.636C197.916 63.8662 198.136 64.0862 198.136 64.3662C198.126 64.6362 197.906 64.8662 197.626 64.8662Z" fill="#374450"/>
</svg>
