<svg width="185" height="200" viewBox="0 0 185 200" fill="none" xmlns="http://www.w3.org/2000/svg">
<path fill-rule="evenodd" clip-rule="evenodd" d="M123.166 116.533L121.896 116.568C121.905 117.838 121.931 119.107 121.966 120.36C122.423 119.107 122.829 117.838 123.166 116.533Z" fill="#F4F0E4"/>
<path fill-rule="evenodd" clip-rule="evenodd" d="M76.8082 117.776L76.1172 117.794C76.359 118.26 76.5923 118.709 76.8341 119.158C76.8341 118.701 76.8255 118.243 76.8082 117.776Z" fill="#F4F0E4"/>
<path fill-rule="evenodd" clip-rule="evenodd" d="M184.6 152.173C172.058 146.748 159.23 146.048 150.195 143.345C150.282 143.371 150.377 143.379 150.472 143.397L150.187 157.848L150.169 158.824L149.219 158.988L141.16 160.361L148.217 168.723L148.554 169.129L148.476 169.647C147.526 176.307 145.807 182.915 143.544 189.376C160.492 181.083 174.744 168.127 184.6 152.173Z" fill="#6992CC"/>
<path fill-rule="evenodd" clip-rule="evenodd" d="M146.083 169.82L138.05 160.301L136.728 158.737L138.741 158.392L147.871 156.837L148.139 142.947C148.173 142.956 148.208 142.947 148.234 142.965C140.935 138.369 131.131 128.401 128.427 124.989C127.33 151.447 122.752 176.592 117.224 197.892C125.387 196.467 133.195 194.049 140.546 190.758C143.085 183.916 145.029 176.894 146.083 169.82ZM81.6101 197.685C74.8812 196.424 68.3856 194.489 62.2095 191.95C57.977 182.249 54.5651 173.473 52.9671 167.211L60.957 157.744L62.2786 156.18L60.266 155.835L51.1358 154.28L50.8594 140.149C50.8076 140.166 50.7471 140.192 50.6953 140.209C50.8249 140.157 50.9631 140.114 51.084 140.062C59.9464 136.59 65.5437 133.238 71.2274 125.464C71.1842 125.525 71.141 125.585 71.1065 125.637C71.9962 135.372 75.0108 167.073 81.6101 197.685Z" fill="#6992CC"/>
<path fill-rule="evenodd" clip-rule="evenodd" d="M50.5485 167.185L50.4102 166.606L50.7903 166.148L57.8474 157.787L49.7883 156.413L48.8382 156.249L48.8209 155.273L48.5445 140.943C48.6222 140.917 48.6913 140.891 48.7691 140.865C40.1485 143.69 25.8702 146.169 17.0078 150.056C18.8218 153.295 20.6098 157.338 22.3114 161.942C32.0808 174.181 44.6747 184.054 59.1085 190.585C55.1351 181.394 51.9996 173.119 50.5485 167.185Z" fill="#6992CC"/>
<path fill-rule="evenodd" clip-rule="evenodd" d="M15.9102 150.558C16.1434 150.445 16.3939 150.333 16.6357 150.221C16.3939 150.342 16.152 150.445 15.9102 150.558Z" fill="#333533"/>
<path fill-rule="evenodd" clip-rule="evenodd" d="M149.02 143.129C149.123 143.146 149.227 143.172 149.33 143.189C149.227 143.172 149.123 143.146 149.02 143.129Z" fill="#333533"/>
<path fill-rule="evenodd" clip-rule="evenodd" d="M14.8906 151.075C15.1498 150.937 15.4175 150.807 15.6939 150.678C15.4262 150.799 15.1498 150.937 14.8906 151.075Z" fill="#333533"/>
<path fill-rule="evenodd" clip-rule="evenodd" d="M49.5215 140.624C49.6338 140.581 49.7547 140.546 49.867 140.503C49.7547 140.546 49.6338 140.589 49.5215 140.624Z" fill="#333533"/>
<path fill-rule="evenodd" clip-rule="evenodd" d="M15.8426 152.881C15.523 152.259 15.1947 151.654 14.8751 151.084L14.7715 151.144C15.117 151.723 15.4798 152.302 15.8426 152.881Z" fill="#6992CC"/>
<path fill-rule="evenodd" clip-rule="evenodd" d="M94.9813 142.654C98.3587 142.714 101.736 142.775 105.113 142.835C111.704 137.843 118.459 129.973 121.966 120.36C121.931 119.107 121.905 117.837 121.897 116.568C121.871 112.767 121.974 108.88 122.329 104.811C117.241 114.279 108.845 120.334 96.6398 120.075C88.097 119.893 80.5648 112.793 75.6758 103.36C76.3236 108.327 76.6778 113.069 76.8073 117.777C76.816 118.235 76.8246 118.701 76.8332 119.159C82.2405 129.386 87.3973 136.132 94.9813 142.654Z" fill="#E2E8F6"/>
<path fill-rule="evenodd" clip-rule="evenodd" d="M85.6794 198.359C89.4887 183.243 96.7617 157.96 96.7617 157.96L91.4149 149.236L95.4315 143.621L104.493 143.82L109.053 149.124L103.827 158.124C106.03 170.131 110.081 185.238 113.061 198.549C114.461 198.368 115.851 198.152 117.233 197.91C122.762 176.609 127.348 151.464 128.437 125.007C128.437 124.981 128.437 124.955 128.437 124.938C125.128 120.653 127.011 123.53 123.193 116.55C123.185 116.542 123.185 116.533 123.176 116.524C123.176 116.533 123.168 116.542 123.168 116.55C122.831 117.855 122.425 119.133 121.967 120.377C118.46 129.991 111.705 137.86 105.115 142.852C101.737 142.792 98.3597 142.732 94.9823 142.671C87.407 136.15 82.2416 129.403 76.8429 119.176C76.6011 118.727 76.3679 118.278 76.126 117.811C75.2277 119.168 72.239 123.97 71.2284 125.473C71.1852 125.534 71.142 125.594 71.1074 125.646C71.9971 135.389 75.0117 167.09 81.6196 197.694C82.9585 197.936 84.3146 198.16 85.6794 198.359Z" fill="#FEFEFE"/>
<path fill-rule="evenodd" clip-rule="evenodd" d="M109.044 149.106L104.483 143.802L95.422 143.604L91.4054 149.218L96.7522 157.942C96.7522 157.942 89.4792 183.225 85.6699 198.341C90.3516 199.015 95.1283 199.369 99.9914 199.369C104.414 199.369 108.776 199.076 113.043 198.514C110.063 185.203 106.012 170.096 103.809 158.089L109.044 149.106Z" fill="#6992CC"/>
<path fill-rule="evenodd" clip-rule="evenodd" d="M52.9664 167.202L60.9563 157.735L62.2779 156.171L60.2653 155.826L51.1351 154.271L50.8587 140.14C50.8069 140.157 50.7464 140.183 50.6946 140.2C50.4268 140.304 50.1591 140.399 49.874 140.502C49.7617 140.546 49.6408 140.58 49.5285 140.623C49.278 140.71 49.0189 140.796 48.7597 140.883C48.682 140.908 48.6129 140.934 48.5352 140.96L48.8116 155.29L48.8288 156.266L49.779 156.431L57.8381 157.804L50.781 166.165L50.4009 166.623L50.5391 167.202C51.9903 173.136 55.1258 181.411 59.0819 190.619C60.1098 191.085 61.155 191.526 62.2088 191.958C57.9763 182.249 54.5644 173.464 52.9664 167.202Z" fill="#94B0DC"/>
<path fill-rule="evenodd" clip-rule="evenodd" d="M148.475 169.638L148.553 169.12L148.216 168.714L141.159 160.352L149.218 158.979L150.168 158.815L150.185 157.839L150.47 143.388C150.375 143.37 150.289 143.353 150.194 143.336C149.9 143.284 149.607 143.232 149.33 143.18C149.227 143.163 149.123 143.137 149.019 143.12C148.752 143.068 148.492 143.016 148.242 142.956C148.207 142.947 148.173 142.938 148.147 142.938L147.879 156.828L138.749 158.383L136.736 158.728L138.058 160.292L146.091 169.811C145.037 176.885 143.094 183.908 140.554 190.757C141.565 190.308 142.558 189.842 143.552 189.358C145.806 182.906 147.525 176.289 148.475 169.638Z" fill="#94B0DC"/>
<path fill-rule="evenodd" clip-rule="evenodd" d="M22.2862 161.959C20.5846 157.355 18.7966 153.312 16.9826 150.073C16.8617 150.125 16.7494 150.177 16.6371 150.229C16.3953 150.341 16.1448 150.445 15.9115 150.566C15.8338 150.6 15.7647 150.635 15.6956 150.678C15.4192 150.807 15.1514 150.946 14.8923 151.075C14.8836 151.075 14.875 151.084 14.875 151.084C15.1946 151.654 15.5228 152.259 15.8424 152.881C17.8205 156.025 19.9799 159.057 22.2862 161.959Z" fill="#94B0DC"/>
<path fill-rule="evenodd" clip-rule="evenodd" d="M96.6492 120.074C108.854 120.333 117.25 114.278 122.338 104.811C124.092 101.546 125.448 97.8662 126.432 93.9015C126.381 91.8198 127.072 88.5115 127.365 84.063C127.59 80.6683 128.048 77.5674 128.773 75.1488C128.773 75.1315 128.773 75.1142 128.773 75.097C128.678 75.2265 128.583 75.3475 128.48 75.4857C127.953 66.9083 125.033 51.9735 123.807 48.3024C121.042 46.0134 117.63 41.3231 88.5556 42.1869C85.1782 41.2108 75.9184 48.242 75.7975 48.4234C74.7696 50.0559 73.3617 53.3124 72.5065 58.1236C69.6647 74.1209 71.0985 69.6292 70.157 75.4943C70.0015 75.3906 69.6128 74.9501 69.0859 74.38C69.1205 74.7514 69.155 75.1229 69.1982 75.5029C69.7856 77.8179 70.157 80.6597 70.3298 83.7434C70.4593 86.162 70.7185 88.2351 70.9085 89.9626C71.8932 94.6271 73.5344 99.2224 75.6852 103.377C80.5742 112.784 88.0978 119.893 96.6492 120.074Z" fill="#E2E8F6"/>
<path fill-rule="evenodd" clip-rule="evenodd" d="M68.7648 74.0265C68.8771 74.1474 68.9808 74.2597 69.0844 74.372C69.6027 74.9421 69.9914 75.3826 70.1555 75.4863C71.097 69.6212 69.6632 74.1215 72.505 58.1157C73.3602 53.2958 74.7681 50.0479 75.796 48.4154C77.7309 45.349 123.01 53.8918 123.149 54.0127C124.384 57.6838 126.794 68.1528 128.478 75.4777C128.582 75.3481 128.677 75.2185 128.772 75.089C128.78 75.0803 128.78 75.0717 128.789 75.0631C129.748 71.8843 131.156 69.9063 133.056 70.0272C133.246 70.0358 133.428 70.079 133.609 70.1395C134.214 63.6611 134.006 56.6559 133.695 49.5124C133.885 28.9026 110.857 20.8089 94.3155 21.8455C65.2752 23.6594 59.8765 43.5177 64.3164 70.0618C66.9509 70.0618 68.0824 71.9793 68.7648 74.0265Z" fill="#6992CC"/>
<path fill-rule="evenodd" clip-rule="evenodd" d="M125.327 50.998C125.301 51.0326 125.284 51.0671 125.258 51.0931C125.292 51.0671 125.318 51.0326 125.327 50.998Z" fill="#8D908C"/>
<path fill-rule="evenodd" clip-rule="evenodd" d="M122.812 53.8564C122.925 53.9083 123.028 53.9515 123.141 54.0033C123.123 53.9601 123.003 53.9083 122.812 53.8564Z" fill="#8D908C"/>
<path fill-rule="evenodd" clip-rule="evenodd" d="M71.4686 64.4899C71.4254 64.4899 71.3908 64.4813 71.3477 64.4727C71.3822 64.4986 71.4254 64.5072 71.4686 64.4899Z" fill="#8D908C"/>
<path fill-rule="evenodd" clip-rule="evenodd" d="M69.4132 75.4942C69.2836 74.9759 69.1368 74.4922 68.9899 74.0257C68.0657 71.253 66.7527 69.5513 64.9992 69.6464C64.5587 69.6723 64.1441 69.8191 63.7727 70.0696C61.2936 71.7108 60.3435 77.835 62.3302 83.631C64.6192 90.2994 66.0099 96.3286 69.37 96.1472C71.7022 96.0176 71.5813 93.8927 71.1407 89.9539C70.9507 88.2263 70.6916 86.1446 70.562 83.7346C70.372 80.6423 70.0005 77.8091 69.4132 75.4942ZM66.7095 83.8124C67.2105 85.9027 68.1866 86.2051 68.1089 87.9326C67.8238 94.6528 66.0963 89.1592 65.0424 87.1379C63.7381 84.633 63.4013 79.5971 63.6517 77.6882C63.9109 75.7792 64.671 72.0304 66.1913 72.1081C67.6424 72.1859 69.8191 77.2995 67.7806 79.6749C67.2451 80.2968 66.2085 81.722 66.7095 83.8124Z" fill="#E2E8F6"/>
<path fill-rule="evenodd" clip-rule="evenodd" d="M66.1919 72.0998C64.6803 72.0221 63.9115 75.7709 63.6524 77.6799C63.3932 79.5888 63.7387 84.6247 65.0431 87.1296C66.0969 89.1595 67.8244 94.6445 68.1095 87.9243C68.1786 86.1967 67.2025 85.903 66.7102 83.8041C66.2092 81.7137 67.2457 80.2798 67.7812 79.6579C69.8198 77.2912 67.643 72.1776 66.1919 72.0998Z" fill="#BCCDEB"/>
<path fill-rule="evenodd" clip-rule="evenodd" d="M128.781 75.0627C128.772 75.0886 128.764 75.1145 128.764 75.1318C128.047 77.5504 127.58 80.6514 127.356 84.046C127.062 88.4945 126.371 91.8028 126.423 93.8845C126.466 95.4998 126.95 96.3722 128.418 96.4672C131.778 96.6832 133.229 90.6712 135.587 84.0288C137.807 77.7577 136.572 71.0548 133.601 70.1305C133.419 70.0787 133.238 70.0355 133.048 70.0182C131.148 69.9059 129.74 71.884 128.781 75.0627ZM132.823 87.5184C131.744 89.531 129.964 95.0074 129.748 88.2872C129.696 86.5596 130.672 86.2746 131.191 84.1842C131.709 82.0939 130.69 80.66 130.163 80.0294C128.15 77.6281 130.379 72.5405 131.83 72.48C133.342 72.4195 134.076 76.1683 134.309 78.0859C134.542 79.9863 134.154 85.0221 132.823 87.5184Z" fill="#E2E8F6"/>
<path fill-rule="evenodd" clip-rule="evenodd" d="M131.83 72.4714C130.379 72.5319 128.15 77.6282 130.163 80.0209C130.69 80.6514 131.709 82.0853 131.191 84.1757C130.673 86.266 129.688 86.5511 129.748 88.2786C129.964 94.9988 131.744 89.5311 132.823 87.5099C134.154 85.0135 134.542 79.9863 134.309 78.0687C134.067 76.1684 133.342 72.411 131.83 72.4714Z" fill="#BCCDEB"/>
<path fill-rule="evenodd" clip-rule="evenodd" d="M117.888 128.738C95.3609 132.634 79.8474 116.671 75.7617 103.507C80.6507 112.862 88.1483 119.893 96.648 120.074C108.853 120.325 117.249 114.278 122.337 104.811C121.983 108.88 121.879 112.767 121.905 116.567C121.914 117.837 121.939 119.107 121.974 120.359C120.886 123.331 119.486 126.129 117.888 128.738Z" fill="#BCCDEB"/>
</svg>
