<svg width="23" height="25" viewBox="0 0 23 25" fill="none" xmlns="http://www.w3.org/2000/svg">
<g clip-path="url(#clip0_117_9446)">
<path d="M15.2603 7.60541C15.0257 8.77452 14.8612 10.062 14.41 10.9423C13.7643 12.1977 12.3526 12.9697 11.2035 12.9697C9.98424 12.9697 8.63263 12.1375 7.99694 10.7458C7.61592 9.90955 7.33317 7.83803 7.22688 6.75915C6.92408 3.66891 8.12929 2.56597 11.2035 2.5018C14.6126 2.4276 15.8499 4.65955 15.2603 7.60541Z" fill="white"/>
<path d="M7.47439 6.38418C6.99511 6.12148 6.55795 6.1656 6.64618 6.73311C6.73442 7.30062 6.86477 8.82669 7.16958 9.08939C7.47439 9.35209 7.7792 9.43832 7.95568 9.13351C8.13014 8.82669 7.47439 6.38418 7.47439 6.38418Z" fill="white"/>
<path d="M15.0396 6.38418C15.5188 6.12148 15.956 6.1656 15.8678 6.73311C15.7795 7.30062 15.6492 8.82669 15.3444 9.08939C15.0396 9.35209 14.7327 9.43832 14.5583 9.13351C14.3858 8.82669 15.0396 6.38418 15.0396 6.38418Z" fill="white"/>
<path d="M13.1852 2.2494C13.0208 1.59365 13.2674 1.30087 11.982 0.992051C10.6144 0.663174 9.57559 0.663174 8.26409 1.70194C7.23133 2.52013 6.78815 3.28817 6.8423 4.76411C6.89644 6.24005 7.06088 6.89579 7.06088 6.89579L7.93521 7.3871C7.93521 7.3871 8.04551 4.65382 8.37238 4.10636C8.70125 3.5589 10.7788 3.72333 11.7073 3.50475C12.6378 3.28817 13.1852 2.2494 13.1852 2.2494Z" fill="white"/>
<path d="M12.6924 2.30358C13.0212 3.06962 14.1142 3.88981 14.4972 4.54556C14.8802 5.20131 14.7158 7.60772 14.7158 7.60772L15.4256 7.00612C15.4256 7.00612 16.1355 4.54556 15.4256 3.01548C14.7158 1.48339 13.5687 0.935932 12.8568 1.31895C12.1469 1.70197 12.6924 2.30358 12.6924 2.30358Z" fill="white"/>
<path d="M20.7914 15.5549C20.6049 15.2861 20.266 15.2861 20.266 15.2861L15.0963 13.2247L13.885 12.5128C13.8469 11.873 13.8509 11.1772 13.9753 10.6157C14.25 9.36837 8.43449 10.4853 8.43449 10.4853C8.49866 11.0849 8.52072 11.8309 8.49465 12.5448L7.33957 13.2247L2.16979 15.4245C2.16979 15.4245 1.83289 15.4245 1.64439 15.6932C1.45789 15.9599 0.224599 19.8503 0 24.7935H22.3676C22.143 19.8503 20.9779 15.8236 20.7914 15.5549ZM14.6731 17.0669L14.2821 16.8122C14.1096 17.5642 13.861 18.3724 13.6123 19.2788C12.9365 21.7494 11.9699 24.1799 11.7854 24.4085H10.9652C10.7807 24.1799 9.82019 21.8857 9.14438 19.4152C8.8877 18.4767 8.63503 17.6444 8.43249 16.8202L8.00334 17.0669L7.66243 13.3049L8.50067 12.7815L10.9793 15.3603L10.867 15.4245C11.0535 15.5308 11.2059 15.593 11.2881 15.5849C11.4345 15.5729 11.6531 15.4606 11.9118 15.2721L11.7313 15.1538L13.9773 12.7815L14.8436 13.2708L14.6731 17.0669Z" fill="white"/>
<path d="M11.5913 14.9014H11.086L10.4102 15.5772C10.4102 15.5772 10.8233 15.7115 10.9035 16.642C11.1662 16.6601 11.2544 16.6621 11.3386 16.6581C11.4229 16.6601 11.5111 16.6581 11.7738 16.642C11.854 15.7115 12.3393 15.5531 12.3393 15.5531L11.5913 14.9014Z" fill="white"/>
<path d="M11.738 16.5219L11.4232 16.3815V16.3193L11.3369 16.3514L11.2507 16.3193V16.3815L10.9359 16.5219C10.5428 16.8808 10.5488 18.2485 10.5488 18.6074V24.7979H12.123V18.6074C12.125 18.2465 12.1331 16.8808 11.738 16.5219Z" fill="white"/>
<path d="M11.5918 14.9014L14.297 16.8105L11.652 15.152L11.5918 14.9014Z" fill="white"/>
<path d="M11.084 14.9014L8.5332 16.7423L11.082 15.152L11.084 14.9014Z" fill="white"/>
</g>
<defs>
<clipPath id="clip0_117_9446">
<rect width="22.3676" height="24" fill="white" transform="translate(0 0.797852)"/>
</clipPath>
</defs>
</svg>
