<svg width="18" height="18" viewBox="0 0 18 18" fill="none" xmlns="http://www.w3.org/2000/svg">
<path fill-rule="evenodd" clip-rule="evenodd" d="M3.56664 1.87511C4.22101 1.87511 4.3985 1.88396 4.53503 1.93547C4.71304 2.00264 4.86641 2.12238 4.97475 2.27879C5.05783 2.39875 5.10947 2.56879 5.26817 3.20363L5.35989 3.5705C5.58582 4.47421 5.66647 4.81858 5.65386 5.14711C5.64206 5.45475 5.57207 5.75737 5.44762 6.03897C5.31472 6.33968 5.09107 6.61368 4.49132 7.32646L3.44246 8.57301C2.68535 7.09135 2.174 5.40869 1.94671 3.55504C1.86117 2.85743 1.85238 2.68161 1.91594 2.50115C1.98748 2.29805 2.19055 2.06856 2.38343 1.97284C2.45555 1.93705 2.55138 1.90864 2.73713 1.89256C2.93306 1.87559 3.18435 1.87511 3.56664 1.87511ZM5.35214 8.05076L4.03601 9.61495C4.99133 11.1259 6.23292 12.3944 7.71875 13.3785L9.58614 11.9803L9.65069 11.9319C10.2599 11.4756 10.6523 11.1817 11.097 11.0059C11.4902 10.8505 11.9078 10.7663 12.3305 10.7573C12.8086 10.7471 13.2842 10.8661 14.0226 11.0509L14.1008 11.0704L14.6321 11.2033L14.7226 11.2258C15.2225 11.3503 15.6133 11.4477 15.9246 11.6633C16.2687 11.9016 16.5322 12.239 16.6799 12.6307C16.8136 12.9849 16.8132 13.38 16.8128 13.8836L16.8127 13.9735V13.9962C16.8127 14.3572 16.8127 14.6627 16.7912 14.9163C16.7683 15.1846 16.7189 15.4354 16.5977 15.6795C16.3718 16.1348 15.9148 16.5391 15.4354 16.708C14.9768 16.8695 14.5247 16.8136 13.9617 16.744L13.8707 16.7327C11.4605 16.4372 9.2951 15.6873 7.44705 14.5406C5.55134 13.3643 3.99792 11.7755 2.86051 9.84853C1.80478 8.05993 1.11148 5.98692 0.830072 3.69196L0.81885 3.60098C0.749224 3.0381 0.693302 2.58602 0.854844 2.12739C1.0237 1.64799 1.42802 1.19107 1.88331 0.965117C2.12626 0.844542 2.37434 0.794761 2.64009 0.771752C2.89027 0.75009 3.19051 0.750099 3.54376 0.750109L3.56664 0.750109L3.65995 0.750054C4.17512 0.74959 4.5779 0.749227 4.93218 0.882905C5.32381 1.03068 5.66122 1.29411 5.89956 1.63821C6.11517 1.9495 6.21251 2.34034 6.33701 2.84023L6.35958 2.93078L6.4513 3.29764L6.47235 3.38177C6.67016 4.17234 6.79756 4.68149 6.77804 5.19026C6.76078 5.63989 6.6585 6.08218 6.47661 6.49374C6.27079 6.95943 5.93279 7.36096 5.40799 7.98441L5.40798 7.98442L5.35214 8.05076ZM14.0076 15.6161C12.059 15.3772 10.2993 14.8243 8.76326 14.0019L10.2604 12.8808C10.9564 12.3597 11.2233 12.1657 11.5105 12.0521C11.7795 11.9458 12.0653 11.8882 12.3545 11.8821C12.6633 11.8755 12.9845 11.951 13.828 12.1619L14.3592 12.2947C14.994 12.4534 15.1641 12.505 15.284 12.5881C15.4405 12.6964 15.5602 12.8498 15.6274 13.0278C15.679 13.1647 15.6877 13.3359 15.6877 13.9735C15.6877 14.3632 15.6873 14.6206 15.6702 14.8208C15.654 15.0116 15.6252 15.1085 15.59 15.1794C15.4943 15.3723 15.2648 15.5754 15.0617 15.6469C14.8812 15.7105 14.7054 15.7017 14.0076 15.6161Z" fill="#787878"/>
</svg>
