<svg width="20" height="20" viewBox="0 0 20 20" fill="none" xmlns="http://www.w3.org/2000/svg">
<path fill-rule="evenodd" clip-rule="evenodd" d="M2.91669 9.7915C2.91669 5.99455 5.99473 2.9165 9.79169 2.9165C13.5886 2.9165 16.6667 5.99455 16.6667 9.7915C16.6667 13.5885 13.5886 16.6665 9.79169 16.6665C5.99473 16.6665 2.91669 13.5885 2.91669 9.7915ZM9.79169 1.6665C5.30437 1.6665 1.66669 5.30419 1.66669 9.7915C1.66669 14.2788 5.30437 17.9165 9.79169 17.9165C11.8104 17.9165 13.6571 17.1803 15.0781 15.9618L17.6831 18.5668C17.9272 18.8109 18.3229 18.8109 18.567 18.5668C18.811 18.3227 18.811 17.927 18.567 17.6829L15.962 15.0779C17.1805 13.6569 17.9167 11.8102 17.9167 9.7915C17.9167 5.30419 14.279 1.6665 9.79169 1.6665Z" fill="#7D7D7D"/>
</svg>
