<svg width="24" height="24" viewBox="0 0 24 24" fill="none" xmlns="http://www.w3.org/2000/svg">
<path fill-rule="evenodd" clip-rule="evenodd" d="M13.4697 4.46967C13.7626 4.17678 14.2374 4.17678 14.5303 4.46967L21.5303 11.4696C21.671 11.6102 21.75 11.801 21.75 11.9999C21.75 12.1988 21.671 12.3896 21.5303 12.5303L14.5303 19.5303C14.2374 19.8232 13.7626 19.8232 13.4697 19.5303C13.1768 19.2374 13.1768 18.7625 13.4697 18.4696L19.1893 12.7499H3C2.58579 12.7499 2.25 12.4141 2.25 11.9999C2.25 11.5857 2.58579 11.2499 3 11.2499H19.1893L13.4697 5.53033C13.1768 5.23744 13.1768 4.76257 13.4697 4.46967Z" fill="white"/>
</svg>
