<svg width="36" height="36" viewBox="0 0 36 36" fill="none" xmlns="http://www.w3.org/2000/svg">
<path fill-rule="evenodd" clip-rule="evenodd" d="M3.75 18C3.75 10.1299 10.1299 3.75 18 3.75C25.8701 3.75 32.25 10.1299 32.25 18C32.25 25.8701 25.8701 32.25 18 32.25C10.1299 32.25 3.75 25.8701 3.75 18ZM18 2.25C9.30151 2.25 2.25 9.30151 2.25 18C2.25 26.6985 9.30151 33.75 18 33.75C26.6985 33.75 33.75 26.6985 33.75 18C33.75 9.30151 26.6985 2.25 18 2.25ZM20.0303 12.9697C19.7374 12.6768 19.2626 12.6768 18.9697 12.9697C18.6768 13.2626 18.6768 13.7374 18.9697 14.0303L22.1893 17.25H12C11.5858 17.25 11.25 17.5858 11.25 18C11.25 18.4142 11.5858 18.75 12 18.75H22.1893L18.9697 21.9697C18.6768 22.2626 18.6768 22.7374 18.9697 23.0303C19.2626 23.3232 19.7374 23.3232 20.0303 23.0303L24.5303 18.5303C24.8232 18.2374 24.8232 17.7626 24.5303 17.4697L20.0303 12.9697Z" fill="#02B3AC"/>
</svg>
