<svg width="54" height="55" viewBox="0 0 54 55" fill="none" xmlns="http://www.w3.org/2000/svg">
<circle cx="27" cy="27.958" r="26.5" stroke="#02B3AC"/>
<path fill-rule="evenodd" clip-rule="evenodd" d="M27.0007 16.708C27.1996 16.708 27.3903 16.787 27.531 16.9277L35.6976 25.0943C35.9905 25.3872 35.9905 25.8621 35.6976 26.155C35.4048 26.4479 34.9299 26.4479 34.637 26.155L27.7507 19.2687L27.7507 38.458C27.7507 38.8722 27.4149 39.208 27.0007 39.208C26.5864 39.208 26.2507 38.8722 26.2507 38.458L26.2507 19.2687L19.3643 26.155C19.0714 26.4479 18.5965 26.4479 18.3037 26.155C18.0108 25.8621 18.0108 25.3872 18.3037 25.0943L26.4703 16.9277C26.611 16.787 26.8017 16.708 27.0007 16.708Z" fill="#02B3AC"/>
</svg>
