<svg width="28" height="29" viewBox="0 0 28 29" fill="none" xmlns="http://www.w3.org/2000/svg">
<path fill-rule="evenodd" clip-rule="evenodd" d="M13.9999 3.70801C14.1988 3.70801 14.3896 3.78703 14.5302 3.92768L22.6969 12.0943C22.9898 12.3872 22.9898 12.8621 22.6969 13.155C22.404 13.4479 21.9291 13.4479 21.6363 13.155L14.7499 6.26867L14.7499 25.458C14.7499 25.8722 14.4141 26.208 13.9999 26.208C13.5857 26.208 13.2499 25.8722 13.2499 25.458L13.2499 6.26867L6.36358 13.155C6.07069 13.4479 5.59582 13.4479 5.30292 13.155C5.01003 12.8621 5.01003 12.3872 5.30292 12.0943L13.4696 3.92768C13.6102 3.78703 13.801 3.70801 13.9999 3.70801Z" fill="#02B3AC"/>
</svg>
