<svg width="40" height="40" viewBox="0 0 40 40" fill="none" xmlns="http://www.w3.org/2000/svg">
<path fill-rule="evenodd" clip-rule="evenodd" d="M13.4939 5.48816C14.1524 4.83728 15.2201 4.83728 15.8786 5.48816L24.2813 13.7932L24.3297 13.841C25.1789 14.6803 25.8877 15.3809 26.4195 16C26.9741 16.6457 27.4344 17.3116 27.6974 18.1116C28.1009 19.3389 28.1009 20.6611 27.6974 21.8884C27.4344 22.6884 26.9741 23.3543 26.4195 24C25.8877 24.6191 25.1789 25.3197 24.3297 26.159L24.2813 26.2068L15.8786 34.5118C15.2201 35.1627 14.1524 35.1627 13.4939 34.5118C12.8354 33.861 12.8354 32.8057 13.4939 32.1548L21.8965 23.8498C22.8066 22.9503 23.4165 22.3457 23.8485 21.8428C24.2676 21.3547 24.4193 21.0732 24.4899 20.8584C24.6733 20.3005 24.6733 19.6995 24.4899 19.1416C24.4193 18.9268 24.2676 18.6453 23.8485 18.1572C23.4165 17.6543 22.8066 17.0497 21.8965 16.1502L13.4939 7.84518C12.8354 7.1943 12.8354 6.13903 13.4939 5.48816Z" fill="white"/>
</svg>
