<svg width="40" height="40" viewBox="0 0 40 40" fill="none" xmlns="http://www.w3.org/2000/svg">
<path fill-rule="evenodd" clip-rule="evenodd" d="M26.5061 34.5118C25.8476 35.1627 24.7799 35.1627 24.1214 34.5118L15.7187 26.2068L15.6703 26.159C14.8211 25.3197 14.1123 24.6191 13.5805 24C13.0259 23.3543 12.5656 22.6884 12.3026 21.8884C11.8991 20.6611 11.8991 19.3389 12.3026 18.1116C12.5656 17.3116 13.0259 16.6457 13.5805 16C14.1123 15.3809 14.8211 14.6803 15.6703 13.841L15.7187 13.7932L24.1214 5.48816C24.7799 4.83728 25.8476 4.83728 26.5061 5.48816C27.1646 6.13903 27.1646 7.1943 26.5061 7.84518L18.1035 16.1502C17.1934 17.0497 16.5835 17.6543 16.1515 18.1572C15.7324 18.6453 15.5807 18.9268 15.5101 19.1416C15.3267 19.6995 15.3267 20.3005 15.5101 20.8584C15.5807 21.0732 15.7324 21.3547 16.1515 21.8428C16.5835 22.3457 17.1934 22.9503 18.1035 23.8498L26.5061 32.1548C27.1646 32.8057 27.1646 33.861 26.5061 34.5118Z" fill="white"/>
</svg>
