<svg width="64" height="54" viewBox="0 0 64 54" fill="none" xmlns="http://www.w3.org/2000/svg">
<path d="M43.4046 48.1536C38.1978 45.9699 32.8192 46.4278 29.2372 47.1887L29.2238 47.1916L29.2106 47.1955C25.3078 48.3503 22.4758 48.6994 20.1548 48.6472C17.8329 48.5951 16.0055 48.1417 14.0904 47.6655L14.0901 47.6655L14.0485 47.6551C12.6569 47.3101 11.1963 46.948 9.4753 46.7333C6.39939 46.3494 4.40885 46.7881 3.17007 47.3525C1.93695 47.9142 1.47026 48.5908 1.42632 48.6601C1.42244 48.6662 1.41708 48.6712 1.41073 48.6747C1.40467 48.678 1.39791 48.6798 1.39102 48.6799C1.38392 48.6796 1.37702 48.6776 1.37093 48.674C1.36454 48.6702 1.35924 48.6648 1.35556 48.6584C1.35189 48.6519 1.34997 48.6446 1.35 48.6372C1.35002 48.6305 1.35161 48.6239 1.35463 48.618C1.38863 48.5637 1.82035 47.902 2.99346 47.3341C4.2062 46.7471 6.23696 46.2479 9.48578 46.6534C11.1937 46.8667 12.6327 47.2221 14.0382 47.5692L14.1109 47.5871L14.1114 47.5872L14.1223 47.5899C16.0597 48.0715 17.9026 48.5295 20.2248 48.5758C22.5503 48.6222 25.3388 48.256 29.1892 47.1162L29.2042 47.1127C29.2049 47.1126 29.2056 47.1124 29.2062 47.1123C32.8302 46.3405 38.223 45.8919 43.4374 48.0748C43.4426 48.077 43.4473 48.0801 43.4512 48.0841C43.4552 48.0881 43.4583 48.0928 43.4604 48.098C43.4625 48.1031 43.4636 48.1087 43.4636 48.1143C43.4636 48.1199 43.4624 48.1254 43.4603 48.1306C43.4581 48.1358 43.455 48.1404 43.451 48.1444C43.447 48.1483 43.4423 48.1515 43.4371 48.1536C43.4319 48.1557 43.4263 48.1568 43.4208 48.1568C43.4152 48.1568 43.4097 48.1557 43.4046 48.1536ZM43.4046 48.1536L43.2693 48.4763L43.4045 48.1535C43.4045 48.1535 43.4046 48.1535 43.4046 48.1536Z" fill="#27343A" stroke="white" stroke-width="0.7"/>
<path d="M1.39204 50.2483L1.39379 50.2483C1.40109 50.2485 1.40834 50.2467 1.41483 50.2432C1.42132 50.2397 1.42675 50.2346 1.43065 50.2284L1.43075 50.2282C1.47167 50.1632 1.93723 49.4837 3.17498 48.9198C4.41376 48.3555 6.4043 47.9168 9.48021 48.3007L9.4804 48.3007C11.209 48.5174 12.6749 48.8808 14.0725 49.2273L14.095 49.2328L14.095 49.2328L14.1063 49.2356C16.0172 49.7089 17.8406 50.1606 20.157 50.2133C22.4769 50.266 25.3079 49.9182 29.2107 48.7638L29.2238 48.7599L29.2372 48.7571C32.8192 47.9961 38.1978 47.5382 43.4046 49.7219M1.39204 50.2483L43.2693 50.0447M1.39204 50.2483C1.38463 50.2482 1.37735 50.2462 1.37093 50.2424C1.36452 50.2386 1.35923 50.2332 1.35556 50.2267C1.35189 50.2203 1.34997 50.213 1.35 50.2055C1.35002 50.1989 1.35161 50.1923 1.35464 50.1864C1.38866 50.132 1.82039 49.4701 2.99349 48.9021C4.2062 48.315 6.23693 47.8158 9.48573 48.2218L9.48576 48.2218C11.1938 48.4351 12.6329 48.7905 14.0385 49.1376L14.1109 49.1555L1.39204 50.2483ZM43.4046 49.7219L43.2693 50.0447M43.4046 49.7219C43.4046 49.7219 43.4045 49.7219 43.4045 49.7218L43.2693 50.0447M43.4046 49.7219C43.4097 49.724 43.4152 49.7251 43.4208 49.7251C43.4264 49.7252 43.4319 49.7241 43.4371 49.722C43.4423 49.7198 43.447 49.7167 43.451 49.7128C43.455 49.7088 43.4581 49.7041 43.4603 49.699C43.4624 49.6938 43.4636 49.6883 43.4636 49.6827C43.4636 49.677 43.4625 49.6715 43.4604 49.6663C43.4583 49.6611 43.4552 49.6564 43.4512 49.6524C43.4473 49.6485 43.4426 49.6453 43.4374 49.6432C38.223 47.4602 32.8302 47.9089 29.2062 48.6807L29.2083 48.6802L29.1313 48.3388L29.2042 48.6811L29.1892 48.6845M43.2693 50.0447C43.3168 50.0646 43.3679 50.0749 43.4194 50.0751C43.471 50.0753 43.5221 50.0654 43.5698 50.0458C43.6175 50.0263 43.6609 49.9975 43.6975 49.9612C43.7341 49.9249 43.7632 49.8817 43.7831 49.8341C43.803 49.7866 43.8134 49.7356 43.8136 49.684C43.8138 49.6324 43.8038 49.5813 43.7843 49.5336C43.7647 49.4859 43.736 49.4425 43.6996 49.4059C43.6633 49.3693 43.6201 49.3402 43.5726 49.3203C38.2645 47.0981 32.7895 47.5594 29.1313 48.3388L29.1009 48.3456M29.1892 48.6845C29.1929 48.6834 29.1966 48.6823 29.2003 48.6812L29.1009 48.3456M29.1892 48.6845L29.1779 48.6871L29.1009 48.3456M29.1892 48.6845C25.3388 49.8244 22.5503 50.1906 20.2248 50.1442C17.9026 50.0979 16.0597 49.6398 14.1223 49.1583L14.1114 49.1556L14.1953 48.8158C18.0812 49.7816 21.4381 50.6159 29.1009 48.3456" fill="#27343A" stroke="white" stroke-width="0.7"/>
<path d="M29.2238 49.9621L29.2372 49.9592C32.8191 49.1983 38.1977 48.7404 43.4045 50.925C43.4045 50.925 43.4046 50.925 43.4047 50.9251L29.2238 49.9621ZM29.2238 49.9621L29.2106 49.966M29.2238 49.9621L29.2106 49.966M29.2106 49.966C25.3078 51.1213 22.4758 51.4706 20.1548 51.4186C17.8328 51.3666 16.0055 50.9132 14.0904 50.437L14.0903 50.437M29.2106 49.966L14.0903 50.437M14.0903 50.437L14.0875 50.4363C12.6838 50.0873 11.2122 49.7215 9.4753 49.5047C6.39939 49.1209 4.40885 49.5596 3.17007 50.1239C1.93232 50.6878 1.46676 51.3673 1.42584 51.4323L1.42577 51.4324M14.0903 50.437L1.42577 51.4324M1.42577 51.4324C1.42189 51.4386 1.41652 51.4437 1.41019 51.4471C1.40421 51.4504 1.39755 51.4522 1.39075 51.4524C1.38378 51.4521 1.37697 51.45 1.37093 51.4465M1.42577 51.4324L1.37093 51.4465M1.37093 51.4465C1.36455 51.4427 1.35924 51.4373 1.35556 51.4308C1.35189 51.4244 1.34997 51.4171 1.35 51.4096C1.35002 51.4029 1.35166 51.3962 1.35476 51.3902L1.35895 51.3836C1.36271 51.3778 1.36821 51.3694 1.37552 51.3588C1.39016 51.3375 1.41199 51.3072 1.44175 51.2694C1.50125 51.1939 1.59237 51.0884 1.721 50.9651C1.97791 50.7188 2.38594 50.3999 2.99349 50.1057C4.20621 49.5186 6.23695 49.0194 9.48576 49.4249L1.37093 51.4465ZM9.48578 49.4249C11.2016 49.6392 12.6462 49.9969 14.0578 50.3464L14.1109 50.3596L14.1112 50.3596L14.1223 50.3624C16.0597 50.8439 17.9026 51.302 20.2248 51.3483C22.5513 51.3947 25.3412 51.0282 29.1943 49.8871L29.2115 49.8827L9.48578 49.4249Z" fill="#27343A" stroke="white" stroke-width="0.7"/>
<path d="M56.5933 48.3154H42.0312V52.9993H56.5933V48.3154Z" stroke="white" stroke-width="0.7" stroke-linecap="round" stroke-linejoin="round"/>
<path d="M46.2041 1H52.4231L55.1233 48.3167H43.5039L46.2041 1Z" stroke="white" stroke-width="0.7" stroke-linecap="round" stroke-linejoin="round"/>
<path d="M52.9272 9.82473H45.7012L45.9711 5.09473H52.6573L52.9272 9.82473Z" stroke="white" stroke-width="0.7" stroke-linecap="round" stroke-linejoin="round"/>
<path d="M63.0174 53H1.13672" stroke="white" stroke-width="0.7" stroke-linecap="round" stroke-linejoin="round"/>
<path d="M14.8797 27.2179H15.6699C18.056 27.2179 18.8805 26.1529 18.8854 24.8259C18.8866 24.4534 18.8011 24.0857 18.6357 23.7519C18.4702 23.4181 18.2294 23.1274 17.9322 22.9028C17.635 22.6782 17.2896 22.5258 16.9234 22.4577C16.5571 22.3896 16.1801 22.4077 15.822 22.5105C15.7663 22.5262 15.7078 22.5293 15.6507 22.5198C15.5936 22.5102 15.5393 22.4881 15.4917 22.4551C15.4442 22.422 15.4045 22.3789 15.3756 22.3288C15.3466 22.2786 15.3291 22.2227 15.3244 22.165C15.3244 22.1493 15.3244 22.1336 15.3244 22.1208C15.259 21.4601 15.0517 20.8213 14.7168 20.248" stroke="white" stroke-width="0.7" stroke-linecap="round" stroke-linejoin="round"/>
<path d="M8.11914 27.2168H10.7094" stroke="white" stroke-width="0.7" stroke-linecap="round" stroke-linejoin="round"/>
<path d="M3.27001 22.1689C2.8879 22.6144 2.64208 23.1604 2.56188 23.7418C2.48169 24.3232 2.57052 24.9154 2.81776 25.4476C3.06501 25.9799 3.46023 26.4298 3.95622 26.7435C4.45221 27.0573 5.02802 27.2216 5.61489 27.217H6.82905" stroke="white" stroke-width="0.7" stroke-linecap="round" stroke-linejoin="round"/>
<path d="M13.8909 19.2106C13.3605 18.7097 12.7193 18.3411 12.0196 18.1347C11.3199 17.9283 10.5813 17.89 9.86395 18.0228C9.14661 18.1557 8.47075 18.456 7.89133 18.8992C7.31191 19.3425 6.8453 19.9163 6.52942 20.5739C6.45127 20.7369 6.32774 20.8739 6.17366 20.9685C6.01958 21.063 5.84149 21.1111 5.66077 21.1069H5.58715C5.1011 21.1063 4.62193 21.2217 4.18945 21.4436" stroke="white" stroke-width="0.7" stroke-linecap="round" stroke-linejoin="round"/>
<path d="M36.8415 33.0033H37.505C39.5103 33.0033 40.2033 32.1081 40.2072 30.9931C40.2083 30.68 40.1364 30.371 39.9974 30.0905C39.8584 29.81 39.656 29.5656 39.4062 29.3769C39.1564 29.1882 38.8661 29.0601 38.5582 29.003C38.2504 28.9459 37.9335 28.9612 37.6326 29.0477C37.5855 29.0614 37.536 29.0642 37.4876 29.0561C37.4392 29.048 37.3933 29.0291 37.3533 29.0008C37.3132 28.9725 37.28 28.9356 37.2562 28.8927C37.2323 28.8499 37.2184 28.8022 37.2155 28.7533C37.2155 28.7395 37.2155 28.7277 37.2155 28.716C37.1601 28.1619 36.986 27.6263 36.7051 27.1455" stroke="white" stroke-width="0.7" stroke-linecap="round" stroke-linejoin="round"/>
<path d="M31.1602 33.0039H33.3362" stroke="white" stroke-width="0.7" stroke-linecap="round" stroke-linejoin="round"/>
<path d="M27.0881 28.7617C26.6866 29.2274 26.4666 29.8223 26.4688 30.4372C26.4729 31.1205 26.7478 31.7742 27.2332 32.2552C27.7185 32.7361 28.3748 33.005 29.058 33.0029H30.0788" stroke="white" stroke-width="0.7" stroke-linecap="round" stroke-linejoin="round"/>
<path d="M36.013 26.2765C35.5672 25.8561 35.0286 25.5468 34.4409 25.3736C33.8532 25.2005 33.2329 25.1684 32.6305 25.28C32.028 25.3916 31.4604 25.6437 30.9737 26.0159C30.4869 26.3881 30.0949 26.8698 29.8293 27.4219C29.7641 27.5591 29.6604 27.6743 29.531 27.7538C29.4016 27.8332 29.2518 27.8734 29.1 27.8695H29.0372C28.6275 27.8682 28.2235 27.9655 27.8594 28.1532" stroke="white" stroke-width="0.7" stroke-linecap="round" stroke-linejoin="round"/>
<path d="M25.2816 18.5124C25.038 18.2901 24.753 18.118 24.4429 18.006C24.1328 17.8939 23.8037 17.844 23.4743 17.8591C23.1449 17.8742 22.8217 17.9541 22.5231 18.0941C22.2246 18.2342 21.9566 18.4317 21.7344 18.6753" stroke="white" stroke-width="0.7" stroke-linecap="round" stroke-linejoin="round"/>
<path d="M18.9668 16.4523C19.6286 16.3802 20.292 16.5738 20.8111 16.9907C21.3301 17.4076 21.6624 18.0136 21.7347 18.6755" stroke="white" stroke-width="0.7" stroke-linecap="round" stroke-linejoin="round"/>
<path d="M33.3314 11.4502C32.6973 11.2476 32.0086 11.305 31.4168 11.61C30.8251 11.915 30.3787 12.4426 30.1758 13.0766" stroke="white" stroke-width="0.7" stroke-linecap="round" stroke-linejoin="round"/>
<path d="M26.7324 12.2095C27.3038 11.8677 27.9876 11.767 28.6333 11.9293C29.279 12.0917 29.8338 12.5038 30.1756 13.0752" stroke="white" stroke-width="0.7" stroke-linecap="round" stroke-linejoin="round"/>
<path d="M51.6262 32.2842L48.7179 29.7008L42.1328 37.1771L47.0689 23.6742L49.9772 26.2576L56.5613 18.7812L51.6262 32.2842Z" stroke="white" stroke-width="0.7" stroke-linecap="round" stroke-linejoin="round"/>
</svg>
