<svg width="62" height="54" viewBox="0 0 62 54" fill="none" xmlns="http://www.w3.org/2000/svg">
<path d="M21.2988 6.75344C23.5309 7.35429 25.2737 9.09707 25.8745 11.3291C26.4754 9.09707 28.2182 7.35429 30.4502 6.75344C28.2182 6.15259 26.4754 4.40978 25.8745 2.17773C25.2737 4.40865 23.5309 6.15259 21.2988 6.75344Z" stroke="white" stroke-width="0.7" stroke-miterlimit="10" stroke-linecap="round" stroke-linejoin="round"/>
<path d="M31.7461 3.94674C33.1834 4.3334 34.3062 5.45621 34.6928 6.89351C35.0795 5.45621 36.2023 4.3334 37.6396 3.94674C36.2023 3.56008 35.0795 2.4373 34.6928 1C34.3062 2.4373 33.1834 3.56008 31.7461 3.94674Z" stroke="white" stroke-width="0.7" stroke-miterlimit="10" stroke-linecap="round" stroke-linejoin="round"/>
<path d="M21.3694 25.591H9.27461C8.84564 25.591 8.49844 25.2438 8.49844 24.8148V23.2287C8.49844 22.7997 8.84564 22.4525 9.27461 22.4525H21.3694C21.7974 22.4525 22.1455 22.8 22.1455 23.2287V24.8148C22.1455 25.2436 21.7974 25.591 21.3694 25.591Z" stroke="white" stroke-width="0.7"/>
<path d="M21.3694 30.6642H9.27461C8.84564 30.6642 8.49844 30.317 8.49844 29.8881V28.3019C8.49844 27.8739 8.84587 27.5258 9.27461 27.5258H21.3694C21.7974 27.5258 22.1455 27.8732 22.1455 28.3019V29.8881C22.1455 30.3168 21.7974 30.6642 21.3694 30.6642Z" stroke="white" stroke-width="0.7"/>
<path d="M21.3694 35.7355H9.27461C8.84564 35.7355 8.49844 35.3883 8.49844 34.9594V33.3732C8.49844 32.9443 8.84564 32.5971 9.27461 32.5971H21.3694C21.7974 32.5971 22.1455 32.9445 22.1455 33.3732V34.9594C22.1455 35.3881 21.7974 35.7355 21.3694 35.7355Z" stroke="white" stroke-width="0.7"/>
<path d="M21.3694 40.8068H9.27461C8.84564 40.8068 8.49844 40.4596 8.49844 40.0306V38.4445C8.49844 38.0165 8.84587 37.6684 9.27461 37.6684H21.3694C21.7974 37.6684 22.1455 38.0158 22.1455 38.4445V40.0306C22.1455 40.4594 21.7974 40.8068 21.3694 40.8068Z" stroke="white" stroke-width="0.7"/>
<path d="M21.3694 45.8781H9.27461C8.84564 45.8781 8.49844 45.5309 8.49844 45.1019V43.5158C8.49844 43.0868 8.84564 42.7396 9.27461 42.7396H21.3694C21.7974 42.7396 22.1455 43.0871 22.1455 43.5158V45.1019C22.1455 45.5307 21.7974 45.8781 21.3694 45.8781Z" stroke="white" stroke-width="0.7"/>
<path d="M23.1393 15.373H7.50706C6.559 15.373 5.78906 16.1419 5.78906 17.091V51.2425C5.78906 52.1905 6.55788 52.9605 7.50706 52.9605H23.1393C24.0873 52.9605 24.8573 52.1917 24.8573 51.2425V17.091C24.8561 16.1419 24.0873 15.373 23.1393 15.373Z" stroke="white" stroke-width="0.7" stroke-miterlimit="10" stroke-linecap="round" stroke-linejoin="round"/>
<path d="M18.8493 11.3281H11.7959C11.0936 11.3281 10.5254 11.8974 10.5254 12.5986V15.3729H20.1209V12.5986C20.1198 11.8974 19.5516 11.3281 18.8493 11.3281Z" stroke="white" stroke-width="0.7" stroke-miterlimit="10" stroke-linecap="round" stroke-linejoin="round"/>
<path d="M43.1643 25.5929H31.0695C30.6415 25.5929 30.2934 25.2455 30.2934 24.8168V23.2307C30.2934 22.8017 30.6406 22.4545 31.0695 22.4545H43.1643C43.5924 22.4545 43.9405 22.8019 43.9405 23.2307V24.8168C43.9405 25.2457 43.5933 25.5929 43.1643 25.5929Z" stroke="white" stroke-width="0.7"/>
<path d="M43.1643 30.6642H31.0695C30.6415 30.6642 30.2934 30.3168 30.2934 29.8881V28.3019C30.2934 27.8739 30.6408 27.5258 31.0695 27.5258H43.1643C43.5924 27.5258 43.9405 27.8732 43.9405 28.3019V29.8881C43.9405 30.317 43.5933 30.6642 43.1643 30.6642Z" stroke="white" stroke-width="0.7"/>
<path d="M43.1643 35.7375H31.0695C30.6415 35.7375 30.2934 35.39 30.2934 34.9613V33.3752C30.2934 32.9462 30.6406 32.599 31.0695 32.599H43.1643C43.5924 32.599 43.9405 32.9465 43.9405 33.3752V34.9613C43.9405 35.3903 43.5933 35.7375 43.1643 35.7375Z" stroke="white" stroke-width="0.7"/>
<path d="M43.1643 40.8088H31.0695C30.6415 40.8088 30.2934 40.4613 30.2934 40.0326V38.4465C30.2934 38.0184 30.6408 37.6703 31.0695 37.6703H43.1643C43.5924 37.6703 43.9405 38.0177 43.9405 38.4465V40.0326C43.9405 40.4616 43.5933 40.8088 43.1643 40.8088Z" stroke="white" stroke-width="0.7"/>
<path d="M43.1643 45.8801H31.0695C30.6415 45.8801 30.2934 45.5326 30.2934 45.1039V43.5178C30.2934 43.0888 30.6406 42.7416 31.0695 42.7416H43.1643C43.5924 42.7416 43.9405 43.089 43.9405 43.5178V45.1039C43.9405 45.5329 43.5933 45.8801 43.1643 45.8801Z" stroke="white" stroke-width="0.7"/>
<path d="M44.9303 15.373H29.2981C28.35 15.373 27.5801 16.1419 27.5801 17.091V51.2425C27.5801 52.1905 28.3489 52.9605 29.2981 52.9605H44.9303C45.8783 52.9605 46.6483 52.1917 46.6483 51.2425V17.091C46.6483 16.1419 45.8795 15.373 44.9303 15.373Z" stroke="white" stroke-width="0.7" stroke-miterlimit="10" stroke-linecap="round" stroke-linejoin="round"/>
<path d="M40.6403 11.3281H33.5869C32.8846 11.3281 32.3164 11.8974 32.3164 12.5986V15.3729H41.9119V12.5986C41.9119 11.8974 41.3427 11.3281 40.6403 11.3281Z" stroke="white" stroke-width="0.7" stroke-miterlimit="10" stroke-linecap="round" stroke-linejoin="round"/>
<path d="M51.3239 53H1.2832" stroke="white" stroke-width="0.7" stroke-miterlimit="10" stroke-linecap="round" stroke-linejoin="round"/>
<path d="M61.6464 53H54.4824" stroke="white" stroke-width="0.7" stroke-miterlimit="10" stroke-linecap="round" stroke-linejoin="round"/>
</svg>
