<svg width="47" height="54" viewBox="0 0 47 54" fill="none" xmlns="http://www.w3.org/2000/svg">
<path d="M39.8507 53H0.888672" stroke="white" stroke-width="0.7" stroke-linecap="round" stroke-linejoin="round"/>
<path d="M46.2829 53H41.4824" stroke="white" stroke-width="0.7" stroke-linecap="round" stroke-linejoin="round"/>
<path d="M25.7207 20.9645V18.2925C25.7209 17.9532 25.8558 17.628 26.0957 17.3882C26.3356 17.1484 26.661 17.0137 27.0002 17.0137H27.7202" stroke="white" stroke-width="0.7" stroke-linecap="round" stroke-linejoin="round"/>
<path d="M28.7836 17.0137H29.6728C29.8407 17.0137 30.007 17.0467 30.1622 17.111C30.3173 17.1753 30.4583 17.2695 30.577 17.3882C30.6958 17.507 30.79 17.6479 30.8543 17.8031C30.9185 17.9582 30.9516 18.1245 30.9516 18.2925V20.9645C30.9516 21.1324 30.9185 21.2987 30.8543 21.4539C30.79 21.609 30.6958 21.75 30.577 21.8688C30.4583 21.9875 30.3173 22.0817 30.1622 22.146C30.007 22.2102 29.8407 22.2433 29.6728 22.2433H27.0007C26.6935 22.2437 26.3964 22.1333 26.1641 21.9322" stroke="white" stroke-width="0.7" stroke-linecap="round" stroke-linejoin="round"/>
<path d="M28.7847 19.6281V1C28.4983 0.9999 28.2211 1.101 28.002 1.28545C27.7829 1.4699 27.6361 1.72583 27.5873 2.00805L25.5856 13.7584C25.5558 13.9337 25.5647 14.1133 25.6119 14.2848C25.659 14.4562 25.7432 14.6152 25.8585 14.7506L27.5427 16.7249C27.7292 16.945 27.8313 17.2242 27.8307 17.5127V19.626L28.7847 19.6281Z" stroke="white" stroke-width="0.7" stroke-linecap="round" stroke-linejoin="round"/>
<path d="M28.1152 19.2383L11.9863 28.5527C12.1296 28.8009 12.3562 28.9905 12.6258 29.0877C12.8954 29.185 13.1908 29.1837 13.4595 29.0841L24.6367 24.9424C24.8029 24.8804 24.9536 24.7828 25.078 24.6562C25.2024 24.5297 25.2976 24.3774 25.3567 24.2102L26.2251 21.762C26.3214 21.489 26.5118 21.2592 26.7622 21.114L28.5919 20.0577L28.1152 19.2383Z" stroke="white" stroke-width="0.7" stroke-linecap="round" stroke-linejoin="round"/>
<path d="M28.1133 20.0148L44.2421 29.3285C44.3853 29.0802 44.4361 28.7893 44.3855 28.5072C44.3349 28.2251 44.1862 27.97 43.9656 27.7869L34.7938 20.1761C34.6569 20.0626 34.4968 19.9806 34.3247 19.9358C34.1526 19.891 33.9728 19.8845 33.798 19.9169L31.2462 20.3878C30.962 20.44 30.6686 20.3889 30.4188 20.2438L28.5892 19.1875L28.1133 20.0148Z" stroke="white" stroke-width="0.7" stroke-linecap="round" stroke-linejoin="round"/>
<path d="M28.5737 18.6059C29.1329 18.7379 29.4793 19.2983 29.3473 19.8575C29.2153 20.4167 28.6549 20.7631 28.0957 20.6311C27.5365 20.4991 27.1901 19.9388 27.3221 19.3795C27.4541 18.8203 28.0145 18.4739 28.5737 18.6059Z" fill="white" stroke="white" stroke-width="0.7"/>
<path d="M31.6955 50.5039H24.9746V53.0017H31.6955V50.5039Z" stroke="white" stroke-width="0.7" stroke-linecap="round" stroke-linejoin="round"/>
<path d="M29.0272 22.2422H27.6548L26.2637 50.5023H30.4183L29.0272 22.2422Z" stroke="white" stroke-width="0.7" stroke-linecap="round" stroke-linejoin="round"/>
<path d="M29.6879 19.9379C29.8643 19.1905 29.4014 18.4417 28.6541 18.2653C27.9067 18.0889 27.1579 18.5518 26.9815 19.2991C26.8051 20.0465 27.268 20.7953 28.0153 20.9717C28.7627 21.1481 29.5115 20.6853 29.6879 19.9379Z" stroke="white" stroke-width="0.7" stroke-linecap="round" stroke-linejoin="round"/>
<path d="M5.58461 32.8773L6.24061 35.1885H3.95706L3.30106 32.8773H5.58461Z" stroke="white" stroke-width="0.7"/>
<path d="M9.24867 32.8773L9.90467 35.1885H7.62046L6.96501 32.8773H9.24867Z" stroke="white" stroke-width="0.7"/>
<path d="M12.9127 32.8773L13.5687 35.1885H11.2852L10.6292 32.8773H12.9127Z" stroke="white" stroke-width="0.7"/>
<path d="M16.5748 32.8773L17.2308 35.1885H14.9473L14.2913 32.8773H16.5748Z" stroke="white" stroke-width="0.7"/>
<path d="M6.62634 36.5395L7.28235 38.8507H4.99808L4.34207 36.5395H6.62634Z" stroke="white" stroke-width="0.7"/>
<path d="M10.2877 36.5395L10.9437 38.8507H8.66018L8.00418 36.5395H10.2877Z" stroke="white" stroke-width="0.7"/>
<path d="M14.0358 36.4496L14.6918 38.7608H12.4082L11.7522 36.4496H14.0358Z" stroke="white" stroke-width="0.7"/>
<path d="M17.6139 36.5395L18.2699 38.8507H15.9857L15.3302 36.5395H17.6139Z" stroke="white" stroke-width="0.7"/>
<path d="M7.66273 40.2006L8.31874 42.5118H6.03519L5.37918 40.2006H7.66273Z" stroke="white" stroke-width="0.7"/>
<path d="M11.4362 40.35L12.0922 42.6612H9.80862L9.15262 40.35H11.4362Z" stroke="white" stroke-width="0.7"/>
<path d="M14.9915 40.2006L15.647 42.5118H13.3633L12.7073 40.2006H14.9915Z" stroke="white" stroke-width="0.7"/>
<path d="M18.651 40.2006L19.307 42.5118H17.0235L16.3675 40.2006H18.651Z" stroke="white" stroke-width="0.7"/>
<path d="M8.70447 43.8637L9.36047 46.1749H7.0762L6.4202 43.8637H8.70447Z" stroke="white" stroke-width="0.7"/>
<path d="M12.3659 43.8637L13.0219 46.1749H10.7383L10.0823 43.8637H12.3659Z" stroke="white" stroke-width="0.7"/>
<path d="M16.0299 43.8637L16.6859 46.1749H14.4024L13.7464 43.8637H16.0299Z" stroke="white" stroke-width="0.7"/>
<path d="M19.692 43.8637L20.348 46.1749H18.0645L17.4085 43.8637H19.692Z" stroke="white" stroke-width="0.7"/>
<path d="M17.6595 30.8965H1.18786C0.971843 30.8965 0.842241 31.0736 0.904164 31.2918L5.58009 47.7605C5.6143 47.8705 5.68134 47.9674 5.77221 48.0382C5.86308 48.109 5.97343 48.1503 6.08844 48.1565H22.5572C22.7732 48.1565 22.9021 47.9794 22.8401 47.7605L18.1664 31.2918C18.1322 31.1821 18.0654 31.0855 17.9748 31.0148C17.8842 30.9442 17.7742 30.9029 17.6595 30.8965V30.8965Z" stroke="white" stroke-width="0.7" stroke-linecap="round" stroke-linejoin="round"/>
<path d="M11.2891 52.9996H15.4293L17.1391 49.0996H12.9988L11.2891 52.9996Z" stroke="white" stroke-width="0.7" stroke-linecap="round" stroke-linejoin="round"/>
<path d="M7.64445 22.6686C7.3113 22.3354 6.92923 22.0582 6.51314 21.8455C6.92923 21.6328 7.3113 21.3555 7.64445 21.0224C7.97764 20.6892 8.2549 20.3071 8.46763 19.8909C8.68045 20.3071 8.95781 20.6893 9.2911 21.0225C9.62429 21.3556 10.0064 21.6328 10.4225 21.8455C10.0064 22.0582 9.62429 22.3354 9.2911 22.6685C8.95781 23.0017 8.68045 23.3838 8.46763 23.8C8.25491 23.3839 7.97764 23.0018 7.64445 22.6686Z" stroke="white" stroke-width="0.7"/>
<path d="M13.6592 20.4941C13.4896 20.3244 13.301 20.1763 13.0979 20.0524C13.3009 19.9286 13.4894 19.7806 13.659 19.611C13.8288 19.4413 13.9769 19.2527 14.1009 19.0496C14.2249 19.2527 14.3731 19.4413 14.5428 19.611C14.7124 19.7806 14.9009 19.9286 15.104 20.0524C14.9009 20.1763 14.7123 20.3244 14.5426 20.4941C14.3729 20.6638 14.2249 20.8523 14.1009 21.0555C13.977 20.8523 13.8289 20.6638 13.6592 20.4941Z" stroke="white" stroke-width="0.7"/>
</svg>
