<svg width="67" height="54" viewBox="0 0 67 54" fill="none" xmlns="http://www.w3.org/2000/svg">
<path d="M41.215 15.9756C41.215 15.9756 25.6623 25.3741 8.80273 15.9756" stroke="white" stroke-width="0.7" stroke-linecap="round" stroke-linejoin="round"/>
<path d="M33.489 32.306C33.4771 32.3073 33.4647 32.308 33.4518 32.308C33.439 32.308 33.4266 32.3073 33.4146 32.306C33.4058 32.269 33.4004 32.219 33.4004 32.1638C33.4004 32.1086 33.4058 32.0586 33.4146 32.0216C33.4266 32.0203 33.439 32.0196 33.4518 32.0196C33.4647 32.0196 33.4771 32.0203 33.489 32.0216C33.4979 32.0586 33.5033 32.1086 33.5033 32.1638C33.5033 32.219 33.4979 32.269 33.489 32.306Z" stroke="white" stroke-width="0.7"/>
<path d="M33.4531 32.1638V31.958" stroke="white" stroke-width="0.7"/>
<path d="M33.4531 32.1624L33.4788 31.9844" stroke="white" stroke-width="0.7"/>
<path d="M33.4531 32.1629L33.4986 32.0596" stroke="white" stroke-width="0.7"/>
<path d="M33.4531 32.1621H33.5065" stroke="white" stroke-width="0.7"/>
<path d="M33.4531 32.1621L33.4986 32.2654" stroke="white" stroke-width="0.7"/>
<path d="M33.4531 32.1621L33.4788 32.3401" stroke="white" stroke-width="0.7"/>
<path d="M33.4531 32.1621V32.3679" stroke="white" stroke-width="0.7"/>
<path d="M33.4515 32.1621L33.4258 32.3401" stroke="white" stroke-width="0.7"/>
<path d="M33.4546 32.1621L33.4102 32.2654" stroke="white" stroke-width="0.7"/>
<path d="M33.4538 32.1621H33.4004" stroke="white" stroke-width="0.7"/>
<path d="M33.4546 32.1629L33.4102 32.0596" stroke="white" stroke-width="0.7"/>
<path d="M33.4554 32.1624L33.4297 31.9844" stroke="white" stroke-width="0.7"/>
<path d="M65.8885 53H1.01758" stroke="white" stroke-width="0.7" stroke-linecap="round" stroke-linejoin="round"/>
<path d="M11.3711 49.8498L21.8717 37.1411L13.5494 27.7199L20.038 18.5066L14.9992 12.9893" stroke="white" stroke-width="0.7" stroke-linecap="round" stroke-linejoin="round"/>
<path d="M23.1197 49.8498L12.6191 37.1411L20.9414 27.7199L14.4528 18.5066L19.4916 12.9893" stroke="white" stroke-width="0.7" stroke-linecap="round" stroke-linejoin="round"/>
<path d="M11.3711 49.85L15.4242 8.66992H19.0688L23.1229 49.85" stroke="white" stroke-width="0.7" stroke-linecap="round" stroke-linejoin="round"/>
<path d="M25.6891 14.9226V11.0547H8.80078V14.9226" stroke="white" stroke-width="0.7" stroke-linecap="round" stroke-linejoin="round"/>
<path d="M43.7852 49.8498L54.2857 37.1411L45.9635 27.7199L52.4511 18.5066L47.4133 12.9893" stroke="white" stroke-width="0.7" stroke-linecap="round" stroke-linejoin="round"/>
<path d="M55.5396 49.8498L45.0391 37.1411L53.3613 27.7199L46.8727 18.5066L51.9105 12.9893" stroke="white" stroke-width="0.7" stroke-linecap="round" stroke-linejoin="round"/>
<path d="M43.7852 49.85L47.8382 8.66992H51.4828L55.5369 49.85" stroke="white" stroke-width="0.7" stroke-linecap="round" stroke-linejoin="round"/>
<path d="M58.1052 14.9226V11.0547H41.2168V14.9226" stroke="white" stroke-width="0.7" stroke-linecap="round" stroke-linejoin="round"/>
<path d="M26.7955 31.7699H33.599C34.0154 31.7699 34.3531 32.1075 34.3531 32.524V39.5117C34.3531 39.9281 34.0154 40.2658 33.599 40.2658H26.7955C26.379 40.2658 26.0414 39.9281 26.0414 39.5117V32.524C26.0414 32.1075 26.379 31.7699 26.7955 31.7699Z" stroke="white" stroke-width="0.7"/>
<path d="M33.599 31.4199H26.7955C26.1857 31.4199 25.6914 31.9142 25.6914 32.524V39.5117C25.6914 40.1214 26.1857 40.6158 26.7955 40.6158H33.599C34.2087 40.6158 34.7031 40.1214 34.7031 39.5117V32.524C34.7031 31.9142 34.2087 31.4199 33.599 31.4199Z" stroke="white" stroke-width="0.7" stroke-linecap="round" stroke-linejoin="round"/>
<path d="M32.7832 33.2002V38.8338" stroke="white" stroke-width="0.7" stroke-linecap="round" stroke-linejoin="round"/>
<path d="M27.6113 33.2002V38.8338" stroke="white" stroke-width="0.7" stroke-linecap="round" stroke-linejoin="round"/>
<path d="M29.334 33.2002V38.8338" stroke="white" stroke-width="0.7" stroke-linecap="round" stroke-linejoin="round"/>
<path d="M31.0605 33.2002V38.8338" stroke="white" stroke-width="0.7" stroke-linecap="round" stroke-linejoin="round"/>
<path d="M26.7955 40.9643H33.599C34.0154 40.9643 34.3531 41.3019 34.3531 41.7183V48.706C34.3531 49.1225 34.0154 49.4601 33.599 49.4601H26.7955C26.379 49.4601 26.0414 49.1225 26.0414 48.706V41.7183C26.0414 41.3019 26.379 40.9643 26.7955 40.9643Z" stroke="white" stroke-width="0.7"/>
<path d="M33.599 40.6143H26.7955C26.1857 40.6143 25.6914 41.1086 25.6914 41.7183V48.706C25.6914 49.3158 26.1857 49.8101 26.7955 49.8101H33.599C34.2087 49.8101 34.7031 49.3158 34.7031 48.706V41.7183C34.7031 41.1086 34.2087 40.6143 33.599 40.6143Z" stroke="white" stroke-width="0.7" stroke-linecap="round" stroke-linejoin="round"/>
<path d="M32.7832 42.3945V48.0281" stroke="white" stroke-width="0.7" stroke-linecap="round" stroke-linejoin="round"/>
<path d="M27.6113 42.3945V48.0281" stroke="white" stroke-width="0.7" stroke-linecap="round" stroke-linejoin="round"/>
<path d="M29.3379 42.3945V48.0281" stroke="white" stroke-width="0.7" stroke-linecap="round" stroke-linejoin="round"/>
<path d="M31.0605 42.3945V48.0281" stroke="white" stroke-width="0.7" stroke-linecap="round" stroke-linejoin="round"/>
<path d="M58.8187 49.8496H8.08984V52.9993H58.8187V49.8496Z" stroke="white" stroke-width="0.7" stroke-linecap="round" stroke-linejoin="round"/>
<path d="M58.1037 15.9756C58.1037 15.9756 42.552 25.3741 25.6914 15.9756" stroke="white" stroke-width="0.7" stroke-linecap="round" stroke-linejoin="round"/>
<path d="M27.6113 6.2518C28.6122 6.52136 29.5248 7.04901 30.2577 7.78196C30.9907 8.51491 31.5183 9.42747 31.7879 10.4284V10.4284C32.0573 9.42738 32.5848 8.51471 33.3178 7.78173C34.0508 7.04875 34.9635 6.52117 35.9645 6.2518V6.2518C34.9634 5.98225 34.0507 5.45449 33.3177 4.72133C32.5847 3.98817 32.0572 3.07534 31.7879 2.07422V2.07422C31.5184 3.07525 30.9908 3.98797 30.2578 4.7211C29.5249 5.45423 28.6123 5.98206 27.6113 6.2518V6.2518Z" stroke="white" stroke-width="0.7" stroke-linecap="round" stroke-linejoin="round"/>
<path d="M37.1504 3.69074C37.7952 3.86386 38.3831 4.20351 38.8552 4.6756C39.3273 5.1477 39.667 5.73564 39.8401 6.38045V6.38045C40.0131 5.73576 40.3526 5.14791 40.8245 4.67582C41.2964 4.20374 41.8842 3.86402 42.5288 3.69074V3.69074C41.884 3.51736 41.2962 3.17749 40.8243 2.70522C40.3524 2.23294 40.013 1.64487 39.8401 1V1C39.6671 1.645 39.3276 2.23315 38.8555 2.70543C38.3833 3.17772 37.7953 3.51752 37.1504 3.69074V3.69074Z" stroke="white" stroke-width="0.7" stroke-linecap="round" stroke-linejoin="round"/>
</svg>
