<svg width="24" height="24" viewBox="0 0 24 24" fill="none" xmlns="http://www.w3.org/2000/svg">
<path fill-rule="evenodd" clip-rule="evenodd" d="M4.08826 7.7364C4.84257 3.96483 8.15414 1.25 12.0004 1.25C15.8466 1.25 19.1582 3.96483 19.9125 7.7364L21.1663 14.0054C21.569 16.019 20.5001 18.0431 18.6328 18.873C17.951 19.176 17.2512 19.4298 16.5392 19.6343L16.4355 19.8678C15.6565 21.6205 13.9184 22.75 12.0004 22.75C10.0824 22.75 8.3443 21.6205 7.56533 19.8678L7.46157 19.6343C6.74961 19.4298 6.04979 19.176 5.36796 18.873C3.50065 18.0431 2.43174 16.019 2.83447 14.0054L4.08826 7.7364ZM15.732 18.2997C15.7828 18.2802 15.8357 18.2662 15.8897 18.2581C16.6167 18.0623 17.3306 17.8103 18.0236 17.5023C19.2588 16.9533 19.9586 15.6151 19.6954 14.2995L18.4417 8.03057C17.8276 4.96014 15.1316 2.75 12.0004 2.75C8.86916 2.75 6.17322 4.96014 5.55913 8.03057L4.30534 14.2995C4.04222 15.6151 4.74199 16.9533 5.97717 17.5023C6.67024 17.8103 7.38406 18.0623 8.11109 18.2581C8.16513 18.2662 8.21802 18.2802 8.26882 18.2997C10.7092 18.9283 13.2915 18.9283 15.732 18.2997ZM12.0004 21.25C12.9977 21.25 13.9246 20.808 14.5516 20.0731C12.8629 20.3372 11.1379 20.3372 9.44915 20.0731C10.0762 20.808 11.0031 21.25 12.0004 21.25ZM15.5307 9.53033C15.8236 9.23744 15.8236 8.76256 15.5307 8.46967C15.2378 8.17678 14.763 8.17678 14.4701 8.46967L11.0004 11.9393L10.0307 10.9697C9.73783 10.6768 9.26296 10.6768 8.97006 10.9697C8.67717 11.2626 8.67717 11.7374 8.97006 12.0303L10.4701 13.5303C10.6107 13.671 10.8015 13.75 11.0004 13.75C11.1993 13.75 11.3901 13.671 11.5307 13.5303L15.5307 9.53033Z" fill="white"/>
</svg>
