<svg width="62" height="62" viewBox="0 0 62 62" fill="none" xmlns="http://www.w3.org/2000/svg">
<path d="M38.1632 11.0972C37.9743 11.001 37.7582 10.9723 37.5508 11.016C37.3434 11.0596 37.1572 11.173 37.0232 11.3372L19.0419 33.4428C18.9314 33.5783 18.8616 33.7423 18.8406 33.9159C18.8197 34.0895 18.8484 34.2654 18.9235 34.4233C18.9986 34.5812 19.117 34.7146 19.2649 34.8079C19.4128 34.9011 19.5841 34.9505 19.7589 34.9503H27.6928L23.6863 49.9596C23.6317 50.1643 23.6488 50.3815 23.7348 50.575C23.8209 50.7686 23.9707 50.9268 24.1592 51.0233C24.2884 51.088 24.4308 51.1221 24.5753 51.1231C24.713 51.1234 24.849 51.0928 24.9734 51.0335C25.0977 50.9742 25.2072 50.8878 25.2936 50.7806L43.2292 28.675C43.3393 28.5395 43.4087 28.3755 43.4295 28.2022C43.4502 28.0288 43.4214 27.8532 43.3463 27.6955C43.2713 27.5379 43.1531 27.4047 43.0054 27.3115C42.8578 27.2183 42.6868 27.1689 42.5122 27.1689H34.5811L38.6319 12.1609C38.6869 11.9567 38.6704 11.7399 38.5851 11.5464C38.4999 11.3529 38.351 11.1944 38.1632 11.0972ZM32.4773 27.8526C32.4402 27.9896 32.4352 28.1332 32.4626 28.2724C32.49 28.4116 32.5492 28.5426 32.6354 28.6553C32.7217 28.768 32.8327 28.8593 32.9599 28.9221C33.0871 28.9849 33.2271 29.0175 33.369 29.0175H40.5665L26.582 46.2527L29.7841 34.2652C29.8207 34.1282 29.8252 33.9847 29.7975 33.8457C29.7698 33.7066 29.7105 33.5759 29.6242 33.4634C29.5378 33.351 29.4268 33.2599 29.2997 33.1972C29.1726 33.1344 29.0328 33.1017 28.891 33.1016H21.7032L35.7099 15.8748L32.4773 27.8526Z" fill="#02B3AC" stroke="#02B3AC" stroke-width="0.6"/>
<path d="M28.8883 59.274C23.2601 58.8224 17.8957 56.6978 13.4846 53.1732C9.07352 49.6486 5.8175 44.8852 4.13517 39.4954C2.45284 34.1056 2.4211 28.3358 4.04403 22.9278C5.66696 17.5198 8.87035 12.7209 13.2424 9.14794C13.343 9.06556 13.4252 8.96287 13.4835 8.84658C13.5418 8.73028 13.5749 8.60299 13.5807 8.47303C13.5864 8.34307 13.5647 8.21336 13.5169 8.09237C13.4691 7.97137 13.3964 7.86182 13.3034 7.77086L11.5005 5.99852L20.2111 4.09305L18.5469 12.8549L17.2835 11.6248C17.1066 11.4595 16.872 11.3701 16.6299 11.3759C16.3879 11.3817 16.1578 11.4821 15.989 11.6556C15.8201 11.8292 15.7261 12.062 15.727 12.3041C15.7279 12.5462 15.8237 12.7783 15.9938 12.9505L18.49 15.3775C18.6096 15.4939 18.7585 15.5758 18.9209 15.6144C19.0833 15.653 19.2531 15.6468 19.4123 15.5966C19.5715 15.5464 19.7141 15.454 19.8249 15.3292C19.9358 15.2044 20.0108 15.0519 20.0419 14.8879L22.294 3.06402C22.3227 2.91348 22.3136 2.75818 22.2674 2.61206C22.2212 2.46593 22.1394 2.33356 22.0294 2.22686C21.9194 2.12016 21.7846 2.04244 21.6372 2.00073C21.4897 1.95901 21.3342 1.95462 21.1846 1.98789L9.43282 4.559C9.2699 4.59445 9.1196 4.67333 8.99789 4.7873C8.87618 4.90127 8.78759 5.04607 8.74152 5.20632C8.69545 5.36657 8.6936 5.53629 8.73621 5.69749C8.77881 5.8587 8.86427 6.00537 8.9835 6.12193L11.2925 8.38243C10.7087 8.89277 10.1429 9.42947 9.60062 9.9828C5.59256 14.0783 2.83485 19.2313 1.65068 24.838C0.466503 30.4447 0.904926 36.2728 2.91458 41.6392C4.92423 47.0057 8.42184 51.6882 12.9975 55.1379C17.5732 58.5876 23.0373 60.6617 28.7496 61.117H28.8231C29.0597 61.1134 29.2859 61.0192 29.4551 60.8538C29.6244 60.6885 29.7238 60.4647 29.7331 60.2283C29.7423 59.9918 29.6606 59.7609 29.5047 59.5828C29.3489 59.4048 29.1308 59.2933 28.8952 59.2712L28.8883 59.274Z" fill="#02B3AC" stroke="#02B3AC" stroke-width="0.6"/>
<path d="M52.2222 9.52675C47.116 4.53099 40.4025 1.50963 33.2771 1.00069C33.0371 0.991425 32.8029 1.0759 32.624 1.23624C32.4451 1.39657 32.3356 1.62018 32.3187 1.85979C32.3018 2.09939 32.3787 2.33618 32.5333 2.52008C32.6878 2.70397 32.9078 2.82056 33.1467 2.84514C39.8345 3.3235 46.1356 6.15952 50.9283 10.8484C62.0768 21.7611 62.2682 39.7105 51.3569 50.8604C50.7883 51.4401 49.9312 52.214 48.9993 52.9823C48.9 53.0651 48.8191 53.1679 48.762 53.284C48.7049 53.4 48.6727 53.5268 48.6677 53.656C48.6626 53.7853 48.6846 53.9142 48.7324 54.0343C48.7802 54.1545 48.8527 54.2634 48.9452 54.3538L50.7688 56.1386L42.0583 58.0441L43.7225 49.2822L44.8472 50.3751C44.9331 50.4651 45.0362 50.5369 45.1505 50.5862C45.2648 50.6354 45.3878 50.6611 45.5123 50.6617C45.6367 50.6623 45.76 50.6378 45.8747 50.5896C45.9894 50.5414 46.0933 50.4706 46.18 50.3814C46.2667 50.2921 46.3345 50.1863 46.3794 50.0702C46.4243 49.9541 46.4453 49.8302 46.4411 49.7059C46.437 49.5815 46.4078 49.4592 46.3553 49.3464C46.3027 49.2336 46.228 49.1325 46.1355 49.0493L43.778 46.7597C43.6583 46.6432 43.5093 46.5613 43.3468 46.5228C43.1843 46.4843 43.0144 46.4906 42.8552 46.5409C42.696 46.5913 42.5534 46.6839 42.4426 46.8088C42.3319 46.9338 42.257 47.0865 42.2261 47.2506L39.9865 59.0731C39.9612 59.2067 39.9657 59.3443 39.9996 59.476C40.0336 59.6077 40.0961 59.7303 40.1829 59.835C40.2696 59.9398 40.3784 60.0241 40.5014 60.082C40.6245 60.1399 40.7588 60.17 40.8948 60.17C40.961 60.17 41.027 60.163 41.0917 60.1493L52.8435 57.5781C53.0064 57.5424 53.1567 57.4633 53.2783 57.3492C53.4 57.2351 53.4885 57.0902 53.5346 56.9299C53.5806 56.7696 53.5824 56.5998 53.5399 56.4386C53.4973 56.2773 53.412 56.1305 53.2928 56.0138L50.9699 53.7394C51.5066 53.2721 52.1432 52.698 52.6771 52.153C64.3027 40.275 64.0988 21.1523 52.2222 9.52675Z" fill="#02B3AC" stroke="#02B3AC" stroke-width="0.6"/>
</svg>
