<svg width="67" height="60" viewBox="0 0 67 60" fill="none" xmlns="http://www.w3.org/2000/svg">
<path d="M56.0367 20.0684C55.9234 20.0249 55.8027 20.0041 55.6814 20.0072C55.56 20.0103 55.4405 20.0374 55.3296 20.0867C55.2188 20.136 55.1187 20.2067 55.0352 20.2947C54.9516 20.3827 54.8862 20.4863 54.8426 20.5995C54.7991 20.7128 54.7783 20.8336 54.7815 20.9549C54.7846 21.0762 54.8116 21.1957 54.8609 21.3066C54.9102 21.4174 54.9809 21.5175 55.0689 21.6011C55.1569 21.6846 55.2605 21.75 55.3738 21.7936C61.2816 24.0624 64.6654 27.1369 64.6654 30.2309C64.6654 33.9753 59.8989 37.3826 52.6293 39.5849C51.2009 34.3677 48.8101 28.7678 45.6801 23.3509C44.7856 21.8019 43.8495 20.3 42.8842 18.8619C45.574 19.1836 48.239 19.6863 50.8611 20.3665C50.4368 21.9198 49.9139 23.5382 49.294 25.2037C49.2516 25.3175 49.232 25.4384 49.2364 25.5597C49.2408 25.681 49.269 25.8003 49.3195 25.9106C49.37 26.021 49.4418 26.1204 49.5307 26.203C49.6196 26.2856 49.7239 26.3499 49.8377 26.3922C49.9409 26.4315 50.0504 26.4517 50.1608 26.4519C50.3492 26.4516 50.533 26.3938 50.6876 26.2862C50.8423 26.1787 50.9604 26.0265 51.0262 25.85C55.396 14.1148 55.0479 4.70122 50.1386 1.8666C46.8977 -0.00420225 42.2033 1.18292 36.9238 5.21297C36.7367 5.36446 36.6161 5.58289 36.5875 5.8219C36.5589 6.0609 36.6245 6.30164 36.7706 6.49299C36.9166 6.68434 37.1315 6.81123 37.3696 6.8467C37.6077 6.88217 37.8502 6.82343 38.0457 6.68296C42.6221 3.18544 46.6966 2.0136 49.2136 3.46836C52.3644 5.28785 53.0675 11.0389 51.3146 18.5734C48.0912 17.7446 44.8079 17.1696 41.4947 16.8538C38.1747 12.2219 34.5482 8.2972 30.9411 5.47367C25.5187 1.23283 20.7051 -0.0485785 17.3865 1.86798C13.9971 3.82476 12.7213 8.77426 13.7919 15.804C13.806 15.9275 13.8448 16.047 13.9061 16.1551C13.9675 16.2633 14.05 16.358 14.1487 16.4336C14.2474 16.5092 14.3604 16.5641 14.4809 16.595C14.6013 16.6259 14.7267 16.6323 14.8497 16.6136C14.9726 16.595 15.0906 16.5517 15.1964 16.4864C15.3023 16.4212 15.3938 16.3353 15.4657 16.2338C15.5376 16.1323 15.5883 16.0174 15.6147 15.8959C15.6412 15.7744 15.6429 15.6488 15.6197 15.5266C14.685 9.39139 15.6668 4.99662 18.3115 3.46975C20.8951 1.97755 25.0833 3.24093 29.8012 6.93676C30.6818 7.63016 31.5624 8.38595 32.4361 9.20555C28.6335 13.0498 24.9737 17.9299 21.8409 23.3509C20.9519 24.8917 20.1185 26.4546 19.3446 28.0134C18.2783 25.5255 17.3813 22.9685 16.6598 20.3596C18.0938 19.9824 19.6137 19.6482 21.2113 19.368C21.4527 19.3258 21.6675 19.1893 21.8083 18.9886C21.9492 18.788 22.0045 18.5396 21.9622 18.2982C21.9199 18.0567 21.7834 17.8419 21.5828 17.7011C21.3821 17.5602 21.1338 17.5049 20.8923 17.5472C8.62186 19.7023 1 24.563 1 30.2309C1 34.1209 4.60569 37.6863 11.1639 40.2713C11.2717 40.3137 11.3864 40.3358 11.5023 40.3365C11.7171 40.3353 11.9248 40.2596 12.0899 40.1222C12.255 39.9848 12.3672 39.7943 12.4073 39.5832C12.4474 39.3722 12.413 39.1538 12.3099 38.9654C12.2068 38.777 12.0414 38.6303 11.8421 38.5503C6.12704 36.2968 2.84862 33.2652 2.84862 30.2295C2.84862 26.6086 7.48887 23.1166 14.8819 20.863C16.3103 26.0816 18.6984 31.6801 21.8339 37.1108C22.7229 38.6502 23.6604 40.1535 24.627 41.5985C21.9396 41.2771 19.2769 40.7749 16.657 40.0952C17.0268 38.7408 17.4692 37.3429 17.9842 35.9015C18.0671 35.6709 18.055 35.4168 17.9506 35.1951C17.8462 34.9734 17.658 34.8022 17.4274 34.7193C17.1968 34.6363 16.9427 34.6484 16.721 34.7528C16.4992 34.8573 16.3281 35.0455 16.2452 35.2761C12.0847 46.8503 12.5133 55.7855 17.3754 58.5938C18.414 59.1818 19.5908 59.482 20.7842 59.4633C23.7422 59.4633 27.3229 57.8671 31.2101 54.7648C31.3091 54.6905 31.3922 54.597 31.4544 54.49C31.5166 54.383 31.5567 54.2646 31.5723 54.1418C31.5879 54.019 31.5787 53.8943 31.5453 53.7752C31.5118 53.656 31.4548 53.5447 31.3775 53.448C31.3003 53.3513 31.2044 53.271 31.0956 53.212C30.9868 53.153 30.8672 53.1165 30.744 53.1045C30.6208 53.0926 30.4965 53.1054 30.3784 53.1424C30.2602 53.1794 30.1507 53.2397 30.0563 53.3198C25.2247 57.1765 20.9381 58.5147 18.3004 56.992C15.1731 55.1892 14.4659 49.4132 16.2063 41.887C21.4373 43.2599 27.4796 43.9921 33.7522 43.9921C35.555 43.9921 37.319 43.9311 39.0359 43.8188C37.413 45.9868 35.6459 48.0429 33.7466 49.9734C32.3692 48.5727 31.063 47.1036 29.8331 45.5717C29.6793 45.3808 29.456 45.2588 29.2123 45.2325C28.9687 45.2063 28.7245 45.2779 28.5336 45.4316C28.3427 45.5854 28.2207 45.8086 28.1944 46.0523C28.1682 46.296 28.2398 46.5402 28.3935 46.7311C34.9337 54.8494 41.7152 59.4508 46.7493 59.4508C47.9315 59.4702 49.0975 59.1744 50.1275 58.5938C53.5196 56.6342 54.7955 51.6778 53.7194 44.6356C53.6747 44.4004 53.5406 44.1917 53.3453 44.0533C53.1499 43.9149 52.9085 43.8577 52.6718 43.8936C52.4351 43.9295 52.2216 44.0558 52.076 44.2459C51.9305 44.436 51.8644 44.6751 51.8915 44.913C52.8304 51.0593 51.8513 55.461 49.2025 56.9893C46.0254 58.8226 40.7195 56.5607 35.0696 51.2617C37.3986 48.884 39.538 46.3278 41.4683 43.6163C55.9895 42.1935 66.5029 36.821 66.5029 30.2267C66.5182 26.2716 62.7904 22.6617 56.0367 20.0684ZM39.0594 16.6499C37.3218 16.5348 35.555 16.4696 33.7674 16.4696C31.9798 16.4696 30.22 16.5307 28.4809 16.6458C30.104 14.4767 31.8715 12.4195 33.7716 10.4883C35.6719 12.4199 37.4385 14.4786 39.0594 16.6499ZM33.7674 42.1435C31.4847 42.1435 29.2367 42.0423 27.047 41.8495C27.0386 41.8357 27.0331 41.8204 27.0234 41.8065C25.7753 40.0259 24.5757 38.1357 23.451 36.1872C22.3096 34.2124 21.2737 32.214 20.3459 30.2239C20.3459 30.2156 20.357 30.2087 20.3612 30.2004C21.2806 28.2283 22.3193 26.2355 23.451 24.2774C24.5826 22.3192 25.8085 20.404 27.065 18.6025C27.0876 18.6039 27.1103 18.6039 27.1329 18.6025C29.2949 18.4153 31.5277 18.3252 33.7674 18.3252C36.0459 18.3252 38.2912 18.4264 40.4782 18.6178C41.7263 20.4095 42.9411 22.3025 44.0838 24.2815C45.2266 26.2605 46.2583 28.2492 47.1875 30.2448C46.2542 32.2459 45.2099 34.2485 44.0852 36.1969C42.9481 38.1662 41.7415 40.0578 40.4795 41.8537C38.312 42.0381 36.0653 42.1435 33.7674 42.1435ZM45.6856 37.1122C46.569 35.5867 47.4024 34.0196 48.1818 32.4484C49.2458 34.9325 50.1414 37.4853 50.8625 40.0897C48.2442 40.7651 45.5841 41.2664 42.8995 41.5902C43.8592 40.1465 44.7952 38.6543 45.6856 37.1122Z" fill="#02B3AC" stroke="#02B3AC" stroke-width="0.6"/>
<path d="M33.7622 23.9541C32.3807 23.9551 31.0381 24.4119 29.9427 25.2537C28.8472 26.0954 28.06 27.275 27.7032 28.6096C27.3464 29.9443 27.4399 31.3593 27.9691 32.6354C28.4984 33.9115 29.4339 34.9774 30.6306 35.6677C31.8273 36.358 33.2183 36.6342 34.5879 36.4535C35.9576 36.2728 37.2293 35.6453 38.206 34.6682C39.1827 33.6912 39.8098 32.4192 39.99 31.0495C40.1701 29.6797 39.8934 28.2888 39.2027 27.0924C38.6513 26.1377 37.8582 25.345 36.9031 24.794C35.9481 24.2431 34.8648 23.9534 33.7622 23.9541ZM35.9811 34.0653C35.2227 34.5034 34.3515 34.7069 33.4775 34.6498C32.6035 34.5928 31.766 34.2778 31.071 33.7447C30.3761 33.2117 29.8548 32.4845 29.5731 31.6552C29.2914 30.8259 29.262 29.9316 29.4886 29.0856C29.7152 28.2395 30.1876 27.4797 30.8461 26.9021C31.5046 26.3246 32.3195 25.9553 33.1879 25.841C34.0562 25.7266 34.939 25.8724 35.7245 26.2598C36.5101 26.6472 37.1631 27.2589 37.6009 28.0174C37.8919 28.5208 38.0809 29.0766 38.1569 29.6531C38.233 30.2296 38.1948 30.8154 38.0443 31.377C37.8939 31.9387 37.6343 32.4652 37.2802 32.9265C36.9262 33.3877 36.4848 33.7747 35.9811 34.0653Z" fill="#02B3AC" stroke="#02B3AC" stroke-width="0.6"/>
</svg>
