<svg width="72" height="72" viewBox="0 0 72 72" fill="none" xmlns="http://www.w3.org/2000/svg">
<path d="M13.0397 3.30266e-05C12.8385 0.00118524 12.6294 0.0862589 12.2701 0.249489C11.0858 0.787571 0 7.30485 0 22.4833C0 36.3041 9.29987 42.9106 11.8309 44.4557V65.0807C11.8309 68.3382 14.4971 71.0019 17.7544 71.0019H54.4329C57.6902 71.0019 60.3472 68.338 60.3472 65.0807V43.783H62.7138C64.292 43.783 64.292 41.4164 62.7138 41.4164H56.7995V39.0498H62.7138C65.9711 39.0498 68.6373 36.3928 68.6373 33.1353V24.8449H69.816C70.4695 24.8472 71.0015 24.3197 71.004 23.6662V18.9306C71.0017 18.2772 70.4695 17.7494 69.816 17.7519H66.2684V9.45026C66.2684 7.87212 63.9017 7.87212 63.9017 9.45026V17.7519H54.4329V9.45026C54.4329 8.661 53.8412 8.26695 53.2496 8.26695C52.6579 8.26695 52.0662 8.661 52.0662 9.45026V17.7519H48.4585C47.7919 17.8128 47.3301 18.3223 47.3307 18.9306V23.6662C47.333 24.3197 47.8651 24.8474 48.5186 24.8449H66.2686V33.1353C66.2686 35.1225 64.7012 36.6806 62.714 36.6806H55.6118C53.6246 36.6806 52.0664 35.1225 52.0664 33.1353V28.402C52.0664 26.8239 49.6975 26.8239 49.6975 28.402V33.1353C49.6975 35.9895 51.7367 38.383 54.4331 38.9319V42.5951C54.4308 43.2488 54.9581 43.7807 55.6118 43.783H57.9784V65.0807C57.9784 67.0679 56.4203 68.6352 54.4331 68.6352H17.7546C15.7674 68.6352 14.1977 67.0679 14.1977 65.0807C14.1989 53.799 14.1977 42.536 14.1977 31.2589L18.5844 26.8722C19.7489 25.7602 18.0342 24.0361 16.9158 25.1943L14.1979 27.9123V21.7945L18.5846 17.4032C19.7487 16.2911 18.0344 14.5674 16.916 15.7252L14.1981 18.4433V12.9958C14.234 11.3827 11.7956 11.3827 11.8315 12.9958V18.434L9.12512 15.7256C8.90005 15.4944 8.5903 15.3648 8.26768 15.3672C7.20246 15.3674 6.67974 16.6646 7.44711 17.4034L11.8315 21.7875V27.9031L9.12512 25.1944C8.90005 24.9632 8.5903 24.834 8.26768 24.8361C7.20246 24.8363 6.67974 26.1335 7.44711 26.8722L11.8315 31.252V41.6616C8.70091 39.4532 2.36721 33.6129 2.36721 22.4833C2.36721 9.6254 10.8192 3.82902 13.0171 2.53777C15.2151 3.82902 23.667 9.62521 23.667 22.4833C23.667 30.9463 19.9762 36.3146 16.8213 39.4219C15.6929 40.5298 17.3582 42.2206 18.483 41.109C21.9619 37.6827 26.0336 31.6412 26.0336 22.4831C26.0336 7.30466 14.9198 0.844989 13.7635 0.249489C13.434 0.0799217 13.2408 -0.00188732 13.0397 3.30266e-05ZM49.6975 20.1215H68.6377V22.4881H49.6975V20.1215ZM37.8272 29.5811C37.4388 29.599 37.0827 29.8025 36.8749 30.1311L26.218 46.6929C25.7085 47.4813 26.2754 48.5205 27.214 48.5188H33.0058L31.9565 59.0533C31.8377 60.2902 33.4617 60.8509 34.1313 59.8043L44.7812 43.2425C45.2907 42.4542 44.7236 41.4149 43.7851 41.4166H36.6829C35.0698 41.3809 35.0698 43.819 36.6829 43.7832H41.6172L34.7969 54.3962L35.495 47.4534C35.5647 46.7563 35.0168 46.1516 34.3163 46.1522H29.3796L36.2022 35.5461L35.9758 37.7649C35.7646 39.3801 38.2205 39.6257 38.3332 38.0005L39.0405 30.8819C39.1119 30.1708 38.5416 29.559 37.827 29.5807L37.8272 29.5811Z" fill="#02B3AC"/>
</svg>
