<svg width="68" height="67" viewBox="0 0 68 67" fill="none" xmlns="http://www.w3.org/2000/svg">
<path d="M28.3518 56.582H25.0234V58.8009H28.3518V56.582Z" fill="#02B3AC"/>
<path d="M28.3518 52.1436H25.0234V54.3624H28.3518V52.1436Z" fill="#02B3AC"/>
<path d="M38.3342 56.582H35.0059V58.8009H38.3342V56.582Z" fill="#02B3AC"/>
<path d="M38.3342 52.1436H35.0059V54.3624H38.3342V52.1436Z" fill="#02B3AC"/>
<path d="M48.3205 56.582H44.9922V58.8009H48.3205V56.582Z" fill="#02B3AC"/>
<path d="M48.3205 52.1436H44.9922V54.3624H48.3205V52.1436Z" fill="#02B3AC"/>
<path d="M1.72468 66.5667H51.6496C51.9438 66.5667 52.226 66.4498 52.4341 66.2418C52.6421 66.0337 52.759 65.7515 52.759 65.4573V41.0495C52.7591 40.8419 52.7008 40.6383 52.5908 40.4622C52.4808 40.286 52.3236 40.1442 52.1371 40.0529C51.9505 39.9617 51.7421 39.9247 51.5355 39.946C51.3289 39.9674 51.1325 40.0463 50.9685 40.1739L42.7741 46.5472V41.0495C42.7741 40.8419 42.7158 40.6383 42.6058 40.4622C42.4959 40.286 42.3386 40.1442 42.1521 40.0529C41.9655 39.9617 41.7571 39.9247 41.5505 39.946C41.3439 39.9674 41.1475 40.0463 40.9835 40.1739L32.7891 46.5472V41.0495C32.7891 40.8419 32.7308 40.6383 32.6208 40.4622C32.5109 40.286 32.3537 40.1442 32.1671 40.0529C31.9805 39.9617 31.7721 39.9247 31.5655 39.946C31.3589 39.9674 31.1625 40.0463 30.9986 40.1739L22.8041 46.5472V45.4873C22.8041 45.1931 22.6872 44.9109 22.4791 44.7028C22.2711 44.4948 21.9889 44.3779 21.6946 44.3779H19.4758V39.9401H22.8041C23.0983 39.9401 23.3805 39.8232 23.5886 39.6151C23.7966 39.4071 23.9135 39.1249 23.9135 38.8307H26.1324V36.6118H23.9135V35.5023H32.7891C32.9695 35.5023 33.1471 35.4583 33.3067 35.3741C33.4662 35.29 33.6029 35.1682 33.7047 35.0193C33.8066 34.8704 33.8706 34.6989 33.8912 34.5197C33.9118 34.3405 33.8885 34.1589 33.8231 33.9908L26.057 14.0208C25.976 13.8125 25.8339 13.6335 25.6494 13.5073C25.4649 13.381 25.2465 13.3135 25.023 13.3135H1.72468C1.54428 13.3135 1.36662 13.3575 1.20707 13.4417C1.04752 13.5259 0.910897 13.6477 0.809046 13.7966C0.707194 13.9454 0.643183 14.1169 0.622557 14.2961C0.601931 14.4753 0.625313 14.6569 0.690677 14.825L8.45678 34.795C8.53781 35.0033 8.67989 35.1823 8.86439 35.3086C9.0489 35.4348 9.26723 35.5023 9.49078 35.5023H12.8191V44.3779H11.4664L10.567 40.7804C10.5071 40.5404 10.3685 40.3273 10.1735 40.1751C9.97852 40.0228 9.7382 39.9401 9.49078 39.9401H2.83412C2.5867 39.9401 2.34638 40.0228 2.15136 40.1751C1.95635 40.3273 1.81784 40.5404 1.75786 40.7804L0.648415 45.2182L0.64943 45.2185C0.627059 45.3064 0.615574 45.3966 0.615234 45.4873V65.4573C0.615249 65.7515 0.732141 66.0337 0.940198 66.2418C1.14826 66.4498 1.43044 66.5667 1.72468 66.5667ZM2.83412 51.0345H8.38133V55.4723H2.83412V51.0345ZM16.1474 51.0345V55.4723H10.6002V51.0345H16.1474ZM22.8041 49.9251H30.5702V64.3478H22.8041V49.9251ZM32.7891 49.9251H40.5552V64.3478H32.7891V49.9251ZM50.5402 64.3478H42.7741V49.9251H50.5402V64.3478ZM50.5402 47.7062H44.8981L50.5402 43.318V47.7062ZM40.5552 47.7062H34.9131L40.5552 43.318V47.7062ZM30.5702 47.7062H24.9282L30.5702 43.318V47.7062ZM20.5852 64.3478H2.83412V57.6912H17.2569C17.5511 57.6912 17.8333 57.5743 18.0414 57.3662C18.2494 57.1582 18.3663 56.876 18.3663 56.5817V49.9251C18.3663 49.6309 18.2494 49.3487 18.0414 49.1406C17.8333 48.9326 17.5511 48.8157 17.2569 48.8156H2.83412V46.5968H20.5852V64.3478ZM5.9352 22.189H11.3205L13.0464 26.6268H7.66098L5.9352 22.189ZM13.7013 22.189H19.0866L20.8125 26.6268H15.4271L13.7013 22.189ZM12.8384 19.9701L11.1126 15.5324H16.498L18.2237 19.9701H12.8384ZM28.5786 26.6268H23.1932L21.4674 22.189H26.8528L28.5786 26.6268ZM21.6754 28.8457L23.4011 33.2834H18.0158L16.29 28.8457H21.6754ZM21.6946 37.7212H19.4758V35.5023H21.6946V37.7212ZM25.7819 33.2834L24.0561 28.8457H29.4415L31.1673 33.2834H25.7819ZM25.9898 19.9701H20.6045L18.8787 15.5324H24.264L25.9898 19.9701ZM8.73186 15.5324L10.4576 19.9701H5.07227L3.34645 15.5324H8.73186ZM8.52391 28.8457H13.9092L15.635 33.2834H10.2497L8.52391 28.8457ZM15.038 35.5023H17.2569V44.3779H15.038V35.5023ZM8.62457 42.159L9.17929 44.3779H3.14561L3.70033 42.159H8.62457Z" fill="#02B3AC"/>
<path d="M45.5142 30.1236L36.6386 35.6708C36.4343 35.7985 36.2772 35.9892 36.1908 36.2141C36.1045 36.439 36.0938 36.6859 36.1602 36.9175C36.2266 37.149 36.3666 37.3527 36.559 37.4977C36.7514 37.6427 36.9858 37.7211 37.2267 37.7211H56.4038L60.3485 64.3477H57.1966V66.5666H61.6344C61.7939 66.5666 61.9514 66.5322 62.0964 66.4658C62.2413 66.3994 62.3703 66.3026 62.4744 66.1819C62.5786 66.0612 62.6555 65.9194 62.6999 65.7663C62.7444 65.6132 62.7553 65.4523 62.7319 65.2946L58.647 37.7211H66.0722C66.3131 37.7211 66.5475 37.6427 66.7399 37.4977C66.9323 37.3527 67.0723 37.149 67.1387 36.9175C67.2051 36.6859 67.1943 36.439 67.108 36.2141C67.0217 35.9892 66.8645 35.7985 66.6602 35.6708L57.7847 30.1236C57.697 30.0688 57.6022 30.0265 57.5028 29.998L57.0034 26.6266H63.8533C64.0942 26.6266 64.3286 26.5482 64.521 26.4033C64.7134 26.2583 64.8534 26.0546 64.9198 25.823C64.9862 25.5915 64.9755 25.3446 64.8891 25.1197C64.8028 24.8947 64.6456 24.704 64.4413 24.5764L55.9097 19.244L55.3597 15.5322H61.6344C61.8791 15.5322 62.1169 15.4514 62.3108 15.3022C62.5048 15.153 62.644 14.944 62.7068 14.7075C62.7696 14.471 62.7524 14.2204 62.658 13.9947C62.5636 13.769 62.3973 13.5808 62.1848 13.4594L54.4187 9.02167C54.4105 9.017 54.4017 9.01375 54.3934 9.00931L53.9594 6.0802L60.0309 2.03254C60.229 1.90045 60.3794 1.70813 60.4598 1.48401C60.5402 1.25988 60.5463 1.01584 60.4773 0.787951C60.4083 0.560063 60.2678 0.360419 60.0766 0.218524C59.8854 0.0766295 59.6536 1.36969e-05 59.4155 0H43.8833C43.6452 1.47384e-05 43.4134 0.0766312 43.2222 0.218526C43.031 0.360421 42.8906 0.560065 42.8216 0.787953C42.7526 1.01584 42.7587 1.25988 42.8391 1.484C42.9195 1.70813 43.0698 1.90045 43.2679 2.03253L49.3394 6.0802L48.9055 9.00931C48.8972 9.01378 48.8884 9.017 48.8802 9.02167L41.1141 13.4594C40.9016 13.5808 40.7352 13.769 40.6408 13.9947C40.5464 14.2204 40.5293 14.471 40.5921 14.7075C40.6549 14.944 40.7941 15.153 40.988 15.3022C41.182 15.4514 41.4198 15.5322 41.6644 15.5322H47.9391L47.3892 19.2441L38.8575 24.5764C38.6532 24.704 38.496 24.8947 38.4097 25.1197C38.3234 25.3446 38.3126 25.5915 38.3791 25.823C38.4455 26.0546 38.5855 26.2583 38.7779 26.4033C38.9703 26.5482 39.2047 26.6266 39.4456 26.6266H46.2955L45.796 29.9981C45.6967 30.0266 45.6018 30.0688 45.5142 30.1236ZM45.377 32.8259L44.9806 35.5022H41.0951L45.377 32.8259ZM47.2238 35.5022L47.7169 32.1738H55.582L56.0751 35.5022H47.2238ZM62.2038 35.5022H58.3182L57.9217 32.8259L62.2038 35.5022ZM59.9849 24.4077H56.6746L56.3368 22.1277L59.9849 24.4077ZM49.3605 21.0794H53.9383L54.4314 24.4077H48.8674L49.3605 21.0794ZM57.4567 13.3133H55.031L54.8067 11.799L57.4567 13.3133ZM51.4972 6.65666H51.8017L52.1303 8.87554H51.1685L51.4972 6.65666ZM50.8398 11.0944H52.4591L52.7878 13.3133H50.5111L50.8398 11.0944ZM55.7513 2.21889L52.423 4.43777H50.8759L47.5475 2.21889H55.7513ZM45.8422 13.3133L48.4922 11.799L48.2678 13.3133H45.8422ZM53.1165 15.5322L53.6096 18.8605H49.6893L50.1823 15.5322H53.1165ZM43.314 24.4077L46.962 22.1277L46.6242 24.4077H43.314ZM54.7602 26.6266L55.2533 29.955H48.0456L48.5387 26.6266H54.7602Z" fill="#02B3AC"/>
<path d="M7.27357 59.9102H5.05469V62.129H7.27357V59.9102Z" fill="#02B3AC"/>
<path d="M11.7091 59.9102H9.49023V62.129H11.7091V59.9102Z" fill="#02B3AC"/>
<path d="M16.1486 59.9102H13.9297V62.129H16.1486V59.9102Z" fill="#02B3AC"/>
</svg>
