<svg width="24" height="24" viewBox="0 0 24 24" fill="none" xmlns="http://www.w3.org/2000/svg">
<path fill-rule="evenodd" clip-rule="evenodd" d="M2.75 10.5C2.75 6.21979 6.21979 2.75 10.5 2.75C13.2726 2.75 15.7059 4.20546 17.0765 6.39761C17.2961 6.74882 17.7588 6.85552 18.1101 6.63593C18.4613 6.41634 18.568 5.9536 18.3484 5.60239C16.7151 2.99023 13.8111 1.25 10.5 1.25C5.39137 1.25 1.25 5.39137 1.25 10.5C1.25 11.8853 1.5553 13.2014 2.10266 14.3829L2.78203 14.0682L2.10266 14.3829L2.11145 14.4019C2.52822 15.3016 2.74338 15.766 2.55804 16.4109L3.27886 16.6181L2.55804 16.4109C2.52215 16.5358 2.46778 16.6536 2.38763 16.8273L2.38762 16.8273C2.36325 16.8801 2.33648 16.9381 2.30713 17.0031C2.19944 17.2413 2.05615 17.5783 2.02488 17.9589C1.93956 18.9977 2.85435 19.8394 3.88246 19.6682L3.7592 18.9284L3.88246 19.6682C4.44257 19.5748 4.92649 19.3246 5.26584 19.1491L5.26585 19.1491L5.26592 19.1491C5.34682 19.1072 5.41951 19.0696 5.48304 19.0394C5.83146 18.8739 6.10656 18.7939 6.525 18.8923L6.52497 18.8923C6.52497 18.8923 6.52694 18.8928 6.53122 18.8939L6.55003 18.8992C6.56658 18.9041 6.58846 18.9108 6.61679 18.9199C6.67381 18.9382 6.7489 18.9635 6.84652 18.9974C7.042 19.0652 7.31124 19.1615 7.67722 19.2924L7.92983 18.5862L7.67723 19.2924C8.05095 19.4261 8.43657 19.5304 8.84013 19.6054C9.24736 19.6811 9.63887 19.4124 9.71459 19.0052C9.79031 18.5979 9.52156 18.2064 9.11433 18.1307C8.78848 18.0701 8.48015 17.9865 8.18244 17.88L8.0606 17.8364L8.06048 17.8364C7.43896 17.614 7.05063 17.475 6.86839 17.4322C5.99659 17.2271 5.35895 17.4376 4.83919 17.6846C4.69552 17.7529 4.57262 17.8157 4.46168 17.8724C4.15706 18.0279 3.94258 18.1375 3.63594 18.1886C3.57169 18.1993 3.51452 18.1467 3.51985 18.0817C3.52821 17.9799 3.57159 17.8474 3.67395 17.621C3.6888 17.5881 3.70584 17.5515 3.72433 17.5117C3.81072 17.3261 3.92856 17.0727 3.99969 16.8252C4.34335 15.6294 3.89895 14.6814 3.53625 13.9078L3.5362 13.9077C3.51157 13.8551 3.48732 13.8034 3.46371 13.7524C3.00595 12.7643 2.75 11.663 2.75 10.5ZM17 8.25C13.2721 8.25 10.25 11.2721 10.25 15C10.25 18.7279 13.2721 21.75 17 21.75C17.7583 21.75 18.4313 21.6414 19.0668 21.4141C19.3256 21.3215 19.5145 21.254 19.6512 21.2065C19.7195 21.1828 19.7706 21.1656 19.8085 21.1535C19.8497 21.1403 19.8614 21.1375 19.8565 21.1387C20.0851 21.085 20.226 21.1222 20.4467 21.2271C20.483 21.2443 20.5274 21.2674 20.579 21.2942L20.5791 21.2943C20.8151 21.4168 21.1999 21.6168 21.635 21.6892L21.7582 20.9494L21.635 21.6892C22.5024 21.8338 23.2743 21.1236 23.2023 20.2471C23.1768 19.9374 23.061 19.6694 22.9842 19.4995C22.9603 19.4466 22.9396 19.4017 22.9216 19.3627L22.9215 19.3625L22.9215 19.3624C22.8681 19.2467 22.8384 19.1823 22.8181 19.1115C22.7129 18.7453 22.8219 18.4938 23.1277 17.8336C23.5272 16.9711 23.75 16.0106 23.75 15C23.75 11.2721 20.7279 8.25 17 8.25ZM11.75 15C11.75 12.1005 14.1005 9.75 17 9.75C19.8995 9.75 22.25 12.1005 22.25 15C22.25 15.7882 22.0766 16.534 21.7666 17.2031C21.7494 17.2402 21.7315 17.2784 21.713 17.3176C21.4585 17.8588 21.1102 18.5991 21.3764 19.5258C21.4321 19.7193 21.5252 19.9192 21.5856 20.0486L21.5856 20.0487L21.5858 20.0492C21.5978 20.0749 21.6085 20.0979 21.6174 20.1174L21.6251 20.1347C21.5533 20.1043 21.4784 20.0661 21.3852 20.0185L21.3852 20.0185C21.3041 19.9771 21.2092 19.9287 21.0905 19.8723C20.6985 19.6859 20.1951 19.5182 19.513 19.6786C19.3715 19.7118 19.0868 19.8138 18.6654 19.9646L18.5616 20.0017C18.1084 20.1638 17.609 20.25 17 20.25C14.1005 20.25 11.75 17.8995 11.75 15Z" fill="white"/>
</svg>
