<svg width="20" height="20" viewBox="0 0 20 20" fill="none" xmlns="http://www.w3.org/2000/svg">
<path fill-rule="evenodd" clip-rule="evenodd" d="M8.06699 1.16699H8.04437C6.94341 1.16699 6.08647 1.16699 5.39908 1.22315C4.70116 1.28017 4.13409 1.39758 3.62404 1.65746C2.77731 2.08889 2.08889 2.77731 1.65746 3.62404C1.39758 4.13409 1.28017 4.70116 1.22315 5.39908C1.16699 6.08648 1.16699 6.94341 1.16699 8.04437V8.06699V11.9337V11.9563C1.16699 13.0572 1.16699 13.9142 1.22315 14.6016C1.28017 15.2995 1.39758 15.8666 1.65746 16.3766C2.08889 17.2233 2.77731 17.9118 3.62404 18.3432C4.13409 18.6031 4.70116 18.7205 5.39908 18.7775C6.08647 18.8337 6.94339 18.8337 8.04433 18.8337H8.04435H8.06699H11.9337H11.9563H11.9563C13.0573 18.8337 13.9142 18.8337 14.6016 18.7775C15.2995 18.7205 15.8666 18.6031 16.3766 18.3432C17.2233 17.9118 17.9118 17.2233 18.3432 16.3766C18.6031 15.8666 18.7205 15.2995 18.7775 14.6016C18.8337 13.9142 18.8337 13.0573 18.8337 11.9563V11.9563V11.9337V9.0744C18.8337 8.79826 18.6098 8.5744 18.3337 8.5744C18.0575 8.5744 17.8337 8.79826 17.8337 9.0744V11.9337C17.8337 13.062 17.8333 13.8782 17.7808 14.5201C17.7289 15.1562 17.6283 15.577 17.4522 15.9226C17.1166 16.5812 16.5812 17.1166 15.9226 17.4522C15.577 17.6283 15.1562 17.7289 14.5201 17.7808C13.8782 17.8333 13.062 17.8337 11.9337 17.8337H8.06699C6.93864 17.8337 6.12244 17.8333 5.48052 17.7808C4.84443 17.7289 4.42362 17.6283 4.07803 17.4522C3.41946 17.1166 2.88403 16.5812 2.54847 15.9226C2.37238 15.577 2.2718 15.1562 2.21983 14.5201C2.16738 13.8782 2.16699 13.062 2.16699 11.9337V8.06699C2.16699 6.93864 2.16738 6.12244 2.21983 5.48052C2.2718 4.84443 2.37238 4.42362 2.54847 4.07803C2.88403 3.41946 3.41946 2.88403 4.07803 2.54847C4.42362 2.37238 4.84443 2.2718 5.48052 2.21983C6.12244 2.16738 6.93864 2.16699 8.06699 2.16699H13.704C13.9802 2.16699 14.204 1.94313 14.204 1.66699C14.204 1.39085 13.9802 1.16699 13.704 1.16699H8.06699ZM18.6872 3.68721C18.8825 3.49195 18.8825 3.17537 18.6872 2.98011C18.492 2.78484 18.1754 2.78484 17.9801 2.98011L10.0003 10.9599L7.85388 8.81344C7.65862 8.61818 7.34203 8.61818 7.14677 8.81344C6.95151 9.0087 6.95151 9.32528 7.14677 9.52055L9.64677 12.0205C9.84203 12.2158 10.1586 12.2158 10.3539 12.0205L18.6872 3.68721Z" fill="#22272F"/>
</svg>
