<svg width="20" height="20" viewBox="0 0 20 20" fill="none" xmlns="http://www.w3.org/2000/svg">
<path fill-rule="evenodd" clip-rule="evenodd" d="M9.99935 2.41699C5.81119 2.41699 2.41602 5.81217 2.41602 10.0003C2.41602 14.1885 5.81119 17.5837 9.99935 17.5837C14.1875 17.5837 17.5827 14.1885 17.5827 10.0003C17.5827 9.47994 17.5304 8.97255 17.431 8.48286C17.3486 8.07692 17.6109 7.68105 18.0168 7.59865C18.4227 7.51625 18.8186 7.77853 18.901 8.18446C19.0202 8.77181 19.0827 9.37916 19.0827 10.0003C19.0827 15.0169 15.0159 19.0837 9.99935 19.0837C4.98276 19.0837 0.916016 15.0169 0.916016 10.0003C0.916016 4.98374 4.98276 0.916992 9.99935 0.916992C12.6623 0.916992 15.0575 2.06352 16.7181 3.88757L17.8024 2.80333C18.0952 2.51044 18.5701 2.51044 18.863 2.80333C19.1559 3.09622 19.1559 3.5711 18.863 3.86399L17.1967 5.53031L10.5297 12.1973C10.389 12.338 10.1983 12.417 9.99935 12.417C9.80044 12.417 9.60967 12.338 9.46902 12.1973L6.96902 9.69732C6.67613 9.40443 6.67613 8.92956 6.96902 8.63666C7.26191 8.34377 7.73679 8.34377 8.02968 8.63666L9.99935 10.6063L15.6561 4.9496C14.2665 3.39433 12.2472 2.41699 9.99935 2.41699Z" fill="#2E58A6"/>
</svg>
