<svg width="24" height="24" viewBox="0 0 24 24" fill="none" xmlns="http://www.w3.org/2000/svg">
<path fill-rule="evenodd" clip-rule="evenodd" d="M12 2.75C6.89137 2.75 2.75 6.89137 2.75 12C2.75 17.1086 6.89137 21.25 12 21.25C17.1086 21.25 21.25 17.1086 21.25 12C21.25 11.3655 21.1862 10.7466 21.065 10.1492C20.9826 9.74327 21.2448 9.34739 21.6508 9.26499C22.0567 9.18259 22.4526 9.44487 22.535 9.8508C22.6761 10.5459 22.75 11.2647 22.75 12C22.75 17.9371 17.9371 22.75 12 22.75C6.06294 22.75 1.25 17.9371 1.25 12C1.25 6.06294 6.06294 1.25 12 1.25C15.208 1.25 18.0879 2.65588 20.0566 4.88273L21.4697 3.46967C21.7626 3.17678 22.2374 3.17678 22.5303 3.46967C22.8232 3.76256 22.8232 4.23744 22.5303 4.53033L20.5307 6.52991L12.5303 14.5303C12.3897 14.671 12.1989 14.75 12 14.75C11.8011 14.75 11.6103 14.671 11.4697 14.5303L8.46967 11.5303C8.17678 11.2374 8.17678 10.7626 8.46967 10.4697C8.76256 10.1768 9.23744 10.1768 9.53033 10.4697L12 12.9393L18.9936 5.94569C17.2966 3.98709 14.7929 2.75 12 2.75Z" fill="#22272F"/>
</svg>
