<svg width="24" height="24" viewBox="0 0 24 24" fill="none" xmlns="http://www.w3.org/2000/svg">
<path fill-rule="evenodd" clip-rule="evenodd" d="M12 2.5C6.75329 2.5 2.5 6.75329 2.5 12C2.5 17.2467 6.75329 21.5 12 21.5C17.2467 21.5 21.5 17.2467 21.5 12C21.5 6.75329 17.2467 2.5 12 2.5ZM1.5 12C1.5 6.20101 6.20101 1.5 12 1.5C17.799 1.5 22.5 6.20101 22.5 12C22.5 17.799 17.799 22.5 12 22.5C6.20101 22.5 1.5 17.799 1.5 12ZM8.49988 9.74342C8.49988 8.50441 9.50429 7.5 10.7433 7.5H11.4999V6.5C11.4999 6.22386 11.7237 6 11.9999 6C12.276 6 12.4999 6.22386 12.4999 6.5V7.5H12.9999C14.3806 7.5 15.4999 8.61929 15.4999 10C15.4999 10.2761 15.276 10.5 14.9999 10.5C14.7237 10.5 14.4999 10.2761 14.4999 10C14.4999 9.17157 13.8283 8.5 12.9999 8.5H12.4999V11.6396L13.9659 12.1283C14.882 12.4337 15.4999 13.2909 15.4999 14.2566C15.4999 15.4956 14.4955 16.5 13.2565 16.5H12.4999V17.5C12.4999 17.7761 12.276 18 11.9999 18C11.7237 18 11.4999 17.7761 11.4999 17.5V16.5H10.9999C9.61917 16.5 8.49988 15.3807 8.49988 14C8.49988 13.7239 8.72374 13.5 8.99988 13.5C9.27602 13.5 9.49988 13.7239 9.49988 14C9.49988 14.8284 10.1715 15.5 10.9999 15.5H11.4999V12.3604L10.0339 11.8717C9.11778 11.5663 8.49988 10.7091 8.49988 9.74342ZM11.4999 11.3063V8.5H10.7433C10.0566 8.5 9.49988 9.0567 9.49988 9.74342C9.49988 10.2786 9.84235 10.7538 10.3501 10.923L11.4999 11.3063ZM12.4999 12.6937V15.5H13.2565C13.9432 15.5 14.4999 14.9433 14.4999 14.2566C14.4999 13.7214 14.1574 13.2462 13.6497 13.077L12.4999 12.6937Z" fill="#27343A"/>
</svg>
