<svg width="16" height="16" viewBox="0 0 16 16" fill="none" xmlns="http://www.w3.org/2000/svg">
<path fill-rule="evenodd" clip-rule="evenodd" d="M4.81344 6.81344C5.0087 6.61818 5.32528 6.61818 5.52055 6.81344L6.67872 7.97161C6.94856 8.24146 7.12996 8.4223 7.28083 8.55038C7.42724 8.67468 7.5117 8.71965 7.57614 8.74059C7.74351 8.79497 7.9238 8.79497 8.09117 8.74059C8.15562 8.71965 8.24007 8.67468 8.38648 8.55038C8.53736 8.4223 8.71876 8.24146 8.9886 7.97161L10.1468 6.81344C10.342 6.61818 10.6586 6.61818 10.8539 6.81344C11.0491 7.0087 11.0491 7.32528 10.8539 7.52055L9.69571 8.67872L9.68136 8.69307C9.42956 8.94488 9.21939 9.15505 9.03366 9.31272C8.83995 9.47717 8.64019 9.61367 8.40019 9.69164C8.03198 9.81128 7.63534 9.81128 7.26713 9.69164C7.02713 9.61367 6.82737 9.47717 6.63366 9.31272C6.44793 9.15505 6.23776 8.94487 5.98596 8.69306L5.97161 8.67872L4.81344 7.52055C4.61818 7.32528 4.61818 7.0087 4.81344 6.81344Z" fill="#B6C8D9"/>
</svg>
