<svg width="9" height="5" viewBox="0 0 9 5" fill="none" xmlns="http://www.w3.org/2000/svg">
<path fill-rule="evenodd" clip-rule="evenodd" d="M1.01704 0.516066C1.26112 0.271988 1.65685 0.271988 1.90093 0.516066L3.34864 1.96378C3.68595 2.30109 3.91269 2.52715 4.10129 2.68725C4.2843 2.84261 4.38987 2.89883 4.47042 2.925C4.67964 2.99298 4.905 2.99298 5.11421 2.925C5.19476 2.89883 5.30034 2.84261 5.48335 2.68725C5.67194 2.52715 5.89869 2.30109 6.23599 1.96378L7.68371 0.516066C7.92779 0.271988 8.32352 0.271988 8.56759 0.516066C8.81167 0.760144 8.81167 1.15587 8.56759 1.39995L7.11988 2.84766L7.10194 2.8656C6.78719 3.18036 6.52448 3.44308 6.29232 3.64017C6.05018 3.84573 5.80048 4.01635 5.50048 4.11382C5.04022 4.26337 4.54442 4.26337 4.08415 4.11382C3.78416 4.01635 3.53445 3.84573 3.29231 3.64017C3.06015 3.44308 2.79744 3.18036 2.48269 2.8656L2.46476 2.84767L1.01704 1.39995C0.772965 1.15587 0.772965 0.760144 1.01704 0.516066Z" fill="#27343A"/>
</svg>
