<svg width="20" height="20" viewBox="0 0 20 20" fill="none" xmlns="http://www.w3.org/2000/svg">
<path fill-rule="evenodd" clip-rule="evenodd" d="M15.7192 3.44654C15.3218 3.04908 14.6774 3.04907 14.2799 3.44652L14.0605 3.66595C14.0693 4.45303 14.7126 5.09639 15.4997 5.10537L15.7192 4.88582C16.1167 4.48837 16.1167 3.84399 15.7192 3.44654ZM14.2736 6.33139L13.636 6.969C13.3431 7.26189 13.3431 7.73677 13.636 8.02966C13.9289 8.32255 14.4038 8.32255 14.6967 8.02966L16.7799 5.94648C17.7631 4.96326 17.7631 3.36915 16.7799 2.3859C15.7967 1.40264 14.2025 1.40261 13.2193 2.38585L7.38935 8.2157L7.34525 8.25979C6.92066 8.68428 6.64685 8.95802 6.42116 9.27197C6.22118 9.55016 6.05189 9.84916 5.91623 10.1638C5.76313 10.5188 5.66927 10.8944 5.52373 11.4769L5.50861 11.5374L5.10522 13.151C5.04133 13.4065 5.11621 13.6769 5.3025 13.8632C5.48878 14.0495 5.75915 14.1244 6.01473 14.0605L7.6283 13.6571L7.68877 13.642C8.27126 13.4964 8.64688 13.4026 9.00194 13.2495C9.31654 13.1138 9.61554 12.9445 9.89372 12.7445C10.2077 12.5189 10.4814 12.2451 10.9059 11.8205L10.95 11.7764L12.6132 10.1132C12.9061 9.8203 12.9061 9.34543 12.6132 9.05254C12.3203 8.75964 11.8454 8.75964 11.5525 9.05254L9.88932 10.7157C9.4061 11.1989 9.22121 11.3806 9.01818 11.5266C8.82784 11.6634 8.62326 11.7792 8.40801 11.8721C8.17839 11.9711 7.92747 12.0361 7.26449 12.2019L6.86361 12.3021L6.96382 11.9012C7.12957 11.2382 7.19463 10.9873 7.29364 10.7577C7.38645 10.5424 7.50229 10.3379 7.63911 10.1475C7.78507 9.94448 7.96677 9.7596 8.45 9.27637L12.8344 4.89204C13.1292 5.52399 13.6417 6.03652 14.2736 6.33139ZM2.58301 17.4995C2.58301 17.0853 2.91879 16.7495 3.33301 16.7495H10.833C11.2472 16.7495 11.583 17.0853 11.583 17.4995C11.583 17.9137 11.2472 18.2495 10.833 18.2495H3.33301C2.91879 18.2495 2.58301 17.9137 2.58301 17.4995ZM13.4163 17.4995C13.4163 17.0853 13.7521 16.7495 14.1663 16.7495H16.6663C17.0806 16.7495 17.4163 17.0853 17.4163 17.4995C17.4163 17.9137 17.0806 18.2495 16.6663 18.2495H14.1663C13.7521 18.2495 13.4163 17.9137 13.4163 17.4995Z" fill="#BDBDBD"/>
</svg>
