<svg width="28" height="28" viewBox="0 0 28 28" fill="none" xmlns="http://www.w3.org/2000/svg">
<path fill-rule="evenodd" clip-rule="evenodd" d="M10.334 2.75L10.3004 2.75C8.92871 2.75 7.85327 2.74999 6.98892 2.82061C6.10878 2.89252 5.38167 3.04138 4.72354 3.37671C3.64161 3.92798 2.76197 4.80762 2.2107 5.88955C1.87536 6.54768 1.72651 7.27479 1.6546 8.15494C1.58398 9.01929 1.58398 10.0947 1.58398 11.4664L1.58398 11.5V16.5L1.58398 16.5336C1.58398 17.9053 1.58398 18.9807 1.6546 19.8451C1.72651 20.7252 1.87536 21.4523 2.2107 22.1104C2.76197 23.1924 3.64161 24.072 4.72354 24.6233C5.38167 24.9586 6.10878 25.1075 6.98892 25.1794C7.85326 25.25 8.92867 25.25 10.3004 25.25H10.3004H10.334H17.6673H17.7009H17.7009C19.0726 25.25 20.148 25.25 21.0124 25.1794C21.8925 25.1075 22.6196 24.9586 23.2778 24.6233C24.3597 24.072 25.2393 23.1924 25.7906 22.1104C26.1259 21.4523 26.2748 20.7252 26.3467 19.8451C26.4173 18.9807 26.4173 17.9053 26.4173 16.5336V16.5336V16.5V11.5V11.4664V11.4664C26.4173 10.0947 26.4173 9.01927 26.3467 8.15494C26.2748 7.27479 26.1259 6.54768 25.7906 5.88955C25.2393 4.80762 24.3597 3.92798 23.2778 3.37671C22.6196 3.04138 21.8925 2.89252 21.0124 2.82061C20.148 2.74999 19.0726 2.75 17.7009 2.75L17.6673 2.75H10.334ZM5.40452 4.71322C5.81595 4.50359 6.32369 4.37996 7.11107 4.31563C7.9072 4.25058 8.92148 4.25 10.334 4.25H17.6673C19.0798 4.25 20.0941 4.25058 20.8902 4.31563C21.6776 4.37996 22.1853 4.50359 22.5968 4.71322C23.3965 5.12068 24.0466 5.77085 24.4541 6.57054C24.6637 6.98197 24.7874 7.4897 24.8517 8.27708C24.9167 9.07322 24.9173 10.0875 24.9173 11.5V16.5C24.9173 17.9125 24.9167 18.9268 24.8517 19.7229C24.7874 20.5103 24.6637 21.018 24.4541 21.4295C24.0466 22.2291 23.3965 22.8793 22.5968 23.2868C22.1853 23.4964 21.6776 23.62 20.8902 23.6844C20.0941 23.7494 19.0798 23.75 17.6673 23.75H10.334C8.92148 23.75 7.90721 23.7494 7.11107 23.6844C6.32369 23.62 5.81595 23.4964 5.40452 23.2868C4.60484 22.8793 3.95467 22.2291 3.54721 21.4295C3.33757 21.018 3.21395 20.5103 3.14961 19.7229C3.08457 18.9268 3.08398 17.9125 3.08398 16.5V11.5C3.08398 10.0875 3.08457 9.07322 3.14961 8.27708C3.21395 7.4897 3.33757 6.98197 3.54721 6.57054C3.95467 5.77085 4.60484 5.12068 5.40452 4.71322ZM7.41668 8.7093C7.07203 8.47953 6.60638 8.57266 6.37661 8.91731C6.14685 9.26195 6.23998 9.72761 6.58463 9.95737L7.75129 10.7351L8.2595 11.074L8.39859 11.1667C10.1896 12.361 11.2563 13.0724 12.4276 13.3531C13.4617 13.6008 14.5396 13.6008 15.5737 13.3531C16.745 13.0724 17.8117 12.361 19.6027 11.1667L19.6027 11.1667L19.7418 11.074L20.25 10.7351L21.4167 9.95737C21.7613 9.72761 21.8545 9.26195 21.6247 8.91731C21.3949 8.57266 20.9293 8.47953 20.5846 8.7093L19.418 9.48707L18.9097 9.82588C16.9362 11.1416 16.1029 11.6838 15.2241 11.8944C14.4199 12.0871 13.5814 12.0871 12.7772 11.8944C11.8984 11.6838 11.0651 11.1416 9.09155 9.82588L8.58334 9.48707L7.41668 8.7093Z" fill="#02B3AC"/>
</svg>
