<svg width="260" height="109" viewBox="0 0 260 109" fill="none" xmlns="http://www.w3.org/2000/svg">
<g opacity="0.1">
<path d="M176.547 47.8548C178.892 47.8548 181.354 49.451 181.015 52.4557C181.578 52.035 182.263 51.8077 182.966 51.8077C184.661 51.8077 186.154 53.0991 186.003 54.4245H163.504C163.504 53.0283 164.949 52.2556 166.33 52.2556C166.978 52.2353 167.613 52.4373 168.131 52.8282C168.168 51.1211 169.417 50.2114 170.67 50.2114C171.047 50.2081 171.419 50.2922 171.758 50.4569C172.097 50.6217 172.393 50.8628 172.623 51.1612C172.777 48.9261 174.626 47.8594 176.54 47.8594L176.547 47.8548ZM176.547 46.6064C175.337 46.5876 174.154 46.9619 173.175 47.6731C172.648 48.0693 172.215 48.5771 171.908 49.1601C171.26 48.9394 170.563 48.8976 169.893 49.039C169.222 49.1804 168.602 49.4998 168.098 49.9636C167.753 50.2858 167.474 50.6716 167.275 51.0996C166.038 50.8545 164.754 51.1014 163.696 51.7876C163.256 52.0728 162.894 52.4634 162.643 52.9239C162.393 53.3844 162.261 53.9002 162.261 54.4245C162.261 54.5885 162.293 54.751 162.356 54.9025C162.419 55.0541 162.511 55.1918 162.627 55.3077C162.743 55.4237 162.881 55.5156 163.033 55.5782C163.185 55.6409 163.347 55.673 163.512 55.6728H185.996C186.303 55.6729 186.599 55.5601 186.828 55.356C187.058 55.1519 187.203 54.8707 187.238 54.5661C187.34 53.6841 187.032 52.7913 186.371 52.0509C185.937 51.5794 185.41 51.2032 184.823 50.9462C184.236 50.6892 183.602 50.5569 182.961 50.5578C182.688 50.5575 182.415 50.5822 182.146 50.6316C181.957 49.8415 181.573 49.111 181.031 48.5059C179.968 47.316 178.291 46.6064 176.547 46.6064Z" fill="#5C667F"/>
<path d="M126.245 47.8271C130.437 47.8271 132.824 51.1996 132.408 54.2459C132.728 53.8661 133.126 53.5605 133.576 53.3502C134.026 53.1399 134.516 53.0301 135.013 53.0283C137.313 53.0283 139.524 55.328 138.432 58.3173C139.471 57.7666 140.628 57.4765 141.804 57.4723C144.223 57.4723 146.507 58.7945 146.507 62.1963H107.267C107.139 57.3845 110.421 55.1926 113.855 55.1926C115.927 55.1926 118.056 55.9899 119.526 57.4907C118.747 53.347 119.526 48.9692 124.61 47.9887C125.151 47.886 125.7 47.8344 126.25 47.8347L126.245 47.8271ZM126.245 46.5771C125.615 46.5797 124.987 46.6416 124.369 46.7619C121.637 47.2898 119.683 48.7783 118.716 51.0719C118.231 52.2889 117.993 53.5904 118.018 54.9001C116.722 54.271 115.299 53.9451 113.858 53.9473C111.593 53.9473 109.559 54.7523 108.134 56.2147C106.686 57.7016 105.954 59.7843 106.02 62.2348C106.029 62.5603 106.164 62.8696 106.398 63.0967C106.631 63.3239 106.944 63.451 107.27 63.4509H146.504C146.835 63.4509 147.154 63.3192 147.388 63.0848C147.623 62.8504 147.755 62.5325 147.755 62.201C147.755 58.5713 145.417 56.227 141.801 56.227C141.179 56.2275 140.559 56.2972 139.953 56.4348C139.896 55.5324 139.591 54.6633 139.07 53.9242C138.61 53.2712 138.002 52.7367 137.295 52.3648C136.588 51.9928 135.803 51.7939 135.004 51.7846C134.499 51.7837 133.997 51.8664 133.519 52.0293C133.257 50.9365 132.733 49.9238 131.992 49.0785C130.587 47.4684 128.544 46.5818 126.239 46.5818L126.245 46.5771Z" fill="#5C667F"/>
<path d="M167.624 10.247C170.508 10.247 172.149 12.5667 171.859 14.6617C172.079 14.4007 172.353 14.1907 172.663 14.0464C172.972 13.902 173.31 13.8268 173.651 13.8258C175.233 13.8258 176.754 15.4067 176.002 17.4616C176.717 17.0834 177.513 16.8843 178.322 16.8813C179.986 16.8813 181.558 17.7895 181.558 20.1308H154.571C154.483 16.8198 156.74 15.3128 159.102 15.3128C160.559 15.3025 161.961 15.8686 163.002 16.8875C162.467 14.0367 163.002 11.0274 166.496 10.3532C166.868 10.2795 167.245 10.2419 167.624 10.2408V10.247ZM167.624 8.99707C167.166 8.99882 166.709 9.04417 166.259 9.13253C163.426 9.67898 161.782 11.6308 161.592 14.5201C160.797 14.2154 159.954 14.0589 159.102 14.0583C157.438 14.0583 155.941 14.654 154.887 15.7346C153.833 16.8151 153.274 18.3637 153.322 20.1569C153.33 20.4827 153.465 20.7923 153.698 21.0198C153.932 21.2473 154.245 21.3746 154.571 21.3745H181.556C181.888 21.3741 182.206 21.2422 182.44 21.0079C182.674 20.7735 182.806 20.4558 182.806 20.1246C182.806 18.2944 182.035 17.24 181.382 16.6781C180.587 15.9885 179.533 15.6253 178.322 15.6253C178.009 15.6256 177.697 15.6498 177.387 15.6976C177.293 15.1621 177.082 14.6536 176.771 14.2076C176.42 13.7057 175.954 13.2955 175.411 13.0118C174.868 12.728 174.265 12.5791 173.653 12.5775C173.4 12.5771 173.148 12.6034 172.901 12.656C172.684 11.991 172.335 11.3768 171.875 10.8504C170.833 9.65743 169.325 9.00323 167.624 9.00323V8.99707Z" fill="#5C667F"/>
<path d="M203.218 90.5273H193.137L193.774 89.4205C194.262 88.5613 194.804 87.7335 195.396 86.9422C196.137 85.9356 196.137 85.9356 196.134 82.1612V63.3818H200.22V82.1612C200.22 85.9356 200.22 85.9356 200.959 86.9422C201.55 87.7341 202.092 88.5617 202.58 89.4205L203.218 90.5273ZM195.727 89.0511H200.628C200.275 88.5046 199.995 88.1275 199.768 87.8197C198.739 86.422 198.739 86.2619 198.742 82.1627V64.8611H197.611V82.1535C197.611 86.2526 197.611 86.4127 196.585 87.8104C196.359 88.1244 196.078 88.5046 195.727 89.0511Z" fill="#5C667F"/>
<path d="M201.032 26.585H198.211L195.89 22.6798L195.929 22.4212C196.026 21.7563 198.322 6.10474 198.633 4.45154C198.956 2.72291 199.383 2.04563 200.092 2.11181C201.032 2.19955 201.032 3.46793 201.032 4.58854V26.585ZM199.052 25.1088H199.554V8.08427C198.835 12.8114 197.655 20.8358 197.43 22.3766L199.052 25.1088Z" fill="#5C667F"/>
<path d="M177.327 40.7461C176.846 40.7461 176.556 40.5768 176.402 40.2382C176.006 39.3823 177.105 38.745 178.074 38.1832L197.118 27.1465L198.533 29.5832L196.317 33.5469L196.074 33.6438C195.448 33.8947 180.749 39.7625 179.16 40.3244C178.362 40.5922 177.766 40.7461 177.327 40.7461ZM196.576 29.1553L181.838 37.6983C186.29 35.9482 193.831 32.9404 195.277 32.3631L196.829 29.5924L196.576 29.1553Z" fill="#5C667F"/>
<path d="M221.134 42.6183C220.569 42.6183 219.862 42.1842 219.212 41.7871L200.428 30.304L201.9 27.9011L206.444 27.9627L206.646 28.1289C207.163 28.5599 219.324 38.6854 220.574 39.8137C221.88 40.9928 222.239 41.707 221.806 42.2766C221.73 42.3837 221.63 42.4709 221.512 42.5304C221.395 42.5899 221.266 42.6201 221.134 42.6183ZM202.466 29.8175L216.999 38.7054C213.338 35.6268 207.105 30.4302 205.906 29.4327L202.726 29.3896L202.466 29.8175Z" fill="#5C667F"/>
<path d="M193.526 30.6484C193.423 30.6489 193.321 30.6277 193.227 30.5863C193.133 30.545 193.049 30.4843 192.98 30.4083C192.444 29.7853 192.157 28.9869 192.173 28.1656C192.173 26.5016 193.213 25.1978 194.539 25.1978H199.579C199.679 25.1932 199.779 25.2089 199.872 25.244C199.966 25.279 200.051 25.3327 200.124 25.4016C200.196 25.4706 200.253 25.5535 200.293 25.6454C200.332 25.7372 200.352 25.836 200.352 25.9359C200.352 26.0357 200.332 26.1346 200.293 26.2264C200.253 26.3182 200.196 26.4011 200.124 26.4701C200.051 26.5391 199.966 26.5927 199.872 26.6278C199.779 26.6628 199.679 26.6785 199.579 26.674H194.539C194.119 26.674 193.65 27.2897 193.65 28.1656C193.636 28.6179 193.785 29.0603 194.07 29.4124C194.164 29.5182 194.227 29.6491 194.249 29.7894C194.271 29.9296 194.252 30.0733 194.195 30.2033C194.138 30.3332 194.044 30.4438 193.925 30.522C193.807 30.6001 193.668 30.6424 193.526 30.6438V30.6484Z" fill="#5C667F"/>
<path d="M199.579 31.1337H197.211C197.111 31.1382 197.011 31.1225 196.917 31.0875C196.824 31.0525 196.738 30.9988 196.666 30.9298C196.594 30.8609 196.536 30.7779 196.497 30.6861C196.458 30.5943 196.437 30.4955 196.437 30.3956C196.437 30.2957 196.458 30.1969 196.497 30.1051C196.536 30.0132 196.594 29.9303 196.666 29.8614C196.738 29.7924 196.824 29.7387 196.917 29.7037C197.011 29.6687 197.111 29.653 197.211 29.6575H199.579C199.679 29.653 199.778 29.6687 199.872 29.7037C199.965 29.7387 200.051 29.7924 200.123 29.8614C200.196 29.9303 200.253 30.0132 200.292 30.1051C200.332 30.1969 200.352 30.2957 200.352 30.3956C200.352 30.4955 200.332 30.5943 200.292 30.6861C200.253 30.7779 200.196 30.8609 200.123 30.9298C200.051 30.9988 199.965 31.0525 199.872 31.0875C199.778 31.1225 199.679 31.1382 199.579 31.1337Z" fill="#5C667F"/>
<path d="M197.159 64.3175C197.062 64.3175 196.966 64.2984 196.876 64.2613C196.786 64.2241 196.705 64.1697 196.636 64.101C196.568 64.0324 196.513 63.9509 196.476 63.8613C196.439 63.7717 196.421 63.6756 196.421 63.5787V30.9457C196.416 30.8459 196.432 30.7463 196.467 30.6527C196.502 30.5592 196.556 30.4738 196.625 30.4016C196.694 30.3294 196.777 30.2719 196.869 30.2326C196.961 30.1933 197.06 30.1731 197.16 30.1731C197.259 30.1731 197.358 30.1933 197.45 30.2326C197.542 30.2719 197.625 30.3294 197.694 30.4016C197.763 30.4738 197.817 30.5592 197.852 30.6527C197.887 30.7463 197.903 30.8459 197.898 30.9457V63.5787C197.898 63.7746 197.82 63.9626 197.682 64.1011C197.543 64.2397 197.355 64.3175 197.159 64.3175Z" fill="#5C667F"/>
<path d="M199.094 64.3176C198.898 64.3176 198.71 64.2398 198.571 64.1012C198.432 63.9627 198.354 63.7747 198.354 63.5788V30.564C198.363 30.3741 198.445 30.1948 198.582 30.0635C198.72 29.9322 198.903 29.8589 199.093 29.8589C199.283 29.8589 199.466 29.9322 199.604 30.0635C199.742 30.1948 199.823 30.3741 199.832 30.564V63.5788C199.832 63.7745 199.754 63.9622 199.616 64.1007C199.477 64.2392 199.29 64.3172 199.094 64.3176Z" fill="#5C667F"/>
<path d="M199.567 31.1075C198.989 31.1075 198.425 30.9365 197.945 30.6161C197.466 30.2958 197.092 29.8404 196.871 29.3077C196.65 28.775 196.592 28.1888 196.705 27.6233C196.817 27.0577 197.095 26.5382 197.503 26.1305C197.911 25.7228 198.431 25.4451 198.997 25.3326C199.563 25.2201 200.15 25.2779 200.683 25.4985C201.217 25.7192 201.672 26.0929 201.993 26.5723C202.314 27.0517 202.485 27.6154 202.485 28.192C202.482 28.9645 202.174 29.7046 201.627 30.2509C201.081 30.7971 200.34 31.105 199.567 31.1075ZM199.567 26.7528C199.282 26.7528 199.003 26.8372 198.766 26.9953C198.529 27.1535 198.345 27.3783 198.236 27.6413C198.127 27.9042 198.098 28.1936 198.154 28.4728C198.209 28.752 198.347 29.0084 198.548 29.2097C198.749 29.411 199.006 29.5481 199.286 29.6036C199.565 29.6591 199.855 29.6306 200.118 29.5217C200.381 29.4128 200.606 29.2283 200.764 28.9916C200.923 28.7549 201.007 28.4767 201.007 28.192C201.006 27.8106 200.854 27.445 200.584 27.1752C200.314 26.9055 199.948 26.7536 199.567 26.7528Z" fill="#5C667F"/>
<path d="M80.5469 91.0475V67.7134H84.3986V85.3306H83.4896L80.5469 91.0475ZM82.0244 69.1896V84.9535L82.5914 83.8544H82.9242V69.1896H82.0244Z" fill="#5C667F"/>
<path d="M84.4001 14.2493V33.6028H82.8887L81.0923 30.5873C81.0923 30.5873 83.2662 15.7655 83.5497 14.2539C83.8332 12.7423 84.4001 11.6063 84.4001 14.2493Z" fill="#5C667F"/>
<path d="M85.1395 34.3417H82.468L80.3233 30.7413L80.3619 30.4827C80.4512 29.8778 82.5404 15.6286 82.827 14.1216C83.1351 12.5053 83.5326 11.8727 84.2259 11.9373C85.1503 12.022 85.1503 13.2103 85.1503 14.257L85.1395 34.3417ZM83.3092 32.8655H83.662V18.31C83.0072 22.6385 82.0628 29.0666 81.8625 30.4304L83.3092 32.8655Z" fill="#5C667F"/>
<path d="M63.4883 47.2267C63.026 47.2267 62.7395 47.062 62.5839 46.7265C62.1987 45.8937 63.2263 45.2965 64.1338 44.7716L81.5282 34.6892L82.8685 36.9981L80.821 40.6601L80.5775 40.7571C80.009 40.9849 66.6251 46.3278 65.1707 46.8404C64.4496 47.0974 63.8981 47.2267 63.4883 47.2267ZM80.992 36.7072L68.3907 44.0112C72.4658 42.4041 78.5069 39.9951 79.7918 39.4841L81.1784 37.012L80.992 36.7072Z" fill="#5C667F"/>
<path d="M103.378 48.9399C102.845 48.9399 102.192 48.5397 101.591 48.1703L84.4387 37.6831L85.833 35.4065L90.0314 35.4634L90.2332 35.6312C90.7031 36.0222 101.776 45.2426 102.915 46.2708C104.135 47.3653 104.464 48.0487 104.049 48.5967C103.974 48.7051 103.874 48.7933 103.757 48.8532C103.64 48.9131 103.51 48.943 103.378 48.9399ZM86.4708 37.1952L98.8965 44.7931C95.5424 41.9777 90.5475 37.8216 89.4875 36.9319L86.6542 36.8981L86.4708 37.1952Z" fill="#5C667F"/>
<path d="M78.2394 38.0418C78.1368 38.0417 78.0353 38.0204 77.9414 37.979C77.8475 37.9377 77.7632 37.8773 77.694 37.8016C77.195 37.2219 76.9274 36.4788 76.9421 35.7144C76.9421 34.1628 77.9174 32.9436 79.1638 32.9436H83.7504C83.8503 32.9391 83.95 32.9548 84.0436 32.9898C84.1372 33.0249 84.2227 33.0785 84.295 33.1475C84.3673 33.2165 84.4248 33.2994 84.4641 33.3912C84.5034 33.483 84.5237 33.5819 84.5237 33.6817C84.5237 33.7816 84.5034 33.8804 84.4641 33.9723C84.4248 34.0641 84.3673 34.147 84.295 34.216C84.2227 34.285 84.1372 34.3386 84.0436 34.3736C83.95 34.4087 83.8503 34.4244 83.7504 34.4198H79.1638C78.8125 34.4198 78.4197 34.9724 78.4197 35.7113C78.4061 36.1071 78.5357 36.4946 78.7848 36.8026C78.8796 36.9086 78.9419 37.0396 78.9641 37.18C78.9863 37.3204 78.9674 37.4642 78.9099 37.5942C78.8523 37.7242 78.7584 37.8348 78.6395 37.9129C78.5206 37.9909 78.3817 38.033 78.2394 38.0341V38.0418Z" fill="#5C667F"/>
<path d="M83.7498 38.4835H81.5929C81.493 38.4881 81.3933 38.4724 81.2997 38.4373C81.2061 38.4023 81.1205 38.3487 81.0483 38.2797C80.976 38.2107 80.9185 38.1278 80.8792 38.036C80.8399 37.9442 80.8196 37.8453 80.8196 37.7454C80.8196 37.6456 80.8399 37.5467 80.8792 37.4549C80.9185 37.3631 80.976 37.2802 81.0483 37.2112C81.1205 37.1422 81.2061 37.0886 81.2997 37.0536C81.3933 37.0185 81.493 37.0028 81.5929 37.0074H83.7498C83.8497 37.0028 83.9494 37.0185 84.043 37.0536C84.1366 37.0886 84.2221 37.1422 84.2944 37.2112C84.3667 37.2802 84.4242 37.3631 84.4635 37.4549C84.5028 37.5467 84.5231 37.6456 84.5231 37.7454C84.5231 37.8453 84.5028 37.9442 84.4635 38.036C84.4242 38.1278 84.3667 38.2107 84.2944 38.2797C84.2221 38.3487 84.1366 38.4023 84.043 38.4373C83.9494 38.4724 83.8497 38.4881 83.7498 38.4835Z" fill="#5C667F"/>
<path d="M81.5468 68.6936C81.3512 68.6932 81.1637 68.6154 81.0254 68.4772C80.8871 68.339 80.8092 68.1517 80.8088 67.9563V38.2479C80.8042 38.1482 80.82 38.0485 80.855 37.955C80.8901 37.8615 80.9438 37.776 81.0128 37.7038C81.0819 37.6316 81.1649 37.5741 81.2568 37.5349C81.3487 37.4956 81.4476 37.4753 81.5475 37.4753C81.6475 37.4753 81.7464 37.4956 81.8383 37.5349C81.9302 37.5741 82.0132 37.6316 82.0823 37.7038C82.1513 37.776 82.205 37.8615 82.2401 37.955C82.2751 38.0485 82.2909 38.1482 82.2863 38.2479V67.9563C82.2859 68.152 82.2078 68.3395 82.0692 68.4777C81.9305 68.616 81.7426 68.6936 81.5468 68.6936Z" fill="#5C667F"/>
<path d="M83.3082 68.6938C83.1124 68.6938 82.9247 68.6162 82.7863 68.4779C82.6479 68.3396 82.5702 68.1521 82.5702 67.9565V37.8988C82.5789 37.7088 82.6605 37.5296 82.7981 37.3982C82.9357 37.2669 83.1186 37.1936 83.3089 37.1936C83.4992 37.1936 83.6822 37.2669 83.8198 37.3982C83.9574 37.5296 84.039 37.7088 84.0477 37.8988V67.9565C84.0473 68.1522 83.9692 68.3397 83.8305 68.478C83.6919 68.6162 83.504 68.6938 83.3082 68.6938Z" fill="#5C667F"/>
<path d="M83.7396 38.4605C83.2008 38.4608 82.674 38.3015 82.2259 38.0026C81.7777 37.7038 81.4284 37.2788 81.222 36.7816C81.0156 36.2843 80.9614 35.7371 81.0663 35.2091C81.1713 34.681 81.4306 34.196 81.8115 33.8152C82.1923 33.4345 82.6777 33.1751 83.2061 33.07C83.7346 32.9649 84.2823 33.0187 84.7802 33.2246C85.278 33.4305 85.7035 33.7793 86.0029 34.2269C86.3022 34.6745 86.462 35.2007 86.462 35.739C86.4612 36.4603 86.1742 37.1518 85.6639 37.662C85.1535 38.1721 84.4616 38.4593 83.7396 38.4605ZM83.7396 34.4953C83.493 34.495 83.2518 34.5678 83.0466 34.7045C82.8414 34.8413 82.6814 35.0357 82.5869 35.2633C82.4923 35.4909 82.4675 35.7415 82.5156 35.9832C82.5636 36.2249 82.6824 36.4469 82.8568 36.6211C83.0312 36.7954 83.2534 36.914 83.4953 36.962C83.7372 37.01 83.988 36.9852 84.2158 36.8908C84.4436 36.7963 84.6383 36.6365 84.7751 36.4315C84.9119 36.2265 84.9848 35.9855 84.9845 35.739C84.9841 35.4093 84.8528 35.0932 84.6195 34.86C84.3861 34.6269 84.0697 34.4957 83.7396 34.4953Z" fill="#5C667F"/>
<path d="M134.779 25.7844H133.488V57.1814H134.779V25.7844Z" fill="#5C667F"/>
<path d="M135.976 80.6297H137.736C135.376 76.5305 135.477 79.0026 135.477 72.9055V57.0508H133.08V72.9055C133.08 77.3217 133.132 77.2417 132.263 78.4208C132.216 78.487 130.741 79.9785 130.686 80.054L135.976 80.6297Z" fill="#5C667F"/>
<path d="M139.012 81.3653H135.976C135.877 81.3698 135.777 81.3541 135.684 81.3192C135.59 81.2842 135.505 81.2307 135.433 81.1619C135.361 81.093 135.303 81.0103 135.264 80.9186C135.225 80.827 135.205 80.7284 135.205 80.6287C135.205 80.529 135.225 80.4304 135.264 80.3388C135.303 80.2472 135.361 80.1644 135.433 80.0956C135.505 80.0267 135.59 79.9732 135.684 79.9383C135.777 79.9033 135.877 79.8876 135.976 79.8922H136.422C136.126 79.4396 135.889 79.1225 135.693 78.8516C134.736 77.5524 134.736 77.3308 134.739 73.6272V57.7818H133.815V73.6211C133.815 77.3292 133.815 77.5509 132.86 78.8547C132.809 78.9224 132.801 78.9332 132.048 79.7059C131.74 80.0138 131.331 80.4386 131.253 80.5248C131.13 80.6711 130.956 80.7642 130.766 80.7847C130.576 80.8052 130.386 80.7515 130.235 80.6347C130.084 80.518 129.984 80.3474 129.956 80.1587C129.929 79.97 129.975 79.7779 130.086 79.6228C130.137 79.5535 130.173 79.515 130.991 78.6761C131.265 78.396 131.607 78.0604 131.687 77.9604C132.342 77.0706 132.342 77.0368 132.339 73.6257V56.3071H136.212V73.6288C136.212 77.0691 136.212 77.0691 136.879 77.9788C137.424 78.7079 137.923 79.4703 138.372 80.2616L139.012 81.3653ZM131.282 80.4879L131.26 80.5171L131.282 80.4879Z" fill="#5C667F"/>
<path d="M136.96 22.6089H134.276L132.119 18.9747L132.157 18.7161C132.247 18.1004 134.356 3.72491 134.642 2.20255C134.951 0.577055 135.35 -0.0602119 136.046 0.0044384C136.97 0.0890995 136.97 1.28513 136.97 2.33801L136.96 22.6089ZM135.111 21.1358H135.481V6.32939C134.818 10.701 133.851 17.2892 133.647 18.6714L135.111 21.1358Z" fill="#5C667F"/>
<path d="M115.115 35.616C114.653 35.616 114.365 35.4498 114.209 35.1158C113.823 34.2799 114.858 33.6811 115.77 33.1516L133.32 22.98L134.667 25.2982L132.604 28.9925L132.362 29.0894C131.787 29.3188 118.278 34.7125 116.818 35.2281C116.084 35.4852 115.536 35.616 115.115 35.616ZM132.779 24.9949L119.962 32.4235C124.078 30.8011 130.268 28.3321 131.567 27.8149L132.964 25.312L132.779 24.9949Z" fill="#5C667F"/>
<path d="M155.376 37.3447C154.842 37.3447 154.181 36.9414 153.575 36.575L136.27 25.9924L137.672 23.7065L141.903 23.7635L142.103 23.9297C142.578 24.3253 153.754 33.6273 154.903 34.6678C156.136 35.7777 156.464 36.4565 156.048 37.0122C155.972 37.1185 155.871 37.2045 155.754 37.2625C155.637 37.3205 155.507 37.3487 155.376 37.3447ZM138.299 25.5075L150.933 33.2378C147.543 30.3917 142.428 26.1263 141.355 25.2335L138.487 25.195L138.299 25.5075Z" fill="#5C667F"/>
<path d="M130.003 26.3447C129.901 26.3446 129.8 26.3232 129.706 26.2819C129.612 26.2405 129.528 26.1801 129.459 26.1045C128.956 25.5215 128.686 24.7732 128.701 24.0034C128.701 22.441 129.683 21.2173 130.935 21.2173H135.565C135.761 21.2173 135.949 21.295 136.087 21.4332C136.225 21.5715 136.303 21.7591 136.303 21.9546C136.303 22.1502 136.225 22.3377 136.087 22.476C135.949 22.6142 135.761 22.6919 135.565 22.6919H130.943C130.586 22.6919 130.185 23.2522 130.185 24.0034C130.172 24.4046 130.303 24.7973 130.555 25.1102C130.65 25.2158 130.713 25.3467 130.736 25.4872C130.758 25.6277 130.74 25.7717 130.682 25.9019C130.625 26.0321 130.531 26.1429 130.412 26.2209C130.293 26.2989 130.153 26.3408 130.011 26.3416L130.003 26.3447Z" fill="#5C667F"/>
<path d="M135.565 26.7895H133.388C133.289 26.7941 133.189 26.7784 133.096 26.7435C133.002 26.7085 132.917 26.655 132.845 26.5861C132.773 26.5173 132.715 26.4345 132.676 26.3429C132.637 26.2513 132.616 26.1527 132.616 26.053C132.616 25.9533 132.637 25.8547 132.676 25.7631C132.715 25.6714 132.773 25.5887 132.845 25.5199C132.917 25.451 133.002 25.3975 133.096 25.3625C133.189 25.3276 133.289 25.3119 133.388 25.3164H135.565C135.665 25.3119 135.764 25.3276 135.858 25.3625C135.951 25.3975 136.037 25.451 136.109 25.5199C136.181 25.5887 136.238 25.6714 136.277 25.7631C136.317 25.8547 136.337 25.9533 136.337 26.053C136.337 26.1527 136.317 26.2513 136.277 26.3429C136.238 26.4345 136.181 26.5173 136.109 26.5861C136.037 26.655 135.951 26.7085 135.858 26.7435C135.764 26.7784 135.665 26.7941 135.565 26.7895Z" fill="#5C667F"/>
<path d="M133.342 57.2815C133.147 57.2815 132.959 57.204 132.821 57.066C132.683 56.928 132.606 56.7409 132.606 56.5457V26.5649C132.601 26.4654 132.617 26.3659 132.652 26.2726C132.687 26.1793 132.74 26.094 132.809 26.0219C132.878 25.9499 132.961 25.8925 133.053 25.8533C133.144 25.8142 133.243 25.7939 133.343 25.7939C133.443 25.7939 133.541 25.8142 133.633 25.8533C133.725 25.8925 133.808 25.9499 133.876 26.0219C133.945 26.094 133.999 26.1793 134.034 26.2726C134.069 26.3659 134.085 26.4654 134.08 26.5649V56.5457C134.08 56.6425 134.061 56.7383 134.024 56.8277C133.987 56.917 133.932 56.9982 133.864 57.0666C133.795 57.1349 133.714 57.1891 133.624 57.226C133.535 57.2628 133.439 57.2817 133.342 57.2815Z" fill="#5C667F"/>
<path d="M135.12 57.2815C135.023 57.2817 134.927 57.2628 134.837 57.2259C134.748 57.189 134.666 57.1349 134.598 57.0665C134.529 56.9982 134.475 56.917 134.438 56.8276C134.401 56.7383 134.382 56.6424 134.382 56.5457V26.2078C134.382 26.0122 134.459 25.8247 134.598 25.6864C134.736 25.5481 134.924 25.4705 135.12 25.4705C135.315 25.4705 135.503 25.5481 135.641 25.6864C135.78 25.8247 135.858 26.0122 135.858 26.2078V56.5457C135.857 56.741 135.779 56.9281 135.641 57.0661C135.502 57.204 135.315 57.2815 135.12 57.2815Z" fill="#5C667F"/>
<path d="M135.554 26.7666C135.012 26.7666 134.482 26.606 134.031 26.3051C133.581 26.0042 133.229 25.5765 133.022 25.0761C132.814 24.5758 132.76 24.0252 132.866 23.494C132.972 22.9628 133.233 22.4748 133.616 22.0919C133.999 21.7089 134.488 21.4481 135.019 21.3424C135.551 21.2368 136.102 21.291 136.603 21.4982C137.104 21.7055 137.532 22.0565 137.833 22.5068C138.134 22.9572 138.295 23.4866 138.295 24.0282C138.294 24.7542 138.005 25.4503 137.491 25.9636C136.977 26.477 136.281 26.7658 135.554 26.7666ZM135.554 22.7644C135.304 22.7644 135.059 22.8386 134.851 22.9774C134.643 23.1163 134.481 23.3137 134.385 23.5446C134.29 23.7755 134.265 24.0296 134.314 24.2747C134.362 24.5199 134.483 24.7451 134.66 24.9218C134.837 25.0986 135.062 25.2189 135.307 25.2677C135.553 25.3164 135.807 25.2914 136.038 25.1958C136.269 25.1001 136.467 24.9381 136.606 24.7303C136.745 24.5225 136.819 24.2781 136.819 24.0282C136.819 23.6932 136.685 23.3719 136.448 23.135C136.211 22.8981 135.889 22.7648 135.554 22.7644Z" fill="#5C667F"/>
<path d="M47.564 94.5968H40.1179L40.6479 93.6732C40.9957 93.0627 41.3806 92.4742 41.8003 91.9107C42.3072 91.2242 42.3072 91.2242 42.3041 88.5843V75.2263H45.3778V88.6443C45.3778 91.2242 45.3778 91.2242 45.8816 91.9107C46.3019 92.4733 46.6868 93.0614 47.0341 93.6716L47.564 94.5968ZM42.281 93.3653H45.4025C45.1976 93.0575 45.0296 92.8297 44.891 92.6419C44.1453 91.6306 44.1453 91.4612 44.1483 88.6397V76.4578H43.5321V88.5858C43.5321 91.4566 43.5321 91.629 42.7879 92.6419C42.6523 92.8312 42.4844 93.0575 42.281 93.3669V93.3653Z" fill="#5C667F"/>
<path d="M45.9506 49.4078H43.8121L42.1282 46.5755L42.1605 46.36C42.2283 45.8889 43.8553 34.8276 44.071 33.6562C44.3113 32.377 44.6364 31.8768 45.2018 31.9276C45.9506 31.9968 45.9506 32.9804 45.9506 33.7747V49.4078ZM44.5116 48.1763H44.7212V37.4752C44.222 40.7893 43.5595 45.2902 43.4085 46.3215L44.5116 48.1763Z" fill="#5C667F"/>
<path d="M29.1146 59.4117C28.7741 59.4117 28.4983 59.2993 28.3643 58.9992C28.0484 58.3173 28.9004 57.8231 29.5829 57.4275L43.1225 49.5771L44.201 51.4243L42.594 54.3012L42.3907 54.3828C41.95 54.5583 31.5597 58.7067 30.435 59.1054C30.0137 59.2764 29.5681 59.3797 29.1146 59.4117ZM42.6803 51.2596L33.4131 56.6317C36.5314 55.4003 40.7622 53.7071 41.7328 53.3253L42.7866 51.4397L42.6803 51.2596Z" fill="#5C667F"/>
<path d="M60.071 60.7373C59.6381 60.7373 59.1112 60.4156 58.6582 60.1385L45.3082 51.9802L46.4252 50.1577L49.7222 50.2024L49.8902 50.3424C50.2553 50.6503 58.8508 57.8034 59.7351 58.6023C60.4439 59.2411 61.0401 59.9091 60.621 60.4679C60.5587 60.5546 60.4758 60.6245 60.3799 60.6715C60.2839 60.7185 60.1778 60.7411 60.071 60.7373ZM46.9998 51.5677L56.1376 57.1569C53.5693 55.0019 50.0704 52.0865 49.2693 51.4199L47.1123 51.3907L46.9998 51.5677Z" fill="#5C667F"/>
<path d="M40.5541 52.2805C40.4685 52.2805 40.384 52.2626 40.3057 52.2282C40.2275 52.1937 40.1573 52.1434 40.0996 52.0804C39.7061 51.6227 39.4945 51.0366 39.5049 50.4333C39.5049 49.2019 40.2752 48.2429 41.2705 48.2429H44.8325C44.996 48.2429 45.1527 48.3078 45.2683 48.4233C45.3839 48.5387 45.4488 48.6953 45.4488 48.8586C45.4488 49.0219 45.3839 49.1785 45.2683 49.294C45.1527 49.4095 44.996 49.4744 44.8325 49.4744H41.2751C41.027 49.4744 40.7389 49.8946 40.7389 50.4364C40.7287 50.7332 40.8255 51.0238 41.0116 51.2553C41.121 51.3756 41.1783 51.5342 41.1711 51.6965C41.1639 51.8589 41.0927 52.0118 40.9731 52.1219C40.859 52.2265 40.7089 52.2833 40.5541 52.2805Z" fill="#5C667F"/>
<path d="M44.8322 52.6235H43.1575C42.9941 52.6235 42.8373 52.5587 42.7217 52.4432C42.6062 52.3277 42.5412 52.1711 42.5412 52.0078C42.5412 51.8445 42.6062 51.6879 42.7217 51.5724C42.8373 51.457 42.9941 51.3921 43.1575 51.3921H44.8322C44.9957 51.3921 45.1524 51.457 45.268 51.5724C45.3836 51.6879 45.4485 51.8445 45.4485 52.0078C45.4485 52.1711 45.3836 52.3277 45.268 52.4432C45.1524 52.5587 44.9957 52.6235 44.8322 52.6235Z" fill="#5C667F"/>
<path d="M43.1235 76.0748C42.9601 76.0748 42.8033 76.0099 42.6877 75.8945C42.5722 75.779 42.5072 75.6224 42.5072 75.4591V52.4036C42.5072 52.2403 42.5722 52.0837 42.6877 51.9682C42.8033 51.8527 42.9601 51.7878 43.1235 51.7878C43.287 51.7878 43.4437 51.8527 43.5593 51.9682C43.6749 52.0837 43.7398 52.2403 43.7398 52.4036V75.4606C43.7394 75.6237 43.6743 75.7799 43.5587 75.895C43.4432 76.0101 43.2867 76.0748 43.1235 76.0748Z" fill="#5C667F"/>
<path d="M44.4885 76.0747C44.3251 76.0747 44.1683 76.0098 44.0528 75.8944C43.9372 75.7789 43.8722 75.6223 43.8722 75.459V52.1279C43.8722 51.9646 43.9372 51.808 44.0528 51.6925C44.1683 51.5771 44.3251 51.5122 44.4885 51.5122C44.652 51.5122 44.8087 51.5771 44.9243 51.6925C45.0399 51.808 45.1048 51.9646 45.1048 52.1279V75.4605C45.1044 75.6236 45.0393 75.7798 44.9238 75.8949C44.8082 76.01 44.6517 76.0747 44.4885 76.0747Z" fill="#5C667F"/>
<path d="M44.8183 52.5988C44.3917 52.5988 43.9746 52.4725 43.6199 52.2357C43.2652 51.9989 42.9888 51.6623 42.8255 51.2685C42.6622 50.8747 42.6195 50.4414 42.7028 50.0234C42.786 49.6054 42.9914 49.2214 43.2931 48.92C43.5947 48.6186 43.9791 48.4134 44.3975 48.3302C44.8159 48.2471 45.2496 48.2898 45.6437 48.4529C46.0378 48.616 46.3747 48.8922 46.6117 49.2466C46.8487 49.601 46.9752 50.0176 46.9752 50.4438C46.9752 51.0154 46.748 51.5635 46.3435 51.9677C45.939 52.3718 45.3903 52.5988 44.8183 52.5988ZM44.8183 49.5203C44.6354 49.5203 44.4567 49.5744 44.3047 49.6759C44.1527 49.7774 44.0342 49.9216 43.9642 50.0904C43.8943 50.2592 43.876 50.4449 43.9116 50.624C43.9473 50.8032 44.0353 50.9677 44.1646 51.0969C44.2939 51.2261 44.4586 51.314 44.6379 51.3497C44.8172 51.3853 45.0031 51.367 45.172 51.2971C45.3409 51.2272 45.4853 51.1088 45.5869 50.9569C45.6885 50.8051 45.7427 50.6265 45.7427 50.4438C45.7427 50.1989 45.6453 49.964 45.4719 49.7908C45.2986 49.6176 45.0634 49.5203 44.8183 49.5203Z" fill="#5C667F"/>
<path d="M152.96 107.562H124.694C124.597 107.562 124.501 107.543 124.411 107.506C124.322 107.469 124.24 107.414 124.172 107.346C124.103 107.277 124.049 107.196 124.012 107.106C123.975 107.016 123.956 106.92 123.956 106.823V96.5548H125.434V106.086H152.22V96.2346H153.698V106.816C153.699 106.913 153.681 107.01 153.644 107.101C153.608 107.191 153.553 107.274 153.485 107.343C153.416 107.413 153.334 107.468 153.244 107.505C153.154 107.543 153.057 107.562 152.96 107.562Z" fill="#5C667F"/>
<path d="M126.751 107.562H77.4321C77.2363 107.562 77.0486 107.484 76.9102 107.345C76.7719 107.207 76.6942 107.019 76.6942 106.823V98.3003H78.1717V106.086H126.751V107.562Z" fill="#5C667F"/>
<path d="M139.486 90.6486C139.109 90.6486 138.741 90.537 138.428 90.328C138.115 90.1189 137.871 89.8218 137.727 89.4741C137.583 89.1265 137.545 88.744 137.618 88.3749C137.692 88.0058 137.873 87.6668 138.139 87.4008C138.406 87.1347 138.745 86.9535 139.115 86.8801C139.484 86.8067 139.867 86.8443 140.215 86.9883C140.563 87.1323 140.86 87.3762 141.069 87.6891C141.279 88.0019 141.39 88.3698 141.39 88.7461C141.39 89.2504 141.189 89.7339 140.832 90.0905C140.475 90.4471 139.991 90.6478 139.486 90.6486ZM139.486 88.3197C139.402 88.3197 139.319 88.3447 139.249 88.3915C139.179 88.4384 139.124 88.505 139.092 88.5829C139.059 88.6608 139.051 88.7465 139.067 88.8292C139.084 88.912 139.125 88.9879 139.184 89.0476C139.244 89.1072 139.32 89.1478 139.403 89.1643C139.486 89.1807 139.571 89.1723 139.649 89.14C139.727 89.1077 139.794 89.0531 139.841 88.9829C139.888 88.9128 139.913 88.8304 139.913 88.7461C139.912 88.6331 139.867 88.5249 139.787 88.445C139.707 88.3651 139.599 88.3201 139.486 88.3197Z" fill="#5C667F"/>
<path d="M83.0413 83.9958H83.0027V85.472H83.0413V83.9958Z" fill="#5C667F"/>
<path d="M130.627 83.9958H89.001V85.472H130.627V83.9958Z" fill="#5C667F"/>
<path d="M80.9214 95.2991H77.3886V96.7753H80.9214V95.2991Z" fill="#5C667F"/>
<path d="M124.583 95.2991H89.1334V96.7753H124.583V95.2991Z" fill="#5C667F"/>
<path d="M120.358 99.9583H119.667C119.259 99.9583 118.929 100.288 118.929 100.696V103.689C118.929 104.097 119.259 104.427 119.667 104.427H120.358C120.766 104.427 121.096 104.097 121.096 103.689V100.696C121.096 100.288 120.766 99.9583 120.358 99.9583Z" fill="#5C667F"/>
<path d="M114.829 99.9583H114.137C113.73 99.9583 113.399 100.288 113.399 100.696V103.689C113.399 104.097 113.73 104.427 114.137 104.427H114.829C115.236 104.427 115.567 104.097 115.567 103.689V100.696C115.567 100.288 115.236 99.9583 114.829 99.9583Z" fill="#5C667F"/>
<path d="M109.298 99.9583H108.606C108.199 99.9583 107.868 100.288 107.868 100.696V103.689C107.868 104.097 108.199 104.427 108.606 104.427H109.298C109.706 104.427 110.036 104.097 110.036 103.689V100.696C110.036 100.288 109.706 99.9583 109.298 99.9583Z" fill="#5C667F"/>
<path d="M103.768 99.9583H103.077C102.669 99.9583 102.339 100.288 102.339 100.696V103.689C102.339 104.097 102.669 104.427 103.077 104.427H103.768C104.176 104.427 104.506 104.097 104.506 103.689V100.696C104.506 100.288 104.176 99.9583 103.768 99.9583Z" fill="#5C667F"/>
<path d="M98.2389 99.9583H97.5472C97.1396 99.9583 96.8092 100.288 96.8092 100.696V103.689C96.8092 104.097 97.1396 104.427 97.5472 104.427H98.2389C98.6465 104.427 98.9769 104.097 98.9769 103.689V100.696C98.9769 100.288 98.6465 99.9583 98.2389 99.9583Z" fill="#5C667F"/>
<path d="M92.708 99.9583H92.0162C91.6086 99.9583 91.2782 100.288 91.2782 100.696V103.689C91.2782 104.097 91.6086 104.427 92.0162 104.427H92.708C93.1155 104.427 93.446 104.097 93.446 103.689V100.696C93.446 100.288 93.1155 99.9583 92.708 99.9583Z" fill="#5C667F"/>
<path d="M87.1785 99.9583H86.4867C86.0791 99.9583 85.7487 100.288 85.7487 100.696V103.689C85.7487 104.097 86.0791 104.427 86.4867 104.427H87.1785C87.586 104.427 87.9164 104.097 87.9164 103.689V100.696C87.9164 100.288 87.586 99.9583 87.1785 99.9583Z" fill="#5C667F"/>
<path d="M81.6489 99.9583H80.9572C80.5496 99.9583 80.2192 100.288 80.2192 100.696V103.689C80.2192 104.097 80.5496 104.427 80.9572 104.427H81.6489C82.0565 104.427 82.3869 104.097 82.3869 103.689V100.696C82.3869 100.288 82.0565 99.9583 81.6489 99.9583Z" fill="#5C667F"/>
<path d="M116.614 98.7178L115.728 97.5372L118.338 95.5838L124.131 84.347C124.2 84.2127 124.307 84.1021 124.439 84.0299L132.57 79.8123L133.251 81.1222L125.333 85.2321L119.569 96.4135C119.518 96.5125 119.444 96.5987 119.355 96.666L116.614 98.7178Z" fill="#5C667F"/>
<path d="M110.651 98.7178L109.765 97.5372L112.375 95.5838L118.168 84.347C118.238 84.2111 118.349 84.1004 118.485 84.0299L126.614 79.8123L127.295 81.1222L119.374 85.2321L113.61 96.4135C113.559 96.5125 113.486 96.5987 113.396 96.666L110.651 98.7178Z" fill="#5C667F"/>
<path d="M104.692 98.7178L103.805 97.5372L106.415 95.5838L112.208 84.347C112.279 84.2114 112.39 84.1008 112.525 84.0299L120.655 79.8123L121.336 81.1222L113.414 85.2321L107.651 96.4135C107.599 96.5128 107.526 96.5992 107.436 96.666L104.692 98.7178Z" fill="#5C667F"/>
<path d="M98.7332 98.7178L97.8458 97.5372L100.456 95.5838L106.25 84.347C106.318 84.2124 106.426 84.1017 106.558 84.0299L114.689 79.8123L115.37 81.1222L107.455 85.2321L101.691 96.4135C101.64 96.5128 101.567 96.5992 101.477 96.666L98.7332 98.7178Z" fill="#5C667F"/>
<path d="M92.774 98.7178L91.8866 97.5372L94.4965 95.5838L100.291 84.347C100.361 84.2112 100.471 84.1005 100.607 84.0299L108.737 79.8123L109.418 81.1222L101.496 85.2321L95.7321 96.4135C95.6809 96.5128 95.6076 96.5992 95.518 96.666L92.774 98.7178Z" fill="#5C667F"/>
<path d="M86.0666 97.4402L85.9259 97.5452L86.8102 98.7278L86.9509 98.6228L86.0666 97.4402Z" fill="#5C667F"/>
<path d="M89.79 96.3747L88.4773 95.699L94.3319 84.3344C94.4013 84.2031 94.5087 84.0959 94.64 84.0265L102.77 79.8088L103.451 81.1203L95.5352 85.2318L89.79 96.3747Z" fill="#5C667F"/>
<path d="M80.1074 97.4397L79.9667 97.5447L80.851 98.7273L80.9917 98.6223L80.1074 97.4397Z" fill="#5C667F"/>
<path d="M89.3693 85.3349L89.0781 84.7746L88.3478 84.3882L88.3755 84.3344C88.4454 84.2035 88.5527 84.0963 88.6837 84.0265L96.8139 79.8088L97.4949 81.1203L89.3693 85.3349Z" fill="#5C667F"/>
<path d="M145.506 107.216H133.465C133.368 107.217 133.272 107.198 133.182 107.161C133.093 107.124 133.011 107.069 132.943 107.001C132.874 106.932 132.82 106.851 132.783 106.761C132.746 106.672 132.727 106.576 132.727 106.479V95.1236C132.727 95.0267 132.746 94.9306 132.783 94.841C132.82 94.7514 132.874 94.6699 132.943 94.6013C133.011 94.5326 133.093 94.4782 133.182 94.441C133.272 94.4039 133.368 94.3848 133.465 94.3848H145.506C145.702 94.3848 145.89 94.4626 146.029 94.6012C146.167 94.7397 146.245 94.9277 146.245 95.1236V106.474C146.246 106.572 146.227 106.668 146.19 106.758C146.153 106.848 146.099 106.93 146.03 106.999C145.961 107.068 145.88 107.123 145.79 107.16C145.7 107.197 145.603 107.217 145.506 107.216ZM134.205 105.74H144.768V95.861H134.205V105.74Z" fill="#5C667F"/>
<path d="M140.224 95.2173H138.746V106.867H140.224V95.2173Z" fill="#5C667F"/>
<path d="M138.532 95.0397L133.003 106.257L134.328 106.909L139.858 95.692L138.532 95.0397Z" fill="#5C667F"/>
<path d="M134.777 94.8641L133.42 95.4495L138.344 106.839L139.7 106.254L134.777 94.8641Z" fill="#5C667F"/>
<path d="M144.491 95.0397L138.962 106.257L140.287 106.909L145.817 95.6919L144.491 95.0397Z" fill="#5C667F"/>
<path d="M140.736 94.8646L139.379 95.45L144.303 106.84L145.66 106.254L140.736 94.8646Z" fill="#5C667F"/>
<path d="M79.5594 98.7607H74.5383C74.3825 98.761 74.2306 98.7119 74.1044 98.6206C73.9781 98.5293 73.8841 98.4004 73.8357 98.2525C73.7873 98.1045 73.787 97.945 73.8349 97.7968C73.8828 97.6487 73.9764 97.5195 74.1023 97.4277L76.6213 95.5806L82.385 84.3961C82.447 84.2755 82.5411 84.1744 82.6569 84.1038C82.7727 84.0332 82.9057 83.9959 83.0414 83.9958H89.0007C89.1275 83.996 89.2521 84.0287 89.3625 84.0909C89.473 84.153 89.5656 84.2424 89.6315 84.3506C89.6974 84.4588 89.7344 84.5821 89.7389 84.7086C89.7433 84.8352 89.7152 84.9608 89.6571 85.0734L83.8317 96.3764C83.7701 96.4959 83.6769 96.5963 83.5624 96.6668C83.4478 96.7374 83.3161 96.7753 83.1816 96.7766H80.9214V95.3004H82.7194L83.0614 94.6385L87.7851 85.4736H83.4897L77.8523 96.4118C77.7998 96.5134 77.7244 96.6014 77.632 96.6689L76.7908 97.2846H79.564L79.5594 98.7607Z" fill="#5C667F"/>
<path d="M155.765 98.8453H153.347V97.3691H153.474L152.501 96.6718C152.406 96.604 152.329 96.5143 152.276 96.4102L146.513 85.2318L138.646 81.1681H91.4425L83.4094 85.3349L83.1182 84.7747L82.3879 84.3898L82.4156 84.3359C82.4854 84.205 82.5927 84.0978 82.7238 84.0281L90.7646 79.8566C90.8971 79.755 91.0598 79.7008 91.2268 79.7027H138.82C138.938 79.703 139.054 79.7315 139.159 79.7858L147.396 84.0358C147.531 84.1067 147.642 84.2173 147.713 84.3529L153.503 95.5897L156.191 97.5215C156.318 97.6126 156.413 97.7416 156.462 97.8899C156.511 98.0382 156.511 98.1981 156.463 98.3467C156.415 98.4952 156.321 98.6248 156.195 98.7166C156.068 98.8084 155.916 98.8578 155.76 98.8576L155.765 98.8453Z" fill="#5C667F"/>
<path d="M86.511 98.7609H80.5517C80.3965 98.7612 80.2452 98.7125 80.1193 98.6219C79.9934 98.5313 79.8993 98.4034 79.8504 98.2563C79.8014 98.1092 79.8001 97.9504 79.8466 97.8025C79.8931 97.6547 79.9851 97.5252 80.1095 97.4325L82.6131 95.5577C82.6826 95.4766 82.7689 95.4115 82.866 95.3669C82.963 95.3222 83.0686 95.2991 83.1755 95.2991H89.1333C89.2594 95.2991 89.3834 95.3313 89.4935 95.3927C89.6036 95.4541 89.6961 95.5426 89.7623 95.6498C89.8286 95.757 89.8663 95.8794 89.8718 96.0052C89.8774 96.1311 89.8507 96.2562 89.7942 96.3689L89.7758 96.4043C89.7249 96.5065 89.6505 96.5951 89.5585 96.6629L86.9532 98.6132C86.8258 98.7092 86.6706 98.7611 86.511 98.7609ZM82.7703 97.2848H86.263L86.944 96.7752H83.4497L82.7703 97.2848Z" fill="#5C667F"/>
<path d="M122.263 98.7606H86.5191V97.2844H122.017L124.294 95.5912L130.087 84.3543C130.155 84.22 130.262 84.1095 130.395 84.0373L138.303 79.9304L138.984 81.2404L131.281 85.2425L125.517 96.4255C125.466 96.5251 125.393 96.6115 125.303 96.6779L122.693 98.6282C122.567 98.7158 122.417 98.762 122.263 98.7606Z" fill="#5C667F"/>
<path d="M80.5532 97.2847H79.5595V98.7608H80.5532V97.2847Z" fill="#5C667F"/>
<path d="M16.1929 103.132V90.9409H19.0462V100.792L18.7905 100.993C18.282 101.388 17.7767 101.798 17.2867 102.21L16.1929 103.132ZM17.5225 92.2693V100.3L17.7166 100.146V92.2678L17.5225 92.2693Z" fill="#5C667F"/>
<path d="M19.519 69.9297H17.5053L16.0417 67.4668L16.0756 67.2344C16.1326 66.845 17.473 57.7077 17.6548 56.738C17.7611 56.1684 17.9629 55.1094 18.7579 55.1817C19.519 55.2526 19.519 56.1823 19.519 56.8596V69.9297ZM17.4252 67.1913L18.1955 68.4766V62.0285C17.8566 64.2374 17.53 66.4771 17.4252 67.1913Z" fill="#5C667F"/>
<path d="M5.46206 78.1927C5.13851 78.1927 4.84578 78.0865 4.69172 77.7586C4.37125 77.066 5.17549 76.5996 5.7702 76.2594L17.0865 69.7004L18.0972 71.4398L16.6983 73.9412L16.4795 74.0289C16.1144 74.1752 7.5312 77.6016 6.59908 77.931C6.23669 78.079 5.85272 78.1674 5.46206 78.1927ZM16.4918 71.5738L10.9084 74.8063C12.9868 73.9828 15.0913 73.1423 15.7631 72.8745L16.4918 71.5738Z" fill="#5C667F"/>
<path d="M31.0311 79.2872C30.6228 79.2872 30.1529 78.9994 29.7739 78.7685L18.6147 71.9448L19.6655 70.2285L22.5342 70.267L22.7145 70.4209C23.0226 70.6734 30.1175 76.5781 30.8509 77.2477C31.2807 77.6356 32.0834 78.3575 31.6027 78.9994C31.5385 79.0907 31.4528 79.1648 31.3531 79.215C31.2533 79.2652 31.1428 79.29 31.0311 79.2872ZM20.5498 71.5692L26.0547 74.9357C24.3415 73.5026 22.6005 72.0526 22.0489 71.5892L20.5498 71.5692Z" fill="#5C667F"/>
<path d="M14.9043 72.3019C14.8119 72.3022 14.7205 72.2831 14.6358 72.246C14.5512 72.2089 14.4753 72.1545 14.4129 72.0864C14.0607 71.6796 13.8709 71.1573 13.8798 70.6195C13.8798 69.5174 14.59 68.6538 15.496 68.6538H18.4371C18.6079 68.662 18.769 68.7356 18.8869 68.8593C19.0049 68.9829 19.0707 69.1472 19.0707 69.318C19.0707 69.4888 19.0049 69.6531 18.8869 69.7768C18.769 69.9004 18.6079 69.974 18.4371 69.9822H15.496C15.422 69.9822 15.2109 70.2008 15.2109 70.6195C15.202 70.8251 15.2671 71.0271 15.3943 71.189C15.4818 71.2839 15.5397 71.4023 15.5609 71.5295C15.5821 71.6568 15.5657 71.7875 15.5137 71.9056C15.4617 72.0237 15.3764 72.1241 15.2681 72.1945C15.1599 72.2649 15.0335 72.3022 14.9043 72.3019Z" fill="#5C667F"/>
<path d="M18.4376 72.5853H17.051C16.961 72.5896 16.8711 72.5756 16.7867 72.5442C16.7022 72.5128 16.6251 72.4646 16.5598 72.4025C16.4946 72.3404 16.4427 72.2657 16.4072 72.1829C16.3717 72.1002 16.3534 72.0111 16.3534 71.9211C16.3534 71.8311 16.3717 71.742 16.4072 71.6592C16.4427 71.5765 16.4946 71.5018 16.5598 71.4397C16.6251 71.3776 16.7022 71.3294 16.7867 71.2979C16.8711 71.2665 16.961 71.2525 17.051 71.2569H18.4376C18.6084 71.2651 18.7695 71.3387 18.8875 71.4623C19.0054 71.586 19.0712 71.7503 19.0712 71.9211C19.0712 72.0919 19.0054 72.2562 18.8875 72.3798C18.7695 72.5035 18.6084 72.5771 18.4376 72.5853Z" fill="#5C667F"/>
<path d="M17.0248 91.9508C16.8486 91.9508 16.6797 91.8808 16.5552 91.7564C16.4307 91.632 16.3607 91.4633 16.3607 91.2873V72.2463C16.3564 72.1564 16.3704 72.0665 16.4018 71.9821C16.4333 71.8978 16.4816 71.8207 16.5437 71.7555C16.6059 71.6904 16.6806 71.6385 16.7634 71.603C16.8463 71.5676 16.9354 71.5493 17.0255 71.5493C17.1156 71.5493 17.2048 71.5676 17.2876 71.603C17.3704 71.6385 17.4452 71.6904 17.5073 71.7555C17.5695 71.8207 17.6178 71.8978 17.6492 71.9821C17.6807 72.0665 17.6947 72.1564 17.6903 72.2463V91.2873C17.6899 91.4634 17.6196 91.6321 17.4949 91.7565C17.3701 91.8809 17.201 91.9508 17.0248 91.9508Z" fill="#5C667F"/>
<path d="M18.154 91.9508C18.0667 91.951 17.9802 91.934 17.8994 91.9007C17.8187 91.8675 17.7453 91.8186 17.6835 91.757C17.6216 91.6954 17.5726 91.6222 17.5391 91.5416C17.5057 91.461 17.4884 91.3746 17.4884 91.2873V72.0185C17.4967 71.8479 17.5703 71.6869 17.6941 71.5691C17.8178 71.4512 17.9823 71.3855 18.1532 71.3855C18.3242 71.3855 18.4886 71.4512 18.6124 71.5691C18.7362 71.6869 18.8098 71.8479 18.818 72.0185V91.2873C18.818 91.3745 18.8009 91.4607 18.7675 91.5412C18.7341 91.6217 18.6852 91.6949 18.6235 91.7565C18.5619 91.8181 18.4887 91.8669 18.4081 91.9003C18.3276 91.9336 18.2412 91.9508 18.154 91.9508Z" fill="#5C667F"/>
<path d="M18.4297 72.5697C18.0467 72.5697 17.6722 72.4563 17.3538 72.2436C17.0353 72.031 16.7871 71.7288 16.6405 71.3753C16.4939 71.0217 16.4555 70.6327 16.5303 70.2574C16.605 69.882 16.7894 69.5373 17.0603 69.2667C17.3311 68.9961 17.6762 68.8118 18.0519 68.7371C18.4275 68.6625 18.8169 68.7008 19.1708 68.8472C19.5247 68.9937 19.8272 69.2417 20.04 69.5599C20.2528 69.8781 20.3663 70.2522 20.3663 70.6348C20.3655 71.1478 20.1612 71.6394 19.7982 72.0021C19.4352 72.3648 18.9431 72.5689 18.4297 72.5697ZM18.4297 70.0284C18.3096 70.0284 18.1923 70.0639 18.0925 70.1306C17.9926 70.1972 17.9148 70.2919 17.8689 70.4028C17.8229 70.5136 17.8109 70.6355 17.8343 70.7532C17.8578 70.8708 17.9156 70.9789 18.0005 71.0637C18.0854 71.1485 18.1935 71.2063 18.3113 71.2297C18.429 71.2531 18.5511 71.2411 18.662 71.1952C18.7729 71.1492 18.8677 71.0715 18.9344 70.9718C19.0011 70.872 19.0367 70.7548 19.0367 70.6348C19.0367 70.474 18.9728 70.3197 18.8589 70.206C18.7451 70.0923 18.5907 70.0284 18.4297 70.0284Z" fill="#5C667F"/>
<path d="M180.707 93.0822C180.579 93.0823 180.454 93.0489 180.343 92.9853C169.506 86.8466 156.997 83.6956 144.156 83.8773H144.145C143.955 83.8701 143.774 83.7899 143.642 83.6534C143.509 83.5168 143.435 83.3345 143.433 83.1443C143.432 82.9541 143.504 82.7707 143.634 82.6323C143.765 82.4939 143.944 82.411 144.134 82.4011C157.23 82.2133 170.007 85.432 181.073 91.7015C181.218 91.7811 181.331 91.9066 181.396 92.0579C181.46 92.2093 181.473 92.3779 181.431 92.5369C181.388 92.696 181.294 92.8365 181.163 92.9361C181.032 93.0358 180.872 93.0888 180.707 93.0869V93.0822Z" fill="#5C667F"/>
<path d="M209.045 74.4921L204.846 84.4956L206.072 85.0093L210.271 75.0058L209.045 74.4921Z" fill="#5C667F"/>
<path d="M210.981 74.4936L206.782 84.4971L208.009 85.0108L212.207 75.0073L210.981 74.4936Z" fill="#5C667F"/>
<path d="M212.92 74.4934L208.722 84.4968L209.948 85.0105L214.147 75.0071L212.92 74.4934Z" fill="#5C667F"/>
<path d="M214.858 74.4916L210.659 84.4951L211.885 85.0088L216.084 75.0053L214.858 74.4916Z" fill="#5C667F"/>
<path d="M216.796 74.4929L212.598 84.4963L213.824 85.01L218.022 75.0066L216.796 74.4929Z" fill="#5C667F"/>
<path d="M218.982 76.9563L217.756 77.47L220.926 85.0233L222.152 84.5096L218.982 76.9563Z" fill="#5C667F"/>
<path d="M224.749 85.3213H221.389V83.9929H222.748L218.936 74.9311L220.162 74.417L224.749 85.3213Z" fill="#5C667F"/>
<path d="M215.616 85.321H202.674L207.45 74.312H220.238L215.616 85.321ZM204.699 83.9926H214.732L218.234 75.6404H208.321L204.699 83.9926Z" fill="#5C667F"/>
<path d="M204.982 91.3088H204.686V92.6372H204.982V91.3088Z" fill="#5C667F"/>
<path d="M221.664 91.3088H213.679V92.6372H221.664V91.3088Z" fill="#5C667F"/>
<path d="M205.489 91.9727H204.159V92.1327H205.489V91.9727Z" fill="#5C667F"/>
<path d="M205.489 84.7642H204.159V90.4072H205.489V84.7642Z" fill="#5C667F"/>
<path d="M222.181 94.249H219.026V92.9206H220.851V84.4407H222.181V94.249Z" fill="#5C667F"/>
<path d="M214.989 84.6562H213.66V92.816H214.989V84.6562Z" fill="#5C667F"/>
<path d="M219.602 92.5511H216.442V85.0686H219.602V92.5511ZM217.773 91.2227H218.272V86.397H217.773V91.2227Z" fill="#5C667F"/>
<path d="M211.829 90.9013H207.473V86.2388H211.829V90.9013ZM208.803 89.5729H210.498V87.5718H208.803V89.5729Z" fill="#5C667F"/>
<path d="M220.418 92.0354H217.663V93.3638H220.418V92.0354Z" fill="#5C667F"/>
<path d="M162.209 95.5592C162.094 95.5596 161.981 95.5302 161.881 95.4738C161.781 95.4174 161.697 95.336 161.638 95.2375C158.978 90.8028 155.507 87.19 151.027 84.1915C150.954 84.143 150.892 84.0807 150.844 84.0081C150.795 83.9356 150.762 83.8542 150.745 83.7686C150.728 83.6831 150.728 83.5951 150.745 83.5095C150.762 83.424 150.796 83.3427 150.844 83.2702C150.893 83.1978 150.955 83.1356 151.028 83.0872C151.101 83.0388 151.182 83.0052 151.268 82.9882C151.353 82.9713 151.441 82.9714 151.527 82.9885C151.613 83.0055 151.694 83.0393 151.767 83.0878C156.415 86.1972 160.017 89.9485 162.779 94.554C162.87 94.7053 162.896 94.8862 162.853 95.0571C162.81 95.228 162.701 95.3748 162.55 95.4653C162.447 95.5272 162.329 95.5597 162.209 95.5592Z" fill="#5C667F"/>
<path d="M167.589 94.1781C167.466 94.1783 167.345 94.144 167.239 94.079C167.134 94.014 167.05 93.9209 166.995 93.8102C165.134 90.079 162.383 87.2652 158.338 84.9562C158.185 84.8689 158.073 84.7244 158.026 84.5545C157.98 84.3846 158.003 84.2033 158.09 84.0504C158.178 83.8975 158.322 83.7855 158.492 83.7392C158.662 83.6929 158.844 83.7159 158.997 83.8033C163.282 86.2492 166.201 89.2401 168.184 93.2176C168.223 93.2957 168.247 93.3808 168.253 93.4679C168.259 93.555 168.248 93.6425 168.22 93.7253C168.192 93.8081 168.148 93.8846 168.091 93.9504C168.033 94.0162 167.964 94.0701 167.885 94.1089C167.793 94.1548 167.692 94.1785 167.589 94.1781Z" fill="#5C667F"/>
<path d="M171.867 91.9846C171.749 91.9848 171.633 91.9535 171.531 91.894C171.429 91.8344 171.345 91.7488 171.287 91.6459C170.312 89.9247 168.995 88.42 167.419 87.2235C167.278 87.1174 167.186 86.9598 167.161 86.7855C167.137 86.6111 167.183 86.4342 167.289 86.2938C167.396 86.1534 167.553 86.0609 167.728 86.0366C167.902 86.0124 168.079 86.0584 168.22 86.1645C169.942 87.4705 171.38 89.1135 172.446 90.9933C172.503 91.0944 172.533 91.2087 172.532 91.3248C172.531 91.4408 172.499 91.5546 172.441 91.6549C172.382 91.7551 172.298 91.8383 172.198 91.8961C172.097 91.954 171.983 91.9845 171.867 91.9846Z" fill="#5C667F"/>
<path d="M239.099 107.742C238.992 107.743 238.886 107.72 238.789 107.675C238.691 107.63 238.605 107.564 238.535 107.482C233.548 101.602 226.9 97.1598 218.778 94.2798C217.294 93.7518 215.733 93.2716 214.134 92.8513C213.924 92.7975 213.713 92.7421 213.502 92.6974C210.623 91.9804 207.697 91.466 204.745 91.1581C202.351 90.9014 199.944 90.773 197.536 90.7733C190.059 90.7733 182.166 92.2603 174.712 95.0725C166.878 98.0295 159.886 102.344 154.493 107.552C154.352 107.688 154.162 107.762 153.966 107.759C153.771 107.755 153.584 107.674 153.448 107.533C153.312 107.392 153.237 107.203 153.241 107.007C153.244 106.812 153.325 106.625 153.466 106.489C159.002 101.144 166.169 96.7196 174.19 93.6918C181.81 90.8164 189.884 89.2971 197.536 89.2971C199.997 89.297 202.456 89.428 204.902 89.6896C207.921 90.0078 210.913 90.5366 213.858 91.272C214.074 91.3259 214.293 91.3828 214.51 91.4398C216.149 91.8708 217.745 92.3634 219.272 92.9052C227.643 95.873 234.505 100.462 239.663 106.543C239.754 106.651 239.813 106.782 239.832 106.921C239.851 107.061 239.829 107.203 239.77 107.331C239.711 107.459 239.616 107.567 239.497 107.642C239.378 107.718 239.24 107.758 239.099 107.758V107.742Z" fill="#5C667F"/>
<path d="M208.37 101.582C208.243 101.583 208.118 101.55 208.007 101.488C207.896 101.427 207.803 101.337 207.737 101.229C207.67 101.121 207.633 100.997 207.629 100.87C207.624 100.744 207.652 100.618 207.71 100.505C209.405 97.1184 210.929 94.9634 212.961 93.0408C213.235 92.7807 213.533 92.5128 213.845 92.2481C213.905 92.1942 213.976 92.1342 214.05 92.0741C214.125 92.0127 214.212 91.9666 214.304 91.9385C214.397 91.9104 214.495 91.9008 214.591 91.9103C214.688 91.9198 214.781 91.9482 214.867 91.9939C214.952 92.0396 215.028 92.1016 215.089 92.1765C215.151 92.2514 215.197 92.3377 215.225 92.4304C215.253 92.5231 215.263 92.6204 215.253 92.7168C215.244 92.8132 215.215 92.9068 215.17 92.9923C215.124 93.0777 215.062 93.1533 214.987 93.2148L214.811 93.3687C214.511 93.6242 214.234 93.8736 213.978 94.1168C212.078 95.9116 210.645 97.9558 209.031 101.171C208.97 101.295 208.876 101.398 208.759 101.471C208.642 101.544 208.507 101.582 208.37 101.582Z" fill="#5C667F"/>
<path d="M217.741 99.9723C217.634 99.9723 217.529 99.9497 217.433 99.9061C217.255 99.8246 217.118 99.6765 217.049 99.494C216.981 99.3115 216.987 99.1094 217.067 98.9317C217.961 97.0149 219.278 95.3256 220.919 93.9906C221.07 93.8652 221.264 93.8047 221.459 93.8223C221.654 93.8399 221.834 93.9342 221.959 94.0845C222.085 94.2347 222.145 94.4286 222.128 94.6234C222.11 94.8183 222.016 94.9982 221.865 95.1235C220.392 96.3163 219.209 97.8273 218.405 99.5428C218.346 99.6701 218.253 99.7781 218.135 99.8542C218.018 99.9302 217.881 99.9712 217.741 99.9723Z" fill="#5C667F"/>
<path d="M198.117 105.089C198.04 105.089 197.964 105.077 197.891 105.053C197.705 104.993 197.551 104.863 197.462 104.69C197.372 104.517 197.355 104.316 197.413 104.13C199.145 98.753 201.454 94.5477 204.281 91.6277C204.338 91.5676 204.397 91.5076 204.455 91.4506C204.896 91.0038 205.358 90.5799 205.842 90.1807C205.995 90.0654 206.186 90.0136 206.376 90.0362C206.565 90.0587 206.739 90.1538 206.86 90.3016C206.982 90.4493 207.041 90.6382 207.026 90.8286C207.01 91.0191 206.922 91.1962 206.779 91.3229C206.331 91.6902 205.904 92.0807 205.497 92.4927L205.486 92.5035C205.443 92.5451 205.4 92.5882 205.358 92.6328L205.344 92.6482C202.674 95.4035 200.477 99.4211 198.815 104.581C198.767 104.728 198.674 104.856 198.548 104.948C198.423 105.039 198.272 105.088 198.117 105.089Z" fill="#5C667F"/>
<path d="M187.729 103.922C187.655 103.922 187.581 103.91 187.511 103.888C187.418 103.86 187.331 103.813 187.257 103.751C187.182 103.689 187.12 103.613 187.075 103.527C187.03 103.442 187.002 103.348 186.993 103.251C186.984 103.154 186.995 103.057 187.024 102.964C188.193 99.1808 192.262 92.8743 196.212 89.8696C196.368 89.7513 196.565 89.6996 196.759 89.726C196.953 89.7524 197.128 89.8548 197.247 90.0105C197.365 90.1662 197.417 90.3626 197.391 90.5565C197.364 90.7503 197.262 90.9257 197.106 91.0441C193.479 93.7979 189.537 99.8381 188.435 103.4C188.389 103.551 188.295 103.683 188.168 103.777C188.041 103.871 187.887 103.922 187.729 103.922Z" fill="#5C667F"/>
<path d="M178.704 104.319C178.636 104.319 178.569 104.31 178.504 104.291C178.41 104.265 178.323 104.221 178.247 104.161C178.171 104.101 178.107 104.027 178.06 103.942C178.012 103.858 177.982 103.765 177.971 103.669C177.96 103.572 177.967 103.475 177.994 103.382C179.416 98.3267 183.753 92.8499 188.304 90.3547C188.475 90.2707 188.672 90.2558 188.853 90.3131C189.035 90.3705 189.188 90.4956 189.279 90.6625C189.371 90.8294 189.394 91.0251 189.345 91.2089C189.296 91.3928 189.177 91.5505 189.014 91.6492C184.778 93.9705 180.741 99.0733 179.416 103.78C179.372 103.935 179.279 104.072 179.151 104.169C179.022 104.266 178.865 104.319 178.704 104.319Z" fill="#5C667F"/>
<path d="M170.6 101.729C170.5 101.728 170.401 101.708 170.309 101.669C170.129 101.591 169.988 101.445 169.915 101.264C169.843 101.082 169.845 100.879 169.922 100.699C170.81 98.654 172.091 96.8027 173.691 95.2497C175.167 93.812 176.752 92.7869 178.159 92.382C178.344 92.3363 178.539 92.3636 178.705 92.4583C178.87 92.553 178.992 92.7078 179.046 92.8904C179.1 93.0731 179.081 93.2694 178.994 93.4385C178.906 93.6076 178.757 93.7365 178.577 93.7982C175.649 94.6571 172.576 98.276 171.288 101.281C171.23 101.415 171.134 101.529 171.012 101.609C170.89 101.688 170.746 101.73 170.6 101.729Z" fill="#5C667F"/>
<path d="M86.2167 83.5171H86.155C85.2907 83.4447 84.4387 83.3863 83.6221 83.3416C83.5253 83.3364 83.4305 83.3121 83.3431 83.2702C83.2556 83.2284 83.1773 83.1697 83.1126 83.0976C83.0478 83.0255 82.998 82.9413 82.9658 82.85C82.9336 82.7586 82.9197 82.6618 82.925 82.565C82.9302 82.4683 82.9545 82.3736 82.9964 82.2862C83.0383 82.1989 83.0971 82.1206 83.1692 82.056C83.2414 81.9913 83.3256 81.9414 83.4171 81.9093C83.5085 81.8771 83.6054 81.8633 83.7023 81.8685C84.5327 81.9132 85.397 81.9732 86.2767 82.0455C86.4695 82.0574 86.6499 82.1442 86.7792 82.2874C86.9086 82.4306 86.9767 82.6187 86.9688 82.8115C86.9609 83.0042 86.8778 83.1862 86.7372 83.3184C86.5966 83.4506 86.4097 83.5225 86.2167 83.5186V83.5171Z" fill="#5C667F"/>
<path d="M46.2564 87.8623C46.0784 87.8621 45.9064 87.7977 45.7721 87.6809C45.6378 87.5642 45.5501 87.403 45.5252 87.2269C45.5003 87.0508 45.5398 86.8716 45.6365 86.7222C45.7331 86.5729 45.8805 86.4634 46.0515 86.4139C47.4381 86.0152 48.8493 85.6442 50.2498 85.2917C50.9832 85.1085 51.7489 84.9269 52.5886 84.7376C53.379 84.5575 54.1663 84.3866 54.9274 84.2311C55.6885 84.0757 56.4557 83.9233 57.2661 83.7693C58.1073 83.6154 58.8715 83.4784 59.6049 83.3568C60.3382 83.2352 61.1348 83.109 61.9421 82.9905C62.7494 82.8719 63.5275 82.7657 64.2809 82.6718C65.0343 82.5779 65.8431 82.4779 66.6212 82.3948C67.4547 82.3055 68.2204 82.2301 68.9599 82.1669C69.7303 82.0961 70.5237 82.0361 71.2987 81.9838C73.8331 81.8114 76.3521 81.7236 78.7833 81.7236C79.5953 81.7236 80.4457 81.7359 81.3085 81.7621C81.4998 81.7744 81.6788 81.8604 81.8078 82.002C81.9368 82.1435 82.0058 82.3296 82.0002 82.521C81.9946 82.7124 81.9149 82.8941 81.7778 83.0279C81.6407 83.1617 81.457 83.2372 81.2654 83.2383C80.4149 83.2121 79.5814 83.1998 78.7833 83.1998C76.386 83.1998 73.9009 83.286 71.3973 83.4569C70.6269 83.5077 69.8566 83.5677 69.0863 83.637C68.3544 83.7001 67.5995 83.774 66.7752 83.8632C66.0049 83.9448 65.2345 84.0372 64.4642 84.1357C63.6939 84.2342 62.962 84.3327 62.1532 84.4513C61.3443 84.5698 60.5801 84.6899 59.8421 84.813C59.1042 84.9361 58.36 85.067 57.5311 85.2194C56.7315 85.3733 55.955 85.5272 55.2201 85.6811C54.4852 85.8351 53.6902 86.0029 52.9091 86.1814C52.0802 86.3692 51.3252 86.5478 50.598 86.7294C49.2114 87.0711 47.8248 87.4436 46.452 87.8377C46.3882 87.8547 46.3224 87.863 46.2564 87.8623Z" fill="#5C667F"/>
<path d="M10.8022 108.243C10.6627 108.242 10.5261 108.203 10.4083 108.128C10.2904 108.053 10.196 107.947 10.1361 107.821C10.0762 107.695 10.0531 107.555 10.0695 107.417C10.086 107.278 10.1413 107.147 10.2291 107.039C11.9583 104.932 13.8818 102.993 15.9743 101.246C16.4781 100.823 16.9973 100.401 17.515 99.995C18.7475 99.0407 20.0602 98.0986 21.4345 97.1982C22.2588 96.6579 23.1293 96.1207 24.0028 95.5988C29.5493 92.3078 36.0048 89.5017 43.1844 87.2589C43.3713 87.2006 43.5738 87.2188 43.7473 87.3096C43.9208 87.4003 44.0511 87.5563 44.1096 87.7431C44.168 87.9298 44.1498 88.1321 44.0589 88.3055C43.968 88.4788 43.8119 88.609 43.625 88.6674C36.5548 90.8763 30.2072 93.6347 24.7562 96.8672C23.8965 97.3783 23.0507 97.9047 22.2449 98.4327C20.9045 99.3116 19.6257 100.229 18.424 101.16C17.9171 101.554 17.4118 101.964 16.9234 102.376C14.9029 104.062 13.0459 105.935 11.3769 107.969C11.3077 108.054 11.2201 108.123 11.1207 108.171C11.0212 108.218 10.9124 108.243 10.8022 108.243Z" fill="#5C667F"/>
<path d="M58.2226 99.193C58.0963 99.1933 57.9721 99.1612 57.8617 99.0997C57.7514 99.0383 57.6587 98.9495 57.5925 98.8421C54.5235 93.8578 50.9152 90.7931 45.8925 88.9075C45.7087 88.8385 45.5598 88.6993 45.4786 88.5206C45.3974 88.3419 45.3906 88.1383 45.4596 87.9546C45.5287 87.7709 45.6679 87.6221 45.8468 87.541C46.0256 87.4599 46.2294 87.4531 46.4133 87.5221C51.6917 89.5047 55.6435 92.8542 58.8513 98.0647C58.9199 98.1765 58.9576 98.3047 58.9603 98.4358C58.963 98.567 58.9307 98.6966 58.8666 98.8112C58.8026 98.9257 58.7092 99.0212 58.5961 99.0878C58.4829 99.1544 58.354 99.1896 58.2226 99.1899V99.193Z" fill="#5C667F"/>
<path d="M72.9052 101.394C72.7447 101.394 72.5887 101.341 72.4606 101.245C72.3325 101.148 72.2393 101.013 72.1949 100.859C70.6974 95.6251 66.5668 90.3622 61.6736 87.4668L61.6381 87.4453L61.6166 87.433C60.915 87.0183 60.1867 86.6507 59.4365 86.3324C58.7152 86.0219 57.9722 85.7647 57.2133 85.5627C57.0423 85.5165 56.862 85.4734 56.6432 85.4242C56.452 85.3817 56.2855 85.2651 56.1803 85.1C56.0751 84.9349 56.0399 84.7348 56.0824 84.5437C56.1249 84.3526 56.2416 84.1863 56.4069 84.0812C56.5722 83.9761 56.7725 83.9409 56.9637 83.9834C57.204 84.0373 57.4028 84.085 57.5923 84.1373C58.4186 84.3557 59.228 84.6335 60.0142 84.9685C60.8204 85.3115 61.6033 85.7069 62.3576 86.1523L62.4377 86.1984C67.6268 89.2678 72.0193 94.8631 73.6154 100.448C73.6422 100.541 73.6504 100.638 73.6394 100.734C73.6284 100.831 73.5985 100.924 73.5514 101.008C73.5043 101.093 73.4409 101.168 73.3649 101.228C73.2889 101.288 73.2018 101.333 73.1085 101.359C73.0428 101.381 72.9743 101.392 72.9052 101.394Z" fill="#5C667F"/>
<path d="M79.7477 91.6845C79.642 91.6849 79.5375 91.6625 79.4413 91.619C79.3451 91.5754 79.2594 91.5117 79.19 91.4321C76.6478 88.5074 73.8253 86.2555 71.0243 84.9101C70.3063 84.5603 69.5631 84.2645 68.8011 84.025C68.5407 83.9419 68.2696 83.8711 67.9907 83.7957C67.8062 83.7432 67.6493 83.621 67.5531 83.4551C67.457 83.2892 67.4293 83.0924 67.4757 82.9064C67.522 82.7204 67.639 82.5597 67.8018 82.4582C67.9646 82.3567 68.1605 82.3224 68.3481 82.3626C68.6563 82.4395 68.9644 82.5258 69.2448 82.6166C70.0746 82.8782 70.8841 83.2002 71.6668 83.5802C74.6418 85.0117 77.6292 87.393 80.3023 90.4623C80.4304 90.6105 80.4945 90.8034 80.4807 90.9986C80.4668 91.1939 80.3761 91.3758 80.2284 91.5044C80.0953 91.6207 79.9245 91.6848 79.7477 91.6845Z" fill="#5C667F"/>
<path d="M43.3335 99.3381C43.2241 99.3381 43.116 99.3138 43.0172 99.2669C42.9183 99.2201 42.8311 99.1518 42.7619 99.0672C40.0796 95.7916 37.1692 93.7689 33.3268 92.5067C33.1406 92.4455 32.9865 92.3129 32.8982 92.1381C32.8099 91.9633 32.7948 91.7606 32.8561 91.5747C32.9174 91.3887 33.0501 91.2347 33.225 91.1465C33.4 91.0583 33.6028 91.0432 33.789 91.1044C37.9149 92.459 41.0302 94.6263 43.9067 98.1328C43.9955 98.2409 44.0517 98.3719 44.0688 98.5107C44.0859 98.6494 44.0632 98.7901 44.0033 98.9165C43.9433 99.0428 43.8487 99.1495 43.7304 99.2242C43.6121 99.2988 43.475 99.3383 43.3351 99.3381H43.3335Z" fill="#5C667F"/>
<path d="M259.114 106.516H0.885864C0.396615 106.516 0 106.912 0 107.402C0 107.891 0.396618 108.288 0.885867 108.288H259.114C259.603 108.288 260 107.891 260 107.402C260 106.912 259.603 106.516 259.114 106.516Z" fill="#5C667F"/>
<path d="M115.857 21.6161C115.779 21.6164 115.703 21.599 115.633 21.5655C115.563 21.5319 115.501 21.4829 115.453 21.4222C114.927 20.7739 114.251 20.264 113.483 19.9367C113.355 19.8898 113.251 19.794 113.193 19.6704C113.136 19.5469 113.131 19.4057 113.178 19.2779C113.224 19.1501 113.32 19.0462 113.444 18.9891C113.568 18.9319 113.709 18.9262 113.837 18.9731C114.58 19.2783 115.255 19.7277 115.823 20.2954C116.82 19.1148 117.843 18.9223 117.892 18.91C118.024 18.8915 118.158 18.9248 118.265 19.0028C118.373 19.0807 118.447 19.1974 118.47 19.3283C118.494 19.4591 118.465 19.594 118.392 19.7046C118.318 19.8152 118.204 19.8929 118.074 19.9213C118.024 19.9306 117.12 20.1338 116.284 21.3852C116.239 21.4527 116.178 21.5087 116.108 21.5483C116.037 21.5879 115.958 21.6101 115.877 21.613L115.857 21.6161Z" fill="#5C667F"/>
<path d="M118.792 9.72838H118.772C118.691 9.72467 118.612 9.70198 118.542 9.66212C118.471 9.62227 118.411 9.56639 118.367 9.49903C118.096 9.09089 117.725 8.7599 117.288 8.53851C117.226 8.51172 117.17 8.47302 117.123 8.4246C117.076 8.37619 117.039 8.319 117.014 8.25633C116.99 8.19365 116.977 8.1267 116.979 8.0593C116.98 7.99191 116.994 7.92538 117.021 7.86353C117.048 7.80167 117.086 7.7457 117.135 7.6988C117.183 7.6519 117.24 7.615 117.303 7.5902C117.366 7.5654 117.433 7.55319 117.5 7.55426C117.568 7.55534 117.634 7.56968 117.696 7.59646C118.126 7.80289 118.512 8.09096 118.832 8.44461C119.202 8.1413 119.63 7.91659 120.091 7.78425C120.223 7.75098 120.362 7.77145 120.479 7.84117C120.596 7.91088 120.68 8.02413 120.714 8.156C120.747 8.28786 120.727 8.42754 120.657 8.54431C120.587 8.66107 120.474 8.74537 120.342 8.77864C119.893 8.9146 119.493 9.17701 119.189 9.53443C119.142 9.5945 119.081 9.64313 119.013 9.67671C118.944 9.71028 118.868 9.72794 118.792 9.72838Z" fill="#5C667F"/>
<path d="M106.908 14.7138C106.811 14.7139 106.716 14.692 106.628 14.6499C106.541 14.6078 106.465 14.5465 106.404 14.4706C105.913 13.8867 105.262 13.4588 104.531 13.2392C104.371 13.1926 104.235 13.0862 104.152 12.9421C104.069 12.798 104.045 12.6274 104.085 12.4659C104.125 12.3045 104.225 12.1646 104.366 12.0755C104.506 11.9864 104.676 11.9549 104.839 11.9877C105.577 12.2025 106.261 12.5743 106.842 13.0776C107.345 12.4968 107.962 12.0253 108.655 11.6922C108.812 11.6298 108.986 11.631 109.142 11.6954C109.297 11.7599 109.422 11.8825 109.488 12.0371C109.554 12.1918 109.558 12.3662 109.497 12.5232C109.436 12.6802 109.317 12.8073 109.164 12.8774C108.464 13.2326 107.869 13.763 107.437 14.4167C107.38 14.5016 107.305 14.5719 107.216 14.6219C107.128 14.672 107.028 14.7003 106.927 14.7046L106.908 14.7138Z" fill="#5C667F"/>
</g>
</svg>
