<svg width="26" height="26" viewBox="0 0 26 26" fill="none" xmlns="http://www.w3.org/2000/svg">
<rect width="26" height="26" rx="2" fill="url(#paint0_linear_1944_2803)"/>
<path d="M13.0022 6.60618C15.0864 6.60618 15.3311 6.61547 16.1548 6.65263C16.9167 6.6867 17.3285 6.81367 17.6042 6.92206C17.9696 7.06451 18.2297 7.23175 18.5023 7.50427C18.7748 7.7768 18.9451 8.03693 19.0845 8.40237C19.1898 8.67799 19.3198 9.08987 19.3539 9.8517C19.3911 10.6755 19.4004 10.9201 19.4004 13.0043C19.4004 15.0885 19.3911 15.3332 19.3539 16.1569C19.3198 16.9188 19.1929 17.3307 19.0845 17.6063C18.942 17.9717 18.7748 18.2319 18.5023 18.5044C18.2297 18.7769 17.9696 18.9472 17.6042 19.0866C17.3285 19.1919 16.9167 19.322 16.1548 19.356C15.3311 19.3932 15.0864 19.4025 13.0022 19.4025C10.918 19.4025 10.6734 19.3932 9.84959 19.356C9.08775 19.322 8.67587 19.195 8.40025 19.0866C8.03482 18.9441 7.77468 18.7769 7.50215 18.5044C7.22963 18.2319 7.0593 17.9717 6.91994 17.6063C6.81465 17.3307 6.68458 16.9188 6.65051 16.1569C6.61335 15.3332 6.60406 15.0885 6.60406 13.0043C6.60406 10.9201 6.61335 10.6755 6.65051 9.8517C6.68458 9.08987 6.81155 8.67799 6.91994 8.40237C7.0624 8.03693 7.22963 7.7768 7.50215 7.50427C7.77468 7.23175 8.03482 7.06142 8.40025 6.92206C8.67587 6.81676 9.08775 6.6867 9.84959 6.65263C10.6734 6.61237 10.9211 6.60618 13.0022 6.60618ZM13.0022 5.2002C10.8839 5.2002 10.6176 5.20949 9.78455 5.24665C8.95459 5.28381 8.38786 5.41698 7.89236 5.60898C7.37828 5.80718 6.94471 6.07661 6.51115 6.51017C6.07759 6.94374 5.81126 7.3804 5.60996 7.89138C5.41795 8.38688 5.28479 8.95361 5.24763 9.78667C5.21046 10.6166 5.20117 10.883 5.20117 13.0012C5.20117 15.1195 5.21046 15.3858 5.24763 16.2189C5.28479 17.0488 5.41795 17.6156 5.60996 18.1142C5.80816 18.6283 6.07759 19.0618 6.51115 19.4954C6.94471 19.9289 7.38137 20.1953 7.89236 20.3966C8.38786 20.5886 8.95459 20.7217 9.78765 20.7589C10.6207 20.7961 10.8839 20.8054 13.0053 20.8054C15.1267 20.8054 15.3899 20.7961 16.223 20.7589C17.0529 20.7217 17.6197 20.5886 18.1183 20.3966C18.6323 20.1984 19.0659 19.9289 19.4995 19.4954C19.933 19.0618 20.1994 18.6252 20.4007 18.1142C20.5927 17.6187 20.7258 17.0519 20.763 16.2189C20.8001 15.3858 20.8094 15.1226 20.8094 13.0012C20.8094 10.8799 20.8001 10.6166 20.763 9.78357C20.7258 8.95361 20.5927 8.38688 20.4007 7.88828C20.2024 7.3742 19.933 6.94064 19.4995 6.50708C19.0659 6.07351 18.6292 5.80718 18.1183 5.60589C17.6228 5.41388 17.056 5.28071 16.223 5.24355C15.3868 5.20949 15.1205 5.2002 13.0022 5.2002Z" fill="white"/>
<path d="M13.0025 8.99707C10.7913 8.99707 8.99512 10.7902 8.99512 13.0044C8.99512 15.2187 10.7882 17.0118 13.0025 17.0118C15.2167 17.0118 17.0098 15.2187 17.0098 13.0044C17.0098 10.7902 15.2167 8.99707 13.0025 8.99707ZM13.0025 15.6027C11.5655 15.6027 10.4011 14.4383 10.4011 13.0013C10.4011 11.5644 11.5655 10.4 13.0025 10.4C14.4394 10.4 15.6039 11.5644 15.6039 13.0013C15.6039 14.4383 14.4394 15.6027 13.0025 15.6027Z" fill="white"/>
<path d="M17.1677 9.7709C17.6842 9.7709 18.1029 9.35218 18.1029 8.83565C18.1029 8.31912 17.6842 7.90039 17.1677 7.90039C16.6512 7.90039 16.2324 8.31912 16.2324 8.83565C16.2324 9.35218 16.6512 9.7709 17.1677 9.7709Z" fill="white"/>
<defs>
<linearGradient id="paint0_linear_1944_2803" x1="5.72" y1="3.016" x2="26" y2="31" gradientUnits="userSpaceOnUse">
<stop stop-color="#8F00FF"/>
<stop offset="0.342196" stop-color="#DB00FF"/>
<stop offset="0.875548" stop-color="#FFC700"/>
<stop offset="1" stop-color="white"/>
</linearGradient>
</defs>
</svg>
