<svg width="25" height="24" viewBox="0 0 25 24" fill="none" xmlns="http://www.w3.org/2000/svg">
<rect x="0.0769348" width="24" height="24" rx="3.69231" fill="#A9ACAA"/>
<path d="M12.0788 6.09788C14.0027 6.09788 14.2286 6.10645 14.989 6.14076C15.6922 6.1722 16.0724 6.28941 16.3268 6.38946C16.6641 6.52096 16.9043 6.67533 17.1558 6.92689C17.4074 7.17845 17.5646 7.41858 17.6932 7.7559C17.7904 8.01032 17.9105 8.39052 17.9419 9.09375C17.9763 9.85415 17.9848 10.08 17.9848 12.0039C17.9848 13.9277 17.9763 14.1536 17.9419 14.914C17.9105 15.6172 17.7933 15.9974 17.6932 16.2518C17.5617 16.5891 17.4074 16.8293 17.1558 17.0808C16.9043 17.3324 16.6641 17.4896 16.3268 17.6183C16.0724 17.7155 15.6922 17.8355 14.989 17.867C14.2286 17.9013 14.0027 17.9098 12.0788 17.9098C10.155 17.9098 9.92913 17.9013 9.16873 17.867C8.4655 17.8355 8.0853 17.7183 7.83088 17.6183C7.49356 17.4868 7.25343 17.3324 7.00187 17.0808C6.7503 16.8293 6.59308 16.5891 6.46444 16.2518C6.36724 15.9974 6.24718 15.6172 6.21574 14.914C6.18143 14.1536 6.17286 13.9277 6.17286 12.0039C6.17286 10.08 6.18143 9.85415 6.21574 9.09375C6.24718 8.39052 6.36439 8.01032 6.46444 7.7559C6.59594 7.41858 6.7503 7.17845 7.00187 6.92689C7.25343 6.67533 7.49356 6.5181 7.83088 6.38946C8.0853 6.29227 8.4655 6.1722 9.16873 6.14076C9.92913 6.1036 10.1578 6.09788 12.0788 6.09788ZM12.0788 4.80005C10.1235 4.80005 9.87768 4.80862 9.1087 4.84293C8.34258 4.87723 7.81944 5.00015 7.36206 5.17739C6.88752 5.36035 6.48731 5.60905 6.0871 6.00926C5.68688 6.40947 5.44104 6.81254 5.25523 7.28422C5.07799 7.74161 4.95507 8.26474 4.92076 9.03372C4.88646 9.79984 4.87788 10.0457 4.87788 12.001C4.87788 13.9563 4.88646 14.2022 4.92076 14.9711C4.95507 15.7373 5.07799 16.2604 5.25523 16.7206C5.43818 17.1952 5.68688 17.5954 6.0871 17.9956C6.48731 18.3958 6.89038 18.6417 7.36206 18.8275C7.81944 19.0047 8.34258 19.1276 9.11156 19.1619C9.88053 19.1962 10.1235 19.2048 12.0817 19.2048C14.0399 19.2048 14.2829 19.1962 15.0518 19.1619C15.818 19.1276 16.3411 19.0047 16.8013 18.8275C17.2759 18.6445 17.6761 18.3958 18.0763 17.9956C18.4765 17.5954 18.7224 17.1923 18.9082 16.7206C19.0854 16.2633 19.2083 15.7401 19.2426 14.9711C19.2769 14.2022 19.2855 13.9592 19.2855 12.001C19.2855 10.0428 19.2769 9.79984 19.2426 9.03086C19.2083 8.26474 19.0854 7.74161 18.9082 7.28136C18.7252 6.80683 18.4765 6.40661 18.0763 6.0064C17.6761 5.60619 17.273 5.36035 16.8013 5.17453C16.344 4.9973 15.8208 4.87437 15.0518 4.84007C14.28 4.80862 14.0342 4.80005 12.0788 4.80005Z" fill="white"/>
<path d="M12.0788 8.30469C10.0378 8.30469 8.37975 9.95985 8.37975 12.0038C8.37975 14.0477 10.0349 15.7029 12.0788 15.7029C14.1228 15.7029 15.7779 14.0477 15.7779 12.0038C15.7779 9.95985 14.1228 8.30469 12.0788 8.30469ZM12.0788 14.4022C10.7524 14.4022 9.67757 13.3273 9.67757 12.0009C9.67757 10.6745 10.7524 9.59966 12.0788 9.59966C13.4053 9.59966 14.4801 10.6745 14.4801 12.0009C14.4801 13.3273 13.4053 14.4022 12.0788 14.4022Z" fill="white"/>
<path d="M15.9237 9.01935C16.4005 9.01935 16.7871 8.63283 16.7871 8.15604C16.7871 7.67924 16.4005 7.29272 15.9237 7.29272C15.4469 7.29272 15.0604 7.67924 15.0604 8.15604C15.0604 8.63283 15.4469 9.01935 15.9237 9.01935Z" fill="white"/>
</svg>
