<svg width="26" height="26" viewBox="0 0 26 26" fill="none" xmlns="http://www.w3.org/2000/svg">
<rect width="26" height="26" rx="2" fill="#0A66C2"/>
<path d="M19.094 5.84961H6.90523C6.62526 5.84961 6.35676 5.96083 6.15879 6.15879C5.96083 6.35676 5.84961 6.62526 5.84961 6.90523V19.094C5.84961 19.374 5.96083 19.6425 6.15879 19.8404C6.35676 20.0384 6.62526 20.1496 6.90523 20.1496H19.094C19.374 20.1496 19.6425 20.0384 19.8404 19.8404C20.0384 19.6425 20.1496 19.374 20.1496 19.094V6.90523C20.1496 6.62526 20.0384 6.35676 19.8404 6.15879C19.6425 5.96083 19.374 5.84961 19.094 5.84961ZM10.1118 18.0314H7.96184V11.2022H10.1118V18.0314ZM9.03533 10.2558C8.79146 10.2544 8.55345 10.1808 8.35136 10.0443C8.14926 9.90782 7.99213 9.7145 7.8998 9.48877C7.80747 9.26305 7.78407 9.01503 7.83256 8.77602C7.88105 8.53701 7.99926 8.31772 8.17226 8.14582C8.34526 7.97393 8.56531 7.85713 8.80462 7.81018C9.04394 7.76322 9.29181 7.78821 9.51693 7.88199C9.74206 7.97577 9.93437 8.13413 10.0696 8.3371C10.2048 8.54007 10.2768 8.77854 10.2767 9.02242C10.279 9.1857 10.2484 9.34777 10.1867 9.49897C10.125 9.65017 10.0335 9.78741 9.9177 9.90251C9.80187 10.0176 9.66404 10.1082 9.51245 10.1689C9.36085 10.2296 9.19859 10.2591 9.03533 10.2558ZM18.0364 18.0374H15.8874V14.3065C15.8874 13.2062 15.4197 12.8665 14.8159 12.8665C14.1784 12.8665 13.5527 13.3472 13.5527 14.3343V18.0374H11.4028V11.2071H13.4703V12.1535H13.4981C13.7057 11.7335 14.4326 11.0155 15.5418 11.0155C16.7414 11.0155 18.0374 11.7275 18.0374 13.8129L18.0364 18.0374Z" fill="white"/>
</svg>
