<svg width="20" height="20" viewBox="0 0 20 20" fill="none" xmlns="http://www.w3.org/2000/svg">
<path d="M10.6273 20H9.37721C9.3279 19.9859 9.27769 19.9752 9.22692 19.9679C7.23477 19.8092 5.44105 19.1273 3.87041 17.8958C1.84891 16.3088 0.601169 14.2468 0.14951 11.7141C0.0857138 11.3576 0.0489232 10.9959 0 10.6366V9.38785C0.0230918 9.20839 0.047358 9.02893 0.0700584 8.84948C0.428959 6.00672 1.75302 3.70742 4.04419 1.99691C7.26921 -0.410692 11.5486 -0.673034 15.0143 1.38309C18.2182 3.2836 19.8836 6.15646 19.9955 9.88204C20.057 11.926 19.4867 13.8179 18.3423 15.5152C16.7521 17.8727 14.5486 19.3224 11.7447 19.8448C11.3756 19.914 10.9999 19.9492 10.6273 20ZM10.5882 15.0831V14.8642C10.5882 13.6612 10.5909 12.4581 10.5882 11.2551C10.5882 10.8712 10.7056 10.5393 10.9795 10.2687C11.3146 9.9356 11.7232 9.85623 12.1694 9.96766C12.5901 10.0728 12.8054 10.3829 12.893 10.7801C12.9445 11.0211 12.9707 11.2668 12.9713 11.5132C12.9791 12.6313 12.9748 13.7499 12.9748 14.8685V15.0765H15.2331C15.2366 15.035 15.2406 15.0096 15.2406 14.9838C15.2406 13.6444 15.25 12.3049 15.2308 10.9658C15.2227 10.615 15.1681 10.2669 15.0684 9.93052C14.7944 8.98475 14.1823 8.36154 13.1924 8.18795C12.1819 8.01006 11.3032 8.24151 10.6817 9.12628C10.6648 9.15995 10.6529 9.19591 10.6465 9.23302L10.5823 9.18298V8.30759H8.33613V15.0831H10.5882ZM4.81405 8.30251V15.0788H7.05904V8.30251H4.81405ZM5.93341 7.36418C6.66569 7.36418 7.17371 6.92355 7.21716 6.25421C7.25629 5.63491 6.81716 5.12664 6.15493 5.02929C5.5158 4.93507 4.91776 5.2584 4.73186 5.79794C4.45123 6.60686 5.03322 7.36457 5.93341 7.36261V7.36418Z" fill="#02B3AC"/>
</svg>
