<svg width="25" height="24" viewBox="0 0 25 24" fill="none" xmlns="http://www.w3.org/2000/svg">
<rect x="0.230782" width="24" height="24" rx="2.76923" fill="#A9ACAA"/>
<path d="M17.8564 5.40015H6.6052C6.34677 5.40015 6.09893 5.50281 5.91619 5.68555C5.73345 5.86829 5.63079 6.11613 5.63079 6.37456V17.6257C5.63079 17.8842 5.73345 18.132 5.91619 18.3147C6.09893 18.4975 6.34677 18.6001 6.6052 18.6001H17.8564C18.1148 18.6001 18.3626 18.4975 18.5454 18.3147C18.7281 18.132 18.8308 17.8842 18.8308 17.6257V6.37456C18.8308 6.11613 18.7281 5.86829 18.5454 5.68555C18.3626 5.50281 18.1148 5.40015 17.8564 5.40015ZM9.56512 16.6449H7.58054V10.341H9.56512V16.6449ZM8.57145 9.4674C8.34634 9.46613 8.12664 9.3982 7.94009 9.27219C7.75354 9.14619 7.6085 8.96774 7.52327 8.75938C7.43804 8.55101 7.41644 8.32207 7.4612 8.10145C7.50596 7.88082 7.61508 7.6784 7.77477 7.51973C7.93447 7.36105 8.13759 7.25324 8.35849 7.2099C8.5794 7.16656 8.8082 7.18962 9.01601 7.27619C9.22382 7.36275 9.40133 7.50894 9.52614 7.69629C9.65095 7.88365 9.71746 8.10378 9.71729 8.3289C9.71941 8.47962 9.69117 8.62922 9.63424 8.76879C9.57732 8.90836 9.49288 9.03504 9.38595 9.14128C9.27902 9.24752 9.1518 9.33115 9.01187 9.38718C8.87194 9.44321 8.72216 9.47049 8.57145 9.4674ZM16.8801 16.6504H14.8965V13.2065C14.8965 12.1908 14.4647 11.8773 13.9074 11.8773C13.3189 11.8773 12.7414 12.321 12.7414 13.2321V16.6504H10.7568V10.3456H12.6653V11.2191H12.691C12.8825 10.8314 13.5535 10.1686 14.5775 10.1686C15.6848 10.1686 16.881 10.8259 16.881 12.7509L16.8801 16.6504Z" fill="white"/>
</svg>
