<svg width="113" height="40" viewBox="0 0 113 40" fill="none" xmlns="http://www.w3.org/2000/svg">
<g clip-path="url(#clip0_60_62455)">
<path d="M24.5126 29.1143H26.7403L29.7742 34.0985L32.8081 29.1143H35.0359L35.0532 38.9528H32.5828V34.2719L29.7742 38.6667L26.9657 34.2719V38.9528H24.5039L24.5126 29.1143Z" fill="white"/>
<path d="M39.7802 29.1143H36.9023V38.9528H39.7802V29.1143Z" fill="white"/>
<path d="M42.3703 35.0347H41.4688V32.7723H42.3703V29.1143H49.7556V31.3507H45.2395V32.7723H49.0535V35.0347H45.2395V36.7077H49.7556V38.9528H42.3703V35.0347Z" fill="white"/>
<path d="M53.8029 33.5178V38.9528H51.2891V29.1143H53.3001L57.4436 33.1537V29.1143H59.966V39.1348H59.654L53.8029 33.5178Z" fill="white"/>
<path d="M68.7658 33.5178V38.9528H66.252V29.1143H68.263L72.4064 33.1537V29.1143H74.9289V39.1348H74.6169L68.7658 33.5178Z" fill="white"/>
<path d="M80.0693 29.1055H82.6697L86.7959 38.944H83.9526L83.2071 37.037H79.497L78.769 38.944H75.9258L80.0693 29.1055ZM82.3836 34.7572L81.3348 31.992L80.286 34.7572H82.3836Z" fill="white"/>
<path d="M87.6716 29.1143H89.8907L92.9333 34.0985L95.9672 29.1143H98.195L98.2036 38.9528H95.7332V34.2719L92.9333 38.6667L90.1248 34.2719V38.9528H87.6543L87.6716 29.1143Z" fill="white"/>
<path d="M49.8941 18.2874C49.1283 18.9713 48.1384 19.3506 47.1116 19.3536C45.9966 19.3536 44.9273 18.9106 44.1389 18.1222C43.3505 17.3338 42.9074 16.2644 42.9074 15.1494C42.9097 14.0359 43.3537 12.9688 44.1419 12.1823C44.93 11.3957 45.9981 10.954 47.1116 10.954C48.1374 10.9537 49.1275 11.33 49.8941 12.0115L50.1629 12.2456L52.8066 8.30148L52.5727 8.11944C51.0128 6.90247 49.0901 6.24327 47.1116 6.24709C45.45 6.24801 43.8216 6.71258 42.4097 7.58853C40.9977 8.46449 39.8583 9.71707 39.1195 11.2054C38.4087 8.35349 36.1289 6.25576 33.4417 6.25576H24.6953V24.0518H29.4368V10.7113H32.5749C33.1654 10.7621 33.712 11.0435 34.0965 11.4946C34.481 11.9456 34.6724 12.5299 34.6292 13.1211C34.6724 13.7122 34.481 14.2965 34.0965 14.7475C33.712 15.1986 33.1654 15.48 32.5749 15.5308H30.4685V20.021H33.4417C34.4628 19.9911 35.4574 19.6904 36.3241 19.1497C37.1907 18.609 37.8982 17.8477 38.3739 16.9438C38.7836 18.9592 39.8773 20.771 41.4696 22.0727C43.0619 23.3743 45.055 24.0857 47.1116 24.0865C49.0931 24.0922 51.0192 23.4329 52.5814 22.2141L52.8066 22.0321L50.1629 18.088L49.8941 18.2874Z" fill="white"/>
<path d="M55.2343 6.48096L52.3738 10.7544L51.377 12.2454H52.8332H53.3013H55.1997V24.0429H59.4731V6.48096H55.2343Z" fill="white"/>
<path d="M9.71717 21.0785L9.19707 20.5584L8.87634 20.2377L4.02209 15.3921L0 19.4055L9.71717 29.114L19.4257 19.4055L15.4036 15.3921L9.71717 21.0785Z" fill="white"/>
<path d="M0 9.70569L4.02209 13.7278L8.87634 8.87353L9.71717 8.04138L10.5493 8.87353L15.4036 13.7278L19.4257 9.70569L9.71717 0.00585938L0 9.70569Z" fill="white"/>
<path d="M4.85352 14.5598L9.71643 19.4054L14.5707 14.5598L9.71643 9.70557L4.85352 14.5598Z" fill="white"/>
<path d="M63.235 19.6224C63.2373 20.8079 63.7094 21.9443 64.5477 22.7826C65.3861 23.621 66.5224 24.0929 67.708 24.0952H72.1894V18.9549H67.6473V20.2985H70.8198V22.7516H67.682C66.852 22.7516 66.056 22.422 65.4692 21.8351C64.8823 21.2483 64.5526 20.4523 64.5526 19.6224C64.5549 18.794 64.8858 18.0002 65.4724 17.4153C66.059 16.8303 66.8535 16.5018 67.682 16.5018H72.1634V15.1582H67.682C66.4972 15.1582 65.3607 15.6283 64.5221 16.4652C63.6836 17.3021 63.2113 18.4376 63.209 19.6224" fill="white"/>
<path d="M82.7654 17.724C82.7654 17.0343 82.4914 16.3729 82.0037 15.8852C81.5161 15.3975 80.8546 15.1235 80.1649 15.1235H73.7852V24.0606H75.1373V20.2638H77.6338C78.6316 20.2638 79.5885 20.6602 80.294 21.3657C80.9995 22.0712 81.396 23.0281 81.396 24.0259H82.7394C82.739 23.2873 82.5785 22.5576 82.2687 21.8872C81.9589 21.2167 81.5074 20.6215 80.9452 20.1425C81.4637 19.9734 81.916 19.6456 82.238 19.2053C82.56 18.7651 82.7353 18.2348 82.7394 17.6894M75.1373 16.4671H80.1649C80.4899 16.4671 80.8018 16.5956 81.0324 16.8246C81.263 17.0535 81.3937 17.3644 81.396 17.6894C81.3937 18.0151 81.2631 18.3269 81.0328 18.5572C80.8024 18.7876 80.4907 18.918 80.1649 18.9203H75.1373V16.4671Z" fill="white"/>
<path d="M88.1818 15.1582C86.997 15.1582 85.8607 15.6283 85.0221 16.4652C84.1836 17.3021 83.7113 18.4376 83.709 19.6224C83.709 20.8087 84.1801 21.9463 85.019 22.7852C85.8578 23.624 86.9955 24.0952 88.1818 24.0952C89.368 24.0952 90.5057 23.624 91.3445 22.7852C92.1834 21.9463 92.6547 20.8087 92.6547 19.6224C92.6524 18.4376 92.1802 17.3021 91.3416 16.4652C90.503 15.6283 89.3665 15.1582 88.1818 15.1582ZM88.1818 22.7516C87.3518 22.7516 86.556 22.422 85.9692 21.8351C85.3823 21.2483 85.0526 20.4523 85.0526 19.6224C85.0549 18.794 85.3855 18.0002 85.9721 17.4153C86.5587 16.8303 87.3533 16.5018 88.1818 16.5018C89.0102 16.5018 89.8048 16.8303 90.3914 17.4153C90.978 18.0002 91.3088 18.794 91.3111 19.6224C91.3111 20.0333 91.2301 20.4402 91.0728 20.8199C90.9155 21.1996 90.6851 21.5445 90.3945 21.8351C90.104 22.1257 89.759 22.3562 89.3794 22.5134C88.9997 22.6707 88.5927 22.7516 88.1818 22.7516Z" fill="white"/>
<path d="M101.359 19.6224C101.359 20.4523 101.029 21.2483 100.442 21.8351C99.8554 22.422 99.0594 22.7516 98.2295 22.7516C97.3996 22.7516 96.6036 22.422 96.0167 21.8351C95.4299 21.2483 95.1001 20.4523 95.1001 19.6224V15.1582H93.748V19.6224C93.7503 20.8094 94.2233 21.9471 95.0635 22.7857C95.9037 23.6243 97.0424 24.0952 98.2295 24.0952C99.4151 24.0929 100.551 23.621 101.39 22.7826C102.228 21.9443 102.7 20.8079 102.702 19.6224V15.1582H101.359V19.6224Z" fill="white"/>
<path d="M110.426 15.1578H104.055V24.0949H105.398V20.2981H110.435C111.124 20.2981 111.786 20.0242 112.273 19.5365C112.761 19.0488 113.035 18.3874 113.035 17.6977C113.035 17.008 112.761 16.3465 112.273 15.8588C111.786 15.3711 111.124 15.0972 110.435 15.0972M110.435 18.8939H105.398V16.4408H110.435C110.76 16.4407 111.071 16.5692 111.302 16.7982C111.532 17.0272 111.663 17.338 111.665 17.663C111.663 17.9887 111.533 18.3005 111.302 18.5309C111.072 18.7612 110.76 18.8916 110.435 18.8939Z" fill="white"/>
</g>
<defs>
<clipPath id="clip0_60_62455">
<rect width="113" height="39.1287" fill="white" transform="translate(0 0.00585938)"/>
</clipPath>
</defs>
</svg>
