<svg width="16" height="16" viewBox="0 0 16 16" fill="none" xmlns="http://www.w3.org/2000/svg">
<path fill-rule="evenodd" clip-rule="evenodd" d="M6.50033 1.33301H6.47795C5.56347 1.333 4.84652 1.333 4.27028 1.38008C3.68352 1.42802 3.19878 1.52726 2.76003 1.75082C2.03874 2.11833 1.45232 2.70476 1.0848 3.42604C0.861245 3.8648 0.762007 4.34954 0.714067 4.9363C0.666987 5.51253 0.666989 6.22949 0.666992 7.14397V7.16634V8.49967V8.52205C0.666989 9.43653 0.666987 10.1535 0.714067 10.7297C0.762007 11.3165 0.861245 11.8012 1.0848 12.24C1.45232 12.9613 2.03874 13.5477 2.76003 13.9152C3.19878 14.1388 3.68352 14.238 4.27028 14.2859C4.84651 14.333 5.56345 14.333 6.47791 14.333H6.47794H6.50033H9.16699H9.18938H9.18941C10.1039 14.333 10.8208 14.333 11.397 14.2859C11.9838 14.238 12.4685 14.1388 12.9073 13.9152C13.6286 13.5477 14.215 12.9613 14.5825 12.24C14.8061 11.8012 14.9053 11.3165 14.9532 10.7297C15.0003 10.1535 15.0003 9.43655 15.0003 8.52209V8.52206V8.49967V7.16634V7.14396V7.14392C15.0003 6.22947 15.0003 5.51252 14.9532 4.9363C14.9053 4.34954 14.8061 3.8648 14.5825 3.42604C14.215 2.70476 13.6286 2.11833 12.9073 1.75082C12.4685 1.52726 11.9838 1.42802 11.397 1.38008C10.8208 1.333 10.1038 1.333 9.18936 1.33301H9.16699H6.50033ZM3.21402 2.64182C3.4883 2.50207 3.82679 2.41965 4.35171 2.37676C4.88247 2.3334 5.55865 2.33301 6.50033 2.33301H9.16699C10.1087 2.33301 10.7848 2.3334 11.3156 2.37676C11.8405 2.41965 12.179 2.50207 12.4533 2.64182C12.9864 2.91346 13.4199 3.34691 13.6915 3.88003C13.8313 4.15432 13.9137 4.49281 13.9566 5.01773C13.9999 5.54849 14.0003 6.22467 14.0003 7.16634V8.49967C14.0003 9.44135 13.9999 10.1175 13.9566 10.6483C13.9137 11.1732 13.8313 11.5117 13.6915 11.786C13.4199 12.3191 12.9864 12.7526 12.4533 13.0242C12.179 13.1639 11.8405 13.2464 11.3156 13.2893C10.7848 13.3326 10.1087 13.333 9.16699 13.333H6.50033C5.55865 13.333 4.88247 13.3326 4.35171 13.2893C3.82679 13.2464 3.4883 13.1639 3.21402 13.0242C2.68089 12.7526 2.24745 12.3191 1.97581 11.786C1.83605 11.5117 1.75363 11.1732 1.71075 10.6483C1.66738 10.1175 1.66699 9.44135 1.66699 8.49967V7.16634C1.66699 6.22467 1.66738 5.54849 1.71075 5.01773C1.75363 4.49281 1.83605 4.15432 1.97581 3.88003C2.24745 3.34691 2.68089 2.91346 3.21402 2.64182ZM4.11101 4.75032C3.88124 4.59714 3.57081 4.65923 3.41763 4.88899C3.26446 5.11876 3.32654 5.42919 3.55631 5.58237L4.22298 6.02681L4.30055 6.07854L4.30056 6.07854C5.29942 6.7446 5.89383 7.14097 6.53549 7.33429C7.38214 7.58938 8.28518 7.58938 9.13183 7.33429C9.77348 7.14096 10.3679 6.74459 11.3668 6.07854L11.4443 6.02681L12.111 5.58237C12.3408 5.42919 12.4029 5.11876 12.2497 4.88899C12.0965 4.65923 11.7861 4.59714 11.5563 4.75032L10.8896 5.19476C9.78946 5.92822 9.32477 6.23176 8.84335 6.3768C8.18484 6.57521 7.48248 6.57521 6.82397 6.3768C6.34255 6.23176 5.87786 5.92822 4.77768 5.19476L4.11101 4.75032Z" fill="#02B3AC"/>
</svg>
