<svg width="28" height="28" viewBox="0 0 28 28" fill="none" xmlns="http://www.w3.org/2000/svg">
<path fill-rule="evenodd" clip-rule="evenodd" d="M6.58203 10.2669C6.58203 6.05058 9.83875 3.0835 13.9987 3.0835C18.1586 3.0835 21.4154 6.05058 21.4154 10.2669C21.4154 13.6937 19.9363 16.1918 18.2393 17.8444C17.3878 18.6736 16.4858 19.2847 15.6997 19.6855C14.8879 20.0994 14.2769 20.2502 13.9987 20.2502C13.7205 20.2502 13.1095 20.0994 12.2977 19.6855C11.5116 19.2847 10.6096 18.6736 9.75805 17.8444C8.06105 16.1918 6.58203 13.6937 6.58203 10.2669ZM13.9987 1.5835C9.08457 1.5835 5.08203 5.1498 5.08203 10.2669C5.08203 14.1685 6.77894 17.037 8.71157 18.919C9.67488 19.8571 10.7011 20.5552 11.6164 21.0218C12.506 21.4754 13.3694 21.7502 13.9987 21.7502C14.6279 21.7502 15.4914 21.4754 16.381 21.0218C17.2963 20.5552 18.3225 19.8571 19.2858 18.919C21.2185 17.037 22.9154 14.1685 22.9154 10.2669C22.9154 5.1498 18.9128 1.5835 13.9987 1.5835ZM13.9984 7.75C13.1239 7.75 12.415 8.45888 12.415 9.33333C12.415 10.2078 13.1239 10.9167 13.9984 10.9167C14.8728 10.9167 15.5817 10.2078 15.5817 9.33333C15.5817 8.45888 14.8728 7.75 13.9984 7.75ZM10.915 9.33333C10.915 7.63046 12.2955 6.25 13.9984 6.25C15.7013 6.25 17.0817 7.63046 17.0817 9.33333C17.0817 11.0362 15.7013 12.4167 13.9984 12.4167C12.2955 12.4167 10.915 11.0362 10.915 9.33333ZM5.62585 19.5674C5.77278 19.9547 5.57795 20.3878 5.19067 20.5347C4.42201 20.8264 3.8614 21.1389 3.50656 21.4411C3.14782 21.7466 3.08203 21.9658 3.08203 22.085C3.08203 22.2239 3.17585 22.4995 3.68942 22.8723C4.18632 23.2329 4.95361 23.589 5.96924 23.9008C7.99129 24.5216 10.8303 24.9168 13.9987 24.9168C17.1671 24.9168 20.0061 24.5216 22.0282 23.9008C23.0438 23.589 23.8111 23.2329 24.308 22.8723C24.8215 22.4995 24.9154 22.2239 24.9154 22.085C24.9154 21.9658 24.8496 21.7466 24.4908 21.4411C24.136 21.1389 23.5754 20.8264 22.8067 20.5347C22.4194 20.3878 22.2246 19.9547 22.3715 19.5674C22.5185 19.1802 22.9515 18.9853 23.3388 19.1323C24.1916 19.4558 24.9273 19.8425 25.4634 20.2991C25.9956 20.7523 26.4154 21.3513 26.4154 22.085C26.4154 22.9352 25.8563 23.6019 25.1891 24.0862C24.5053 24.5825 23.564 24.9983 22.4684 25.3347C20.2679 26.0103 17.2736 26.4168 13.9987 26.4168C10.7238 26.4168 7.72945 26.0103 5.529 25.3347C4.43338 24.9983 3.49212 24.5825 2.80829 24.0862C2.14113 23.6019 1.58203 22.9352 1.58203 22.085C1.58203 21.3513 2.00183 20.7523 2.53404 20.2991C3.07014 19.8425 3.80583 19.4558 4.65858 19.1323C5.04585 18.9853 5.47892 19.1802 5.62585 19.5674Z" fill="#02B3AC"/>
</svg>
