<svg width="16" height="16" viewBox="0 0 16 16" fill="none" xmlns="http://www.w3.org/2000/svg">
<path fill-rule="evenodd" clip-rule="evenodd" d="M3.17067 1.66709C3.75233 1.66709 3.9101 1.67495 4.03146 1.72074C4.1897 1.78045 4.32602 1.88689 4.42232 2.02592C4.49618 2.13255 4.54207 2.2837 4.68315 2.848L4.76467 3.1741C4.9655 3.97741 5.03719 4.28351 5.02598 4.57554C5.01549 4.849 4.95328 5.11799 4.84266 5.3683C4.72452 5.63559 4.52572 5.87915 3.99261 6.51273L3.06029 7.62078C2.38731 6.30375 1.93277 4.80805 1.73073 3.16036C1.6547 2.54026 1.64689 2.38398 1.70339 2.22357C1.76698 2.04303 1.94748 1.83905 2.11893 1.75396C2.18304 1.72214 2.26822 1.6969 2.43333 1.6826C2.60749 1.66752 2.83086 1.66709 3.17067 1.66709ZM4.75778 7.15656L3.58789 8.54694C4.43706 9.89004 5.5407 11.0175 6.86144 11.8923L8.52134 10.6495L8.57872 10.6065C9.12021 10.2009 9.46905 9.93958 9.86432 9.78335C10.2138 9.64522 10.5851 9.5704 10.9608 9.56238C11.3857 9.55332 11.8085 9.65911 12.4649 9.82333L12.5344 9.84073L13.0066 9.95877L13.0871 9.97884C13.5314 10.0895 13.8789 10.176 14.1555 10.3677C14.4614 10.5795 14.6956 10.8795 14.8269 11.2276C14.9457 11.5424 14.9454 11.8937 14.945 12.3413L14.945 12.4212V12.4414C14.945 12.7622 14.945 13.0338 14.9258 13.2592C14.9055 13.4977 14.8615 13.7207 14.7539 13.9377C14.553 14.3424 14.1468 14.7018 13.7207 14.8519C13.313 14.9955 12.9111 14.9458 12.4107 14.8839L12.3298 14.8739C10.1874 14.6112 8.26264 13.9446 6.61993 12.9253C4.93485 11.8797 3.55403 10.4674 2.543 8.75458C1.60458 7.16471 0.988306 5.32203 0.738167 3.28207L0.728193 3.20119C0.666303 2.70086 0.616594 2.29901 0.760187 1.89134C0.910285 1.46521 1.26968 1.05905 1.67438 0.858207C1.89034 0.75103 2.11085 0.70678 2.34707 0.686327C2.56946 0.667072 2.83634 0.66708 3.15033 0.667089L3.17067 0.667089L3.25361 0.66704C3.71154 0.666628 4.06957 0.666305 4.38448 0.78513C4.7326 0.916482 5.03252 1.15065 5.24438 1.45652C5.43603 1.73321 5.52256 2.08063 5.63322 2.52498L5.65329 2.60546L5.73482 2.93157L5.75352 3.00635C5.92936 3.70907 6.0426 4.16165 6.02525 4.61389C6.00991 5.01356 5.91899 5.40671 5.75731 5.77254C5.57436 6.18649 5.27392 6.5434 4.80742 7.09758L4.80742 7.09759L4.75778 7.15656ZM12.4516 13.8813C10.7194 13.6689 9.15522 13.1775 7.78989 12.4464L9.1207 11.45C9.73931 10.9868 9.97659 10.8143 10.2319 10.7133C10.471 10.6188 10.725 10.5676 10.9821 10.5622C11.2566 10.5563 11.5421 10.6234 12.2919 10.8109L12.7641 10.9289C13.3284 11.07 13.4795 11.1159 13.5861 11.1897C13.7252 11.286 13.8316 11.4224 13.8913 11.5806C13.9372 11.7023 13.945 11.8545 13.945 12.4212C13.945 12.7676 13.9446 12.9964 13.9294 13.1744C13.915 13.344 13.8894 13.4301 13.8581 13.4931C13.773 13.6646 13.569 13.8451 13.3885 13.9087C13.2281 13.9652 13.0718 13.9574 12.4516 13.8813Z" fill="#02B3AC"/>
</svg>
