<svg width="28" height="28" viewBox="0 0 28 28" fill="none" xmlns="http://www.w3.org/2000/svg">
<path fill-rule="evenodd" clip-rule="evenodd" d="M6.25165 3.08318C7.21463 3.08318 7.47455 3.09749 7.67276 3.18076C7.87768 3.26686 8.05594 3.40604 8.18917 3.58396C8.31803 3.75606 8.39494 4.00474 8.6285 4.93897L8.97968 6.3437C9.28092 7.54866 9.38846 8.00782 9.37165 8.44586C9.3559 8.85604 9.26259 9.25954 9.09666 9.63499C8.91945 10.0359 8.62125 10.4013 7.82159 11.3516L5.71858 13.851C4.43253 11.3891 3.58498 8.56826 3.24787 5.44683C3.13257 4.37923 3.12423 4.10789 3.23157 3.8511C3.32912 3.61774 3.5602 3.36036 3.78174 3.23832C3.88382 3.18209 4.02286 3.13671 4.29935 3.11099C4.59013 3.08393 4.9653 3.08318 5.53347 3.08318H6.25165ZM8.96935 12.3174L6.51252 15.2373C8.03003 17.6617 10.0161 19.691 12.4002 21.2551L15.7813 18.7234L15.8674 18.659C16.6797 18.0505 17.2029 17.6586 17.7958 17.4242C18.32 17.217 18.877 17.1048 19.4405 17.0928C20.0779 17.0792 20.7121 17.2379 21.6966 17.4842L21.6966 17.4842L21.8009 17.5103L23.4248 17.9163L23.5579 17.9495C24.293 18.1324 24.8685 18.2757 25.3151 18.6101C25.7065 18.9032 26.0127 19.2954 26.2021 19.7462C26.4182 20.2606 26.4176 20.8536 26.4169 21.611L26.4168 21.7482V21.7496V21.751V21.7524V21.7538V21.7552V21.7566V21.7579V21.7593V21.7607V21.7621V21.7635V21.7649V21.7663V21.7677V21.7691V21.7705V21.7719V21.7733V21.7747V21.7761V21.7775V21.7789V21.7803V21.7816V21.783V21.7844V21.7858V21.7872V21.7886V21.79V21.7914V21.7928V21.7942V21.7956V21.797V21.7984V21.7998V21.8012V21.8026V21.804V21.8054V21.8068V21.8082V21.8095V21.8109V21.8123V21.8137V21.8151V21.8165V21.8179V21.8193V21.8207V21.8221V21.8235V21.8249V21.8263V21.8277V21.8291V21.8305V21.8319V21.8333V21.8347V21.8361V21.8375V21.8389V21.8403V21.8417V21.8431V21.8445V21.8459V21.8472V21.8486V21.85V21.8514V21.8528V21.8542V21.8556V21.857V21.8584V21.8598V21.8612V21.8626V21.864V21.8654V21.8668V21.8682V21.8696V21.871V21.8724V21.8738V21.8752V21.8766V21.878V21.8794V21.8808V21.8822V21.8836V21.885V21.8864V21.8878V21.8892V21.8906V21.892V21.8934V21.8948V21.8962V21.8976V21.899V21.9004V21.9018V21.9032V21.9046V21.906V21.9074V21.9088V21.9102V21.9116V21.913V21.9144V21.9158V21.9172V21.9186V21.92V21.9214V21.9228V21.9242V21.9256V21.927V21.9284V21.9298V21.9312V21.9326V21.934V21.9354V21.9368V21.9382V21.9396V21.941V21.9424V21.9438V21.9452V21.9466V21.948V21.9494V21.9508V21.9522V21.9536V21.955V21.9564V21.9578V21.9592V21.9606V21.962V21.9634V21.9648V21.9662V21.9676V21.969V21.9704V21.9718V21.9732V21.9746V21.976V21.9774V21.9788V21.9802V21.9816V21.983V21.9844V21.9858V21.9872V21.9886V21.99V21.9914V21.9928V21.9942V21.9956V21.997V21.9984V21.9998V22.0012V22.0026V22.004V22.0054V22.0068V22.0082V22.0096V22.011V22.0124V22.0138V22.0152V22.0166V22.018V22.0194V22.0208V22.0222V22.0236V22.025V22.0264V22.0278V22.0292V22.0306V22.032V22.0334V22.0348V22.0363V22.0377V22.0391V22.0405V22.0419V22.0433V22.0447V22.0461V22.0475V22.0489V22.0503V22.0517V22.0531V22.0545V22.0559V22.0573V22.0587V22.0601V22.0615V22.0629V22.0643V22.0657V22.0671V22.0685V22.0699V22.0713V22.0727V22.0741V22.0755V22.0769V22.0783V22.0797V22.0812V22.0826V22.084V22.0854V22.0868V22.0882V22.0896V22.091V22.0924V22.0938V22.0952V22.0966V22.098V22.0994V22.1008V22.1022V22.1036V22.105V22.1064V22.1078V22.1092V22.1106V22.112V22.1134V22.1148V22.1163V22.1177V22.1191V22.1205V22.1219V22.1233V22.1247V22.1261V22.1275V22.1289V22.1303V22.1317V22.1331V22.1345V22.1359V22.1373V22.1387V22.1401V22.1415V22.1429V22.1443V22.1458V22.1472V22.1486V22.15V22.1514V22.1528V22.1542V22.1556V22.157V22.1584V22.1598V22.1612V22.1626V22.164V22.1654V22.1668V22.1682V22.1696V22.171V22.1725V22.1739V22.1753V22.1767V22.1781V22.1795V22.1809V22.1823V22.1837V22.1851V22.1865V22.1879V22.1893V22.1907V22.1921V22.1935V22.1949V22.1963V22.1978V22.1992V22.2006V22.202V22.2034V22.2048V22.2062V22.2076V22.209V22.2104V22.2118V22.2132V22.2146V22.216V22.2174V22.2188V22.2202V22.2217V22.2231V22.2245V22.2259V22.2273V22.2287V22.2301V22.2315V22.2329V22.2343V22.2357V22.2371V22.2385V22.2399V22.2413V22.2428V22.2442V22.2456V22.247V22.2484V22.2498V22.2512V22.2526V22.254V22.2554V22.2568V22.2582V22.2596V22.261V22.2624V22.2638V22.2653V22.2667V22.2681V22.2695V22.2709V22.2723V22.2737V22.2751V22.2765V22.2779V22.2793V22.2807V22.2821V22.2835V22.285V22.2864V22.2878V22.2892V22.2906V22.292V22.2934V22.2948V22.2962V22.2976V22.299V22.3004V22.3018V22.3032V22.3046V22.3061V22.3075V22.3089V22.3103V22.3117V22.3131V22.3145V22.3159V22.3173V22.3187V22.3201V22.3215V22.3229V22.3244V22.3258V22.3272V22.3286V22.33V22.3314V22.3328V22.3342V22.3356V22.337V22.3384V22.3398V22.3412V22.3426V22.3441V22.3455V22.3469V22.3483V22.3497V22.3511V22.3525V22.3539V22.3553V22.3567V22.3581V22.3595V22.3609V22.3624V22.3638V22.3652V22.3666V22.368V22.3694V22.3708V22.3722V22.3736V22.375V22.3764V22.3778V22.3792V22.3806V22.3821V22.3835V22.3849V22.3863V22.3877V22.3891V22.3905V22.3919V22.3933V22.3947V22.3961V22.3975V22.3989V22.4004V22.4018V22.4032V22.4046V22.406V22.4074V22.4088V22.4102V22.4116V22.413V22.4144V22.4158V22.4172V22.4187V22.4201V22.4215V22.4229V22.4243V22.4257V22.4271V22.4285V22.4299V22.4313V22.4327V22.4341V22.4355V22.437V22.4384V22.4398V22.4412V22.4426V22.444V22.4454V22.4468V22.4482V22.4496V22.451V22.4524V22.4538V22.4553V22.4567V22.4581V22.4595V22.4609V22.4623V22.4637V22.4651V22.4665V22.4998V22.4998C26.4168 23.0258 26.4168 23.4711 26.3825 23.8396C26.3462 24.2301 26.2675 24.5935 26.0755 24.942C25.79 25.4604 25.2734 25.9241 24.7274 26.1524C24.071 26.4267 23.3876 26.3521 22.5345 26.2589L22.392 26.2434C18.4938 25.8224 15.0017 24.6423 12.0389 22.8038C9.10718 20.9847 6.70505 18.5279 4.946 15.5478C3.25037 12.675 2.1581 9.32614 1.75654 5.60789L1.74105 5.46546C1.64789 4.61234 1.57326 3.92894 1.84762 3.2726C2.07585 2.72659 2.53963 2.21002 3.05798 1.92448C3.40648 1.7325 3.76991 1.65377 4.1604 1.61744C4.52886 1.58316 4.97419 1.58317 5.50018 1.58318L5.53347 1.58318H6.25165L6.38883 1.58309C7.14631 1.58234 7.73941 1.58176 8.25377 1.79786C8.7046 1.98727 9.09677 2.29347 9.38986 2.68489C9.72426 3.13148 9.86754 3.70702 10.0505 4.44206L10.0837 4.57517L10.4349 5.9799L10.463 6.09206L10.463 6.09208C10.7267 7.14616 10.8966 7.82502 10.8705 8.50338C10.8475 9.10289 10.7112 9.69261 10.4686 10.2414C10.1942 10.8623 9.74355 11.3976 9.04381 12.2289L9.0438 12.2289L8.96935 12.3174ZM22.5531 24.7521C19.2787 24.3985 16.3349 23.4831 13.7892 22.089L16.6804 19.9241C17.6083 19.2294 17.9642 18.9706 18.3472 18.8192C18.7059 18.6775 19.0869 18.6007 19.4725 18.5924C19.8842 18.5837 20.3126 18.6844 21.4371 18.9655L23.061 19.3715C23.9952 19.605 24.2439 19.682 24.416 19.8108C24.5939 19.944 24.7331 20.1223 24.8192 20.3272C24.9025 20.5254 24.9168 20.7853 24.9168 21.7482V21.7496V21.751V21.7524V21.7538V21.7552V21.7566V21.7579V21.7593V21.7607V21.7621V21.7635V21.7649V21.7663V21.7677V21.7691V21.7705V21.7719V21.7733V21.7747V21.7761V21.7775V21.7789V21.7803V21.7816V21.783V21.7844V21.7858V21.7872V21.7886V21.79V21.7914V21.7928V21.7942V21.7956V21.797V21.7984V21.7998V21.8012V21.8026V21.804V21.8054V21.8068V21.8082V21.8095V21.8109V21.8123V21.8137V21.8151V21.8165V21.8179V21.8193V21.8207V21.8221V21.8235V21.8249V21.8263V21.8277V21.8291V21.8305V21.8319V21.8333V21.8347V21.8361V21.8375V21.8389V21.8403V21.8417V21.8431V21.8445V21.8459V21.8472V21.8486V21.85V21.8514V21.8528V21.8542V21.8556V21.857V21.8584V21.8598V21.8612V21.8626V21.864V21.8654V21.8668V21.8682V21.8696V21.871V21.8724V21.8738V21.8752V21.8766V21.878V21.8794V21.8808V21.8822V21.8836V21.885V21.8864V21.8878V21.8892V21.8906V21.892V21.8934V21.8948V21.8962V21.8976V21.899V21.9004V21.9018V21.9032V21.9046V21.906V21.9074V21.9088V21.9102V21.9116V21.913V21.9144V21.9158V21.9172V21.9186V21.92V21.9214V21.9228V21.9242V21.9256V21.927V21.9284V21.9298V21.9312V21.9326V21.934V21.9354V21.9368V21.9382V21.9396V21.941V21.9424V21.9438V21.9452V21.9466V21.948V21.9494V21.9508V21.9522V21.9536V21.955V21.9564V21.9578V21.9592V21.9606V21.962V21.9634V21.9648V21.9662V21.9676V21.969V21.9704V21.9718V21.9732V21.9746V21.976V21.9774V21.9788V21.9802V21.9816V21.983V21.9844V21.9858V21.9872V21.9886V21.99V21.9914V21.9928V21.9942V21.9956V21.997V21.9984V21.9998V22.0012V22.0026V22.004V22.0054V22.0068V22.0082V22.0096V22.011V22.0124V22.0138V22.0152V22.0166V22.018V22.0194V22.0208V22.0222V22.0236V22.025V22.0264V22.0278V22.0292V22.0306V22.032V22.0334V22.0348V22.0363V22.0377V22.0391V22.0405V22.0419V22.0433V22.0447V22.0461V22.0475V22.0489V22.0503V22.0517V22.0531V22.0545V22.0559V22.0573V22.0587V22.0601V22.0615V22.0629V22.0643V22.0657V22.0671V22.0685V22.0699V22.0713V22.0727V22.0741V22.0755V22.0769V22.0783V22.0797V22.0812V22.0826V22.084V22.0854V22.0868V22.0882V22.0896V22.091V22.0924V22.0938V22.0952V22.0966V22.098V22.0994V22.1008V22.1022V22.1036V22.105V22.1064V22.1078V22.1092V22.1106V22.112V22.1134V22.1148V22.1163V22.1177V22.1191V22.1205V22.1219V22.1233V22.1247V22.1261V22.1275V22.1289V22.1303V22.1317V22.1331V22.1345V22.1359V22.1373V22.1387V22.1401V22.1415V22.1429V22.1443V22.1458V22.1472V22.1486V22.15V22.1514V22.1528V22.1542V22.1556V22.157V22.1584V22.1598V22.1612V22.1626V22.164V22.1654V22.1668V22.1682V22.1696V22.171V22.1725V22.1739V22.1753V22.1767V22.1781V22.1795V22.1809V22.1823V22.1837V22.1851V22.1865V22.1879V22.1893V22.1907V22.1921V22.1935V22.1949V22.1963V22.1978V22.1992V22.2006V22.202V22.2034V22.2048V22.2062V22.2076V22.209V22.2104V22.2118V22.2132V22.2146V22.216V22.2174V22.2188V22.2202V22.2217V22.2231V22.2245V22.2259V22.2273V22.2287V22.2301V22.2315V22.2329V22.2343V22.2357V22.2371V22.2385V22.2399V22.2413V22.2428V22.2442V22.2456V22.247V22.2484V22.2498V22.2512V22.2526V22.254V22.2554V22.2568V22.2582V22.2596V22.261V22.2624V22.2638V22.2653V22.2667V22.2681V22.2695V22.2709V22.2723V22.2737V22.2751V22.2765V22.2779V22.2793V22.2807V22.2821V22.2835V22.285V22.2864V22.2878V22.2892V22.2906V22.292V22.2934V22.2948V22.2962V22.2976V22.299V22.3004V22.3018V22.3032V22.3046V22.3061V22.3075V22.3089V22.3103V22.3117V22.3131V22.3145V22.3159V22.3173V22.3187V22.3201V22.3215V22.3229V22.3244V22.3258V22.3272V22.3286V22.33V22.3314V22.3328V22.3342V22.3356V22.337V22.3384V22.3398V22.3412V22.3426V22.3441V22.3455V22.3469V22.3483V22.3497V22.3511V22.3525V22.3539V22.3553V22.3567V22.3581V22.3595V22.3609V22.3624V22.3638V22.3652V22.3666V22.368V22.3694V22.3708V22.3722V22.3736V22.375V22.3764V22.3778V22.3792V22.3806V22.3821V22.3835V22.3849V22.3863V22.3877V22.3891V22.3905V22.3919V22.3933V22.3947V22.3961V22.3975V22.3989V22.4004V22.4018V22.4032V22.4046V22.406V22.4074V22.4088V22.4102V22.4116V22.413V22.4144V22.4158V22.4172V22.4187V22.4201V22.4215V22.4229V22.4243V22.4257V22.4271V22.4285V22.4299V22.4313V22.4327V22.4341V22.4355V22.437V22.4384V22.4398V22.4412V22.4426V22.444V22.4454V22.4468V22.4482V22.4496V22.451V22.4524V22.4538V22.4553V22.4567V22.4581V22.4595V22.4609V22.4623V22.4637V22.4651V22.4665C24.9168 23.0347 24.9161 23.4099 24.889 23.7006C24.8633 23.9771 24.8179 24.1162 24.7617 24.2183C24.6396 24.4398 24.3822 24.6709 24.1489 24.7684C23.8921 24.8758 23.6207 24.8674 22.5531 24.7521Z" fill="#02B3AC"/>
</svg>
