<svg width="22" height="22" viewBox="0 0 22 22" fill="none" xmlns="http://www.w3.org/2000/svg">
<path fill-rule="evenodd" clip-rule="evenodd" d="M11.001 4.18164C11.2521 4.18164 11.4556 4.38515 11.4556 4.63619V10.5453H17.3647C17.6157 10.5453 17.8192 10.7488 17.8192 10.9998C17.8192 11.2509 17.6157 11.4544 17.3647 11.4544H11.4556V17.3635C11.4556 17.6145 11.2521 17.818 11.001 17.818C10.75 17.818 10.5465 17.6145 10.5465 17.3635V11.4544H4.63741C4.38637 11.4544 4.18286 11.2509 4.18286 10.9998C4.18286 10.7488 4.38637 10.5453 4.63741 10.5453H10.5465V4.63619C10.5465 4.38515 10.75 4.18164 11.001 4.18164Z" fill="#787878"/>
</svg>
