<svg width="74" height="70" viewBox="0 0 74 70" fill="none" xmlns="http://www.w3.org/2000/svg">
<path d="M32.2963 57.9209H21.541V64.0643H32.2963V57.9209Z" fill="#938F90"/>
<path d="M32.2877 65.3534H21.5411C20.8229 65.3534 20.2432 64.7737 20.2432 64.0555V57.9122C20.2432 57.194 20.8229 56.6143 21.5411 56.6143H32.2963C33.0145 56.6143 33.5942 57.194 33.5942 57.9122V64.0555C33.5856 64.7737 33.0058 65.3534 32.2877 65.3534ZM22.839 62.7577H30.9984V59.2101H22.839V62.7577Z" fill="#473B3E"/>
<path d="M58.7889 26.6064C58.7889 32.9401 53.6579 38.0711 47.3241 38.0711C40.9904 38.0711 35.8594 32.9401 35.8594 26.6064C35.8594 20.2726 40.9904 15.1416 47.3241 15.1416C53.6579 15.1416 58.7889 20.2726 58.7889 26.6064Z" fill="#FEF078"/>
<path d="M47.3242 39.3691C40.2896 39.3691 34.5615 33.641 34.5615 26.6064C34.5615 19.5718 40.2896 13.8438 47.3242 13.8438C54.3588 13.8438 60.0869 19.5718 60.0869 26.6064C60.0869 33.641 54.3675 39.3691 47.3242 39.3691ZM47.3242 16.4395C41.7173 16.4395 37.1573 20.9995 37.1573 26.6064C37.1573 32.2133 41.7173 36.7733 47.3242 36.7733C52.9311 36.7733 57.4911 32.2133 57.4911 26.6064C57.4911 20.9995 52.9311 16.4395 47.3242 16.4395Z" fill="#473B3E"/>
<path d="M47.3243 53.2131C46.6061 53.2131 46.0264 52.6334 46.0264 51.9152V42.2588C46.0264 41.5407 46.6061 40.9609 47.3243 40.9609C48.0424 40.9609 48.6222 41.5407 48.6222 42.2588V51.9152C48.6222 52.6334 48.0424 53.2131 47.3243 53.2131Z" fill="#473B3E"/>
<path d="M59.9842 49.8221C59.5342 49.8221 59.1016 49.5884 58.8593 49.1731L54.0312 40.8146C53.6764 40.1917 53.8841 39.4043 54.5071 39.0409C55.13 38.6774 55.9174 38.8938 56.2808 39.5167L61.109 47.8752C61.4638 48.4982 61.2561 49.2856 60.6331 49.649C60.4255 49.7702 60.2005 49.8221 59.9842 49.8221Z" fill="#473B3E"/>
<path d="M69.241 40.5633C69.0247 40.5633 68.7997 40.5114 68.5921 40.3903L60.2336 35.5621C59.6106 35.2073 59.403 34.4113 59.7577 33.7883C60.1125 33.1653 60.9085 32.9576 61.5315 33.3124L69.89 38.1406C70.513 38.4953 70.7206 39.2914 70.3659 39.9144C70.1323 40.3297 69.691 40.5633 69.241 40.5633Z" fill="#473B3E"/>
<path d="M72.6427 27.9054H62.9864C62.2682 27.9054 61.6885 27.3256 61.6885 26.6075C61.6885 25.8893 62.2682 25.3096 62.9864 25.3096H72.6427C73.3609 25.3096 73.9406 25.8893 73.9406 26.6075C73.9406 27.3256 73.3523 27.9054 72.6427 27.9054Z" fill="#473B3E"/>
<path d="M60.8826 20.075C60.4326 20.075 60 19.8414 59.7577 19.426C59.403 18.8031 59.6106 18.0157 60.2336 17.6522L68.5921 12.8241C69.2151 12.4606 70.0025 12.677 70.3659 13.3C70.7206 13.923 70.513 14.7103 69.89 15.0738L61.5315 19.9019C61.3325 20.0231 61.1075 20.075 60.8826 20.075Z" fill="#473B3E"/>
<path d="M55.156 14.3456C54.9397 14.3456 54.7147 14.2936 54.5071 14.1725C53.8841 13.8178 53.6764 13.0217 54.0312 12.3987L58.8593 4.04025C59.2141 3.41726 60.0101 3.2096 60.6331 3.56436C61.2561 3.91911 61.4638 4.71516 61.109 5.33815L56.2808 13.6966C56.0386 14.1119 55.6059 14.3456 55.156 14.3456Z" fill="#473B3E"/>
<path d="M47.3243 12.2522C46.6061 12.2522 46.0264 11.6724 46.0264 10.9543V1.2979C46.0264 0.579728 46.6061 0 47.3243 0C48.0424 0 48.6222 0.579728 48.6222 1.2979V10.9543C48.6222 11.6724 48.0424 12.2522 47.3243 12.2522Z" fill="#473B3E"/>
<path d="M39.5037 14.3454C39.0538 14.3454 38.6211 14.1118 38.3789 13.6965L33.5507 5.32935C33.1959 4.70636 33.4036 3.91898 34.0266 3.55557C34.6496 3.20081 35.437 3.40846 35.8004 4.03146L40.6286 12.3986C40.9833 13.0216 40.7757 13.809 40.1527 14.1724C39.945 14.2935 39.72 14.3454 39.5037 14.3454Z" fill="#473B3E"/>
<path d="M33.7664 20.0741C33.5501 20.0741 33.3251 20.0222 33.1175 19.901L24.759 15.0728C24.136 14.7181 23.9283 13.922 24.2831 13.299C24.6379 12.6761 25.4339 12.4684 26.0569 12.8231L34.4154 17.6513C35.0384 18.0061 35.246 18.8021 34.8913 19.4251C34.6576 19.8491 34.2164 20.0741 33.7664 20.0741Z" fill="#473B3E"/>
<path d="M31.673 27.9054H22.0166C21.2985 27.9054 20.7188 27.3256 20.7188 26.6075C20.7188 25.8893 21.2985 25.3096 22.0166 25.3096H31.673C32.3912 25.3096 32.9709 25.8893 32.9709 26.6075C32.9709 27.3256 32.3912 27.9054 31.673 27.9054Z" fill="#473B3E"/>
<path d="M25.408 40.5545C24.958 40.5545 24.5254 40.3209 24.2831 39.9056C23.9283 39.2826 24.136 38.4952 24.759 38.1318L33.1175 33.3036C33.7405 32.9489 34.5279 33.1565 34.8913 33.7795C35.246 34.4025 35.0384 35.1899 34.4154 35.5533L26.0569 40.3815C25.8579 40.5026 25.6329 40.5545 25.408 40.5545Z" fill="#473B3E"/>
<path d="M34.6755 49.8221C34.4592 49.8221 34.2342 49.7702 34.0266 49.6491C33.4036 49.2943 33.1959 48.4983 33.5507 47.8753L38.3789 39.5168C38.7336 38.8938 39.5297 38.6862 40.1527 39.0409C40.7757 39.3957 40.9833 40.1917 40.6286 40.8147L35.8004 49.1732C35.5581 49.5885 35.1168 49.8221 34.6755 49.8221Z" fill="#473B3E"/>
<path d="M53.2262 32.9329C53.1137 32.9329 53.0012 32.8896 52.9234 32.8031C52.7503 32.63 52.7503 32.3618 52.9234 32.1887C54.4203 30.6918 55.2423 28.7104 55.2423 26.5991C55.2423 24.4879 54.4203 22.5064 52.9234 21.0095C51.4351 19.5213 49.445 18.6993 47.3337 18.6993C45.2225 18.6993 43.2324 19.5212 41.7441 21.0182C41.5711 21.1912 41.3028 21.1912 41.1298 21.0182C40.9567 20.8451 40.9567 20.5769 41.1298 20.4038C42.7911 18.7512 44.9889 17.834 47.3337 17.834C49.6786 17.834 51.8764 18.7425 53.5377 20.4038C55.199 22.0651 56.1075 24.2629 56.1075 26.6078C56.1075 28.9527 55.199 31.1504 53.5377 32.8117C53.4425 32.8896 53.33 32.9329 53.2262 32.9329Z" fill="#473B3E"/>
<path d="M52.5255 58.155H1.30176L6.74428 26.6074H47.083L52.5255 58.155Z" fill="#B0EADE"/>
<path d="M52.5426 59.453C52.5426 59.453 52.534 59.453 52.5253 59.453H1.30157C0.920855 59.453 0.557444 59.2799 0.306517 58.9944C0.0555895 58.7002 -0.0482424 58.3108 0.0209789 57.9387L5.4635 26.3912C5.56733 25.7682 6.11245 25.3096 6.74409 25.3096H47.0914C47.7231 25.3096 48.2596 25.7682 48.372 26.3912L53.7799 57.7311C53.8232 57.8609 53.8492 58.008 53.8492 58.1551C53.8405 58.8732 53.2608 59.453 52.5426 59.453ZM2.84175 56.8572H50.9851L45.9926 27.9054H7.83433L2.84175 56.8572Z" fill="#473B3E"/>
<path d="M51.7303 58.5879H2.09865C1.85637 58.5879 1.66602 58.3976 1.66602 58.1553C1.66602 57.913 1.85637 57.7227 2.09865 57.7227H51.739C51.9812 57.7227 52.1716 57.913 52.1716 58.1553C52.1629 58.3976 51.9726 58.5879 51.7303 58.5879Z" fill="#473B3E"/>
<path d="M50.1644 49.208H3.66505C3.42278 49.208 3.23242 49.0177 3.23242 48.7754C3.23242 48.5331 3.42278 48.3428 3.66505 48.3428H50.1731C50.4154 48.3428 50.6057 48.5331 50.6057 48.7754C50.5971 49.009 50.4067 49.208 50.1644 49.208Z" fill="#473B3E"/>
<path d="M48.7879 40.9366H5.04005C4.79778 40.9366 4.60742 40.7462 4.60742 40.5039C4.60742 40.2616 4.79778 40.0713 5.04005 40.0713H48.7792C49.0215 40.0713 49.2119 40.2616 49.2119 40.5039C49.2205 40.7462 49.0215 40.9366 48.7879 40.9366Z" fill="#473B3E"/>
<path d="M47.5591 33.5987H6.26857C6.0263 33.5987 5.83594 33.4083 5.83594 33.166C5.83594 32.9238 6.0263 32.7334 6.26857 32.7334H47.5591C47.8013 32.7334 47.9917 32.9238 47.9917 33.166C47.9917 33.4083 47.8013 33.5987 47.5591 33.5987Z" fill="#473B3E"/>
<path d="M46.4609 27.041H7.36818C7.12591 27.041 6.93555 26.8507 6.93555 26.6084C6.93555 26.3661 7.12591 26.1758 7.36818 26.1758H46.4695C46.7118 26.1758 46.9022 26.3661 46.9022 26.6084C46.8935 26.842 46.7032 27.041 46.4609 27.041Z" fill="#473B3E"/>
<path d="M42.2039 58.3626C41.9876 58.3626 41.7973 58.1982 41.7713 57.9732L38.5612 26.789C38.5352 26.5554 38.7083 26.3391 38.9505 26.3131C39.1669 26.2872 39.4005 26.4602 39.4264 26.7025L42.6366 57.8867C42.6625 58.1203 42.4895 58.3366 42.2472 58.3626C42.2299 58.3626 42.2212 58.3626 42.2039 58.3626Z" fill="#473B3E"/>
<path d="M32.0098 58.362C31.7761 58.362 31.5858 58.1803 31.5771 57.9467L30.5042 26.7625C30.4955 26.5202 30.6859 26.3212 30.9195 26.3126C31.1445 26.2953 31.3608 26.4943 31.3695 26.7279L32.4424 57.9121C32.451 58.1544 32.2607 58.3534 32.0271 58.362C32.0184 58.362 32.0098 58.362 32.0098 58.362Z" fill="#473B3E"/>
<path d="M42.1418 57.8263C41.9255 57.8263 41.7352 57.6619 41.7092 57.4369L38.5856 27.1093C38.5596 26.8757 38.7327 26.6594 38.975 26.6334C39.1999 26.6075 39.4249 26.7805 39.4509 27.0228L42.5745 57.3504C42.6004 57.584 42.4274 57.8003 42.1851 57.8263C42.1764 57.8263 42.1591 57.8263 42.1418 57.8263Z" fill="#473B3E"/>
<path d="M21.8177 58.3629C21.809 58.3629 21.809 58.3629 21.8004 58.3629C21.5581 58.3543 21.3764 58.1553 21.3851 57.913L22.458 26.7288C22.4666 26.4865 22.683 26.3135 22.9079 26.3135C23.1502 26.3221 23.3319 26.5211 23.3233 26.7634L22.2503 57.9476C22.2417 58.1726 22.0513 58.3629 21.8177 58.3629Z" fill="#473B3E"/>
<path d="M11.6243 58.3622C11.607 58.3622 11.5897 58.3622 11.581 58.3622C11.3388 58.3363 11.1744 58.1286 11.1917 57.8863L14.4018 26.7022C14.4278 26.4599 14.6614 26.2955 14.8777 26.3128C15.12 26.3387 15.2844 26.5464 15.2671 26.7887L12.0569 57.9729C12.031 58.1978 11.8493 58.3622 11.6243 58.3622Z" fill="#473B3E"/>
<path d="M40.0062 63.9258H13.8232V68.702H40.0062V63.9258Z" fill="#938F90"/>
<path d="M40.0062 70H13.8233C13.1051 70 12.5254 69.4203 12.5254 68.7021V63.9258C12.5254 63.2077 13.1051 62.6279 13.8233 62.6279H40.0062C40.7244 62.6279 41.3041 63.2077 41.3041 63.9258V68.7021C41.3041 69.4203 40.7244 70 40.0062 70ZM15.1212 67.4042H38.7083V65.2237H15.1212V67.4042Z" fill="#473B3E"/>
</svg>
