<svg width="51" height="70" viewBox="0 0 51 70" fill="none" xmlns="http://www.w3.org/2000/svg">
<path d="M30.3781 67.6993C29.7242 67.6993 29.1885 67.1715 29.1885 66.5175C29.1885 65.8636 29.7163 65.3358 30.3702 65.3358C30.3702 65.3358 30.3702 65.3358 30.3781 65.3358C31.6702 65.3358 32.6156 65.0128 33.2695 64.3588C34.6167 62.9959 34.5852 60.3172 34.5616 58.3633C34.5537 57.8985 34.5537 57.4731 34.5616 57.1186C34.6561 54.4241 34.5616 48.6492 34.5616 48.5862C34.5537 47.9323 35.0737 47.3966 35.7276 47.3887C36.3815 47.4044 36.9172 47.9008 36.9251 48.5547C36.9251 48.791 37.0197 54.4478 36.9251 57.2052C36.9172 57.5361 36.9172 57.9222 36.9251 58.3476C36.9487 60.5851 36.9881 63.9649 34.9476 66.0291C33.8525 67.1399 32.3162 67.6993 30.3781 67.6993Z" fill="#473B3E"/>
<path d="M33.2931 44.8049C32.6392 44.8049 32.1113 44.277 32.1113 43.6231V38.0294C32.1113 37.3755 32.6392 36.8477 33.2931 36.8477C33.947 36.8477 34.4749 37.3755 34.4749 38.0294V43.6231C34.4749 44.2692 33.9391 44.8049 33.2931 44.8049Z" fill="#473B3E"/>
<path d="M38.2091 44.8049C37.5552 44.8049 37.0273 44.277 37.0273 43.6231V38.0294C37.0273 37.3755 37.5552 36.8477 38.2091 36.8477C38.863 36.8477 39.3909 37.3755 39.3909 38.0294V43.6231C39.3909 44.2692 38.863 44.8049 38.2091 44.8049Z" fill="#473B3E"/>
<path d="M31.6787 42.5273V45.5054C31.6787 47.6326 33.4986 49.3658 35.7519 49.3658C37.9972 49.3658 39.825 47.6405 39.825 45.5054V42.5273H31.6787Z" fill="#B0EADE"/>
<path d="M35.752 50.5399C32.8527 50.5399 30.4971 48.2788 30.4971 45.4977V42.5197C30.4971 41.8657 31.0249 41.3379 31.6788 41.3379H39.8173C40.4712 41.3379 40.999 41.8657 40.999 42.5197V45.4977C40.999 48.2788 38.6434 50.5399 35.752 50.5399ZM32.8606 43.7093V45.5056C32.8606 46.9789 34.1527 48.1843 35.752 48.1843C37.3434 48.1843 38.6434 46.9867 38.6434 45.5056V43.7093H32.8606Z" fill="#473B3E"/>
<path d="M35.7367 47.7117C35.5161 47.7117 35.3428 47.5384 35.3428 47.3178C35.3428 47.0972 35.5161 46.9239 35.7367 46.9239C36.6112 46.9239 37.3203 46.2857 37.3203 45.5058V44.3949C37.3203 44.1743 37.4936 44.001 37.7142 44.001C37.9348 44.001 38.1081 44.1743 38.1081 44.3949V45.5058C38.1081 46.7269 37.0445 47.7117 35.7367 47.7117Z" fill="#473B3E"/>
<path d="M10.5246 10.242C10.4064 10.242 10.2883 10.1869 10.2095 10.0844C10.0834 9.91112 10.1149 9.66689 10.2883 9.53296C13.1166 7.41365 16.4413 6.05856 19.9236 5.60949C20.1363 5.57798 20.3333 5.73554 20.3648 5.94826C20.3963 6.16098 20.2387 6.35794 20.026 6.38946C16.6777 6.82277 13.479 8.12271 10.761 10.1632C10.6901 10.2105 10.6034 10.242 10.5246 10.242Z" fill="#473B3E"/>
<path d="M25.8648 65.769H19.7354L21.8625 26.6289H23.7455L25.8648 65.769Z" fill="#938F90"/>
<path d="M25.8801 66.9509C25.8801 66.9509 25.8722 66.9509 25.8644 66.9509H19.7349C19.4119 66.9509 19.0968 66.817 18.8762 66.5806C18.6556 66.3443 18.5374 66.0291 18.5532 65.7061L20.6725 26.566C20.704 25.9357 21.2239 25.4473 21.8542 25.4473H23.7372C24.3674 25.4473 24.8874 25.9357 24.9189 26.566L27.0304 65.5171C27.0461 65.6037 27.0619 65.6825 27.0619 65.777C27.0619 66.4231 26.534 66.9509 25.8801 66.9509ZM20.9876 64.5874H24.6196L22.7996 31.0567L20.9876 64.5874Z" fill="#473B3E"/>
<path d="M7.26336 5.89308C7.14518 5.89308 7.02701 5.83793 6.94822 5.73551C6.81429 5.56218 6.85368 5.31795 7.02701 5.18402C11.5335 1.80416 16.8829 0.0157569 22.4924 0C22.713 0 22.8863 0.173326 22.8863 0.393922C22.8863 0.614519 22.713 0.787845 22.4924 0.787845C17.0563 0.803602 11.8723 2.53686 7.49971 5.81429C7.42881 5.86156 7.35002 5.89308 7.26336 5.89308Z" fill="#473B3E"/>
<path d="M14.5661 43.9538C14.511 43.9538 14.4637 43.9459 14.4086 43.9222C11.1627 42.5356 8.32641 40.3297 6.19135 37.5407C6.05742 37.3674 6.08894 37.1231 6.26226 36.9892C6.43559 36.8553 6.67982 36.8868 6.81375 37.0601C8.86215 39.7388 11.596 41.8581 14.7158 43.1895C14.9128 43.2762 15.0073 43.5047 14.9207 43.7095C14.8655 43.8671 14.7237 43.9538 14.5661 43.9538Z" fill="#473B3E"/>
<path d="M12.4313 48.9492C12.3762 48.9492 12.3289 48.9414 12.2737 48.9177C7.10548 46.7039 2.87476 42.9695 0.0542738 38.1164C-0.0560245 37.9273 0.00700297 37.6909 0.196086 37.5806C0.385168 37.4703 0.621522 37.5334 0.73182 37.7225C3.46564 42.4259 7.56243 46.05 12.581 48.1929C12.778 48.2796 12.8725 48.508 12.7858 48.7129C12.7307 48.8626 12.5889 48.9492 12.4313 48.9492Z" fill="#473B3E"/>
<path d="M40.3515 33.6952C40.3042 33.6952 40.249 33.6873 40.2018 33.6637C40.0048 33.577 39.9024 33.3486 39.989 33.1516C41.2811 30.0396 41.7538 26.6125 41.352 23.2405C41.3284 23.0278 41.4781 22.8308 41.6987 22.7993C41.9114 22.7757 42.1083 22.9254 42.1399 23.146C42.5574 26.6519 42.069 30.2129 40.7217 33.451C40.6587 33.6086 40.509 33.6952 40.3515 33.6952Z" fill="#473B3E"/>
<path d="M43.9448 38.6906C43.8818 38.6906 43.8109 38.6749 43.7478 38.6355C43.5588 38.5252 43.4957 38.2888 43.606 38.0997C46.3162 33.3805 47.4034 28.0232 46.7495 22.6028C46.7259 22.3901 46.8756 22.1931 47.0962 22.1616C47.3089 22.138 47.5059 22.2877 47.5374 22.5083C48.207 28.102 47.0883 33.6248 44.2915 38.4937C44.2127 38.6197 44.0787 38.6906 43.9448 38.6906Z" fill="#473B3E"/>
<path d="M17.1335 13.4176C21.5376 19.2949 24.0114 24.8728 22.6642 25.8813C21.317 26.8897 16.6529 22.9505 12.2568 17.0732C7.8527 11.1959 5.37099 5.61791 6.71821 4.60159C8.06542 3.59315 12.7295 7.54025 17.1335 13.4176Z" fill="#FEF078"/>
<path d="M22.1282 27.221C19.355 27.221 14.5649 22.1394 11.3032 17.7826C10.413 16.6008 2.71571 6.13038 6.0089 3.66443C6.35556 3.40444 6.78099 3.27051 7.2537 3.27051C10.019 3.27051 14.817 8.35211 18.0787 12.7089C20.261 15.616 22.0573 18.5626 23.1366 20.997C24.4839 24.0302 24.5626 25.9447 23.373 26.8271C23.0263 27.0871 22.6009 27.221 22.1282 27.221ZM22.1282 24.8575V26.0392V24.8575C22.1282 24.8575 22.1361 24.8575 22.1282 24.8575ZM7.52157 5.68131C7.5452 6.92611 9.0815 10.8653 13.194 16.3645C17.2672 21.8085 20.6549 24.4163 21.8603 24.8023C21.8367 23.5575 20.3004 19.6183 16.1879 14.1191C12.1068 8.683 8.71909 6.07523 7.52157 5.68131Z" fill="#473B3E"/>
<path d="M14.6279 36.9028C17.5114 30.1509 21.1119 25.219 22.6561 25.8808C24.2081 26.5426 23.1209 32.5539 20.2295 39.2978C17.346 46.0496 13.7455 50.9815 12.2014 50.3198C10.6572 49.658 11.7444 43.6546 14.6279 36.9028Z" fill="#FEF078"/>
<path d="M12.5091 51.5643C12.2413 51.5643 11.9813 51.5091 11.7449 51.4067C7.96328 49.7837 12.9582 37.7927 13.5491 36.4377C14.0691 35.2323 18.7016 24.6357 22.3651 24.6357C22.6329 24.6357 22.8929 24.6909 23.1372 24.7933C24.5001 25.3763 24.8783 27.2514 24.2874 30.5131C23.8147 33.1366 22.7669 36.414 21.333 39.7624C20.813 40.9756 16.1726 51.5643 12.5091 51.5643ZM22.1366 27.1017C21.1124 27.7005 18.4416 31.0015 15.7157 37.3752C13.0134 43.7016 12.454 47.8929 12.7297 49.1062C13.7933 48.468 16.4484 45.1749 19.1507 38.8485C21.8687 32.4906 22.4124 28.2913 22.1366 27.1017Z" fill="#473B3E"/>
<path d="M36.2233 27.3224C28.9357 28.1969 22.8614 27.5509 22.6645 25.8807C22.4596 24.2104 28.2109 22.1463 35.4985 21.2718C42.786 20.3973 48.8603 21.0433 49.0573 22.7135C49.2621 24.3838 43.5109 26.4479 36.2233 27.3224Z" fill="#FEF078"/>
<path d="M30.0783 28.8983C24.6107 28.8983 21.7193 27.9293 21.4908 26.0227C21.3096 24.5494 22.7435 23.2889 25.8712 22.1622C28.3766 21.2641 31.7407 20.5235 35.3569 20.0981C37.555 19.8302 39.6743 19.6963 41.6439 19.6963C47.1115 19.6963 50.0029 20.6653 50.2314 22.5719C50.4047 24.0452 48.9787 25.3057 45.851 26.4324C43.3456 27.3305 39.9737 28.0711 36.3653 28.4965C34.1672 28.7644 32.0479 28.8983 30.0783 28.8983ZM23.9962 25.7154C24.5949 26.0306 26.3439 26.5348 30.0704 26.5348C31.9219 26.5348 34.0018 26.4008 36.0817 26.1566C42.8887 25.3373 46.7964 23.7301 47.726 22.8871C47.1273 22.5719 45.3704 22.0677 41.6439 22.0677C39.7925 22.0677 37.7125 22.2016 35.6405 22.4459C28.8335 23.2573 24.9179 24.8724 23.9962 25.7154Z" fill="#473B3E"/>
<path d="M27.1705 25.8568C27.1705 28.3227 25.1694 30.3238 22.7034 30.3238C20.2375 30.3238 18.2363 28.3227 18.2363 25.8568C18.2363 23.3908 20.2375 21.3897 22.7034 21.3897C25.1694 21.3818 27.1705 23.3829 27.1705 25.8568Z" fill="#B0EADE"/>
<path d="M22.6957 31.5057C19.5759 31.5057 17.0469 28.9688 17.0469 25.8569C17.0469 22.737 19.5837 20.208 22.6957 20.208C25.8156 20.208 28.3446 22.7449 28.3446 25.8569C28.3524 28.9688 25.8156 31.5057 22.6957 31.5057ZM22.6957 22.5637C20.8837 22.5637 19.4104 24.0369 19.4104 25.849C19.4104 27.661 20.8837 29.1343 22.6957 29.1343C24.5078 29.1343 25.981 27.661 25.981 25.849C25.9889 24.0448 24.5156 22.5637 22.6957 22.5637Z" fill="#473B3E"/>
<path d="M24.3506 27.5827C24.2481 27.5827 24.1457 27.5433 24.0748 27.4645C23.9172 27.307 23.9172 27.0627 24.0748 26.9052C24.3978 26.5821 24.579 26.1488 24.579 25.6919C24.579 25.2349 24.3978 24.8016 24.0748 24.4786C23.4051 23.8089 22.3179 23.8089 21.6482 24.4786C21.4907 24.6362 21.2464 24.6362 21.0889 24.4786C20.9313 24.321 20.9313 24.0768 21.0889 23.9192C22.0658 22.9423 23.6494 22.9423 24.6263 23.9192C25.099 24.3919 25.359 25.0222 25.359 25.6919C25.359 26.3615 25.099 26.9918 24.6263 27.4645C24.5475 27.5433 24.453 27.5827 24.3506 27.5827Z" fill="#473B3E"/>
<path d="M30.3793 64.2246H15.5127V68.8177H30.3793V64.2246Z" fill="#938F90"/>
<path d="M30.3795 69.9996H15.5128C14.8589 69.9996 14.3311 69.4718 14.3311 68.8179V64.2247C14.3311 63.5708 14.8589 63.043 15.5128 63.043H30.3795C31.0334 63.043 31.5612 63.5708 31.5612 64.2247V68.8179C31.5612 69.4718 31.0334 69.9996 30.3795 69.9996ZM16.6946 67.6361H29.1977V65.4065H16.6946V67.6361Z" fill="#473B3E"/>
</svg>
