<svg width="70" height="70" viewBox="0 0 70 70" fill="none" xmlns="http://www.w3.org/2000/svg">
<path d="M9.29688 58.5156C9.29688 58.5156 4.92188 61.25 2.1875 68.9062H12.5781L13.125 58.5156H9.29688Z" fill="#594A4E"/>
<path d="M60.7031 58.5156C60.7031 58.5156 65.0781 61.25 67.8125 68.9062H57.4219L56.875 58.5156H60.7031Z" fill="#594A4E"/>
<path d="M41.5625 54.1406C40.1461 55.1113 37.8252 55.7791 35 55.7812C32.1748 55.7791 29.8539 55.1113 28.4375 54.1406C24.3026 54.6716 13.6719 55.7812 9.29688 58.5156L12.0312 68.9062H57.4219L60.7031 58.5156C56.3281 55.7812 45.6974 54.6716 41.5625 54.1406Z" fill="#473B3E"/>
<path d="M28.4375 48.125H41.5625V59.6094H28.4375V48.125Z" fill="url(#paint0_linear_8_2526)"/>
<path d="M54.6875 35.4687C54.6875 37.8848 52.9736 40.4688 50.8594 40.4688C48.7452 40.4688 47.0312 37.8848 47.0312 35.4687C47.0312 33.0526 48.7452 31.7188 50.8594 31.7188C52.9736 31.7188 54.6875 33.0526 54.6875 35.4687Z" fill="url(#paint1_linear_8_2526)"/>
<path d="M22.9688 35.4687C22.9688 37.8848 21.2548 40.4688 19.1406 40.4688C17.0264 40.4688 15.3125 37.8848 15.3125 35.4687C15.3125 33.0526 17.0264 31.7188 19.1406 31.7188C21.2548 31.7188 22.9688 33.0526 22.9688 35.4687Z" fill="url(#paint2_linear_8_2526)"/>
<path d="M48.6719 24.0625H21.3281C20.1042 24.3595 19.1406 25.5374 19.1406 26.7969V35.5507C19.1406 44.8438 26.25 51.9531 35 51.9531C43.75 51.9531 50.8594 44.8438 50.8594 35.5507V26.7969C50.8594 25.5336 49.9007 24.3562 48.6719 24.0625Z" fill="url(#paint3_linear_8_2526)"/>
<path d="M20.2885 21.858C18.9295 23.3575 18.0469 25.2858 18.0469 27.3426C18.0469 31.3397 19.1406 35.5468 19.1406 35.5468C19.8193 31.8149 20.7812 27.8906 23.5156 25.7654C24.698 24.8467 25.8738 23.8404 27.3438 24.1248C29.622 24.5656 32.3821 25.2382 35 25.2185C37.6179 25.2382 40.3709 24.6038 42.6491 24.1631C44.1191 23.8787 45.6105 24.5497 46.4844 25.7654C48.0205 27.9015 50.1807 31.8149 50.8594 35.5468C50.8594 35.5468 51.9531 31.3397 51.9531 27.3426C51.9531 25.2863 51.0705 23.3581 49.712 21.8585C40.4179 18.9513 29.161 18.9765 20.2885 21.858Z" fill="#473B3E"/>
<path d="M32.8125 59.0625H37.1875V68.9062H32.8125V59.0625Z" fill="#D9E2E9"/>
<path d="M25.1562 56.3281C25.1562 59.1735 27.86 63.4151 28.4375 63.9844L35 59.0625C29.7713 58.4877 28.4353 53.638 28.4353 52.5C28.4353 52.5 25.1562 52.8664 25.1562 56.3281Z" fill="#BAC2D3"/>
<path d="M44.8438 56.3281C44.8438 59.1735 42.14 63.4151 41.5625 63.9844L35 59.0625C40.2287 58.4877 41.5647 53.638 41.5647 52.5C41.5647 52.5 44.8438 52.8664 44.8438 56.3281Z" fill="#BAC2D3"/>
<path d="M35 62.8906C35.302 62.8906 35.5469 62.6458 35.5469 62.3438C35.5469 62.0417 35.302 61.7969 35 61.7969C34.698 61.7969 34.4531 62.0417 34.4531 62.3438C34.4531 62.6458 34.698 62.8906 35 62.8906Z" fill="#473B3E"/>
<path d="M35 65.0781C35.302 65.0781 35.5469 64.8333 35.5469 64.5312C35.5469 64.2292 35.302 63.9844 35 63.9844C34.698 63.9844 34.4531 64.2292 34.4531 64.5312C34.4531 64.8333 34.698 65.0781 35 65.0781Z" fill="#473B3E"/>
<path d="M35 67.2656C35.302 67.2656 35.5469 67.0208 35.5469 66.7188C35.5469 66.4167 35.302 66.1719 35 66.1719C34.698 66.1719 34.4531 66.4167 34.4531 66.7188C34.4531 67.0208 34.698 67.2656 35 67.2656Z" fill="#473B3E"/>
<path d="M35.0002 2.1875C25.0395 2.1875 16.9648 10.2621 16.9648 20.2229V21.3281H53.0351V20.2229C53.0356 10.2621 44.961 2.1875 35.0002 2.1875Z" fill="#ECDF6D"/>
<path d="M53.0469 24.6094H16.9531C16.047 24.6094 15.3125 23.8749 15.3125 22.9688C15.3125 22.0626 16.047 21.3281 16.9531 21.3281H53.0469C53.953 21.3281 54.6875 22.0626 54.6875 22.9688C54.6875 23.8749 53.953 24.6094 53.0469 24.6094Z" fill="#FEF078"/>
<path d="M41.5668 2.1875C40.752 1.67563 38.4972 1.0943 35.0087 1.09375H35.0043H34.9999H34.9955C31.507 1.0943 29.2523 1.67563 28.4374 2.1875C28.1191 2.38766 27.3951 3.0368 28.4374 4.92188C30.3608 8.40055 31.7187 11.3537 31.7187 15.3125V21.3281H38.2856V15.3125C38.2856 11.3537 39.6434 8.40055 41.5668 4.92188C42.6091 3.0368 41.8851 2.38766 41.5668 2.1875Z" fill="#FEF078"/>
<path d="M46.4844 27.8906H23.5156C21.4009 27.8906 19.1352 26.3058 18.0469 24.6094H51.9531C50.8648 26.3058 48.5991 27.8906 46.4844 27.8906Z" fill="#ECDF6D"/>
<path d="M42.1094 38.8314C43.0155 38.8314 43.75 38.0961 43.75 37.1891C43.75 36.2821 43.0155 35.5469 42.1094 35.5469C41.2033 35.5469 40.4688 36.2821 40.4688 37.1891C40.4688 38.0961 41.2033 38.8314 42.1094 38.8314Z" fill="url(#paint4_linear_8_2526)"/>
<path d="M38.8289 32.263C38.6462 32.263 38.468 32.1717 38.3641 32.0055C38.2044 31.749 38.2826 31.4121 38.5391 31.2524C42.1665 28.9927 44.6433 30.5858 45.5757 31.1857L45.6829 31.2546C45.9383 31.4159 46.0137 31.7539 45.8524 32.0087C45.6916 32.2636 45.3526 32.3401 45.0983 32.1783L44.984 32.105C44.1385 31.5608 42.1577 30.2866 39.1171 32.1805C39.0274 32.2362 38.9279 32.263 38.8289 32.263Z" fill="url(#paint5_linear_8_2526)"/>
<path d="M27.8906 38.8314C28.7967 38.8314 29.5312 38.0961 29.5312 37.1891C29.5312 36.2821 28.7967 35.5469 27.8906 35.5469C26.9845 35.5469 26.25 36.2821 26.25 37.1891C26.25 38.0961 26.9845 38.8314 27.8906 38.8314Z" fill="url(#paint6_linear_8_2526)"/>
<path d="M31.1714 32.2638C31.0724 32.2638 30.9729 32.237 30.8826 32.1812C27.8426 30.2879 25.8618 31.5616 25.0158 32.1057L24.9015 32.179C24.6466 32.3409 24.3081 32.2638 24.1473 32.0095C23.986 31.7546 24.0615 31.4167 24.3169 31.2553L24.4241 31.1864C25.3565 30.5865 27.8327 28.994 31.4607 31.2531C31.7172 31.4128 31.7954 31.7503 31.6357 32.0062C31.5323 32.1724 31.3541 32.2638 31.1714 32.2638Z" fill="url(#paint7_linear_8_2526)"/>
<path d="M35 44.844C35.7749 45.7108 37.2723 45.9394 38.8281 45.9394C42.6562 45.9394 44.2969 42.6581 44.2969 42.6581C41.1179 43.0344 40.5781 42.6478 38.8281 41.5644C37.368 40.6604 36.2179 40.8923 35 42.1096C33.7821 40.8917 32.632 40.6571 31.1719 41.5611C29.4219 42.6445 28.8816 43.0311 25.7031 42.6549C25.7031 42.6549 27.3438 45.9361 31.1719 45.9361C32.7277 45.9361 34.2251 45.7108 35 44.844Z" fill="#473B3E"/>
<defs>
<linearGradient id="paint0_linear_8_2526" x1="35" y1="57.8774" x2="35" y2="52.1352" gradientUnits="userSpaceOnUse">
<stop stop-color="#F6CFBE"/>
<stop offset="1" stop-color="#EDAD99"/>
</linearGradient>
<linearGradient id="paint1_linear_8_2526" x1="50.8594" y1="19.5054" x2="50.8594" y2="46.124" gradientUnits="userSpaceOnUse">
<stop stop-color="#F6CFBE"/>
<stop offset="1" stop-color="#EDAD99"/>
</linearGradient>
<linearGradient id="paint2_linear_8_2526" x1="19.1406" y1="19.5054" x2="19.1406" y2="46.124" gradientUnits="userSpaceOnUse">
<stop stop-color="#F6CFBE"/>
<stop offset="1" stop-color="#EDAD99"/>
</linearGradient>
<linearGradient id="paint3_linear_8_2526" x1="35" y1="50.6707" x2="35" y2="68.168" gradientUnits="userSpaceOnUse">
<stop stop-color="#F6CFBE"/>
<stop offset="1" stop-color="#EDAD99"/>
</linearGradient>
<linearGradient id="paint4_linear_8_2526" x1="42.5715" y1="14.3823" x2="41.9557" y2="44.7661" gradientUnits="userSpaceOnUse">
<stop stop-color="#947E7F"/>
<stop offset="1" stop-color="#373638"/>
</linearGradient>
<linearGradient id="paint5_linear_8_2526" x1="42.6144" y1="6.80984" x2="41.7941" y2="47.2786" gradientUnits="userSpaceOnUse">
<stop stop-color="#947E7F"/>
<stop offset="1" stop-color="#373638"/>
</linearGradient>
<linearGradient id="paint6_linear_8_2526" x1="28.3571" y1="14.1663" x2="27.7413" y2="44.5501" gradientUnits="userSpaceOnUse">
<stop stop-color="#947E7F"/>
<stop offset="1" stop-color="#373638"/>
</linearGradient>
<linearGradient id="paint7_linear_8_2526" x1="28.4015" y1="6.52237" x2="27.5812" y2="46.9911" gradientUnits="userSpaceOnUse">
<stop stop-color="#947E7F"/>
<stop offset="1" stop-color="#373638"/>
</linearGradient>
</defs>
</svg>
