<svg width="70" height="70" viewBox="0 0 70 70" fill="none" xmlns="http://www.w3.org/2000/svg">
<path d="M47.2255 66.7432V41.949L43.2038 40.065L42.1122 34.2676H27.888L26.7964 40.065L22.9043 41.8883V66.7432H47.2255Z" fill="#E2B48A"/>
<path d="M63.9626 69.4532L62.9235 56.1718C62.7544 54.0071 62.0144 51.9259 60.779 50.1404C59.5436 48.3549 57.8568 46.9288 55.8907 46.0075L44.729 40.7783V44.0082H43.457V45.7035H24.7325V41.0315L14.1095 46.0075C12.143 46.9286 10.456 48.3546 9.22026 50.1401C7.98452 51.9257 7.24429 54.0069 7.07502 56.1718L6.0376 69.4532H63.9626Z" fill="#BAC2D3"/>
<path d="M36.6609 45.7402H31.3147L30.2964 48.1142L33.3649 52.0195L31.581 60.5824L34.9973 67.9844L38.8249 60.023L37.2215 51.8598L39.6512 47.8648L36.6609 45.7402Z" fill="#FEF078"/>
<path d="M62.9241 56.172C62.7549 54.0073 62.0148 51.9261 60.7793 50.1406C59.5438 48.355 57.8569 46.929 55.8907 46.0078L45.7188 41.2412C44.8892 45.9651 42.9194 50.2942 40.7789 54.5576C39.7863 56.5351 38.8561 58.5055 37.9806 60.5333C37.4922 61.6571 35.0001 68.2235 35.0001 68.2235C35.0001 68.2235 30.9598 58.1664 30.2242 56.26C29.2273 53.6744 28.46 50.9838 27.1388 48.5376C26.9124 48.1182 26.6734 47.7058 26.4278 47.2962C24.1802 46.4136 23.0246 44.5071 23.0673 41.8105L14.1095 46.0078C12.143 46.9288 10.456 48.3548 9.22026 50.1404C7.98452 51.9259 7.24429 54.0071 7.07502 56.172L6.0376 69.4534H63.9626L62.9241 56.172Z" fill="#707583"/>
<path d="M62.9241 56.172C62.7549 54.0073 62.0148 51.9261 60.7793 50.1406C59.5438 48.355 57.8569 46.929 55.8907 46.0078L45.7188 41.2412C44.8892 45.9651 42.9194 50.2942 40.7789 54.5576C39.7863 56.5351 38.8561 58.5055 37.9806 60.5333C37.4922 61.6571 35.0001 68.2235 35.0001 68.2235C35.0001 68.2235 30.9598 58.1664 30.2242 56.26C29.2273 53.6744 28.46 50.9838 27.1388 48.5376C26.9124 48.1182 26.6734 47.7058 26.4278 47.2962C24.1802 46.4136 23.0246 44.5071 23.0673 41.8105L14.1095 46.0078C12.143 46.9288 10.456 48.3548 9.22026 50.1404C7.98452 51.9259 7.24429 54.0071 7.07502 56.172L6.0376 69.4534H63.9626L62.9241 56.172Z" fill="#473B3E"/>
<path d="M63.9627 69.4535H56.1205L55.0814 56.1699C54.9106 54.0054 54.1693 51.9249 52.9329 50.14C51.6966 48.3552 50.0094 46.9298 48.0432 46.009L44.9424 44.5543C45.2585 43.4642 45.5159 42.3579 45.7135 41.2402L55.8908 46.009C57.8564 46.9301 59.5428 48.3557 60.7782 50.1406C62.0136 51.9254 62.7538 54.0059 62.9236 56.1699L63.9627 69.4535Z" fill="#594A4E"/>
<path d="M50.5034 26.7798C51.084 24.2998 50.4297 22.0261 49.042 21.7013C47.6544 21.3765 46.0589 23.1235 45.4784 25.6035C44.8978 28.0834 45.5521 30.3571 46.9398 30.6819C48.3274 31.0067 49.9229 29.2597 50.5034 26.7798Z" fill="#E2B48A"/>
<path d="M22.9761 30.702C24.3637 30.3772 25.018 28.1035 24.4375 25.6236C23.857 23.1436 22.2615 21.3966 20.8739 21.7214C19.4862 22.0462 18.8319 24.3199 19.4124 26.7999C19.993 29.2798 21.5885 31.0268 22.9761 30.702Z" fill="#E2B48A"/>
<path d="M34.947 39.2336C42.1441 39.2336 47.9785 31.1921 47.9785 21.2725C47.9785 11.3529 42.1441 3.31152 34.947 3.31152C27.7499 3.31152 21.9155 11.3529 21.9155 21.2725C21.9155 31.1921 27.7499 39.2336 34.947 39.2336Z" fill="#F0C191"/>
<path d="M47.161 27.4684C47.161 27.4684 51.763 19.2461 50.766 12.7252C49.7691 6.20423 45.376 4.1458 42.7658 4.1458C42.7658 4.1458 39.2428 -1.07084 30.5371 1.05705C21.8314 3.18494 18.3309 12.7449 19.9781 18.7758C21.6253 24.8067 22.7234 27.5772 22.7234 27.5772C22.7234 27.5772 21.6253 19.8663 22.8607 15.6088C24.096 11.3514 27.8028 7.98978 29.2443 9.15572C30.6859 10.3217 39.8832 9.93502 41.3932 7.35103C43.3768 8.80461 44.7045 10.9842 45.0862 13.4137C45.5784 17.326 47.7763 19.7285 47.5707 22.5421C47.365 25.3558 47.161 27.4684 47.161 27.4684Z" fill="#473B3E"/>
<path d="M42.8285 38.0527L35 45.7024L41.988 50.5045L45.2583 41.0157L42.8285 38.0527Z" fill="#D9E2E9"/>
<path d="M24.7417 41.0157L28.2844 50.283L35 45.7024L27.1715 38.0527L24.7417 41.0157Z" fill="#D9E2E9"/>
<path d="M47.296 41.9814L42.8286 38.0532L42.8193 38.0439C42.8193 38.0439 42.7378 49.7799 34.999 67.9848C27.2585 49.7799 27.1787 38.0439 27.1787 38.0439L27.1694 38.0532L22.7025 41.9814L21.9155 48.6221L25.6195 48.0299L22.8419 52.2408C24.4525 56.1641 35.0001 68.4141 35.0001 68.4141C36.6598 66.5815 45.7965 56.0039 47.2189 52.5367L44.3779 48.0299L48.5237 48.148L47.296 41.9814Z" fill="#594A4E"/>
</svg>
