<svg width="70" height="70" viewBox="0 0 70 70" fill="none" xmlns="http://www.w3.org/2000/svg">
<g clip-path="url(#clip0_8_2324)">
<path d="M25.7211 3.2666L31.1591 39.5175L24.0554 51.4548C12.9212 35.2095 9.96181 3.2666 25.7211 3.2666Z" fill="#594A4E"/>
<path d="M25.1509 3.26628C28.8014 0.163295 38.0866 -1.64184 45.9594 2.09842C56.7744 7.23639 56.7287 30.232 47.0545 49.2642C47.0399 49.293 39.3883 43.7882 39.3883 43.7882L25.1509 3.26628Z" fill="#594A4E"/>
<path d="M42.7183 38.6069H42.6587V36.0488H27.3262V38.6042C27.3262 41.1077 27.3157 43.8289 25.1357 45.475V69.9996H34.9924C34.9924 69.9996 40.1537 69.9996 44.8491 69.9996V45.4367C42.7249 43.7865 42.7183 41.0889 42.7183 38.6069Z" fill="#FFD7A3"/>
<path d="M51.4202 47.0009H51.0552C46.8954 47.0009 44.8126 45.8957 43.7539 44.3105L36.1121 49.5266L36.1176 49.5336L35.0074 57.5122L33.8987 49.5444L26.231 44.3107C25.1723 45.8958 23.0895 47.0011 18.9297 47.0011H18.5647C11.9114 47.0011 6.51758 52.3947 6.51758 59.0482V66.7145C6.51758 68.529 7.98852 70.0001 9.80314 70.0001H28.4212H32.2763H37.7084H43.7539H60.1818C61.9964 70.0001 63.4673 68.529 63.4673 66.7145V59.0482C63.4672 52.3946 58.0736 47.0009 51.4202 47.0009Z" fill="#FEF078"/>
<path d="M42.674 49.2638C43.0736 49.3728 42.3383 48.1402 42.674 48.1687L44.8493 45.4369C42.7253 43.7867 42.7185 41.0889 42.7185 38.6069H42.6589V36.0488H30.6117L27.3262 37.144C29.5168 39.6082 35.1446 47.2104 42.674 49.2638Z" fill="#FDC88E"/>
<path d="M50.3252 21.8118C50.3252 30.5822 41.6028 41.5252 34.9927 41.5252C28.3826 41.5252 19.6602 30.5822 19.6602 21.8118C19.6602 13.0414 26.5247 9.76465 34.9927 9.76465C43.4607 9.76465 50.3252 13.0414 50.3252 21.8118Z" fill="#FFE1B2"/>
<path d="M32.8638 4.28906C33.4791 4.28906 35.477 4.98043 37.1098 5.58625L37.2445 5.3842C37.2445 5.3842 37.4698 5.56128 37.86 5.86819C38.7682 6.21304 39.4347 6.47933 39.4347 6.47933L39.1786 6.9064C43.3355 10.1815 52.8195 17.6735 53.6723 18.5265C54.7674 19.6216 48.2411 46.9969 48.2411 31.1025C48.2411 17.8234 40.8636 15.1936 34.0037 13.5796C30.9007 12.8494 28.8481 11.5902 28.4831 9.7649C28.1179 7.93962 31.7686 4.28906 32.8638 4.28906Z" fill="#594A4E"/>
<path d="M29.578 11.6995C29.578 11.6995 21.2436 14.2572 19.7391 23.2951C19.3896 25.3948 16.4805 16.1352 16.4805 16.1352C16.4805 16.1352 18.1232 8.83397 18.4883 8.65139C18.8533 8.46881 26.246 5.45703 26.246 5.45703L28.4574 7.36935L29.578 11.6995Z" fill="#594A4E"/>
<path d="M33.8973 49.5337L26.3384 44.1631L23.6606 46.2858L28.7197 53.3299C29.1285 53.8991 29.9593 53.9432 30.4262 53.4205L33.8973 49.5337Z" fill="#D0D7DC"/>
<path d="M36.0879 49.5337L43.6468 44.1631L46.3246 46.2858L41.2655 53.3299C40.8567 53.8991 40.0259 53.9432 39.559 53.4205L36.0879 49.5337Z" fill="#D0D7DC"/>
<path d="M23.6419 46.2842C22.4799 46.7357 20.9544 47.0012 18.9297 47.0012H18.5647C11.9114 47.0012 6.51758 52.3948 6.51758 59.0483V66.7146C6.51758 68.529 7.98852 70.0001 9.80314 70.0001H28.4212L23.6606 46.286C23.6607 46.286 23.6439 46.2843 23.6419 46.2842Z" fill="#B0EADE"/>
<path d="M46.3581 46.2842C47.5201 46.7357 49.0457 47.0012 51.0703 47.0012H51.4353C58.0887 47.0012 63.4824 52.3948 63.4824 59.0483V66.7146C63.4824 68.529 62.0115 70.0001 60.1969 70.0001H41.5786L46.3393 46.286C46.3393 46.286 46.3559 46.2843 46.3581 46.2842Z" fill="#B0EADE"/>
<path d="M20.8017 23.395C19.16 22.9843 18.0845 23.8619 18.0845 25.5854C18.0845 27.8671 20.2922 33.4571 22.6131 29.9661C24.934 26.4752 20.8017 23.395 20.8017 23.395Z" fill="#FFE1B2"/>
<path d="M21.8652 59.1209C22.47 59.1209 22.9603 58.6306 22.9603 58.0258C22.9603 57.421 22.47 56.9307 21.8652 56.9307C21.2603 56.9307 20.77 57.421 20.77 58.0258C20.77 58.6306 21.2603 59.1209 21.8652 59.1209Z" fill="#473B3E"/>
<path d="M34.9926 62.4061C35.5974 62.4061 36.0877 61.9158 36.0877 61.311C36.0877 60.7061 35.5974 60.2158 34.9926 60.2158C34.3878 60.2158 33.8975 60.7061 33.8975 61.311C33.8975 61.9158 34.3878 62.4061 34.9926 62.4061Z" fill="#D0D7DC"/>
<path d="M35.0077 67.9325C35.6126 67.9325 36.1029 67.4421 36.1029 66.8373C36.1029 66.2325 35.6126 65.7422 35.0077 65.7422C34.4029 65.7422 33.9126 66.2325 33.9126 66.8373C33.9126 67.4421 34.4029 67.9325 35.0077 67.9325Z" fill="#D0D7DC"/>
<path d="M22.9604 65.6922C23.5652 65.6922 24.0555 65.2019 24.0555 64.5971C24.0555 63.9923 23.5652 63.502 22.9604 63.502C22.3555 63.502 21.8652 63.9923 21.8652 64.5971C21.8652 65.2019 22.3555 65.6922 22.9604 65.6922Z" fill="#473B3E"/>
<path d="M32.5534 23.0435V23.8649C32.5534 26.2805 30.5881 28.2456 28.1727 28.2456H27.0776C25.8698 28.2456 24.8871 27.263 24.8871 26.0552V23.0434H32.5534M32.5534 21.9482H24.8871C24.2823 21.9482 23.792 22.4386 23.792 23.0434V26.0552C23.792 27.8698 25.2629 29.3407 27.0776 29.3407H28.1727C31.197 29.3407 33.6487 26.889 33.6487 23.8647V23.0434C33.6487 22.4386 33.1584 21.9482 32.5534 21.9482Z" fill="#473B3E"/>
<path d="M45.1271 23.0435V26.0553C45.1271 27.2631 44.1445 28.2458 42.9367 28.2458H41.8416C39.4259 28.2458 37.4609 26.2805 37.4609 23.8651V23.0437H45.1271M45.1271 21.9482H37.4609C36.856 21.9482 36.3657 22.4386 36.3657 23.0434V23.8647C36.3657 26.889 38.8175 29.3407 41.8417 29.3407H42.9369C44.7515 29.3407 46.2224 27.8698 46.2224 26.0552V23.0434C46.2223 22.4386 45.7319 21.9482 45.1271 21.9482Z" fill="#473B3E"/>
<path d="M19.6597 21.9482H24.8873V24.5536L19.6597 23.294V21.9482Z" fill="#473B3E"/>
<path d="M50.3551 21.9482H45.1274V24.5536L50.3551 23.294V21.9482Z" fill="#473B3E"/>
<path d="M37.5089 24.5534H36.4137C36.4137 24.0796 35.7565 23.6635 35.0074 23.6635C34.2582 23.6635 33.601 24.0796 33.601 24.5534H32.5059C32.5059 23.44 33.6048 22.5684 35.0075 22.5684C36.4102 22.5684 37.5089 23.4401 37.5089 24.5534Z" fill="#473B3E"/>
<path d="M53.374 65.7422H47.0543C46.1471 65.7422 45.4116 66.4778 45.4116 67.3849V69.9996H55.0168V67.3849C55.0168 66.4778 54.2814 65.7422 53.374 65.7422Z" fill="#594A4E"/>
</g>
<defs>
<clipPath id="clip0_8_2324">
<rect width="70" height="70" fill="white"/>
</clipPath>
</defs>
</svg>
