<svg width="68" height="71" viewBox="0 0 68 71" fill="none" xmlns="http://www.w3.org/2000/svg">
<path d="M56.8398 65.2004C56.0098 65.2004 55.3398 64.5304 55.3398 63.7004V28.9004C55.3398 28.0704 56.0098 27.4004 56.8398 27.4004C57.6698 27.4004 58.3398 28.0704 58.3398 28.9004V63.7004C58.3398 64.5304 57.6698 65.2004 56.8398 65.2004Z" fill="#473B3E"/>
<path d="M13.1895 69.4104C12.3595 69.4104 11.6895 68.7404 11.6895 67.9104V37.4404C11.6895 36.6104 12.3595 35.9404 13.1895 35.9404C14.0195 35.9404 14.6895 36.6104 14.6895 37.4404V67.9104C14.6895 68.7304 14.0195 69.4104 13.1895 69.4104Z" fill="#473B3E"/>
<path d="M7.68945 69.4104C6.85945 69.4104 6.18945 68.7404 6.18945 67.9104V37.4404C6.18945 36.6104 6.85945 35.9404 7.68945 35.9404C8.51945 35.9404 9.18945 36.6104 9.18945 37.4404V67.9104C9.18945 68.7304 8.50945 69.4104 7.68945 69.4104Z" fill="#473B3E"/>
<path d="M61.1208 58.4404H52.5508V68.9604H61.1208V58.4404Z" fill="#938F90"/>
<path d="M61.1208 70.4604H52.5508C51.7208 70.4604 51.0508 69.7904 51.0508 68.9604V58.4404C51.0508 57.6104 51.7208 56.9404 52.5508 56.9404H61.1208C61.9508 56.9404 62.6208 57.6104 62.6208 58.4404V68.9604C62.6208 69.7904 61.9508 70.4604 61.1208 70.4604ZM54.0508 67.4604H59.6208V59.9404H54.0508V67.4604Z" fill="#473B3E"/>
<path d="M58.3313 65.7305C58.0513 65.7305 57.8313 65.5105 57.8313 65.2305V61.7305H56.2812C56.0012 61.7305 55.7812 61.5105 55.7812 61.2305C55.7812 60.9505 56.0012 60.7305 56.2812 60.7305H58.3313C58.6113 60.7305 58.8313 60.9505 58.8313 61.2305V65.2305C58.8313 65.5105 58.6013 65.7305 58.3313 65.7305Z" fill="#473B3E"/>
<path d="M14.7204 58.4404H6.15039V68.9604H14.7204V58.4404Z" fill="#938F90"/>
<path d="M14.7302 70.4604H6.16016C5.33016 70.4604 4.66016 69.7904 4.66016 68.9604V58.4404C4.66016 57.6104 5.33016 56.9404 6.16016 56.9404H14.7302C15.5602 56.9404 16.2302 57.6104 16.2302 58.4404V68.9604C16.2302 69.7904 15.5502 70.4604 14.7302 70.4604ZM7.65015 67.4604H13.2202V59.9404H7.65015V67.4604Z" fill="#473B3E"/>
<path d="M11.9309 65.7305C11.6509 65.7305 11.4309 65.5105 11.4309 65.2305V61.7305H9.88086C9.60086 61.7305 9.38086 61.5105 9.38086 61.2305C9.38086 60.9505 9.60086 60.7305 9.88086 60.7305H11.9309C12.2109 60.7305 12.4309 60.9505 12.4309 61.2305V65.2305C12.4309 65.5105 12.2109 65.7305 11.9309 65.7305Z" fill="#473B3E"/>
<path d="M47.8002 70.3395C47.8002 70.3395 47.7902 70.3395 47.7802 70.3395H19.2102C18.7602 70.3395 18.3402 70.1395 18.0602 69.7995C17.7702 69.4595 17.6602 69.0095 17.7402 68.5695L26.3102 22.2495C26.4402 21.5395 27.0602 21.0195 27.7802 21.0195H39.2102C39.9302 21.0195 40.5502 21.5395 40.6802 22.2495L49.2102 68.3295C49.2702 68.4895 49.3002 68.6595 49.3002 68.8395C49.3002 69.6695 48.6302 70.3395 47.8002 70.3395ZM21.0102 67.3395H45.9802L37.9602 24.0195H29.0302L21.0102 67.3395Z" fill="#473B3E"/>
<path d="M33.5 70.4597C32.67 70.4597 32 69.7897 32 68.9597V21.7197C32 20.8897 32.67 20.2197 33.5 20.2197C34.33 20.2197 35 20.8897 35 21.7197V68.9597C35 69.7897 34.33 70.4597 33.5 70.4597Z" fill="#473B3E"/>
<path d="M46.4398 66.3295C46.0798 66.3295 45.7298 66.1995 45.4398 65.9495L23.0898 45.8795C22.7698 45.5895 22.5898 45.1895 22.5898 44.7595C22.5898 44.3295 22.7798 43.9295 23.0998 43.6395L39.5298 29.0895C40.1498 28.5395 41.0998 28.5995 41.6498 29.2195C42.1998 29.8395 42.1398 30.7895 41.5198 31.3395L26.3498 44.7695L47.4498 63.7095C48.0698 64.2595 48.1198 65.2095 47.5598 65.8295C47.2598 66.1595 46.8498 66.3295 46.4398 66.3295Z" fill="#473B3E"/>
<path d="M20.5607 66.3295C20.1507 66.3295 19.7407 66.1595 19.4407 65.8295C18.8907 65.2095 18.9407 64.2695 19.5507 63.7095L40.6507 44.7695L25.4807 31.3395C24.8607 30.7895 24.8007 29.8395 25.3507 29.2195C25.9007 28.5995 26.8507 28.5395 27.4707 29.0895L43.9007 43.6395C44.2207 43.9195 44.4007 44.3295 44.4107 44.7595C44.4107 45.1895 44.2307 45.5995 43.9107 45.8795L21.5607 65.9495C21.2707 66.1995 20.9107 66.3295 20.5607 66.3295Z" fill="#473B3E"/>
<path d="M65.78 70.46H1.5C0.67 70.46 0 69.79 0 68.96C0 68.13 0.67 67.46 1.5 67.46H65.78C66.61 67.46 67.28 68.13 67.28 68.96C67.28 69.79 66.61 70.46 65.78 70.46Z" fill="#473B3E"/>
<path d="M54.0801 49.9199C54.0801 51.4399 55.3101 52.6699 56.8401 52.6699C58.3601 52.6699 59.5901 51.4399 59.5901 49.9199C59.5901 48.3999 58.3601 47.1699 56.8401 47.1699C55.3201 47.1699 54.0801 48.3999 54.0801 49.9199Z" fill="#FEF078"/>
<path d="M56.8401 54.1699C54.4901 54.1699 52.5801 52.2599 52.5801 49.9199C52.5801 47.5799 54.4901 45.6699 56.8401 45.6699C59.1801 45.6699 61.0901 47.5799 61.0901 49.9199C61.0901 52.2599 59.1801 54.1699 56.8401 54.1699ZM56.8401 48.6699C56.1501 48.6699 55.5801 49.2299 55.5801 49.9199C55.5801 50.6099 56.1401 51.1699 56.8401 51.1699C57.5301 51.1699 58.0901 50.6099 58.0901 49.9199C58.0901 49.2299 57.5301 48.6699 56.8401 48.6699Z" fill="#473B3E"/>
<path d="M7.68945 36.8604C7.68945 38.3804 8.91946 39.6104 10.4495 39.6104C11.9695 39.6104 13.1995 38.3804 13.1995 36.8604C13.1995 35.3404 11.9695 34.1104 10.4495 34.1104C8.91946 34.1104 7.68945 35.3404 7.68945 36.8604Z" fill="#FEF078"/>
<path d="M10.4397 41.1201C8.08968 41.1201 6.17969 39.2101 6.17969 36.8701C6.17969 34.5301 8.08968 32.6201 10.4397 32.6201C12.7797 32.6201 14.6897 34.5301 14.6897 36.8701C14.6897 39.2101 12.7897 41.1201 10.4397 41.1201ZM10.4397 35.6101C9.74968 35.6101 9.17969 36.1701 9.17969 36.8601C9.17969 37.5501 9.73968 38.1101 10.4397 38.1101C11.1297 38.1101 11.6897 37.5501 11.6897 36.8601C11.6897 36.1701 11.1297 35.6101 10.4397 35.6101Z" fill="#473B3E"/>
<path d="M51.1604 11.8509L2.53711 29.2725L4.91507 35.9093L53.5384 18.4878L51.1604 11.8509Z" fill="#B0EADE"/>
<path d="M4.91942 37.4098C4.29942 37.4098 3.72942 37.0298 3.50942 36.4198L1.12942 29.7798C0.999423 29.4098 1.01942 28.9898 1.18942 28.6298C1.35942 28.2698 1.66943 27.9898 2.03943 27.8598L50.6594 10.4398C51.4394 10.1598 52.2994 10.5598 52.5794 11.3498L54.9594 17.9898C55.0894 18.3598 55.0694 18.7798 54.8994 19.1398C54.7294 19.4998 54.4194 19.7798 54.0494 19.9098L5.42943 37.3298C5.25943 37.3798 5.08942 37.4098 4.91942 37.4098ZM4.45942 30.1698L5.82942 33.9898L51.6294 17.5798L50.2594 13.7597L4.45942 30.1698Z" fill="#473B3E"/>
<path d="M57.3103 31.1896C59.9603 30.2296 59.6803 24.1396 59.1603 21.3696C58.1903 16.1296 53.4703 2.73961 53.4703 2.73961C53.1303 1.75961 52.0503 1.24963 51.0703 1.59963L43.3303 4.36962C42.3603 4.71962 41.8503 5.79961 42.2003 6.76961C42.2003 6.76961 47.0803 20.2196 49.6903 24.9096C51.0503 27.3696 54.6903 32.1396 57.3103 31.1896Z" fill="#B0EADE"/>
<path d="M56.5906 32.82C52.4206 32.82 48.5506 25.95 48.3806 25.66C45.7406 20.91 40.9906 7.84999 40.7906 7.29999C40.4806 6.44999 40.5306 5.52999 40.9106 4.70999C41.2906 3.88999 41.9706 3.27 42.8206 2.97L50.5606 0.199982C50.9306 0.0699817 51.3106 0 51.6906 0C53.1206 0 54.4006 0.9 54.8706 2.25C55.0606 2.8 59.6306 15.8 60.6206 21.1C60.7006 21.5 62.4006 30.94 57.8106 32.6C57.4306 32.75 57.0206 32.82 56.5906 32.82ZM51.7006 3C51.6606 3 51.6206 3.00999 51.5806 3.01999L43.8406 5.78998C43.7206 5.83998 43.6606 5.92998 43.6306 5.97998C43.6006 6.03998 43.5706 6.14999 43.6206 6.26999C43.6706 6.39999 48.4906 19.66 51.0106 24.2C52.4906 26.85 55.1906 29.82 56.6006 29.82C56.6806 29.82 56.7406 29.81 56.8106 29.79C57.9206 29.39 58.3706 25.28 57.6906 21.65C56.7506 16.58 52.1106 3.38 52.0606 3.25C52.0006 3.07 51.8406 3 51.7006 3Z" fill="#473B3E"/>
<path d="M56.2997 28.8996C56.2397 28.8996 56.1697 28.8896 56.1097 28.8596C55.8597 28.7496 55.7297 28.4596 55.8397 28.2096C56.2397 27.2296 56.3797 24.4296 55.9197 21.9796C55.1797 17.9696 52.0297 8.65962 50.8297 5.19962L47.9497 6.22962C47.6897 6.31962 47.3997 6.18963 47.3097 5.92963C47.2197 5.66963 47.3497 5.37962 47.6097 5.28962L50.9697 4.08964C51.0997 4.03964 51.2297 4.04962 51.3497 4.10962C51.4697 4.16962 51.5597 4.26963 51.6097 4.39963C52.6497 7.39963 56.1097 17.5296 56.8997 21.8096C57.3597 24.2696 57.2897 27.3196 56.7597 28.6096C56.6797 28.7796 56.4997 28.8996 56.2997 28.8996Z" fill="#473B3E"/>
</svg>
