<svg width="20" height="20" viewBox="0 0 20 20" fill="none" xmlns="http://www.w3.org/2000/svg">
<path fill-rule="evenodd" clip-rule="evenodd" d="M2.91699 9.79199C2.91699 5.99503 5.99503 2.91699 9.79199 2.91699C13.589 2.91699 16.667 5.99503 16.667 9.79199C16.667 13.589 13.589 16.667 9.79199 16.667C5.99503 16.667 2.91699 13.589 2.91699 9.79199ZM9.79199 1.66699C5.30468 1.66699 1.66699 5.30468 1.66699 9.79199C1.66699 14.2793 5.30468 17.917 9.79199 17.917C11.8107 17.917 13.6574 17.1808 15.0784 15.9623L17.6834 18.5673C17.9275 18.8113 18.3232 18.8113 18.5673 18.5673C18.8113 18.3232 18.8113 17.9275 18.5673 17.6834L15.9623 15.0784C17.1808 13.6574 17.917 11.8107 17.917 9.79199C17.917 5.30468 14.2793 1.66699 9.79199 1.66699Z" fill="#7D7D7D"/>
</svg>
