<svg width="127" height="153" viewBox="0 0 127 153" fill="none" xmlns="http://www.w3.org/2000/svg">
<g clip-path="url(#clip0_2044_5181)">
<path d="M63.4628 152.321C96.8533 152.321 123.922 125.253 123.922 91.8622C123.922 58.4717 96.8533 31.4033 63.4628 31.4033C30.0723 31.4033 3.00391 58.4717 3.00391 91.8622C3.00391 125.253 30.0723 152.321 63.4628 152.321Z" fill="white"/>
<path d="M108.371 144.368H0.794922" stroke="#333652" stroke-width="1.59045" stroke-linecap="round" stroke-linejoin="round"/>
<path d="M126.133 144.368H112.879" stroke="#333652" stroke-width="1.59045" stroke-linecap="round" stroke-linejoin="round"/>
<path d="M84.4703 137.373H74.9336V144.27H84.4703V137.373Z" fill="#34B5B0"/>
<path d="M74.9319 137.373H65.9121V144.27H74.9319V137.373Z" fill="#C9C9C9"/>
<path d="M77.0867 59.749H74.9336V137.774H80.9276L77.0867 59.749Z" fill="white"/>
<path d="M73.294 59.749L69.4551 137.774H74.9322V59.749H73.294Z" fill="#C5DDEF"/>
<path d="M78.5374 45.0078H71.1577C69.2077 45.0078 67.627 46.5886 67.627 48.5386V55.9183C67.627 57.8683 69.2077 59.4491 71.1577 59.4491H78.5374C80.4874 59.4491 82.0682 57.8683 82.0682 55.9183V48.5386C82.0682 46.5886 80.4874 45.0078 78.5374 45.0078Z" fill="#34B5B0"/>
<path d="M69.3633 55.9163V48.5386C69.3638 47.602 69.7362 46.7039 70.3987 46.0418C71.0611 45.3797 71.9594 45.0078 72.896 45.0078H74.8841" stroke="#333652" stroke-width="1.59045" stroke-linecap="round" stroke-linejoin="round"/>
<path d="M77.8185 45.0078H80.2738C80.7374 45.0078 81.1965 45.0991 81.6249 45.2766C82.0533 45.454 82.4425 45.7141 82.7704 46.0419C83.0982 46.3698 83.3584 46.759 83.5358 47.1874C83.7132 47.6158 83.8045 48.0749 83.8045 48.5386V55.9163C83.8045 56.3799 83.7132 56.8391 83.5358 57.2675C83.3584 57.6959 83.0982 58.0851 82.7704 58.4129C82.4425 58.7408 82.0533 59.0009 81.6249 59.1783C81.1965 59.3558 80.7374 59.4471 80.2738 59.4471H72.896C72.0477 59.4483 71.2275 59.1433 70.5859 58.5882" stroke="#333652" stroke-width="1.59045" stroke-linecap="round" stroke-linejoin="round"/>
<path d="M77.8181 52.228V0.794923C77.0272 0.79425 76.2616 1.07328 75.6566 1.58262C75.0515 2.09196 74.6461 2.7988 74.512 3.57821L68.9851 36.0214C68.9027 36.5054 68.9275 37.0015 69.0577 37.4748C69.1878 37.9482 69.4203 38.3872 69.7386 38.7609L74.3887 44.2122C74.9036 44.8198 75.1855 45.5907 75.1839 46.3871V52.2221L77.8181 52.228Z" fill="#C5DDEF"/>
<path d="M75.9701 51.1562L31.4375 76.8738C31.8332 77.5592 32.4586 78.0825 33.2031 78.351C33.9475 78.6195 34.763 78.616 35.5051 78.341L66.3657 66.9057C66.8248 66.7345 67.2407 66.4648 67.5842 66.1155C67.9277 65.7661 68.1904 65.3457 68.3538 64.8838L70.7514 58.1244C71.0166 57.3702 71.5426 56.7356 72.2345 56.3352L77.2861 53.4186L75.9701 51.1562Z" fill="#C5DDEF"/>
<path d="M75.9673 53.296L120.5 79.0116C120.895 78.3261 121.035 77.5228 120.896 76.7438C120.756 75.9649 120.345 75.2605 119.736 74.7551L94.4125 53.7413C94.0346 53.428 93.5925 53.2014 93.1173 53.0777C92.6422 52.9541 92.1458 52.9363 91.663 53.0256L84.6174 54.3258C83.8329 54.4699 83.0227 54.3289 82.3331 53.9282L75.9395 51.0117L75.9673 53.296Z" fill="#C5DDEF"/>
<path d="M77.8181 52.228V0.794922C77.0273 0.794645 76.2619 1.07379 75.657 1.58306C75.0521 2.09233 74.6465 2.79897 74.512 3.57821L68.9851 36.0214C68.9027 36.5054 68.9275 37.0015 69.0577 37.4748C69.1878 37.9482 69.4203 38.3872 69.7386 38.7609L74.3887 44.2122C74.9036 44.8198 75.1855 45.5907 75.1839 46.3871V52.2221L77.8181 52.228Z" stroke="#333652" stroke-width="1.59045" stroke-linecap="round" stroke-linejoin="round"/>
<path d="M75.9701 51.1562L31.4375 76.8738C31.8332 77.5592 32.4586 78.0825 33.2031 78.351C33.9475 78.6195 34.763 78.616 35.5051 78.341L66.3657 66.9057C66.8248 66.7345 67.2407 66.4648 67.5842 66.1155C67.9277 65.7661 68.1904 65.3457 68.3538 64.8838L70.7514 58.1244C71.0172 57.3706 71.543 56.7362 72.2345 56.3352L77.2861 53.4186L75.9701 51.1562Z" stroke="#333652" stroke-width="1.59045" stroke-linecap="round" stroke-linejoin="round"/>
<path d="M75.9688 53.296L120.501 79.0116C120.897 78.3261 121.037 77.5228 120.897 76.7438C120.757 75.9649 120.347 75.2605 119.738 74.7551L94.414 53.7413C94.0361 53.428 93.5939 53.2014 93.1188 53.0777C92.6437 52.9541 92.1472 52.9363 91.6645 53.0256L84.6188 54.3258C83.8343 54.4699 83.0242 54.3289 82.3345 53.9282L77.2828 51.0117L75.9688 53.296Z" stroke="#333652" stroke-width="1.59045" stroke-linecap="round" stroke-linejoin="round"/>
<path d="M80.3075 53.083C80.7946 51.0196 79.5166 48.9519 77.4531 48.4649C75.3896 47.9779 73.322 49.2559 72.835 51.3194C72.3479 53.3829 73.6259 55.4505 75.6894 55.9375C77.7529 56.4245 79.8205 55.1465 80.3075 53.083Z" fill="white"/>
<path d="M85.8612 137.473H67.3047V144.369H85.8612V137.473Z" stroke="#333652" stroke-width="1.59045" stroke-linecap="round" stroke-linejoin="round"/>
<path d="M78.4778 59.4463H74.6886L70.8477 137.474H82.3188L78.4778 59.4463Z" stroke="#333652" stroke-width="1.59045" stroke-linecap="round" stroke-linejoin="round"/>
<path d="M80.3056 53.083C80.7926 51.0196 79.5146 48.9519 77.4511 48.4649C75.3876 47.9779 73.32 49.2559 72.833 51.3194C72.346 53.3829 73.6239 55.4505 75.6874 55.9375C77.7509 56.4245 79.8185 55.1465 80.3056 53.083Z" fill="white"/>
<path d="M80.3075 53.083C80.7946 51.0196 79.5166 48.9519 77.4531 48.4649C75.3896 47.9779 73.322 49.2559 72.835 51.3194C72.3479 53.3829 73.6259 55.4505 75.6894 55.9375C77.7529 56.4245 79.8205 55.1465 80.3075 53.083Z" stroke="#333652" stroke-width="1.59045" stroke-linecap="round" stroke-linejoin="round"/>
<path d="M51.8883 144.369H40.8109L36.2363 133.371H47.3138L51.8883 144.369Z" fill="#C9C9C9"/>
<path d="M44.4238 144.369H55.5013L60.0758 133.371H48.9984L44.4238 144.369Z" fill="#34B5B0"/>
<path d="M60.7873 85.7148H15.3164C14.72 85.7148 14.3641 86.2039 14.5351 86.8063L27.4396 132.269C27.5337 132.573 27.7184 132.84 27.9689 133.036C28.2195 133.231 28.5239 133.345 28.8412 133.363H74.3121C74.9085 133.363 75.2664 132.874 75.0954 132.269L62.1909 86.7983C62.0945 86.4966 61.9086 86.2314 61.6579 86.0379C61.4072 85.8444 61.1036 85.7317 60.7873 85.7148Z" fill="#90ADC6"/>
<path d="M60.7873 85.7148H15.3164C14.72 85.7148 14.3641 86.2039 14.5351 86.8063L27.4396 132.269C27.5337 132.573 27.7184 132.84 27.9689 133.036C28.2195 133.231 28.5239 133.345 28.8412 133.363H74.3121C74.9085 133.363 75.2664 132.874 75.0954 132.269L62.1909 86.7983C62.0945 86.4966 61.9086 86.2314 61.6579 86.0379C61.4072 85.8444 61.1036 85.7317 60.7873 85.7148Z" stroke="#333652" stroke-width="1.59045" stroke-linecap="round" stroke-linejoin="round"/>
<path d="M62.2346 83.3398H16.7557C16.1593 83.3398 15.8015 83.829 15.9725 84.4313L28.8829 129.902C28.9774 130.206 29.1625 130.473 29.4134 130.669C29.6643 130.864 29.9689 130.978 30.2865 130.996H75.7574C76.3538 130.996 76.7097 130.507 76.5387 129.902L63.6342 84.4313C63.5399 84.1285 63.3553 83.8617 63.1052 83.6666C62.8551 83.4715 62.5513 83.3575 62.2346 83.3398Z" fill="white"/>
<path d="M60.4751 85.9639H20.014C19.4773 85.9639 19.1651 86.3992 19.3182 86.936L30.7993 127.397C30.884 127.667 31.0489 127.904 31.2719 128.078C31.495 128.251 31.7656 128.353 32.0478 128.369H72.5088C73.0456 128.369 73.3577 127.934 73.2046 127.397L61.7216 86.942C61.638 86.6715 61.4738 86.433 61.2511 86.2582C61.0284 86.0834 60.7577 85.9808 60.4751 85.9639Z" fill="url(#paint0_linear_2044_5181)"/>
<path d="M32.1661 96.1539H23.852L21.4922 87.8398H29.8063L32.1661 96.1539Z" fill="#50768E"/>
<path d="M42.2794 96.1539H33.9633L31.6055 87.8398H39.9195L42.2794 96.1539Z" fill="#50768E"/>
<path d="M52.3907 96.1539H44.0766L41.7168 87.8398H50.0309L52.3907 96.1539Z" fill="#50768E"/>
<path d="M62.5059 96.1539H54.1919L51.832 87.8398H60.1461L62.5059 96.1539Z" fill="#50768E"/>
<path d="M35.0372 106.268H26.7212L24.3613 97.9541H32.6774L35.0372 106.268Z" fill="#50768E"/>
<path d="M45.1505 106.268H36.8364L34.4766 97.9541H42.7906L45.1505 106.268Z" fill="#50768E"/>
<path d="M55.2618 106.268H46.9477L44.5879 97.9541H52.902L55.2618 106.268Z" fill="#50768E"/>
<path d="M65.3751 106.268H57.059L54.7012 97.9541H63.0152L65.3751 106.268Z" fill="#50768E"/>
<path d="M37.9083 116.379H29.5942L27.2344 108.065H35.5484L37.9083 116.379Z" fill="#50768E"/>
<path d="M48.0176 116.379H39.7036L37.3438 108.065H45.6578L48.0176 116.379Z" fill="#50768E"/>
<path d="M58.1309 116.379H49.8169L47.457 108.065H55.7731L58.1309 116.379Z" fill="#50768E"/>
<path d="M68.2442 116.379H59.9301L57.5703 108.065H65.8844L68.2442 116.379Z" fill="#50768E"/>
<path d="M40.7774 126.493H32.4614L30.1016 118.179H38.4176L40.7774 126.493Z" fill="#50768E"/>
<path d="M50.8887 126.493H42.5747L40.2148 118.179H48.5289L50.8887 126.493Z" fill="#50768E"/>
<path d="M61.002 126.493H52.688L50.3281 118.179H58.6422L61.002 126.493Z" fill="#50768E"/>
<path d="M71.1153 126.493H62.8012L60.4414 118.179H68.7555L71.1153 126.493Z" fill="#50768E"/>
<path d="M62.2346 83.3398H16.7557C16.1593 83.3398 15.8015 83.829 15.9725 84.4313L28.8829 129.902C28.9774 130.206 29.1625 130.473 29.4134 130.669C29.6643 130.864 29.9689 130.978 30.2865 130.996H75.7574C76.3538 130.996 76.7097 130.507 76.5387 129.902L63.6342 84.4313C63.5399 84.1285 63.3553 83.8617 63.1052 83.6666C62.8551 83.4715 62.5513 83.3575 62.2346 83.3398V83.3398Z" stroke="#333652" stroke-width="1.59045" stroke-linecap="round" stroke-linejoin="round"/>
<path d="M46.123 144.369H57.2005L61.775 133.371H50.6976L46.123 144.369Z" stroke="#333652" stroke-width="1.59045" stroke-linecap="round" stroke-linejoin="round"/>
<path d="M13.6484 58.3508C15.5824 58.8712 17.3458 59.8905 18.762 61.3067C20.1782 62.7229 21.1975 64.4863 21.718 66.4203C22.2388 64.4862 23.2585 62.7227 24.675 61.3065C26.0916 59.8904 27.8553 58.8711 29.7895 58.3508C27.8553 57.8304 26.0916 56.8112 24.675 55.395C23.2585 53.9788 22.2388 52.2154 21.718 50.2812C21.1975 52.2153 20.1782 53.9786 18.762 55.3948C17.3458 56.811 15.5824 57.8303 13.6484 58.3508Z" fill="white"/>
<path d="M32.0781 53.397C33.324 53.7315 34.4599 54.3877 35.372 55.2999C36.2841 56.212 36.9404 57.3479 37.2749 58.5937C37.6094 57.3479 38.2656 56.212 39.1778 55.2999C40.0899 54.3877 41.2259 53.7315 42.4717 53.397C41.2261 53.0627 40.0903 52.4067 39.1782 51.495C38.266 50.5832 37.6097 49.4476 37.2749 48.2021C36.9401 49.4476 36.2837 50.5832 35.3716 51.495C34.4595 52.4067 33.3237 53.0627 32.0781 53.397Z" fill="white"/>
<path d="M11.9961 58.3508C13.9301 58.8712 15.6934 59.8905 17.1096 61.3067C18.5258 62.7229 19.5452 64.4863 20.0656 66.4203V66.4203C20.5864 64.4865 21.6059 62.7233 23.022 61.3072C24.4382 59.891 26.2013 58.8716 28.1352 58.3508V58.3508C26.2013 57.8299 24.4382 56.8105 23.022 55.3943C21.6059 53.9782 20.5864 52.2151 20.0656 50.2812C19.5452 52.2153 18.5258 53.9786 17.1096 55.3948C15.6934 56.811 13.9301 57.8303 11.9961 58.3508Z" stroke="#333652" stroke-width="1.59045" stroke-linecap="round" stroke-linejoin="round"/>
<path d="M30.4238 53.397C31.6697 53.7315 32.8056 54.3877 33.7178 55.2999C34.6299 56.212 35.2861 57.3479 35.6206 58.5937V58.5937C35.9551 57.3479 36.6113 56.212 37.5235 55.2999C38.4356 54.3877 39.5716 53.7315 40.8174 53.397V53.397C39.5718 53.0627 38.436 52.4067 37.5239 51.495C36.6118 50.5832 35.9554 49.4476 35.6206 48.2021V48.2021C35.2858 49.4476 34.6294 50.5832 33.7173 51.495C32.8052 52.4067 31.6694 53.0627 30.4238 53.397V53.397Z" stroke="#333652" stroke-width="1.59045" stroke-linecap="round" stroke-linejoin="round"/>
</g>
<defs>
<linearGradient id="paint0_linear_2044_5181" x1="36.1871" y1="123.276" x2="53.1816" y2="99.4176" gradientUnits="userSpaceOnUse">
<stop stop-color="#90ADC6"/>
<stop offset="1" stop-color="#BED5E5"/>
</linearGradient>
<clipPath id="clip0_2044_5181">
<rect width="126.928" height="152.321" fill="white"/>
</clipPath>
</defs>
</svg>
