<svg width="127" height="121" viewBox="0 0 127 121" fill="none" xmlns="http://www.w3.org/2000/svg">
<g clip-path="url(#clip0_2044_5744)">
<path d="M63.4628 120.918C96.8533 120.918 123.922 93.8494 123.922 60.4589C123.922 27.0684 96.8533 0 63.4628 0C30.0723 0 3.00391 27.0684 3.00391 60.4589C3.00391 93.8494 30.0723 120.918 63.4628 120.918Z" fill="white"/>
<path d="M78.4637 41.4316C78.4637 41.4316 48.4142 59.5906 15.8398 41.4316" stroke="#90ADC6" stroke-width="1.59045" stroke-linecap="round" stroke-linejoin="round"/>
<path d="M126.132 112.965H0.794922" stroke="#333652" stroke-width="1.59045" stroke-linecap="round" stroke-linejoin="round"/>
<path d="M20.7959 106.88L41.0841 82.3259L25.0046 64.1232L37.5413 46.3221L27.8058 35.6621" stroke="#333652" stroke-width="1.59045" stroke-linecap="round" stroke-linejoin="round"/>
<path d="M43.502 106.88L23.2139 82.3259L39.2933 64.1232L26.7566 46.3221L36.4921 35.6621" stroke="#333652" stroke-width="1.59045" stroke-linecap="round" stroke-linejoin="round"/>
<path d="M20.7959 106.881L28.6269 27.3164H35.6686L43.5015 106.881" stroke="#333652" stroke-width="1.59045" stroke-linecap="round" stroke-linejoin="round"/>
<path d="M48.464 39.3969V31.9238H15.834V39.3969" stroke="#333652" stroke-width="1.59045" stroke-linecap="round" stroke-linejoin="round"/>
<path d="M83.4248 106.88L103.713 82.3259L87.6335 64.1232L100.168 46.3221L90.4347 35.6621" stroke="#333652" stroke-width="1.59045" stroke-linecap="round" stroke-linejoin="round"/>
<path d="M106.131 106.88L85.8428 82.3259L101.922 64.1232L89.3855 46.3221L99.119 35.6621" stroke="#333652" stroke-width="1.59045" stroke-linecap="round" stroke-linejoin="round"/>
<path d="M83.4248 106.881L91.2558 27.3164H98.2975L106.13 106.881" stroke="#333652" stroke-width="1.59045" stroke-linecap="round" stroke-linejoin="round"/>
<path d="M111.093 39.3969V31.9238H78.4629V39.3969" stroke="#333652" stroke-width="1.59045" stroke-linecap="round" stroke-linejoin="round"/>
<path d="M63.7431 71.2705H50.598C49.4199 71.2705 48.4648 72.2256 48.4648 73.4037V86.9046C48.4648 88.0827 49.4199 89.0378 50.598 89.0378H63.7431C64.9212 89.0378 65.8763 88.0827 65.8763 86.9046V73.4037C65.8763 72.2256 64.9212 71.2705 63.7431 71.2705Z" fill="#34B5B0"/>
<path d="M63.7431 71.2705H50.598C49.4199 71.2705 48.4648 72.2256 48.4648 73.4037V86.9046C48.4648 88.0827 49.4199 89.0378 50.598 89.0378H63.7431C64.9212 89.0378 65.8763 88.0827 65.8763 86.9046V73.4037C65.8763 72.2256 64.9212 71.2705 63.7431 71.2705Z" stroke="#333652" stroke-width="1.59045" stroke-linecap="round" stroke-linejoin="round"/>
<path d="M62.165 74.7109V85.5956" stroke="#333652" stroke-width="1.59045" stroke-linecap="round" stroke-linejoin="round"/>
<path d="M52.1738 74.7109V85.5956" stroke="#333652" stroke-width="1.59045" stroke-linecap="round" stroke-linejoin="round"/>
<path d="M55.5049 74.7109V85.5956" stroke="#333652" stroke-width="1.59045" stroke-linecap="round" stroke-linejoin="round"/>
<path d="M58.834 74.7109V85.5956" stroke="#333652" stroke-width="1.59045" stroke-linecap="round" stroke-linejoin="round"/>
<path d="M63.7431 89.0361H50.598C49.4199 89.0361 48.4648 89.9912 48.4648 91.1693V104.67C48.4648 105.848 49.4199 106.803 50.598 106.803H63.7431C64.9212 106.803 65.8763 105.848 65.8763 104.67V91.1693C65.8763 89.9912 64.9212 89.0361 63.7431 89.0361Z" fill="#34B5B0"/>
<path d="M63.7431 89.0361H50.598C49.4199 89.0361 48.4648 89.9912 48.4648 91.1693V104.67C48.4648 105.848 49.4199 106.803 50.598 106.803H63.7431C64.9212 106.803 65.8763 105.848 65.8763 104.67V91.1693C65.8763 89.9912 64.9212 89.0361 63.7431 89.0361Z" stroke="#333652" stroke-width="1.59045" stroke-linecap="round" stroke-linejoin="round"/>
<path d="M62.165 92.4785V103.363" stroke="#333652" stroke-width="1.59045" stroke-linecap="round" stroke-linejoin="round"/>
<path d="M52.1738 92.4785V103.363" stroke="#333652" stroke-width="1.59045" stroke-linecap="round" stroke-linejoin="round"/>
<path d="M55.5049 92.4785V103.363" stroke="#333652" stroke-width="1.59045" stroke-linecap="round" stroke-linejoin="round"/>
<path d="M58.834 92.4785V103.363" stroke="#333652" stroke-width="1.59045" stroke-linecap="round" stroke-linejoin="round"/>
<path d="M112.471 106.881H14.458V112.966H112.471V106.881Z" fill="#BED5E5"/>
<path d="M112.471 106.881H14.458V112.966H112.471V106.881Z" stroke="#333652" stroke-width="1.59045" stroke-linecap="round" stroke-linejoin="round"/>
<path d="M111.09 41.4316C111.09 41.4316 81.0422 59.5906 48.4658 41.4316" stroke="#90ADC6" stroke-width="1.59045" stroke-linecap="round" stroke-linejoin="round"/>
<path d="M53.8281 22.6477C55.7621 23.1681 57.5255 24.1875 58.9417 25.6037C60.3579 27.0199 61.3772 28.7832 61.8977 30.7172C62.4185 28.7831 63.4382 27.0197 64.8547 25.6035C66.2712 24.1873 68.0349 23.168 69.9692 22.6477C68.0348 22.1268 66.2712 21.1071 64.8547 19.6906C63.4382 18.2741 62.4185 16.5105 61.8977 14.5762C61.3773 16.5104 60.3581 18.2741 58.9419 19.6907C57.5257 21.1072 55.7623 22.1269 53.8281 22.6477Z" fill="white"/>
<path d="M72.2559 17.6958C73.5017 18.0303 74.6377 18.6866 75.5498 19.5987C76.4619 20.5108 77.1182 21.6468 77.4527 22.8926C77.7871 21.6468 78.4434 20.5108 79.3555 19.5987C80.2676 18.6866 81.4036 18.0303 82.6494 17.6958C81.4034 17.3612 80.2672 16.7046 79.3551 15.7921C78.4429 14.8796 77.7868 13.7433 77.4527 12.4971C77.1185 13.7433 76.4624 14.8796 75.5502 15.7921C74.6381 16.7046 73.5019 17.3612 72.2559 17.6958Z" fill="white"/>
<path d="M52.1738 22.6477C54.1076 23.1685 55.8708 24.188 57.287 25.6041C58.7031 27.0202 59.7226 28.7834 60.2434 30.7172V30.7172C60.7638 28.7832 61.7832 27.0199 63.1994 25.6037C64.6156 24.1875 66.3789 23.1681 68.3129 22.6477V22.6477C66.3788 22.1269 64.6153 21.1072 63.1991 19.6907C61.783 18.2741 60.7637 16.5104 60.2434 14.5762V14.5762C59.7227 16.5103 58.7033 18.2737 57.2872 19.6902C55.871 21.1067 54.1078 22.1265 52.1738 22.6477V22.6477Z" stroke="#333652" stroke-width="1.59045" stroke-linecap="round" stroke-linejoin="round"/>
<path d="M70.6035 17.6958C71.8493 18.0303 72.9853 18.6866 73.8974 19.5987C74.8096 20.5108 75.4658 21.6468 75.8003 22.8926V22.8926C76.1346 21.647 76.7905 20.5112 77.7023 19.5991C78.6141 18.687 79.7496 18.0306 80.9951 17.6958V17.6958C79.7494 17.3609 78.6137 16.7042 77.7019 15.7917C76.7901 14.8792 76.1343 13.743 75.8003 12.4971V12.4971C75.4661 13.7433 74.81 14.8796 73.8979 15.7921C72.9857 16.7046 71.8496 17.3612 70.6035 17.6958V17.6958Z" stroke="#333652" stroke-width="1.59045" stroke-linecap="round" stroke-linejoin="round"/>
</g>
<defs>
<clipPath id="clip0_2044_5744">
<rect width="126.928" height="120.916" fill="white"/>
</clipPath>
</defs>
</svg>
