<svg width="102" height="82" viewBox="0 0 102 82" fill="none" xmlns="http://www.w3.org/2000/svg">
<path d="M62.8446 24.0391C62.8446 24.0391 38.9173 38.4984 12.9795 24.0391" stroke="#27343A" stroke-linecap="round" stroke-linejoin="round"/>
<path d="M100.801 80.999H1" stroke="#27343A" stroke-linecap="round" stroke-linejoin="round"/>
<path d="M16.9258 76.1538L33.0805 56.602L20.277 42.1078L30.2596 27.9335L22.5075 19.4453" stroke="#27343A" stroke-linecap="round" stroke-linejoin="round"/>
<path d="M35.0063 76.1538L18.8516 56.602L31.655 42.1078L21.6725 27.9335L29.4246 19.4453" stroke="#27343A" stroke-linecap="round" stroke-linejoin="round"/>
<path d="M16.9258 76.1539L23.1613 12.7998H28.7684L35.0055 76.1539" stroke="#27343A" stroke-linecap="round" stroke-linejoin="round"/>
<path d="M38.9567 22.4193V16.4688H12.9746V22.4193" stroke="#27343A" stroke-linecap="round" stroke-linejoin="round"/>
<path d="M66.7949 76.1538L82.9496 56.602L70.1462 42.1078L80.1271 27.9335L72.3767 19.4453" stroke="#27343A" stroke-linecap="round" stroke-linejoin="round"/>
<path d="M84.8754 76.1538L68.7207 56.602L81.5242 42.1078L71.5416 27.9335L79.2921 19.4453" stroke="#27343A" stroke-linecap="round" stroke-linejoin="round"/>
<path d="M66.7949 76.1539L73.0304 12.7998H78.6375L84.8746 76.1539" stroke="#27343A" stroke-linecap="round" stroke-linejoin="round"/>
<path d="M88.8259 22.4193V16.4688H62.8438V22.4193" stroke="#27343A" stroke-linecap="round" stroke-linejoin="round"/>
<path d="M51.1235 47.7988H40.6566C39.7185 47.7988 38.958 48.5593 38.958 49.4974V60.2477C38.958 61.1858 39.7185 61.9463 40.6566 61.9463H51.1235C52.0616 61.9463 52.8221 61.1858 52.8221 60.2477V49.4974C52.8221 48.5593 52.0616 47.7988 51.1235 47.7988Z" stroke="#27343A" stroke-linecap="round" stroke-linejoin="round"/>
<path d="M49.8672 50.5391V59.2061" stroke="#27343A" stroke-linecap="round" stroke-linejoin="round"/>
<path d="M41.9111 50.5391V59.2061" stroke="#27343A" stroke-linecap="round" stroke-linejoin="round"/>
<path d="M44.5635 50.5391V59.2061" stroke="#27343A" stroke-linecap="round" stroke-linejoin="round"/>
<path d="M47.2148 50.5391V59.2061" stroke="#27343A" stroke-linecap="round" stroke-linejoin="round"/>
<path d="M51.1235 61.9453H40.6566C39.7185 61.9453 38.958 62.7058 38.958 63.6439V74.3942C38.958 75.3323 39.7185 76.0928 40.6566 76.0928H51.1235C52.0616 76.0928 52.8221 75.3323 52.8221 74.3942V63.6439C52.8221 62.7058 52.0616 61.9453 51.1235 61.9453Z" stroke="#27343A" stroke-linecap="round" stroke-linejoin="round"/>
<path d="M49.8672 64.6865V73.3536" stroke="#27343A" stroke-linecap="round" stroke-linejoin="round"/>
<path d="M41.9111 64.6865V73.3536" stroke="#27343A" stroke-linecap="round" stroke-linejoin="round"/>
<path d="M44.5635 64.6865V73.3536" stroke="#27343A" stroke-linecap="round" stroke-linejoin="round"/>
<path d="M47.2148 64.6865V73.3536" stroke="#27343A" stroke-linecap="round" stroke-linejoin="round"/>
<path d="M89.9243 76.1543H11.8799V80.9999H89.9243V76.1543Z" stroke="#27343A" stroke-linecap="round" stroke-linejoin="round"/>
<path d="M88.8241 24.0391C88.8241 24.0391 64.8984 38.4984 38.959 24.0391" stroke="#27343A" stroke-linecap="round" stroke-linejoin="round"/>
<path d="M41.9111 9.08233C43.451 9.49703 44.8549 10.3088 45.9825 11.4364C47.1102 12.564 47.9219 13.968 48.3366 15.5078V15.5078C48.751 13.9678 49.5627 12.5637 50.6904 11.4361C51.818 10.3084 53.2221 9.49674 54.7621 9.08233V9.08233C53.222 8.66764 51.8178 7.85569 50.6902 6.72776C49.5625 5.59982 48.7509 4.19547 48.3366 2.65527V2.65527C47.922 4.19532 47.1103 5.59952 45.9827 6.72741C44.8551 7.8553 43.4511 8.66735 41.9111 9.08233V9.08233Z" stroke="#27343A" stroke-linecap="round" stroke-linejoin="round"/>
<path d="M56.5859 5.1396C57.5779 5.40594 58.4825 5.92848 59.2088 6.65478C59.9351 7.38107 60.4576 8.2856 60.724 9.27761V9.27761C60.9902 8.28579 61.5124 7.3814 62.2385 6.65511C62.9645 5.92883 63.8687 5.40619 64.8604 5.1396V5.1396C63.8685 4.87287 62.9641 4.34999 62.2381 3.62341C61.5121 2.89684 60.9899 1.99211 60.724 1V1C60.4579 1.9923 59.9354 2.89715 59.2091 3.62375C58.4828 4.35034 57.5781 4.87311 56.5859 5.1396V5.1396Z" stroke="#27343A" stroke-linecap="round" stroke-linejoin="round"/>
</svg>
