<svg width="127" height="121" viewBox="0 0 127 121" fill="none" xmlns="http://www.w3.org/2000/svg">
<g clip-path="url(#clip0_2044_5247)">
<path d="M63.4628 120.918C96.8533 120.918 123.922 93.8494 123.922 60.4589C123.922 27.0684 96.8533 0 63.4628 0C30.0723 0 3.00391 27.0684 3.00391 60.4589C3.00391 93.8494 30.0723 120.918 63.4628 120.918Z" fill="white"/>
<path d="M1.30859 104.055C1.30859 104.055 4.67637 98.488 17.7002 100.106C30.7239 101.725 36.1116 107.42 57.6602 101.035C65.2943 99.4085 76.1491 98.6709 86.4373 102.989V112.387H1.30859V104.055Z" fill="#BED5E5"/>
<path d="M1.306 104.925C1.16732 104.923 1.03154 104.885 0.912142 104.814C0.792742 104.744 0.693867 104.643 0.625339 104.523C0.556811 104.402 0.521011 104.266 0.521489 104.127C0.521967 103.988 0.558712 103.852 0.628069 103.732C0.775186 103.487 4.41731 97.7379 17.797 99.4079C21.3635 99.8532 24.3576 100.601 27.2482 101.314C35.1189 103.271 41.9181 104.961 57.4389 100.362L57.5005 100.348C64.91 98.7697 75.9994 97.8353 86.7508 102.336C86.8472 102.377 86.9346 102.436 87.0082 102.51C87.0818 102.584 87.14 102.672 87.1796 102.768C87.2192 102.865 87.2394 102.968 87.239 103.073C87.2386 103.177 87.2176 103.281 87.1773 103.377C87.1369 103.473 87.078 103.561 87.0039 103.634C86.9298 103.708 86.8419 103.766 86.7452 103.806C86.6486 103.845 86.5451 103.866 86.4406 103.865C86.3362 103.865 86.2329 103.844 86.1365 103.803C75.7787 99.4596 65.0492 100.362 57.8623 101.889C41.9459 106.599 34.6199 104.778 26.8645 102.849C24.0176 102.143 21.0733 101.41 17.6001 100.976C5.34971 99.4476 2.01772 104.501 1.98392 104.555C1.91164 104.669 1.81147 104.763 1.69286 104.828C1.57425 104.892 1.44111 104.926 1.306 104.925Z" fill="#333652"/>
<path d="M1.306 108.101C1.16732 108.099 1.03154 108.061 0.912142 107.99C0.792742 107.919 0.693867 107.819 0.625339 107.698C0.556811 107.578 0.521011 107.441 0.521489 107.303C0.521967 107.164 0.558712 107.028 0.628069 106.908C0.775186 106.663 4.41731 100.912 17.797 102.584C21.3635 103.029 24.3576 103.776 27.2482 104.49C35.1189 106.446 41.9181 108.136 57.4389 103.538L57.5005 103.524C64.91 101.945 75.9994 101.011 86.7508 105.512C86.8472 105.552 86.9346 105.611 87.0082 105.685C87.0818 105.76 87.14 105.847 87.1796 105.944C87.2192 106.041 87.2394 106.144 87.239 106.249C87.2386 106.353 87.2176 106.456 87.1773 106.553C87.1369 106.649 87.078 106.737 87.0039 106.81C86.9298 106.884 86.8419 106.942 86.7452 106.982C86.6486 107.021 86.5451 107.041 86.4406 107.041C86.3362 107.041 86.2329 107.02 86.1365 106.979C75.7787 102.635 65.0492 103.538 57.8623 105.065C41.9459 109.772 34.6279 107.943 26.8744 106.023C24.0275 105.317 21.0832 104.586 17.6101 104.15C5.35965 102.621 2.02766 107.675 1.99387 107.729C1.92094 107.845 1.81929 107.94 1.69878 108.005C1.57826 108.07 1.44297 108.103 1.306 108.101Z" fill="#333652"/>
<path d="M1.306 110.54C1.16732 110.538 1.03154 110.5 0.912142 110.429C0.792742 110.359 0.693867 110.258 0.625339 110.138C0.556811 110.017 0.521011 109.881 0.521489 109.742C0.521967 109.603 0.558712 109.467 0.628069 109.347C0.775186 109.101 4.41731 103.351 17.797 105.021C21.3635 105.466 24.3576 106.214 27.2482 106.93C35.1189 108.886 41.9181 110.576 57.4389 105.977L57.5005 105.962C64.91 104.383 75.9994 103.449 86.7508 107.95C86.8472 107.99 86.9346 108.049 87.0082 108.123C87.0818 108.197 87.14 108.285 87.1796 108.382C87.2192 108.478 87.2394 108.582 87.239 108.686C87.2386 108.791 87.2176 108.894 87.1773 108.99C87.1369 109.087 87.078 109.174 87.0039 109.248C86.9298 109.321 86.8419 109.379 86.7452 109.419C86.6486 109.459 86.5451 109.479 86.4406 109.478C86.3362 109.478 86.2329 109.457 86.1365 109.417C75.7787 105.071 65.0492 105.973 57.8623 107.5C41.9459 112.212 34.6199 110.391 26.8645 108.462C24.0176 107.755 21.0733 107.023 17.6001 106.59C5.34971 105.061 2.01772 110.115 1.98392 110.168C1.91188 110.283 1.81181 110.377 1.69318 110.442C1.57455 110.507 1.44129 110.541 1.306 110.54Z" fill="#333652"/>
<path d="M111.069 103.476H96.2383V112.963H111.069V103.476Z" fill="#34B5B0"/>
<path d="M96.2362 103.476H81.5742V112.963H96.2362V103.476Z" fill="#C9C9C9"/>
<path d="M102.622 7.63965L108.091 103.478H96.2383V7.63965H102.622Z" fill="white"/>
<path d="M90.0238 7.63965H96.2365V103.478H84.5547L90.0238 7.63965Z" fill="#BED5E5"/>
<path d="M103.009 15.9336L103.556 25.5141H96.1543V15.9336H103.009Z" fill="#34B5B0"/>
<path d="M89.4647 15.9336H96.1525V25.5141H88.918L89.4647 15.9336Z" fill="#C9C9C9"/>
<path d="M113.124 103.476H83.6289V112.963H113.124V103.476Z" stroke="#333652" stroke-width="1.59045" stroke-linecap="round" stroke-linejoin="round"/>
<path d="M92.0805 7.63965H104.677L110.146 103.478H86.6113L92.0805 7.63965Z" stroke="#333652" stroke-width="1.59045" stroke-linecap="round" stroke-linejoin="round"/>
<path d="M105.697 25.5141H91.0605L91.6073 15.9336H105.15L105.697 25.5141Z" stroke="#333652" stroke-width="1.59045" stroke-linecap="round" stroke-linejoin="round"/>
<path d="M126.134 112.964H0.796875" stroke="#333652" stroke-width="1.59045" stroke-linecap="round" stroke-linejoin="round"/>
<path d="M32.0992 52.3305C32.5011 50.2431 31.1349 48.2252 29.0476 47.8232C26.9602 47.4213 24.9423 48.7875 24.5403 50.8749C24.1383 52.9622 25.5046 54.9801 27.5919 55.3821C29.6793 55.7841 31.6972 54.4178 32.0992 52.3305Z" fill="#BED5E5"/>
<path d="M30.6651 51.0189C30.2012 51.0164 29.7393 51.08 29.2933 51.2077C29.1813 51.2388 29.0639 51.2449 28.9492 51.2256C28.8346 51.2063 28.7256 51.1621 28.6299 51.0962C28.5341 51.0302 28.4541 50.9441 28.3952 50.8438C28.3364 50.7436 28.3003 50.6316 28.2894 50.5159V50.506C28.0955 48.3443 27.1588 46.3167 25.6386 44.7677C24.1185 43.2188 22.1087 42.2443 19.9511 42.01C17.7935 41.7757 15.6213 42.296 13.8041 43.4825C11.9868 44.669 10.6367 46.4483 9.98331 48.5179C9.51872 48.4089 9.04304 48.3542 8.56582 48.3549C6.92392 48.3549 5.34925 49.0071 4.18825 50.1681C3.02725 51.3291 2.375 52.9038 2.375 54.5457C2.375 56.1876 3.02725 57.7623 4.18825 58.9233C5.34925 60.0843 6.92392 60.7365 8.56582 60.7365H30.6333C31.9059 60.7147 33.1193 60.1947 34.0129 59.2883C34.9065 58.3819 35.409 57.1612 35.4127 55.8883C35.4163 54.6155 34.9207 53.392 34.0324 52.4805C33.144 51.5689 31.9336 51.042 30.6611 51.0129L30.6651 51.0189Z" fill="white"/>
<path d="M8.1305 54.5517C8.1305 51.1322 10.4207 48.3609 13.2438 48.3609H13.2716C13.6028 48.363 13.9269 48.2645 14.2009 48.0785C14.4749 47.8925 14.6861 47.6277 14.8064 47.3191C15.874 44.6074 17.9873 42.6134 20.5102 42.0965C18.4959 41.7531 16.4247 42.076 14.6106 43.0164C12.7966 43.9568 11.3388 45.4632 10.4585 47.3072C10.3047 47.6299 10.0606 47.9011 9.75565 48.0878C9.45075 48.2744 9.09821 48.3686 8.74083 48.3589H8.56191C6.92 48.3589 5.34535 49.0111 4.18434 50.1721C3.02334 51.3331 2.37109 52.9078 2.37109 54.5497C2.37109 56.1916 3.02334 57.7663 4.18434 58.9273C5.34535 60.0883 6.92 60.7405 8.56191 60.7405H13.2438C10.4207 60.7425 8.1305 57.9711 8.1305 54.5517Z" fill="#BED5E5"/>
<path d="M28.6386 60.7432H30.239C35.072 60.7432 36.7419 58.5862 36.7519 55.8983C36.7543 55.1438 36.5812 54.399 36.2461 53.723C35.911 53.0469 35.4232 52.4581 34.8213 52.0031C34.2194 51.5481 33.5198 51.2395 32.778 51.1016C32.0361 50.9636 31.2724 51.0002 30.5472 51.2085C30.4343 51.2402 30.3157 51.2467 30.2001 51.2272C30.0844 51.2078 29.9745 51.1631 29.8782 51.0962C29.7819 51.0293 29.7015 50.942 29.6429 50.8404C29.5843 50.7388 29.5489 50.6255 29.5392 50.5087C29.5392 50.4769 29.5392 50.4451 29.5392 50.4192C29.4067 49.081 28.987 47.7871 28.3086 46.626" stroke="#333652" stroke-width="1.59045" stroke-linecap="round" stroke-linejoin="round"/>
<path d="M14.9434 60.7422H20.1899" stroke="#333652" stroke-width="1.59045" stroke-linecap="round" stroke-linejoin="round"/>
<path d="M5.11738 50.5186C4.34343 51.4208 3.84552 52.5268 3.68309 53.7043C3.52066 54.8819 3.70058 56.0814 4.20137 57.1595C4.70216 58.2376 5.50266 59.1487 6.50727 59.7842C7.51189 60.4197 8.67817 60.7526 9.86686 60.7431H12.3261" stroke="#333652" stroke-width="1.59045" stroke-linecap="round" stroke-linejoin="round"/>
<path d="M26.6324 44.5247C25.5581 43.5101 24.2594 42.7635 22.8421 42.3455C21.4248 41.9275 19.9289 41.8498 18.4759 42.1189C17.023 42.388 15.6541 42.9962 14.4805 43.8941C13.3069 44.7919 12.3617 45.9541 11.722 47.2861C11.5637 47.6162 11.3135 47.8937 11.0014 48.0852C10.6893 48.2767 10.3286 48.374 9.96252 48.3656H9.81342C8.82894 48.3644 7.85839 48.5982 6.98242 49.0475" stroke="#333652" stroke-width="1.59045" stroke-linecap="round" stroke-linejoin="round"/>
<path d="M72.8557 68.019C74.6421 68.019 76.0902 66.5708 76.0902 64.7844C76.0902 62.998 74.6421 61.5498 72.8557 61.5498C71.0693 61.5498 69.6211 62.998 69.6211 64.7844C69.6211 66.5708 71.0693 68.019 72.8557 68.019Z" fill="#BED5E5"/>
<path d="M74.8278 64.2917C74.4372 64.2894 74.0482 64.3429 73.6727 64.4508C73.5785 64.4779 73.4795 64.4837 73.3827 64.4679C73.286 64.4521 73.1939 64.4149 73.1133 64.3592C73.0326 64.3035 72.9654 64.2305 72.9163 64.1456C72.8673 64.0607 72.8377 63.966 72.8298 63.8683C72.6654 62.0529 71.8775 60.3504 70.6 59.0501C69.3225 57.7499 67.6342 56.932 65.822 56.7355C64.0098 56.5389 62.1855 56.9759 60.659 57.9721C59.1325 58.9683 57.9979 60.4623 57.4482 62.2003C56.7341 62.033 55.9928 62.0185 55.2727 62.1579C54.5527 62.2973 53.8703 62.5873 53.2702 63.0089C52.6701 63.4306 52.166 63.9743 51.7908 64.6045C51.4157 65.2347 51.178 65.937 51.0933 66.6655C51.0087 67.394 51.0791 68.1322 51.2998 68.8316C51.5205 69.531 51.8866 70.1758 52.374 70.7238C52.8614 71.2717 53.4592 71.7105 54.1281 72.0112C54.797 72.3119 55.5219 72.4678 56.2553 72.4686H74.8039C75.8875 72.4718 76.9279 72.0444 77.6963 71.2804C78.4647 70.5165 78.8982 69.4786 78.9013 68.3951C78.9045 67.3115 78.4771 66.2711 77.7132 65.5027C76.9492 64.7343 75.9113 64.3008 74.8278 64.2977V64.2917Z" fill="white"/>
<path d="M55.8975 67.2591C55.8975 64.3864 57.822 62.0564 60.1957 62.0564H60.2176C60.4959 62.0582 60.7682 61.9756 60.9986 61.8194C61.2289 61.6632 61.4065 61.4408 61.5078 61.1816C62.4045 58.9033 64.1778 57.2274 66.3011 56.792C65.8635 56.7186 65.4207 56.6813 64.977 56.6807C63.4863 56.6805 62.0261 57.1027 60.7655 57.8982C59.5048 58.6937 58.4953 59.8301 57.8538 61.1757C57.7245 61.4468 57.5193 61.6745 57.2631 61.8312C57.0069 61.9879 56.7107 62.0668 56.4105 62.0584H56.2614C55.5781 62.0584 54.9016 62.1929 54.2703 62.4544C53.6391 62.7159 53.0656 63.0991 52.5824 63.5822C52.0993 64.0653 51.7161 64.6389 51.4546 65.2701C51.1932 65.9013 51.0586 66.5779 51.0586 67.2611C51.0586 67.9444 51.1932 68.6209 51.4546 69.2521C51.7161 69.8833 52.0993 70.4569 52.5824 70.94C53.0656 71.4231 53.6391 71.8064 54.2703 72.0678C54.9016 72.3293 55.5781 72.4639 56.2614 72.4639H60.1957C57.812 72.4619 55.8975 70.1319 55.8975 67.2591Z" fill="#BED5E5"/>
<path d="M73.1201 72.4624H74.464C78.5256 72.4624 79.9292 70.6493 79.9371 68.3909C79.9393 67.7567 79.7939 67.1308 79.5123 66.5626C79.2307 65.9944 78.8206 65.4996 78.3147 65.1173C77.8088 64.735 77.2208 64.4757 76.5973 64.36C75.9738 64.2442 75.3319 64.2752 74.7225 64.4505C74.6271 64.4781 74.5267 64.4839 74.4287 64.4675C74.3307 64.451 74.2378 64.4127 74.1566 64.3555C74.0755 64.2982 74.0082 64.2234 73.9599 64.1366C73.9116 64.0498 73.8835 63.9532 73.8775 63.8541C73.8775 63.8263 73.8775 63.8024 73.8775 63.7786C73.7653 62.6563 73.4127 61.5714 72.8438 60.5977" stroke="#333652" stroke-width="1.59045" stroke-linecap="round" stroke-linejoin="round"/>
<path d="M61.6133 72.4629H66.0208" stroke="#333652" stroke-width="1.59045" stroke-linecap="round" stroke-linejoin="round"/>
<path d="M53.36 63.8711C52.5466 64.8142 52.1012 66.0193 52.1055 67.2647C52.1139 68.6487 52.6707 69.9728 53.6538 70.947C54.6368 71.9211 55.966 72.4658 57.35 72.4615H59.4176" stroke="#333652" stroke-width="1.59045" stroke-linecap="round" stroke-linejoin="round"/>
<path d="M71.4367 58.8378C70.5339 57.9864 69.443 57.3598 68.2526 57.0091C67.0621 56.6584 65.8058 56.5935 64.5855 56.8195C63.3653 57.0455 62.2156 57.5562 61.2298 58.31C60.2439 59.0638 59.4498 60.0396 58.9119 61.1579C58.7797 61.4357 58.5699 61.6691 58.3077 61.83C58.0455 61.9909 57.7423 62.0724 57.4348 62.0645H57.3075C56.4777 62.0617 55.6595 62.2588 54.9219 62.639" stroke="#333652" stroke-width="1.59045" stroke-linecap="round" stroke-linejoin="round"/>
<path d="M49.7044 43.1117C49.211 42.6616 48.6337 42.3131 48.0056 42.086C47.3775 41.859 46.7108 41.7579 46.0436 41.7886C45.3764 41.8192 44.7218 41.981 44.1171 42.2646C43.5125 42.5483 42.9696 42.9483 42.5195 43.4418" stroke="#333652" stroke-width="1.59045" stroke-linecap="round" stroke-linejoin="round"/>
<path d="M36.9121 38.9391C38.2526 38.793 39.5963 39.1853 40.6477 40.0298C41.699 40.8742 42.3719 42.1016 42.5184 43.4421" stroke="#333652" stroke-width="1.59045" stroke-linecap="round" stroke-linejoin="round"/>
<path d="M66.0107 28.8039C64.7263 28.3934 63.3315 28.5098 62.1329 29.1276C60.9343 29.7453 60.0301 30.8138 59.6191 32.0981" stroke="#333652" stroke-width="1.59045" stroke-linecap="round" stroke-linejoin="round"/>
<path d="M52.6445 30.345C53.8019 29.6528 55.1868 29.4487 56.4947 29.7775C57.8025 30.1064 58.9263 30.9412 59.6186 32.0984" stroke="#333652" stroke-width="1.59045" stroke-linecap="round" stroke-linejoin="round"/>
<path d="M101.939 71.007L96.0488 65.7744L82.7109 80.9174L92.7089 53.5677L98.5975 58.8003L111.935 43.6572L101.939 71.007Z" fill="#34B5B0"/>
<path d="M103.063 71.007L97.1719 65.7744L83.834 80.9174L93.8319 53.5677L99.7226 58.8003L113.058 43.6572L103.063 71.007Z" stroke="#333652" stroke-width="1.59045" stroke-linecap="round" stroke-linejoin="round"/>
</g>
<defs>
<clipPath id="clip0_2044_5247">
<rect width="126.928" height="120.916" fill="white"/>
</clipPath>
</defs>
</svg>
