<svg width="97" height="82" viewBox="0 0 97 82" fill="none" xmlns="http://www.w3.org/2000/svg">
<path d="M1.59589 74.8938C1.49055 74.8924 1.38742 74.8634 1.29673 74.8099C1.20604 74.7563 1.13093 74.6799 1.07888 74.5883C1.02683 74.4967 0.99964 74.3931 1 74.2877C1.00037 74.1824 1.02828 74.079 1.08096 73.9878C1.1927 73.802 3.95911 69.435 14.1217 70.7034C16.8308 71.0417 19.1049 71.6094 21.3005 72.1516C27.2788 73.6374 32.4432 74.921 44.2321 71.4282L44.2789 71.4177C49.9069 70.2187 58.33 69.509 66.4963 72.9277C66.5695 72.9584 66.6359 73.0031 66.6918 73.0594C66.7477 73.1157 66.7919 73.1825 66.822 73.2559C66.8521 73.3293 66.8674 73.4079 66.8671 73.4872C66.8668 73.5666 66.8509 73.6451 66.8202 73.7182C66.7896 73.7914 66.7448 73.8578 66.6885 73.9137C66.6322 73.9696 66.5655 74.0138 66.4921 74.0439C66.4186 74.074 66.34 74.0893 66.2607 74.089C66.1814 74.0887 66.1029 74.0728 66.0297 74.0421C58.1624 70.7427 50.0126 71.4282 44.5538 72.588C32.4643 76.1653 26.8998 74.7821 21.0091 73.3173C18.8467 72.7812 16.6103 72.224 13.9723 71.8948C4.66733 70.7336 2.13648 74.5722 2.11081 74.6129C2.05591 74.6996 1.97982 74.7709 1.88973 74.8201C1.79964 74.8692 1.69851 74.8946 1.59589 74.8938Z" fill="#27343A"/>
<path d="M1.59589 77.3059C1.49055 77.3045 1.38742 77.2756 1.29673 77.222C1.20604 77.1684 1.13093 77.092 1.07888 77.0004C1.02683 76.9088 0.99964 76.8052 1 76.6999C1.00037 76.5945 1.02828 76.4911 1.08096 76.3999C1.1927 76.2142 3.95911 71.8456 14.1217 73.1155C16.8308 73.4538 19.1049 74.0216 21.3005 74.5637C27.2788 76.0496 32.4432 77.3331 44.2321 73.8403L44.2789 73.8298C49.9069 72.6308 58.33 71.9211 66.4963 75.3398C66.5695 75.3705 66.6359 75.4152 66.6918 75.4715C66.7477 75.5278 66.7919 75.5946 66.822 75.668C66.8521 75.7414 66.8674 75.82 66.8671 75.8994C66.8668 75.9787 66.8509 76.0572 66.8202 76.1303C66.7896 76.2035 66.7448 76.2699 66.6885 76.3258C66.6322 76.3817 66.5655 76.4259 66.4921 76.456C66.4186 76.4861 66.34 76.5014 66.2607 76.5011C66.1814 76.5008 66.1029 76.4849 66.0297 76.4543C58.1624 73.1548 50.0126 73.8404 44.5538 75.0001C32.4643 78.5759 26.9058 77.1866 21.0166 75.7279C18.8542 75.1918 16.6179 74.6362 13.9798 74.3055C4.67487 73.1442 2.14403 76.9828 2.11836 77.0235C2.06297 77.1116 1.98576 77.1839 1.89422 77.2334C1.80268 77.2828 1.69992 77.3078 1.59589 77.3059Z" fill="#27343A"/>
<path d="M1.59589 79.159C1.49055 79.1576 1.38742 79.1286 1.29673 79.075C1.20604 79.0214 1.13093 78.9451 1.07888 78.8535C1.02683 78.7619 0.99964 78.6583 1 78.5529C1.00037 78.4476 1.02828 78.3442 1.08096 78.253C1.1927 78.0657 3.95911 73.6987 14.1217 74.9671C16.8308 75.3053 19.1049 75.8731 21.3005 76.4167C27.2788 77.9026 32.4432 79.1862 44.2321 75.6934L44.2789 75.6813C49.9069 74.4824 58.33 73.7726 66.4963 77.1914C66.5695 77.222 66.6359 77.2668 66.6918 77.3231C66.7477 77.3794 66.7919 77.4462 66.822 77.5196C66.8521 77.593 66.8674 77.6716 66.8671 77.7509C66.8668 77.8302 66.8509 77.9087 66.8202 77.9819C66.7896 78.0551 66.7448 78.1215 66.6885 78.1774C66.6322 78.2333 66.5655 78.2775 66.4921 78.3076C66.4186 78.3377 66.34 78.353 66.2607 78.3527C66.1814 78.3524 66.1029 78.3365 66.0297 78.3058C58.1624 75.0048 50.0126 75.6904 44.5538 76.8501C32.4643 80.4289 26.8998 79.0457 21.0091 77.581C18.8467 77.0434 16.6103 76.4877 13.9723 76.1585C4.66733 74.9973 2.13648 78.8358 2.11081 78.8766C2.05609 78.9636 1.98008 79.0352 1.88997 79.0846C1.79987 79.134 1.69865 79.1596 1.59589 79.159Z" fill="#27343A"/>
<path d="M86.5281 73.793H64.125V80.9989H86.5281V73.793Z" stroke="#27343A" stroke-linecap="round" stroke-linejoin="round"/>
<path d="M70.5448 1H80.1125L84.2666 73.795H66.3906L70.5448 1Z" stroke="#27343A" stroke-linecap="round" stroke-linejoin="round"/>
<path d="M80.8865 14.5767H69.7695L70.1848 7.2998H80.4713L80.8865 14.5767Z" stroke="#27343A" stroke-linecap="round" stroke-linejoin="round"/>
<path d="M96.4081 81H1.20703" stroke="#27343A" stroke-linecap="round" stroke-linejoin="round"/>
<path d="M22.3561 41.3352H23.5717C27.2427 41.3352 28.5111 39.6968 28.5187 37.6552C28.5205 37.0821 28.389 36.5164 28.1345 36.0029C27.88 35.4894 27.5095 35.0421 27.0523 34.6966C26.595 34.351 26.0637 34.1165 25.5002 34.0118C24.9368 33.907 24.3566 33.9348 23.8058 34.093C23.72 34.1171 23.63 34.122 23.5422 34.1072C23.4543 34.0925 23.3708 34.0585 23.2977 34.0077C23.2245 33.9569 23.1635 33.8906 23.119 33.8134C23.0744 33.7362 23.0475 33.6502 23.0402 33.5614C23.0402 33.5373 23.0402 33.5131 23.0402 33.4935C22.9396 32.477 22.6207 31.4942 22.1055 30.6123" stroke="#27343A" stroke-linecap="round" stroke-linejoin="round"/>
<path d="M11.9531 41.335H15.9381" stroke="#27343A" stroke-linecap="round" stroke-linejoin="round"/>
<path d="M4.49293 33.5693C3.90507 34.2547 3.52687 35.0947 3.4035 35.9891C3.28012 36.8836 3.41678 37.7946 3.79716 38.6135C4.17754 39.4324 4.78557 40.1245 5.54863 40.6071C6.3117 41.0898 7.19756 41.3427 8.10044 41.3355H9.96837" stroke="#27343A" stroke-linecap="round" stroke-linejoin="round"/>
<path d="M20.8316 29.0159C20.0155 28.2453 19.0292 27.6782 17.9526 27.3607C16.8761 27.0432 15.7399 26.9842 14.6363 27.1886C13.5327 27.393 12.4929 27.8549 11.6015 28.5369C10.71 29.2189 9.99217 30.1016 9.50621 31.1134C9.38597 31.3641 9.19593 31.5749 8.95888 31.7203C8.72183 31.8658 8.44785 31.9397 8.16981 31.9333H8.05656C7.30879 31.9324 6.5716 32.11 5.90625 32.4513" stroke="#27343A" stroke-linecap="round" stroke-linejoin="round"/>
<path d="M56.1435 50.2366H57.1643C60.2493 50.2366 61.3154 48.8594 61.3215 47.144C61.3231 46.6624 61.2126 46.1869 60.9987 45.7553C60.7848 45.3238 60.4734 44.9479 60.0891 44.6575C59.7048 44.3671 59.2582 44.1702 58.7846 44.0823C58.311 43.9944 57.8235 44.018 57.3606 44.1511C57.2881 44.1721 57.2119 44.1765 57.1375 44.164C57.0631 44.1515 56.9924 44.1224 56.9308 44.0789C56.8691 44.0354 56.8181 43.9786 56.7814 43.9126C56.7447 43.8467 56.7233 43.7734 56.7188 43.6981C56.7188 43.6769 56.7188 43.6588 56.7188 43.6407C56.6336 42.7883 56.3658 41.9643 55.9336 41.2246" stroke="#27343A" stroke-linecap="round" stroke-linejoin="round"/>
<path d="M47.4023 50.2373H50.7501" stroke="#27343A" stroke-linecap="round" stroke-linejoin="round"/>
<path d="M41.1326 43.7109C40.5148 44.4273 40.1764 45.3427 40.1797 46.2886C40.1861 47.3398 40.609 48.3456 41.3557 49.0855C42.1024 49.8254 43.112 50.2391 44.1632 50.2359H45.7337" stroke="#27343A" stroke-linecap="round" stroke-linejoin="round"/>
<path d="M54.8643 39.8882C54.1786 39.2414 53.35 38.7655 52.4458 38.4992C51.5416 38.2328 50.5873 38.1834 49.6604 38.3551C48.7336 38.5268 47.8603 38.9147 47.1115 39.4873C46.3627 40.0599 45.7596 40.801 45.351 41.6504C45.2506 41.8614 45.0912 42.0387 44.892 42.161C44.6929 42.2832 44.4626 42.345 44.229 42.339H44.1324C43.5021 42.3369 42.8805 42.4866 42.3203 42.7754" stroke="#27343A" stroke-linecap="round" stroke-linejoin="round"/>
<path d="M38.3577 27.9427C37.9829 27.6008 37.5445 27.3361 37.0674 27.1636C36.5903 26.9912 36.0839 26.9144 35.5771 26.9377C35.0704 26.9609 34.5731 27.0838 34.1139 27.2993C33.6546 27.5147 33.2422 27.8185 32.9004 28.1934" stroke="#27343A" stroke-linecap="round" stroke-linejoin="round"/>
<path d="M28.6406 24.7737C29.6588 24.6628 30.6794 24.9607 31.478 25.6021C32.2766 26.2435 32.7877 27.1758 32.899 28.194" stroke="#27343A" stroke-linecap="round" stroke-linejoin="round"/>
<path d="M50.7415 17.0759C49.7659 16.7641 48.7064 16.8526 47.796 17.3218C46.8856 17.791 46.1989 18.6026 45.8867 19.5781" stroke="#27343A" stroke-linecap="round" stroke-linejoin="round"/>
<path d="M40.5898 18.2458C41.4689 17.7201 42.5209 17.5651 43.5143 17.8148C44.5077 18.0646 45.3612 18.6987 45.8871 19.5777" stroke="#27343A" stroke-linecap="round" stroke-linejoin="round"/>
<path d="M78.8865 49.1312L74.4122 45.1567L64.2812 56.6588L71.8753 35.885L76.3496 39.8595L86.479 28.3574L78.8865 49.1312Z" stroke="#27343A" stroke-linecap="round" stroke-linejoin="round"/>
</svg>
