<svg width="127" height="125" viewBox="0 0 127 125" fill="none" xmlns="http://www.w3.org/2000/svg">
<g clip-path="url(#clip0_2044_5052)">
<path d="M63.4628 124.248C96.8533 124.248 123.922 96.4339 123.922 62.1239C123.922 27.8138 96.8533 0 63.4628 0C30.0723 0 3.00391 27.8138 3.00391 62.1239C3.00391 96.4339 30.0723 124.248 63.4628 124.248Z" fill="white"/>
<path d="M111.002 45.6799C111.002 45.2382 110.918 44.8007 110.753 44.3926C110.589 43.9844 110.348 43.6134 110.044 43.301C109.74 42.9885 109.379 42.7407 108.982 42.5716C108.585 42.4025 108.159 42.3154 107.729 42.3154H17.4716C17.0417 42.3154 16.616 42.4025 16.2188 42.5716C15.8217 42.7407 15.4609 42.9885 15.157 43.301C14.8531 43.6134 14.6121 43.9844 14.4478 44.3926C14.2834 44.8007 14.199 45.2382 14.1992 45.6799V92.8688H111.004L111.002 45.6799Z" fill="url(#paint0_linear_2044_5052)"/>
<path d="M14.1973 92.8789V112.713C14.1973 113.604 14.542 114.46 15.1557 115.09C15.7694 115.721 16.6017 116.075 17.4696 116.075H107.728C108.595 116.075 109.428 115.721 110.041 115.09C110.655 114.46 111 113.604 111 112.713V92.8789H14.1973Z" fill="#BED5E5"/>
<path d="M59.2508 45.7764H57.3164V113.003H59.2508V45.7764Z" fill="#BED5E5"/>
<path d="M57.3164 45.7764H59.2488V113.003" stroke="#7593AA" stroke-width="1.59045" stroke-linecap="round" stroke-linejoin="round"/>
<path d="M95.5008 45.7764H93.5664V113.003H95.5008V45.7764Z" fill="#BED5E5"/>
<path d="M93.5664 45.7764H95.5008V113.003" stroke="#7593AA" stroke-width="1.59045" stroke-linecap="round" stroke-linejoin="round"/>
<path d="M47.1649 45.7764H45.2305V113.003H47.1649V45.7764Z" fill="#BED5E5"/>
<path d="M45.2305 45.7764H47.1649V113.003" stroke="#7593AA" stroke-width="1.59045" stroke-linecap="round" stroke-linejoin="round"/>
<path d="M83.4188 45.7764H81.4844V113.003H83.4188V45.7764Z" fill="#BED5E5"/>
<path d="M81.4844 45.7764H83.4188V113.003" stroke="#7593AA" stroke-width="1.59045" stroke-linecap="round" stroke-linejoin="round"/>
<path d="M35.0828 45.7764H33.1484V113.003H35.0828V45.7764Z" fill="#BED5E5"/>
<path d="M33.1484 45.7764H35.0828V113.003" stroke="#7593AA" stroke-width="1.59045" stroke-linecap="round" stroke-linejoin="round"/>
<path d="M71.3367 45.7764H69.4023V113.003H71.3367V45.7764Z" fill="#BED5E5"/>
<path d="M69.4023 45.7764H71.3347V113.003" stroke="#7593AA" stroke-width="1.59045" stroke-linecap="round" stroke-linejoin="round"/>
<path d="M23.0008 45.7764H21.0664V113.003H23.0008V45.7764Z" fill="#BED5E5"/>
<path d="M21.0664 45.7764H23.0008V113.003" stroke="#7593AA" stroke-width="1.59045" stroke-linecap="round" stroke-linejoin="round"/>
<path d="M107.587 45.7764H105.652V113.003H107.587V45.7764Z" fill="#BED5E5"/>
<path d="M105.652 45.7764H107.585V113.003" stroke="#7593AA" stroke-width="1.59045" stroke-linecap="round" stroke-linejoin="round"/>
<path d="M109.456 42.3174H19.1942C17.387 42.3174 15.9219 43.8228 15.9219 45.6798V112.715C15.9219 114.572 17.387 116.077 19.1942 116.077H109.456C111.263 116.077 112.728 114.572 112.728 112.715V45.6798C112.728 43.8228 111.263 42.3174 109.456 42.3174Z" stroke="#333652" stroke-width="1.59045" stroke-linecap="round" stroke-linejoin="round"/>
<path d="M100.597 49.1572H64.4238V109.236H100.597V49.1572Z" fill="#34B5B0"/>
<path d="M102.583 49.1572H66.4102V109.236H102.583V49.1572Z" stroke="#333652" stroke-width="1.59045" stroke-linecap="round" stroke-linejoin="round"/>
<path d="M93.9635 62.9746H75.0312V99.1895H93.9635V62.9746Z" fill="white"/>
<path d="M93.9635 62.9746H75.0312V99.1895H93.9635V62.9746Z" stroke="#333652" stroke-width="1.59045" stroke-linecap="round" stroke-linejoin="round"/>
<path d="M77.8965 69.0576H91.0992" stroke="#7593AA" stroke-width="1.59045" stroke-linecap="round" stroke-linejoin="round"/>
<path d="M77.8965 79.9893H91.0992" stroke="#7593AA" stroke-width="1.59045" stroke-linecap="round" stroke-linejoin="round"/>
<path d="M77.8965 71.2441H91.0992" stroke="#7593AA" stroke-width="1.59045" stroke-linecap="round" stroke-linejoin="round"/>
<path d="M77.8965 82.1758H91.0992" stroke="#7593AA" stroke-width="1.59045" stroke-linecap="round" stroke-linejoin="round"/>
<path d="M77.8965 73.4297H91.0992" stroke="#7593AA" stroke-width="1.59045" stroke-linecap="round" stroke-linejoin="round"/>
<path d="M77.8965 84.3633H91.0992" stroke="#7593AA" stroke-width="1.59045" stroke-linecap="round" stroke-linejoin="round"/>
<path d="M77.8965 75.6162H91.0992" stroke="#7593AA" stroke-width="1.59045" stroke-linecap="round" stroke-linejoin="round"/>
<path d="M77.8965 86.5488H91.0992" stroke="#7593AA" stroke-width="1.59045" stroke-linecap="round" stroke-linejoin="round"/>
<path d="M77.8965 77.8037H91.0992" stroke="#7593AA" stroke-width="1.59045" stroke-linecap="round" stroke-linejoin="round"/>
<path d="M77.8965 88.7344H91.0992" stroke="#7593AA" stroke-width="1.59045" stroke-linecap="round" stroke-linejoin="round"/>
<path d="M77.8965 66.8701H91.0992" stroke="#7593AA" stroke-width="1.59045" stroke-linecap="round" stroke-linejoin="round"/>
<path d="M77.8965 90.9199H91.0992" stroke="#7593AA" stroke-width="1.59045" stroke-linecap="round" stroke-linejoin="round"/>
<path d="M77.8965 93.1074H91.0992" stroke="#7593AA" stroke-width="1.59045" stroke-linecap="round" stroke-linejoin="round"/>
<path d="M77.8965 95.2939H91.0992" stroke="#7593AA" stroke-width="1.59045" stroke-linecap="round" stroke-linejoin="round"/>
<path d="M93.0735 64.6562C93.0735 64.8102 93.029 64.9608 92.9457 65.0889C92.8624 65.2169 92.744 65.3166 92.6055 65.3755C92.4669 65.4343 92.3145 65.4496 92.1675 65.4194C92.0205 65.3892 91.8856 65.3149 91.7797 65.2059C91.6739 65.0968 91.6019 64.9579 91.5729 64.8068C91.5439 64.6557 91.5592 64.4991 91.6168 64.357C91.6744 64.2148 91.7719 64.0934 91.8967 64.0081C92.0215 63.9228 92.1681 63.8775 92.318 63.8779C92.5186 63.8785 92.7107 63.9607 92.8523 64.1066C92.994 64.2525 93.0735 64.4501 93.0735 64.6562Z" fill="#333652"/>
<path d="M77.4231 64.6562C77.4231 64.8102 77.3786 64.9608 77.2953 65.0889C77.212 65.2169 77.0936 65.3166 76.9551 65.3755C76.8165 65.4343 76.6641 65.4496 76.5172 65.4194C76.3702 65.3892 76.2352 65.3149 76.1294 65.2059C76.0235 65.0968 75.9515 64.9579 75.9225 64.8068C75.8935 64.6557 75.9088 64.4991 75.9664 64.357C76.0241 64.2148 76.1215 64.0934 76.2463 64.0081C76.3711 63.9228 76.5178 63.8775 76.6676 63.8779C76.8682 63.8785 77.0603 63.9607 77.202 64.1066C77.3436 64.2525 77.4231 64.4501 77.4231 64.6562Z" fill="#333652"/>
<path d="M93.0735 97.5147C93.0735 97.6687 93.029 97.8192 92.9457 97.9473C92.8624 98.0753 92.744 98.1751 92.6055 98.2339C92.4669 98.2928 92.3145 98.3081 92.1675 98.2779C92.0205 98.2477 91.8856 98.1733 91.7797 98.0643C91.6739 97.9552 91.6019 97.8163 91.5729 97.6652C91.5439 97.5141 91.5592 97.3575 91.6168 97.2154C91.6744 97.0732 91.7719 96.9518 91.8967 96.8665C92.0215 96.7812 92.1681 96.7359 92.318 96.7363C92.4174 96.7363 92.5158 96.7565 92.6076 96.7956C92.6994 96.8348 92.7827 96.8922 92.8529 96.9645C92.9231 97.0368 92.9787 97.1225 93.0166 97.217C93.0544 97.3114 93.0738 97.4125 93.0735 97.5147Z" fill="#333652"/>
<path d="M77.4231 97.5147C77.4231 97.6687 77.3786 97.8192 77.2953 97.9473C77.212 98.0753 77.0936 98.1751 76.9551 98.2339C76.8165 98.2928 76.6641 98.3081 76.5172 98.2779C76.3702 98.2477 76.2352 98.1733 76.1294 98.0643C76.0235 97.9552 75.9515 97.8163 75.9225 97.6652C75.8935 97.5141 75.9088 97.3575 75.9664 97.2154C76.0241 97.0732 76.1215 96.9518 76.2463 96.8665C76.3711 96.7812 76.5178 96.7359 76.6676 96.7363C76.767 96.7363 76.8654 96.7565 76.9572 96.7956C77.049 96.8348 77.1324 96.8922 77.2025 96.9645C77.2727 97.0368 77.3283 97.1225 77.3662 97.217C77.404 97.3114 77.4234 97.4125 77.4231 97.5147Z" fill="#333652"/>
<path d="M99.7593 76.7331C99.7593 75.8892 99.0935 75.2051 98.2722 75.2051C97.4509 75.2051 96.7852 75.8892 96.7852 76.7331V85.4314C96.7852 86.2753 97.4509 86.9594 98.2722 86.9594C99.0935 86.9594 99.7593 86.2753 99.7593 85.4314V76.7331Z" fill="#333652"/>
<path d="M80.4203 58.5699L83.7483 52.6457C83.8242 52.5108 83.9334 52.3988 84.0648 52.321C84.1961 52.2431 84.3451 52.2021 84.4968 52.2021C84.6485 52.2021 84.7974 52.2431 84.9288 52.321C85.0602 52.3988 85.1693 52.5108 85.2453 52.6457L88.5733 58.5699C88.6491 58.7047 88.6889 58.8575 88.6889 59.0132C88.6889 59.1688 88.649 59.3218 88.5732 59.4566C88.4975 59.5913 88.3885 59.7032 88.2573 59.781C88.1261 59.8588 87.9773 59.8998 87.8258 59.8997H81.1678C81.0163 59.8998 80.8675 59.8588 80.7363 59.781C80.6051 59.7032 80.4961 59.5913 80.4204 59.4566C80.3446 59.3218 80.3047 59.1688 80.3047 59.0132C80.3047 58.8575 80.3445 58.7047 80.4203 58.5699Z" fill="#FAD02C"/>
<path d="M80.4203 58.5699L83.7483 52.6457C83.8242 52.5108 83.9334 52.3988 84.0648 52.321C84.1961 52.2431 84.3451 52.2021 84.4968 52.2021C84.6485 52.2021 84.7974 52.2431 84.9288 52.321C85.0602 52.3988 85.1693 52.5108 85.2453 52.6457L88.5733 58.5699C88.6491 58.7047 88.6889 58.8575 88.6889 59.0132C88.6889 59.1688 88.649 59.3218 88.5732 59.4566C88.4975 59.5913 88.3885 59.7032 88.2573 59.781C88.1261 59.8588 87.9773 59.8998 87.8258 59.8997H81.1678C81.0163 59.8998 80.8675 59.8588 80.7363 59.781C80.6051 59.7032 80.4961 59.5913 80.4204 59.4566C80.3446 59.3218 80.3047 59.1688 80.3047 59.0132C80.3047 58.8575 80.3445 58.7047 80.4203 58.5699Z" stroke="#333652" stroke-width="1.59045" stroke-linecap="round" stroke-linejoin="round"/>
<path d="M33.4084 32.5879C32.6101 32.5879 31.8445 32.9138 31.28 33.4938C30.7156 34.0738 30.3984 34.8605 30.3984 35.6807V42.3158H34.2771V32.5879H33.4084Z" fill="#90ADC6"/>
<path d="M37.8082 35.6807C37.8085 35.2747 37.7309 34.8725 37.5798 34.4973C37.4288 34.1221 37.2072 33.7811 36.9279 33.4939C36.6486 33.2067 36.3169 32.9788 35.9518 32.8234C35.5868 32.6679 35.1955 32.5879 34.8003 32.5879H34.2734V42.3158H37.8082V35.6807Z" fill="#BED5E5"/>
<path d="M33.4084 32.5898H34.8C35.5983 32.5898 36.3639 32.9157 36.9283 33.4957C37.4928 34.0757 37.8099 34.8624 37.8099 35.6827V42.3177H30.3984V35.6806C30.399 34.8607 30.7163 34.0746 31.2807 33.495C31.8451 32.9154 32.6104 32.5898 33.4084 32.5898V32.5898Z" stroke="#333652" stroke-width="1.59045" stroke-linecap="round" stroke-linejoin="round"/>
<path d="M86.9474 32.5879C86.1491 32.5879 85.3835 32.9138 84.8191 33.4938C84.2546 34.0738 83.9375 34.8605 83.9375 35.6807V42.3158H87.8182V32.5879H86.9474Z" fill="#90ADC6"/>
<path d="M91.3531 35.6807C91.3534 35.2747 91.2758 34.8725 91.1247 34.4973C90.9737 34.1221 90.7522 33.7811 90.4728 33.4939C90.1935 33.2067 89.8618 32.9788 89.4967 32.8234C89.1316 32.6679 88.7403 32.5879 88.3452 32.5879H87.8203V42.3158H91.3531V35.6807Z" fill="#BED5E5"/>
<path d="M86.9493 32.5898H88.341C89.1393 32.5898 89.9048 32.9157 90.4693 33.4957C91.0338 34.0757 91.3509 34.8624 91.3509 35.6827V42.3177H83.9414V35.6806C83.9419 34.8611 84.259 34.0752 84.823 33.4957C85.387 32.9162 86.1517 32.5904 86.9493 32.5898V32.5898Z" stroke="#333652" stroke-width="1.59045" stroke-linecap="round" stroke-linejoin="round"/>
<path d="M38.5802 32.5879C37.782 32.5879 37.0164 32.9138 36.4519 33.4938C35.8874 34.0738 35.5703 34.8605 35.5703 35.6807V42.3158H39.449V32.5879H38.5802Z" fill="#90ADC6"/>
<path d="M42.9879 35.6807C42.9879 34.8605 42.6708 34.0738 42.1063 33.4938C41.5418 32.9138 40.7763 32.5879 39.978 32.5879H39.4531V42.3158H42.9879V35.6807Z" fill="#BED5E5"/>
<path d="M38.5802 32.5899H39.9719C40.7702 32.5899 41.5357 32.9158 42.1002 33.4958C42.6647 34.0758 42.9818 34.8625 42.9818 35.6827V42.3178H35.5703V35.6807C35.5703 34.8604 35.8874 34.0738 36.4519 33.4938C37.0164 32.9137 37.782 32.5879 38.5802 32.5879V32.5899Z" stroke="#333652" stroke-width="1.59045" stroke-linecap="round" stroke-linejoin="round"/>
<path d="M92.1232 32.5879C91.3249 32.5879 90.5593 32.9138 89.9949 33.4938C89.4304 34.0738 89.1133 34.8605 89.1133 35.6807V42.3158H92.992V32.5879H92.1232Z" fill="#90ADC6"/>
<path d="M96.527 35.6807C96.527 34.8605 96.2098 34.0738 95.6454 33.4938C95.0809 32.9138 94.3153 32.5879 93.517 32.5879H92.9922V42.3158H96.527V35.6807Z" fill="#BED5E5"/>
<path d="M92.1232 32.5899H93.5148C94.3131 32.5899 95.0787 32.9158 95.6432 33.4958C96.2077 34.0758 96.5248 34.8625 96.5248 35.6827V42.3178H89.1133V35.6807C89.1133 34.8604 89.4304 34.0738 89.9949 33.4938C90.5593 32.9137 91.3249 32.5879 92.1232 32.5879V32.5899Z" stroke="#333652" stroke-width="1.59045" stroke-linecap="round" stroke-linejoin="round"/>
<path d="M52.1629 83.6162C58.346 77.2628 58.346 66.9618 52.1628 60.6084C45.9797 54.255 35.9549 54.255 29.7717 60.6084C23.5886 66.9618 23.5886 77.2627 29.7717 83.6162C35.9549 89.9696 45.9797 89.9696 52.1629 83.6162Z" fill="#90ADC6"/>
<path d="M43.5424 79.6192L39.5723 74.743L27.457 85.2451L38.3874 64.6005L42.3595 69.4787L54.4728 58.9746L43.5424 79.6192Z" fill="white"/>
<path d="M43.5424 79.6192L39.5723 74.7431L27.457 85.2451L38.3874 64.6005L42.3595 69.4787L54.4728 58.9746L43.5424 79.6192Z" stroke="#333652" stroke-width="1.59045" stroke-linecap="round" stroke-linejoin="round"/>
<path d="M115.872 116.076H0.794922" stroke="#333652" stroke-width="1.59045" stroke-linecap="round" stroke-linejoin="round"/>
<path d="M126.132 116.076H118.756" stroke="#333652" stroke-width="1.59045" stroke-linecap="round" stroke-linejoin="round"/>
<path d="M57.4238 27.6863C59.3578 28.221 61.1212 29.2684 62.5374 30.7236C63.9536 32.1788 64.9729 33.9908 65.4934 35.978C66.0142 33.9906 67.0339 32.1786 68.4504 30.7234C69.8669 29.2683 71.6306 28.2209 73.5649 27.6863C71.6306 27.1516 69.8669 26.1043 68.4504 24.6491C67.0339 23.1939 66.0142 21.3819 65.4934 19.3945C64.9729 21.3818 63.9536 23.1937 62.5374 24.6489C61.1212 26.1041 59.3578 27.1515 57.4238 27.6863Z" fill="white"/>
<path d="M75.8496 22.5986C77.0954 22.9423 78.2314 23.6167 79.1435 24.5539C80.0557 25.4912 80.7119 26.6584 81.0464 27.9385C81.3809 26.6584 82.0371 25.4912 82.9493 24.5539C83.8614 23.6167 84.9974 22.9423 86.2432 22.5986C84.9976 22.2551 83.8618 21.5811 82.9497 20.6442C82.0376 19.7074 81.3812 18.5405 81.0464 17.2607C80.7116 18.5405 80.0552 19.7074 79.1431 20.6442C78.231 21.5811 77.0952 22.2551 75.8496 22.5986Z" fill="white"/>
<path d="M55.7695 27.6863C57.7035 28.221 59.4669 29.2684 60.8831 30.7236C62.2993 32.1788 63.3186 33.9908 63.8391 35.978V35.978C64.3599 33.991 65.3793 32.1792 66.7955 30.7241C68.2116 29.269 69.9748 28.2214 71.9086 27.6863V27.6863C69.9748 27.1511 68.2116 26.1036 66.7955 24.6484C65.3793 23.1933 64.3599 21.3816 63.8391 19.3945V19.3945C63.3186 21.3818 62.2993 23.1937 60.8831 24.6489C59.4669 26.1041 57.7035 27.1515 55.7695 27.6863V27.6863Z" stroke="#333652" stroke-width="1.59045" stroke-linecap="round" stroke-linejoin="round"/>
<path d="M74.1875 22.5986C75.4327 22.9437 76.568 23.6184 77.4799 24.5555C78.3918 25.4925 79.0485 26.659 79.3843 27.9385V27.9385C79.7195 26.6591 80.3758 25.4925 81.2874 24.5555C82.199 23.6184 83.3341 22.9436 84.5791 22.5986V22.5986C83.3339 22.2548 82.1985 21.5806 81.2867 20.6438C80.375 19.7069 79.7189 18.5403 79.3843 17.2607V17.2607C79.0486 18.54 78.3919 19.7064 77.4799 20.6431C76.568 21.5798 75.4326 22.2542 74.1875 22.5986Z" stroke="#333652" stroke-width="1.59045" stroke-linecap="round" stroke-linejoin="round"/>
</g>
<defs>
<linearGradient id="paint0_linear_2044_5052" x1="72.1194" y1="49.2773" x2="42.593" y2="106.865" gradientUnits="userSpaceOnUse">
<stop stop-color="#BED5E5"/>
<stop offset="1" stop-color="white"/>
</linearGradient>
<clipPath id="clip0_2044_5052">
<rect width="126.928" height="124.246" fill="white"/>
</clipPath>
</defs>
</svg>
