<svg width="20" height="20" viewBox="0 0 20 20" fill="none" xmlns="http://www.w3.org/2000/svg">
<path fill-rule="evenodd" clip-rule="evenodd" d="M8.84514 3.25003C9.61461 3.25003 9.87711 3.25485 10.116 3.3122C10.3456 3.36732 10.565 3.45823 10.7663 3.58159C10.9758 3.70995 11.1648 3.89215 11.7089 4.43625L15.2423 7.96959C15.845 8.57236 16.2648 8.99296 16.5652 9.34682C16.8599 9.69398 16.9954 9.92725 17.0639 10.1381C17.2108 10.59 17.2108 11.0768 17.0639 11.5287C16.9954 11.7395 16.8599 11.9728 16.5652 12.3199C16.2648 12.6738 15.845 13.0944 15.2423 13.6971L13.6971 15.2423C13.0944 15.845 12.6738 16.2648 12.3199 16.5652C11.9728 16.8599 11.7395 16.9954 11.5287 17.0639C11.0768 17.2108 10.59 17.2108 10.1381 17.0639C9.92725 16.9954 9.69398 16.8599 9.34682 16.5652C8.99296 16.2648 8.57236 15.845 7.96958 15.2423L4.43625 11.7089C3.89215 11.1648 3.70995 10.9758 3.58159 10.7663C3.45823 10.565 3.36732 10.3456 3.3122 10.116C3.25485 9.87711 3.25003 9.61461 3.25003 8.84514V7.30003C3.25003 6.44758 3.25062 5.85334 3.28841 5.39071C3.3255 4.93684 3.39463 4.67607 3.49527 4.47855C3.71098 4.05519 4.05519 3.71098 4.47855 3.49527C4.67607 3.39463 4.93684 3.3255 5.39071 3.28841C5.85334 3.25062 6.44758 3.25003 7.30003 3.25003H8.84514ZM10.4661 1.85364C10.0332 1.7497 9.58216 1.74983 8.9306 1.75002L8.84514 1.75003H7.30003L7.26793 1.75003C6.45509 1.75002 5.79947 1.75002 5.26856 1.7934C4.72193 1.83806 4.24179 1.93242 3.79757 2.15876C3.09196 2.51828 2.51828 3.09196 2.15876 3.79757C1.93242 4.24179 1.83806 4.72193 1.7934 5.26856C1.75002 5.79947 1.75002 6.45509 1.75003 7.26793L1.75003 7.30003V8.84514L1.75002 8.9306C1.74983 9.58216 1.7497 10.0332 1.85364 10.4661C1.94551 10.8488 2.09702 11.2146 2.30263 11.5501C2.53529 11.9298 2.85429 12.2486 3.31514 12.7092L3.31515 12.7092L3.37559 12.7696L6.90892 16.3029L6.93165 16.3256C7.5064 16.9004 7.96997 17.364 8.37605 17.7087C8.79416 18.0637 9.2004 18.3365 9.67455 18.4905C10.4277 18.7352 11.239 18.7352 11.9922 18.4905C12.4663 18.3365 12.8726 18.0637 13.2907 17.7087C13.6968 17.364 14.1604 16.9004 14.7351 16.3256L14.7351 16.3256L14.7578 16.3029L16.3029 14.7578L16.3256 14.7351C16.9004 14.1603 17.364 13.6968 17.7087 13.2907C18.0637 12.8726 18.3365 12.4663 18.4905 11.9922C18.7352 11.239 18.7352 10.4277 18.4905 9.67455C18.3365 9.2004 18.0637 8.79416 17.7087 8.37605C17.364 7.96996 16.9004 7.50637 16.3256 6.9316L16.3029 6.90893L12.7696 3.37559L12.7092 3.31515L12.7092 3.31514C12.2486 2.85429 11.9298 2.53529 11.5501 2.30263C11.2146 2.09702 10.8488 1.94551 10.4661 1.85364ZM7.4167 8.33337C7.4167 7.8271 7.8271 7.4167 8.33337 7.4167C8.83963 7.4167 9.25003 7.8271 9.25003 8.33337C9.25003 8.83963 8.83963 9.25003 8.33337 9.25003C7.8271 9.25003 7.4167 8.83963 7.4167 8.33337ZM8.33337 5.9167C6.99868 5.9167 5.9167 6.99868 5.9167 8.33337C5.9167 9.66805 6.99868 10.75 8.33337 10.75C9.66805 10.75 10.75 9.66805 10.75 8.33337C10.75 6.99868 9.66805 5.9167 8.33337 5.9167Z" fill="#BDBDBD"/>
</svg>
