<svg width="16" height="16" viewBox="0 0 16 16" fill="none" xmlns="http://www.w3.org/2000/svg">
<path fill-rule="evenodd" clip-rule="evenodd" d="M7.83366 0.666992C3.87562 0.666992 0.666992 3.87562 0.666992 7.83366C0.666992 11.7917 3.87562 15.0003 7.83366 15.0003C11.7917 15.0003 15.0003 11.7917 15.0003 7.83366C15.0003 3.87562 11.7917 0.666992 7.83366 0.666992ZM1.66699 7.83366C1.66699 4.4279 4.4279 1.66699 7.83366 1.66699C11.2394 1.66699 14.0003 4.4279 14.0003 7.83366C14.0003 11.2394 11.2394 14.0003 7.83366 14.0003C4.4279 14.0003 1.66699 11.2394 1.66699 7.83366ZM8.33366 5.16699C8.33366 4.89085 8.1098 4.66699 7.83366 4.66699C7.55752 4.66699 7.33366 4.89085 7.33366 5.16699V7.83366C7.33366 8.00083 7.41721 8.15695 7.55631 8.24968L9.55631 9.58302C9.78607 9.73619 10.0965 9.67411 10.2497 9.44434C10.4029 9.21458 10.3408 8.90414 10.111 8.75097L8.33366 7.56607V5.16699Z" fill="#02B3AC"/>
</svg>
