<svg width="24" height="24" viewBox="0 0 24 24" fill="none" xmlns="http://www.w3.org/2000/svg">
<path fill-rule="evenodd" clip-rule="evenodd" d="M12 2.5C6.75329 2.5 2.5 6.75329 2.5 12C2.5 17.2467 6.75329 21.5 12 21.5C17.2467 21.5 21.5 17.2467 21.5 12C21.5 6.75329 17.2467 2.5 12 2.5ZM1.5 12C1.5 6.20101 6.20101 1.5 12 1.5C17.799 1.5 22.5 6.20101 22.5 12C22.5 17.799 17.799 22.5 12 22.5C6.20101 22.5 1.5 17.799 1.5 12ZM10.6667 13.5C9.47005 13.5 8.5 14.47 8.5 15.6667C8.5 16.1269 8.8731 16.5 9.33333 16.5H14.6667C15.1269 16.5 15.5 16.1269 15.5 15.6667C15.5 14.47 14.53 13.5 13.3333 13.5H10.6667ZM7.5 15.6667C7.5 13.9178 8.91777 12.5 10.6667 12.5H13.3333C15.0822 12.5 16.5 13.9178 16.5 15.6667C16.5 16.6792 15.6792 17.5 14.6667 17.5H9.33333C8.32081 17.5 7.5 16.6792 7.5 15.6667ZM10.5 8C10.5 7.17157 11.1716 6.5 12 6.5C12.8284 6.5 13.5 7.17157 13.5 8C13.5 8.82843 12.8284 9.5 12 9.5C11.1716 9.5 10.5 8.82843 10.5 8ZM12 5.5C10.6193 5.5 9.5 6.61929 9.5 8C9.5 9.38071 10.6193 10.5 12 10.5C13.3807 10.5 14.5 9.38071 14.5 8C14.5 6.61929 13.3807 5.5 12 5.5Z" fill="#27343A"/>
</svg>
