<svg width="92" height="77" viewBox="0 0 92 77" fill="none" xmlns="http://www.w3.org/2000/svg">
<path d="M91.8486 40.6169C91.7905 40.569 91.7062 40.5537 91.6405 40.5759C91.5603 40.6005 91.4868 40.6219 91.4175 40.6422L91.3836 40.6521C91.2126 40.7021 91.0649 40.745 90.9186 40.8037C88.6071 41.7222 86.7872 43.2957 85.3549 45.614C85.0012 46.1868 84.7273 46.7822 84.5091 47.376C84.8669 45.3787 84.9499 44.6006 85.0132 42.3658C85.0162 42.272 85.0162 42.1766 85.0162 42.0819C85.0162 41.8233 85.0162 41.5791 85.0727 41.3563C85.1404 41.0922 85.2766 40.8289 85.4084 40.574C85.4455 40.5019 85.4826 40.4298 85.5132 40.3664C85.5238 40.354 85.5582 40.333 85.5715 40.3309C86.2326 40.23 86.8172 39.9494 87.3591 39.4731C87.9052 38.9908 88.3543 38.4005 88.6942 37.718C89.914 35.2719 90.5244 32.5681 90.5089 29.6828C90.5075 29.4045 90.4748 29.1335 90.4389 28.8388C90.4225 28.7068 90.4059 28.5717 90.3921 28.4319C90.3843 28.3552 90.337 28.287 90.2686 28.2538C90.2011 28.2211 90.1195 28.2234 90.0513 28.2646C90.0101 28.2904 89.9748 28.3114 89.9428 28.33C89.8808 28.3669 89.8336 28.3957 89.7889 28.428C88.7483 29.1738 87.8305 30.1024 87.0607 31.1872C85.8045 32.9603 85.0738 34.9652 84.877 37.1707C84.8575 36.9249 84.8376 36.679 84.8178 36.4332L84.8109 36.344C84.7337 35.3802 84.654 34.3834 84.589 33.4032C84.5727 33.155 84.525 32.9135 84.4789 32.6799C84.3899 32.2308 84.3058 31.8066 84.4404 31.3621C84.471 31.2617 84.4969 31.1605 84.5227 31.0596C84.5863 30.8096 84.8934 30.4245 85.3651 30.0036L85.3828 29.9877C85.5568 29.8402 86.4503 29.0227 86.9573 27.4056C87.4718 25.7627 87.4328 24.0461 87.4045 22.7926L87.4038 22.7592C87.366 21.0361 87.1798 19.7377 86.8001 18.5485C86.751 18.3965 86.6927 18.2465 86.631 18.0889C86.599 18.0068 86.5662 17.922 86.5326 17.8333C86.505 17.7582 86.4386 17.7036 86.3609 17.6907L86.3229 17.6872C86.2556 17.6872 86.1927 17.7174 86.1501 17.7695L85.7812 18.219C84.0125 20.3762 83.1436 22.9062 83.198 25.739C83.2074 26.2378 83.2448 26.7496 83.3109 27.2779C82.8613 25.7265 82.3341 24.2164 81.7346 22.7636C81.7222 22.7318 81.7141 22.6924 81.7132 22.659L81.709 22.4604C81.7028 22.1737 81.6963 21.8772 81.7086 21.5855C81.7104 21.5371 81.7417 21.4502 81.8069 21.3647C81.8996 21.2424 82.0023 21.1228 82.1088 20.9984C82.2901 20.7873 82.4775 20.5693 82.6259 20.3205C83.1037 19.52 83.3282 18.5743 83.3319 17.3441C83.3383 15.896 83.115 14.372 82.6284 12.5478C82.3625 11.5526 81.9611 10.2597 81.2136 9.08756C81.1629 9.00875 81.1062 8.93456 81.0459 8.85599C81.0187 8.82119 80.9901 8.7841 80.9611 8.74424C80.9187 8.68732 80.8602 8.65414 80.7657 8.65414C80.6903 8.65967 80.6231 8.70253 80.5855 8.76912C79.6472 10.4625 79.1799 12.2715 79.1578 14.2996C79.1389 15.9907 79.403 17.4458 79.7341 18.5958C78.8915 17.0564 77.955 15.569 76.94 14.1581L76.9168 14.1261C76.8937 14.0955 76.8841 14.0805 76.8857 14.0911C76.8218 13.6346 76.7776 13.2694 76.747 12.9514C76.7477 12.9466 76.7536 12.9199 76.8011 12.8406C76.8682 12.7263 76.9417 12.6143 77.0198 12.4959C77.1765 12.2577 77.3382 12.0111 77.4419 11.7351C77.7548 10.9019 77.8251 9.95693 77.6562 8.84723C77.2854 6.3912 76.2027 4.17964 74.3469 2.08583C74.1559 1.87085 73.9448 1.68075 73.7216 1.47983L73.6598 1.42384C73.5725 1.3448 73.4828 1.26393 73.3923 1.17844C73.3347 1.1236 73.2522 1.1031 73.1722 1.1266C73.0967 1.15056 73.0384 1.21324 73.0204 1.29112L72.9798 1.469C72.9522 1.58697 72.9308 1.68006 72.9149 1.77361C72.6651 3.26442 72.6833 4.86122 72.9709 6.65572C73.2561 8.43547 73.8246 9.97052 74.6967 11.304C73.3888 9.76292 72.1167 8.46888 70.7872 7.32209C70.7812 7.31426 70.7724 7.29052 70.7717 7.28453C70.8757 6.38936 70.6549 5.54603 70.0964 4.70638C69.363 3.60291 68.3438 2.76188 67.0673 2.20703C66.3035 1.87569 65.512 1.58237 64.7371 1.29503C64.3659 1.15724 63.9947 1.01991 63.6124 0.872677C63.2283 0.71991 63.064 0.69272 62.9748 0.77521C62.8601 0.882124 62.8877 0.97337 62.9377 1.13927L62.9539 1.19342C63.4223 2.77133 64.044 4.01927 64.8548 5.00846C66.3433 6.82623 68.0841 7.74975 70.174 7.83132C70.2473 7.83569 70.3054 7.85597 70.3291 7.8744C70.6234 8.09468 70.8399 8.27096 71.0314 8.44561C71.637 8.99908 72.2333 9.58872 72.8167 10.2097C71.949 9.67052 70.8883 9.42719 69.6938 9.48756C69.0401 9.52051 68.3913 9.61637 67.7639 9.709L67.7399 9.71268C67.5544 9.73987 67.3698 9.76683 67.1857 9.79287C66.7825 9.84748 66.376 9.91891 66.0171 9.98158C65.8717 10.0076 65.5244 10.0867 65.4445 10.2551C65.4168 10.3127 65.4191 10.3758 65.4505 10.4332C65.4781 10.4832 65.5085 10.5302 65.5417 10.5731C66.5779 11.9176 67.7599 12.8031 69.1554 13.2798C70.8568 13.8641 72.4195 13.816 73.8236 13.1286C74.0384 13.0104 74.2974 12.9505 74.5932 12.9505C74.8165 12.9505 74.984 12.9858 75.0396 12.9985C75.1227 13.0123 75.2356 13.0588 75.2587 13.0888C76.132 14.237 76.9608 15.4632 77.7348 16.7515C77.0808 16.1156 76.2281 15.6867 75.0663 15.4075C74.0481 15.1648 73.007 15.1128 72.0006 15.0621L71.6635 15.045C71.3478 15.0289 71.0321 15.0089 70.707 14.9883L70.1618 14.9547C70.0913 14.9547 70.0243 14.9888 69.9833 15.0455C69.9379 15.1066 69.927 15.1858 69.9538 15.257C69.9756 15.3165 70.0155 15.4213 70.036 15.4563C71.0976 17.2319 72.3441 18.4601 73.8464 19.2112C75.3151 19.9449 76.6421 20.1389 77.9806 19.8188C78.1355 19.7815 78.315 19.7617 78.5004 19.7617C79.0698 19.7617 79.4668 19.9354 79.5502 20.0963C80.2866 21.6154 80.9438 23.194 81.5106 24.8042C80.9161 23.9846 80.0848 23.3189 79.0323 22.821C77.9866 22.3274 76.8979 21.8762 75.8267 21.4322C75.3663 21.2419 74.9041 21.0509 74.4439 20.8555C74.3755 20.8255 74.2946 20.8318 74.2308 20.8739C74.1681 20.9156 74.1308 20.9852 74.1308 21.0601C74.1308 21.2039 75.6585 25.4438 77.8772 27.1146C78.7822 27.7962 79.897 28.4973 81.3028 28.5303C81.7235 28.5388 82.1586 28.5982 82.4871 28.9718C82.5374 29.0312 82.604 29.0775 82.6765 29.1022C82.7888 29.139 82.8196 29.2077 82.8749 29.4418C83.3302 31.3534 83.6618 33.3237 83.866 35.3244C83.8042 35.1214 83.7326 34.9163 83.6503 34.7087C83.1537 33.4495 82.318 32.3476 81.0203 31.2409C80.3514 30.6681 79.6509 30.1135 78.9735 29.5768L78.9412 29.5515C78.6327 29.307 78.3249 29.0635 78.0179 28.8169C77.9546 28.766 77.8928 28.7135 77.8212 28.6522L77.6297 28.4881C77.5626 28.4314 77.4629 28.4197 77.3845 28.4588C77.3041 28.4996 77.256 28.584 77.2622 28.6741C77.2716 28.8093 77.2792 28.9372 77.2864 29.06L77.2901 29.1174C77.3053 29.3701 77.3195 29.6086 77.3451 29.8441C77.5852 32.137 78.267 34.0513 79.4295 35.6963C80.1491 36.7131 81.1814 37.956 82.7911 38.5438C83.1828 38.6876 83.4669 38.9053 83.7713 39.2961C84.0584 39.662 84.1118 39.9964 84.1054 40.4171C84.078 42.1796 83.9524 43.928 83.7309 45.6402C83.6791 45.1637 83.5694 44.6732 83.401 44.1635C83.0524 43.1082 82.509 42.0821 81.7397 41.0268C81.0756 40.1129 80.3846 39.1959 79.7164 38.3085L79.6719 38.2493C79.4069 37.8979 79.1422 37.5461 78.8843 37.2018C78.8359 37.1311 78.7661 37.1058 78.7258 37.0917C78.6686 37.0638 78.6004 37.0611 78.5398 37.0869C78.4804 37.1122 78.4348 37.1622 78.4147 37.2235L78.4069 37.2475C78.3958 37.2797 78.3871 37.3083 78.3825 37.3369C77.9216 40.0848 78.2044 42.5469 79.2465 44.8644C79.7555 45.9976 80.4383 47.2806 81.642 48.2036C82.1915 48.6251 82.6254 49.2163 82.8636 49.8682C82.9141 50.0085 82.9123 50.0693 82.9065 50.0928C82.3971 52.203 81.7316 54.2383 80.9226 56.1646C81.1309 55.1494 81.1166 54.083 80.8788 52.9781C80.5413 51.4122 79.9611 49.8947 79.4435 48.5951L79.2885 48.2059C79.0458 47.5969 78.8016 46.9831 78.5493 46.3469C78.5173 46.2656 78.4401 46.2101 78.3371 46.205C78.256 46.205 78.1813 46.2513 78.1426 46.3264L78.0613 46.4794C78.0255 46.5465 77.9921 46.6089 77.9636 46.6734C76.9225 49.0223 76.5709 51.4302 76.9191 53.8302C77.1679 55.5464 77.5896 56.7752 78.2864 57.8149C78.647 58.3522 78.9896 58.9508 79.0518 59.687C79.0666 59.8612 79.0597 59.9813 78.982 60.1179C78.1032 61.6569 77.1179 63.1092 76.0389 64.4585C76.043 64.4511 76.0469 64.4438 76.0511 64.4364C76.8274 63.0177 76.8509 61.4838 76.7716 60.1702C76.7032 59.0441 76.5741 57.9197 76.45 56.8326L76.4428 56.7697C76.3928 56.3342 76.343 55.8989 76.2976 55.4627C76.2714 55.2155 76.2421 54.9683 76.2119 54.7173L76.1721 54.3777C76.1633 54.3026 76.1175 54.2376 76.0516 54.2049C75.929 54.1408 75.7306 54.2397 75.5163 54.4931C74.0437 56.2349 73.1298 58.2031 72.7999 60.3435C72.4577 62.5626 72.6432 64.4617 73.3676 66.1493C73.387 66.1943 73.3865 66.286 73.3863 66.3166L73.3474 67.2876C73.3416 67.3574 73.3047 67.4362 73.2743 67.4655C71.8038 68.8816 70.1849 70.1128 68.4475 71.1374C69.2699 70.3941 69.8611 69.4243 70.2443 68.1952C70.669 66.833 70.887 65.4152 71.0982 64.0405L71.1167 63.9182C71.1916 63.4352 71.2697 62.9532 71.3494 62.4606L71.4395 61.9036C71.4524 61.8225 71.4204 61.7414 71.3575 61.6928C71.295 61.643 71.2047 61.631 71.1328 61.6619L71.0542 61.6944C70.9704 61.7287 70.8973 61.7594 70.8284 61.7946C67.544 63.435 65.382 67.2609 65.6876 70.8913C65.7355 71.46 65.6834 71.9941 65.5281 72.5232C65.5136 72.5713 65.467 72.6236 65.4482 72.6324C63.8882 73.2902 62.405 73.7702 60.9126 74.0997C60.8359 74.1174 60.775 74.1723 60.7501 74.2462C60.725 74.3207 60.7402 74.4015 60.7914 74.4624C60.9536 74.6545 61.0949 74.8612 61.211 75.0776C61.2587 75.1661 61.3723 75.2115 61.4573 75.1893C62.6732 74.9119 63.8573 74.5527 64.9779 74.1209C65.0684 74.0845 65.1375 74.0672 65.2023 74.0778C65.4516 74.111 65.715 74.1621 66.0074 74.2347C66.0677 74.2495 66.1178 74.2773 66.1187 74.2748C66.7574 75.5481 67.8551 76.3592 69.4756 76.7539C69.8282 76.8384 70.1918 76.9009 70.5563 76.9391C70.9379 76.9795 71.3635 77 71.8208 77C72.4545 77 72.9063 76.9608 72.9119 76.9603C74.3165 76.8032 75.5161 76.4871 76.5785 75.9937C77.0145 75.7916 77.5113 75.5195 77.8931 75.0336C77.9661 74.9405 77.9539 74.8062 77.8652 74.728C76.7859 73.7757 75.687 73.0838 74.5052 72.6128C72.7543 71.9169 71.1593 71.7284 69.5959 72.0291C69.3623 72.0745 69.1342 72.1317 68.9125 72.1973C70.375 71.3231 71.7752 70.2957 73.0976 69.1252C73.1229 69.1021 73.1646 69.0819 73.1971 69.0761C73.4135 69.0402 73.7008 68.9959 73.9948 68.9747C74.022 68.9747 74.0566 68.9879 74.0605 68.9892C74.8573 69.881 75.8838 70.3144 77.1988 70.3144C77.2659 70.3144 77.3331 70.313 77.4002 70.3107C78.8299 70.2646 80.2673 69.8717 81.6731 69.1425C82.6948 68.6095 83.7597 67.989 84.6234 67.0636C84.8148 66.8579 84.9858 66.6251 85.1367 66.4198L85.1515 66.3998C85.2183 66.3092 85.2858 66.218 85.3552 66.1279C85.393 66.0793 85.4088 66.0166 85.3989 65.9535C85.3883 65.8926 85.3531 65.8385 85.2929 65.7993C85.2777 65.791 84.9121 65.5949 84.5782 65.4657C82.3427 64.6018 80.0857 64.5134 77.9327 65.2071C77.2278 65.4336 76.5645 65.7737 75.9186 66.2438C77.1131 64.8553 78.2191 63.3332 79.2233 61.6953C79.2341 61.6781 79.2627 61.6313 79.2719 61.6228C79.3597 61.5668 79.4495 61.5138 79.5392 61.4615C79.6998 61.3672 79.8661 61.2697 80.0224 61.1536C80.1542 61.0552 80.1912 61.0527 80.3244 61.1384C80.5129 61.2608 80.732 61.3244 80.9231 61.3744C82.0406 61.6605 83.1671 61.5179 84.4132 60.9329C85.5515 60.3992 86.4266 59.5557 87.2031 58.7239C88.3326 57.5105 89.0707 56.4158 89.526 55.2784C89.6216 55.0397 89.6898 54.7929 89.7608 54.5348C89.79 54.4265 89.82 54.3183 89.8518 54.2118C89.8866 54.0975 89.8257 53.9765 89.7128 53.9367L89.6193 53.9295C89.1587 53.9295 85.0499 53.997 82.6466 56.3289C82.1238 56.8363 81.6551 57.3754 81.2272 57.9658C82.1779 55.9524 82.9842 53.8305 83.6339 51.6279L83.6434 51.5956C83.6512 51.5687 83.663 51.5279 83.6708 51.5168L84.2994 50.6537C84.3229 50.6191 84.3257 50.6191 84.3625 50.6191C84.3789 50.6191 84.3968 50.6203 84.4174 50.6214L84.5517 50.6295C85.0194 50.6585 85.2948 50.6544 85.5213 50.6189C86.4162 50.4776 87.2241 50.0269 87.9907 49.2407C89.7836 47.402 91.0177 45.108 91.7633 42.2282C91.8433 41.9197 91.8656 41.6081 91.8896 41.2777C91.9002 41.1279 91.9119 40.9736 91.929 40.8141C91.9361 40.7376 91.9062 40.6646 91.8486 40.6169Z" fill="#02B3AC"/>
<path d="M31.0171 74.0973C29.5261 73.768 28.0431 73.288 26.4827 72.6302C26.464 72.6214 26.4177 72.5691 26.4032 72.5221C26.2477 71.9919 26.1956 71.4578 26.2435 70.8891C26.5491 67.2584 24.387 63.4328 21.1033 61.7927C21.0335 61.7572 20.9607 61.7265 20.8768 61.6922L20.799 61.66C20.725 61.6284 20.6349 61.6415 20.5752 61.6894C20.5107 61.7392 20.4787 61.8203 20.4918 61.9017L20.5817 62.4584C20.6614 62.951 20.7395 63.433 20.8144 63.9155L20.8333 64.0418C21.0441 65.413 21.2621 66.831 21.6868 68.1932C22.07 69.4223 22.6612 70.3921 23.4836 71.1352C21.7462 70.1108 20.1273 68.8797 18.657 67.4637C18.6261 67.434 18.5895 67.3552 18.5842 67.2902L18.5448 66.3186C18.5445 66.284 18.5441 66.1923 18.5637 66.1469C19.2879 64.4598 19.4734 62.5607 19.1312 60.3415C18.8012 58.2011 17.8874 56.2329 16.4148 54.4912C16.2424 54.2873 16.0904 54.184 15.9627 54.184C15.9316 54.184 15.9035 54.1902 15.8814 54.2018C15.8136 54.2354 15.7678 54.3006 15.7588 54.376L15.7194 54.7149C15.689 54.9665 15.6597 55.2135 15.6334 55.461C15.588 55.897 15.5383 56.3322 15.4883 56.7677L15.4811 56.8306C15.3567 57.918 15.2277 59.0424 15.1595 60.1682C15.0802 61.4816 15.1037 63.0155 15.88 64.4344C15.8841 64.4416 15.8878 64.4492 15.892 64.4563C14.8129 63.107 13.8279 61.6549 12.9491 60.1161C12.8714 59.9793 12.8647 59.8592 12.8792 59.685C12.9417 58.9484 13.2841 58.3498 13.6447 57.8129C14.3413 56.7732 14.7629 55.5444 15.012 53.8283C15.3602 51.4282 15.0085 49.0206 13.9675 46.6717C13.9389 46.6069 13.9055 46.5445 13.8698 46.4774L13.7885 46.324C13.7495 46.2491 13.6664 46.1998 13.5786 46.2037C13.491 46.2083 13.4138 46.2639 13.382 46.3445C13.1295 46.9814 12.8852 47.595 12.6426 48.204L12.4875 48.5932C11.97 49.8929 11.3896 51.4105 11.0523 52.9762C10.8145 54.081 10.8 55.1474 11.0085 56.1626C10.1993 54.2366 9.53403 52.2013 9.02458 50.0909C9.01882 50.0674 9.01697 50.0065 9.06744 49.8662C9.30569 49.2141 9.73957 48.6229 10.2893 48.2014C11.4928 47.2784 12.1756 45.9954 12.6845 44.8622C13.7267 42.5447 14.0095 40.0826 13.5486 37.3349C13.5438 37.3061 13.535 37.2775 13.5247 37.2464L13.5164 37.2215C13.4963 37.16 13.4507 37.1102 13.3903 37.0842C13.3313 37.0596 13.2571 37.0642 13.2113 37.0867C13.1652 37.1036 13.0954 37.1291 13.05 37.1957C12.7892 37.5441 12.5244 37.8957 12.2594 38.2471L12.215 38.3063C11.5467 39.1937 10.8557 40.1108 10.1916 41.0244C9.42228 42.0799 8.87895 43.106 8.53033 44.1613C8.36212 44.671 8.25221 45.1615 8.20037 45.638C7.97894 43.9258 7.85336 42.1776 7.82594 40.4149C7.81949 39.9942 7.87295 39.6598 8.16028 39.2937C8.46443 38.9034 8.74854 38.6854 9.14025 38.5416C10.7497 37.9536 11.7822 36.7109 12.5018 35.6941C13.6643 34.0491 14.3461 32.135 14.5862 29.8424C14.6118 29.6064 14.6263 29.3677 14.6413 29.1152L14.6449 29.0578C14.6521 28.935 14.6597 28.8071 14.6694 28.6716C14.6754 28.5818 14.6272 28.4974 14.5468 28.4566C14.4689 28.4175 14.3691 28.429 14.3014 28.4864L14.1104 28.65C14.0385 28.7113 13.977 28.7638 13.9131 28.8149C13.6064 29.0613 13.2986 29.305 12.9901 29.5495L12.9578 29.5749C12.2806 30.1113 11.5801 30.6659 10.9112 31.2387C9.6133 32.3457 8.77757 33.4475 8.28102 34.7067C8.19899 34.9144 8.1271 35.1197 8.06535 35.3229C8.2695 33.3219 8.60107 31.3514 9.05638 29.4396C9.11168 29.2057 9.14255 29.1371 9.25615 29.0997C9.32758 29.0756 9.39417 29.029 9.44279 28.9714C9.77298 28.596 10.2078 28.5366 10.629 28.5281C12.0345 28.4951 13.1493 27.794 14.0542 27.1124C16.2729 25.4414 17.8005 21.2017 17.8005 21.0579C17.8005 20.983 17.7632 20.9132 17.6998 20.871C17.6374 20.8298 17.5531 20.824 17.4895 20.8524C17.0272 21.0485 16.565 21.2395 16.0864 21.4374C15.0334 21.8741 13.9447 22.3252 12.8991 22.8185C11.8467 23.3165 11.0152 23.9824 10.4207 24.8017C10.9873 23.1918 11.6442 21.6134 12.3797 20.0966C12.4643 19.933 12.8615 19.7593 13.4311 19.7593C13.6164 19.7593 13.7959 19.7791 13.9509 19.8164C15.2892 20.1372 16.6162 19.9427 18.0849 19.2088C19.5874 18.4576 20.834 17.2295 21.8958 15.4532C21.916 15.4189 21.9559 15.314 21.9773 15.2553C22.0043 15.1834 21.9935 15.1041 21.9488 15.044C21.9073 14.9868 21.8409 14.9527 21.7564 14.9527C21.7557 14.9527 21.7552 14.9527 21.7545 14.9527L21.2241 14.9861C20.899 15.0067 20.5833 15.0267 20.2676 15.0428L19.9305 15.0599C18.924 15.1106 17.883 15.1626 16.8646 15.4053C15.703 15.6845 14.8502 16.1134 14.1963 16.7493C14.9703 15.461 15.7991 14.2352 16.6722 13.087C16.6957 13.0566 16.8083 13.0101 16.9007 12.9946C16.9468 12.9838 17.1146 12.9486 17.3376 12.9486C17.6335 12.9486 17.8925 13.0087 18.1121 13.1294C19.5072 13.8117 21.0741 13.8624 22.7753 13.2781C24.1707 12.8013 25.3525 11.9158 26.3885 10.5718C26.4221 10.5285 26.4525 10.4812 26.4802 10.4315C26.5117 10.3741 26.5138 10.311 26.4862 10.2534C26.406 10.0851 26.059 10.0061 25.9129 9.97984C25.5543 9.91717 25.1481 9.84574 24.7453 9.79113C24.5608 9.76532 24.376 9.73837 24.1907 9.71095L24.167 9.70726C23.5393 9.61463 22.8905 9.51878 22.2368 9.48583C21.0423 9.42477 19.9817 9.66855 19.1137 10.2082C19.6973 9.58698 20.2937 8.99757 20.8992 8.44387C21.0907 8.26922 21.3073 8.09318 21.6024 7.87221C21.6252 7.85469 21.6833 7.83419 21.7545 7.83004C23.8465 7.74824 25.5873 6.82472 27.0758 5.00718C27.8866 4.01776 28.5083 2.76982 28.9767 1.19191L28.9929 1.13776C29.0429 0.971862 29.0705 0.880616 28.9555 0.773702C28.8668 0.691212 28.7106 0.715637 28.3046 0.876469C27.9359 1.01818 27.565 1.15574 27.1841 1.29698C26.4189 1.58063 25.6274 1.87395 24.8635 2.20529C23.587 2.76014 22.5677 3.60117 21.8342 4.70464C21.2757 5.54429 21.055 6.38785 21.1589 7.27911C21.1582 7.28902 21.1494 7.31275 21.148 7.31551C19.8155 8.46599 18.5418 9.76118 17.2339 11.3027C18.1061 9.96925 18.6745 8.43397 18.9598 6.65421C19.2473 4.85994 19.2655 3.26291 19.0158 1.77211C18.9999 1.67879 18.9784 1.58547 18.951 1.46864L18.9102 1.28869C18.8918 1.2115 18.8337 1.14905 18.7575 1.12509C18.6812 1.10251 18.5957 1.12256 18.5388 1.1767C18.4475 1.26265 18.3581 1.34376 18.2708 1.42256L18.2093 1.47809C17.9858 1.67948 17.7747 1.86957 17.5837 2.08455C15.7277 4.17837 14.6452 6.38992 14.2744 8.84572C14.1055 9.95565 14.1756 10.9006 14.4887 11.7338C14.5924 12.0098 14.7542 12.2564 14.9152 12.5011C14.989 12.6128 15.0627 12.7251 15.1302 12.8403C15.18 12.923 15.1841 12.9444 15.1839 12.9405C15.1532 13.2688 15.1092 13.6347 15.0498 14.0739C15.0473 14.0795 15.039 14.0924 15.0125 14.1274L14.991 14.1571C13.976 15.568 13.0396 17.0553 12.197 18.5947C12.5283 17.4449 12.7922 15.9896 12.7735 14.2986C12.7509 12.2702 12.2838 10.4612 11.3451 8.76738C11.308 8.70148 11.2407 8.65863 11.1465 8.65217C11.0781 8.65217 11.0122 8.68604 10.9691 8.74388C10.941 8.78305 10.9124 8.81992 10.8852 8.85494C10.8246 8.93328 10.7679 9.00748 10.7172 9.08674C9.96975 10.2589 9.56883 11.5513 9.30269 12.5465C8.81628 14.3716 8.59277 15.8956 8.59923 17.3429C8.60291 18.5731 8.82711 19.5187 9.305 20.319C9.45362 20.568 9.64072 20.786 9.82874 21.0054C9.92851 21.1217 10.031 21.2413 10.1239 21.3639C10.1889 21.4492 10.2202 21.536 10.2221 21.5844C10.2343 21.8761 10.2278 22.1727 10.2216 22.4593L10.2172 22.6575C10.2165 22.6916 10.2087 22.7307 10.1969 22.7607C9.59694 24.2144 9.06951 25.7253 8.61973 27.2769C8.68586 26.7486 8.72319 26.237 8.73264 25.7379C8.78702 22.9052 7.91811 20.3754 6.14942 18.218L5.78075 17.7689C5.73812 17.7161 5.67498 17.6862 5.6077 17.6862L5.57083 17.6894C5.49203 17.7026 5.42567 17.7572 5.39825 17.8316C5.36461 17.9212 5.33166 18.0058 5.29963 18.0876C5.23788 18.2456 5.17958 18.3954 5.13027 18.5477C4.75077 19.7365 4.5646 21.0351 4.52681 22.7577L4.52612 22.7913C4.49778 24.0446 4.45883 25.7614 4.97359 27.4043C5.48028 29.0216 6.37384 29.8389 6.54712 29.9857L6.56555 30.0023C7.03722 30.4233 7.34437 30.8083 7.40796 31.0583C7.43354 31.1592 7.45957 31.2604 7.48999 31.3604C7.62455 31.8053 7.54045 32.2293 7.44967 32.6871C7.40451 32.9182 7.3575 33.157 7.34114 33.4019C7.27616 34.3821 7.19644 35.3789 7.11925 36.3427L7.11233 36.4319C7.09252 36.6777 7.0727 36.9236 7.05312 37.1695C6.85634 34.9639 6.12591 32.959 4.86921 31.186C4.09961 30.1011 3.18209 29.173 2.14152 28.4267C2.09658 28.3944 2.04935 28.3656 1.98621 28.3281C1.95557 28.3103 1.92008 28.2891 1.877 28.2622C1.81202 28.2232 1.72861 28.2198 1.66155 28.2525C1.59289 28.2859 1.54565 28.3539 1.53782 28.4308C1.52376 28.5702 1.5074 28.7053 1.49012 28.8454C1.45533 29.1322 1.42238 29.4032 1.421 29.6815C1.40556 32.5669 2.01594 35.2706 3.23577 37.7167C3.57564 38.3992 4.02473 38.9895 4.57105 39.472C5.11276 39.9478 5.69733 40.2285 6.35702 40.3294C6.37154 40.332 6.4061 40.3529 6.4114 40.3571C6.44712 40.4287 6.48421 40.5006 6.52131 40.5727C6.65311 40.8274 6.78929 41.0907 6.85703 41.3548C6.91348 41.5781 6.91348 41.8221 6.91348 42.0806C6.91348 42.1753 6.91348 42.2707 6.91648 42.3642C6.97984 44.5993 7.06302 45.3777 7.42063 47.3747C7.20243 46.7809 6.92846 46.1855 6.57477 45.6127C5.14249 43.2944 3.32287 41.7209 1.012 40.8027C0.864997 40.7435 0.717529 40.7009 0.546559 40.6511L0.512457 40.6409C0.443101 40.6207 0.369597 40.599 0.291025 40.575C0.220056 40.5518 0.139179 40.5677 0.0813439 40.6156C0.0237393 40.6633 -0.0064455 40.7363 0.00115831 40.8124C0.0182093 40.9709 0.0299606 41.1251 0.0407903 41.2755C0.0645234 41.6055 0.086874 41.917 0.166829 42.2253C0.912464 45.1053 2.14658 47.3991 3.93947 49.2381C4.70607 50.0243 5.51392 50.475 6.4091 50.6162C6.63491 50.6515 6.91095 50.6559 7.37824 50.6268L7.5128 50.6188C7.53331 50.6176 7.55128 50.6165 7.56764 50.6165C7.60451 50.6165 7.6075 50.6165 7.63308 50.6542L8.25913 51.5139C8.26719 51.5252 8.27894 51.566 8.28701 51.5941L8.29622 51.625C8.946 53.8278 9.75224 55.9495 10.7029 57.9631C10.2751 57.3726 9.80616 56.8334 9.28357 56.3262C6.8803 53.9944 2.77148 53.9269 2.31087 53.9269L2.2535 53.9273L2.21732 53.934C2.10442 53.9741 2.04336 54.0949 2.07815 54.2085C2.11018 54.3156 2.14013 54.4239 2.17447 54.5511C2.24013 54.79 2.30834 55.0368 2.40396 55.2755C2.85927 56.4133 3.5973 57.5078 4.72704 58.7212C5.50332 59.553 6.37845 60.3966 7.51649 60.93C8.76282 61.5153 9.88819 61.6581 11.0073 61.3715C11.1977 61.3215 11.4166 61.2581 11.6048 61.136C11.7389 61.05 11.7755 61.0528 11.9073 61.151C12.0636 61.2671 12.2297 61.3646 12.391 61.459C12.4802 61.5113 12.57 61.5641 12.6539 61.6171C12.6673 61.6284 12.6958 61.6752 12.7064 61.6924C13.7106 63.3303 14.8168 64.8524 16.0113 66.2409C15.3652 65.7709 14.7019 65.4308 13.9972 65.2043C11.844 64.5105 9.58703 64.5987 7.35174 65.463C7.01809 65.5923 6.65242 65.7881 6.62799 65.802C6.57684 65.8356 6.54159 65.89 6.53053 65.9524C6.52085 66.0137 6.53675 66.0764 6.57408 66.1243C6.64389 66.2151 6.71141 66.3063 6.77823 66.3969L6.79297 66.4167C6.9439 66.6222 7.11487 66.8547 7.30658 67.0607C8.16996 67.9863 9.23472 68.6068 10.2569 69.1396C11.6624 69.8689 13.0998 70.2617 14.5293 70.3078C14.5966 70.3101 14.6638 70.3115 14.7309 70.3115C16.0459 70.3115 17.0724 69.8781 17.8637 68.9916C17.8733 68.9847 17.9077 68.9716 17.9266 68.9714C18.2289 68.993 18.5162 69.037 18.731 69.0728C18.7648 69.0787 18.8065 69.099 18.8326 69.1225C20.1545 70.2928 21.5545 71.32 23.017 72.1942C22.7953 72.1286 22.567 72.0714 22.3333 72.0256C20.7704 71.7251 19.1754 71.9136 17.424 72.6094C16.2424 73.0804 15.1436 73.7724 14.0645 74.7247C13.9756 74.8028 13.9631 74.9371 14.0364 75.0302C14.4182 75.5162 14.915 75.7883 15.3507 75.9901C16.4134 76.4839 17.613 76.8001 19.0192 76.9572C19.0234 76.9574 19.4752 76.9966 20.1089 76.9966C20.5662 76.9966 20.9918 76.9761 21.3732 76.9358C21.7377 76.8975 22.1013 76.8351 22.4541 76.7503C24.0744 76.3558 25.1723 75.5447 25.8013 74.2855C25.8126 74.2747 25.861 74.2466 25.9223 74.2316C26.2147 74.159 26.4779 74.1079 26.7281 74.0744C26.7871 74.065 26.8606 74.0809 26.9532 74.1182C28.0721 74.5493 29.2562 74.9086 30.4703 75.1855C30.4874 75.1897 30.5051 75.1917 30.5229 75.1917C30.6044 75.1917 30.6795 75.1468 30.7192 75.0735C30.8351 74.8579 30.9763 74.6509 31.1388 74.4585C31.1897 74.3979 31.2049 74.3173 31.1798 74.2427C31.1558 74.1703 31.095 74.1155 31.0171 74.0973Z" fill="#02B3AC"/>
<path d="M56.8963 44.3602L66.1545 35.3357C66.4683 35.0297 66.5817 34.5716 66.446 34.1548C66.3105 33.7375 65.9501 33.4333 65.516 33.3704L52.7225 31.5126L47 19.9195C46.806 19.5262 46.4056 19.2773 45.9671 19.2773C45.5286 19.2773 45.1279 19.5267 44.9341 19.9195L39.2137 31.5126L26.4181 33.3704C25.9843 33.4333 25.6237 33.7377 25.4882 34.1548C25.3524 34.5716 25.4656 35.0297 25.7796 35.3357L35.0379 44.3602L32.8535 57.1022C32.7793 57.5342 32.957 57.9711 33.3118 58.2287C33.6662 58.4865 34.1362 58.5206 34.5249 58.3165L45.9675 52.3014L57.4101 58.3165C57.5786 58.4052 57.7627 58.4487 57.9458 58.4487C58.1848 58.4487 58.4223 58.3745 58.623 58.2287C58.9779 57.9713 59.1558 57.5342 59.0813 57.1022L56.8963 44.3602Z" fill="#02B3AC"/>
</svg>
