<svg width="20" height="20" viewBox="0 0 20 20" fill="none" xmlns="http://www.w3.org/2000/svg">
<path d="M9.45234 0H10.5461C10.8996 0.0441311 11.2551 0.0781083 11.6062 0.134346C13.3406 0.421394 14.9031 1.10601 16.2645 2.21984C18.2758 3.86441 19.4902 5.97254 19.8828 8.5466C19.9289 8.84732 19.9609 9.15038 20 9.45227V10.5458C19.9562 10.893 19.925 11.2417 19.8672 11.5866C19.4875 13.8568 18.4574 15.7829 16.7672 17.3443C15.2604 18.7354 13.4887 19.5816 11.452 19.8828C11.1508 19.927 10.8484 19.9609 10.5469 20H9.45234C9.19531 19.9699 8.93789 19.9442 8.68164 19.9086C6.67109 19.6278 4.89258 18.8311 3.37695 17.4779C1.57617 15.8689 0.482031 13.8662 0.117188 11.4737C0.0703125 11.1667 0.0390625 10.8574 0 10.5489V9.45539C0.0121094 9.39876 0.0273433 9.34292 0.0355464 9.28551C0.103515 8.81061 0.144922 8.32985 0.241406 7.86081C1.05898 3.87573 4.50391 0.66392 8.52734 0.117162C8.83555 0.0753744 9.14414 0.0390541 9.45234 0ZM9.99141 14.0204V13.9939C10.1215 13.9939 10.252 13.9989 10.382 13.9939C11.5445 13.94 12.7078 13.9005 13.8687 13.8224C14.5457 13.7767 14.9742 13.371 15.1297 12.7121C15.1764 12.5166 15.2106 12.3183 15.232 12.1185C15.3795 10.7267 15.3678 9.32262 15.1973 7.93345C15.0836 7.02427 14.6086 6.5482 13.6895 6.47947C12.9441 6.42349 12.1978 6.38144 11.4504 6.35332C9.71407 6.2837 7.97507 6.3257 6.24414 6.47908C5.44141 6.55328 4.95508 6.97077 4.84258 7.76786C4.75007 8.45666 4.69283 9.14973 4.67109 9.84437C4.63194 10.7676 4.68849 11.6924 4.83984 12.6039C4.95352 13.2639 5.34375 13.6728 6 13.8048C6.25485 13.8564 6.5133 13.8881 6.77305 13.8997C7.8457 13.9474 8.91875 13.9814 9.99141 14.0204Z" fill="#02B3AC"/>
<path d="M9.01758 11.9821V8.68164L11.659 10.3309L9.01758 11.9821Z" fill="#02B3AC"/>
</svg>
