<svg width="20" height="20" viewBox="0 0 20 20" fill="none" xmlns="http://www.w3.org/2000/svg">
<g clip-path="url(#clip0_1891_937)">
<path d="M17.4344 2.98218C13.9312 -0.525006 8.10339 -0.999195 3.89471 1.88116C-0.893436 5.16164 -1.34413 11.5456 2.94787 15.4294C3.13061 15.5947 3.16659 15.7672 3.16659 15.9858C3.16659 17.2882 3.17606 18.5898 3.18269 19.8922C3.18269 19.9572 3.18931 20.0159 3.28399 19.9961C4.51488 19.3015 5.73914 18.6105 6.95867 17.9069C7.047 17.8491 7.14737 17.8102 7.25292 17.7927C7.35848 17.7752 7.46673 17.7797 7.57032 17.8058C10.0955 18.3612 12.5175 18.0939 14.8306 16.9604C20.4558 14.2028 21.7425 7.30227 17.4344 2.98218Z" fill="#02B3AC"/>
<path d="M12.2503 11.9396C12.2305 11.9173 12.2376 11.8909 12.2376 11.8658C12.2376 9.94373 12.2376 8.02161 12.2376 6.0995C12.2376 6.08279 12.239 6.06748 12.239 6.05078C12.6022 6.05078 12.9641 6.05078 13.3273 6.05078C13.3259 6.05635 13.3259 6.06192 13.3245 6.06748C13.292 6.09393 13.2524 6.08697 13.2157 6.08697C12.9429 6.08836 12.6701 6.08697 12.3959 6.08697C12.2757 6.08697 12.2757 6.08697 12.2757 6.20806C12.2757 8.07172 12.2757 9.93677 12.2743 11.8004C12.2757 11.8464 12.2899 11.8979 12.2503 11.9396Z" fill="#293744"/>
<path d="M6.18907 6.05078C6.18907 6.05635 6.18907 6.06052 6.18766 6.06609C6.14808 6.09671 6.10285 6.08697 6.05904 6.08697C5.28165 6.08697 4.50426 6.08697 3.72829 6.08697C2.91132 6.08697 2.09436 6.08697 1.27739 6.08697C1.23358 6.08697 1.18693 6.09671 1.14736 6.06748C1.14594 6.06192 1.14453 6.05635 1.14453 6.05078C2.8251 6.05078 4.50709 6.05078 6.18907 6.05078Z" fill="#293744"/>
<path d="M16.5774 12.2863C16.5392 12.2863 16.5025 12.2863 16.4643 12.2863C16.4601 12.278 16.4615 12.271 16.4685 12.2655C16.5039 12.2488 16.5378 12.2488 16.5731 12.2655C16.5802 12.271 16.5816 12.278 16.5774 12.2863Z" fill="#293744"/>
<path d="M16.4641 12.2738C16.4641 12.2779 16.4641 12.2807 16.4641 12.2849C16.4357 12.2849 16.4073 12.2849 16.3789 12.2849C16.3789 12.2807 16.3789 12.2765 16.3789 12.2738C16.4073 12.2486 16.4357 12.2486 16.4641 12.2738Z" fill="#293744"/>
<path d="M16.5762 12.286C16.5762 12.2818 16.5762 12.279 16.5762 12.2748C16.6046 12.2482 16.633 12.2482 16.6613 12.2748C16.6613 12.279 16.6613 12.2832 16.6613 12.286C16.633 12.286 16.6046 12.286 16.5762 12.286Z" fill="#293744"/>
<path d="M2.12946 6.00247C2.14831 6.00124 2.16715 6 2.186 6C3.65083 6 5.11441 6 6.57924 6C6.58929 6 6.6006 6 6.61065 6.00124C6.62447 6.28206 6.60311 6.55669 6.43226 6.79421C6.34055 6.92163 6.23125 7.03668 6.132 7.15915C5.21994 8.28614 4.30787 9.41436 3.39455 10.5426C3.38324 10.5574 3.37193 10.5723 3.36063 10.5871C3.38324 10.6044 3.40711 10.5958 3.42847 10.5958C4.46491 10.5958 5.50135 10.597 6.53653 10.5945C6.60185 10.5945 6.61567 10.6131 6.61316 10.6725C6.60814 10.8123 6.61316 10.9533 6.61191 11.0931C6.60939 11.3158 6.44482 11.4778 6.21743 11.4778C4.83174 11.4778 3.44606 11.4778 2.06037 11.4791C2.01514 11.4791 1.99881 11.4704 2.00007 11.4222C2.00509 11.2848 1.99504 11.1463 2.02268 11.009C2.04906 10.8766 2.10685 10.7591 2.19102 10.6552C3.19354 9.43539 4.1948 8.21315 5.19732 6.99214C5.20863 6.97854 5.21868 6.96369 5.23627 6.94019C5.20486 6.94019 5.18225 6.94019 5.15963 6.94019C4.17345 6.94019 3.18726 6.94019 2.20233 6.94142C2.14203 6.94142 2.1257 6.92782 2.12695 6.8672C2.13072 6.57896 2.12946 6.29072 2.12946 6.00247Z" fill="#293744"/>
<path d="M11.9995 11.2223C11.9995 9.51144 11.9995 7.80179 11.9995 6.09089C11.9995 5.98698 11.987 6.00059 12.0887 6.00059C12.3777 6.00059 12.6666 6.00182 12.9556 6.00306C12.9556 6.02162 12.9568 6.04017 12.9568 6.05873C12.9568 7.84137 12.9568 9.62526 12.9581 11.4079C12.9581 11.4685 12.9417 11.4821 12.8827 11.4809C12.698 11.4772 12.5146 11.4797 12.3299 11.4797C12.1591 11.4784 12.0385 11.3844 11.9995 11.2223Z" fill="#293744"/>
<path fill-rule="evenodd" clip-rule="evenodd" d="M8.6054 11.4731C9.22727 11.5931 9.80013 11.4644 10.3265 11.1045C10.3529 11.342 10.5062 11.4781 10.7386 11.4768C10.7792 11.4768 10.82 11.4765 10.8608 11.4761C10.9562 11.4754 11.0519 11.4746 11.1469 11.4781C11.2097 11.4805 11.226 11.4644 11.226 11.4014C11.2248 10.0683 11.2248 8.7352 11.2248 7.40212V7.40061C11.2248 7.39735 11.2246 7.39396 11.2245 7.39053C11.2242 7.38352 11.2239 7.37632 11.2248 7.36968C11.2298 7.3338 11.2122 7.32514 11.1783 7.32514C10.9107 7.32638 10.6418 7.32638 10.3743 7.32514C10.3378 7.32514 10.3265 7.33628 10.3278 7.37092C10.3296 7.43076 10.3294 7.48992 10.3292 7.55349C10.3291 7.57534 10.329 7.59771 10.329 7.62081C9.83657 7.28308 9.30139 7.14824 8.71721 7.23236C8.12927 7.31648 7.65439 7.59854 7.29132 8.06121C6.67826 8.84181 6.70338 9.97251 7.34911 10.7333C7.67952 11.123 8.09912 11.3754 8.6054 11.4731ZM9.04001 10.6279C9.75232 10.6254 10.3239 10.0613 10.3227 9.36113C10.3214 8.66094 9.74981 8.09807 9.03624 8.09683C8.32392 8.09559 7.74477 8.66465 7.74603 9.36361C7.74854 10.0638 8.32769 10.6304 9.04001 10.6279Z" fill="#293744"/>
<path fill-rule="evenodd" clip-rule="evenodd" d="M15.8446 11.5176H15.92C16.0431 11.5089 16.1662 11.4929 16.2856 11.4656C17.4477 11.2096 18.2014 10.0516 17.9514 8.90611C17.6926 7.71603 16.5117 6.9713 15.3044 7.23604C14.0494 7.51067 13.2944 8.8158 13.6964 10.0182C13.9816 10.8743 14.7353 11.4471 15.6675 11.5176H15.7429H15.8446ZM15.7983 8.07618C15.0797 8.07371 14.4993 8.64153 14.498 9.34791C14.4968 10.0555 15.0734 10.6258 15.7908 10.6271C16.5056 10.6271 17.086 10.0605 17.0885 9.3578C17.0923 8.65143 16.5157 8.07865 15.7983 8.07618Z" fill="#293744"/>
</g>
<defs>
<clipPath id="clip0_1891_937">
<rect width="20" height="20" fill="white"/>
</clipPath>
</defs>
</svg>
