<svg width="25" height="24" viewBox="0 0 25 24" fill="none" xmlns="http://www.w3.org/2000/svg">
<g clip-path="url(#clip0_172_17599)">
<path d="M7.41343 24.9105C5.79497 24.9105 4.17058 24.9639 2.55213 24.9046C0.637247 24.8276 -0.827072 23.2209 -0.827072 21.3061C-0.827072 15.1227 -0.815215 8.93939 -0.827072 2.75012C-0.827072 0.633669 0.826957 -0.842507 2.72998 -0.895863C4.72193 -0.949219 6.7198 -0.90772 8.71768 -0.90772C8.75325 -0.90772 8.80068 -0.925505 8.81846 -0.866221C8.80661 -0.759509 8.6999 -0.747653 8.63468 -0.706154C7.46086 -0.0184569 6.38781 0.805593 5.48669 1.82528C3.99866 3.50895 2.96712 5.44162 2.61734 7.68849C2.00078 11.6546 3.23982 15.0219 6.04396 17.832C6.54195 18.3359 6.60716 18.7272 6.20996 19.403C5.72976 20.2152 5.00056 20.7666 4.22394 21.2705C4.14094 21.3179 4.05794 21.3772 3.97495 21.4306C3.85045 21.5373 3.92752 21.5906 4.03423 21.6381C4.05794 21.6914 4.08759 21.7388 4.12316 21.7863C4.80493 22.391 5.45112 23.0372 6.12103 23.6537C6.43524 23.9442 6.74945 24.2466 7.0518 24.5489C7.17629 24.6616 7.38379 24.6971 7.41343 24.9105Z" fill="#A9ACAA"/>
<path d="M7.41288 24.9107C7.38324 24.7032 7.17574 24.6676 7.05125 24.5431C6.7489 24.2349 6.43469 23.9384 6.12049 23.648C5.45058 23.0314 4.80438 22.3852 4.12261 21.7805C4.08704 21.7331 4.0574 21.6856 4.03368 21.6323C5.54543 21.9287 7.02161 21.7271 8.47407 21.2825C8.96613 21.1343 9.45819 20.9861 9.95617 20.8616C10.2941 20.7727 10.6498 20.7905 10.9759 20.909C14.7345 22.2014 18.4457 22.0829 22.0976 20.4822C23.5856 19.8241 24.9432 18.8993 26.0933 17.7432C26.1526 17.684 26.1941 17.595 26.3008 17.5891C26.3542 17.6721 26.3245 17.761 26.3245 17.85V21.3181C26.3364 23.2982 24.7476 24.9107 22.7675 24.9285H22.7378C20.6036 24.9403 18.4694 24.9285 16.3352 24.9285H7.76859C7.65002 24.9166 7.53145 24.9107 7.41288 24.9107Z" fill="#A9ACAA"/>
<path fill-rule="evenodd" clip-rule="evenodd" d="M14.4369 8.40194C14.2114 8.44594 14.0738 8.60545 13.9418 8.77595C13.2543 8.17643 12.4953 8.13793 11.7473 8.58345C10.8452 9.11146 10.5097 9.96949 10.6252 10.976C10.7352 11.9056 11.1368 12.6701 12.1158 12.9891C12.7263 13.1871 13.2928 13.1156 13.7933 12.7086C13.9253 12.6041 13.9638 12.6261 14.0573 12.7416C14.2389 12.9781 14.5524 13.0606 14.8274 12.9561C15.0969 12.8736 15.2839 12.6206 15.2839 12.3346C15.2949 11.2345 15.3004 10.1345 15.2839 9.03446C15.2784 8.59445 14.8714 8.31394 14.4369 8.40194ZM12.2258 11.449C12.0828 11.2565 12.0058 11.0255 11.9948 10.7835C11.9893 10.008 12.4128 9.54048 13.0178 9.57898C13.2763 9.58448 13.5183 9.71098 13.6723 9.92549C13.9803 10.3435 13.9803 11.031 13.6723 11.449C13.6173 11.5205 13.5568 11.581 13.4908 11.6305C13.0893 11.9276 12.5228 11.845 12.2258 11.449ZM19.959 8.30844C18.639 8.34694 17.7095 9.40297 17.7535 10.8165C17.7315 12.1916 18.87 13.2311 20.3055 13.0881C21.6201 12.9561 22.4726 11.9716 22.4286 10.58C22.3846 9.20497 21.3616 8.26443 19.959 8.30844ZM19.3705 11.4545C19.2055 11.229 19.123 10.9595 19.134 10.6845C19.134 9.99699 19.552 9.54598 20.146 9.57898C20.4046 9.58448 20.6466 9.71648 20.8006 9.92549C21.1141 10.3435 21.1141 11.0475 20.7951 11.4655C20.7456 11.5205 20.6961 11.5755 20.6356 11.6195C20.2395 11.9276 19.673 11.8506 19.3705 11.4545ZM17.2707 10.5745C17.2701 10.2903 17.2695 10.0062 17.2695 9.72198C17.2695 9.43618 17.2701 9.14976 17.2707 8.86314C17.2719 8.28929 17.2731 7.71462 17.2695 7.1424C17.2695 6.70238 16.9889 6.42738 16.5709 6.43288C16.1639 6.43288 15.8944 6.70788 15.8889 7.1314C15.8852 7.30353 15.8865 7.47323 15.8877 7.64373C15.8883 7.72929 15.8889 7.81505 15.8889 7.90142V12.2741C15.8889 12.6206 16.0979 12.9121 16.3729 12.9836C16.4389 13.0001 16.5104 13.0056 16.5764 13.0056C16.9669 12.9946 17.275 12.6701 17.2695 12.2796C17.2731 11.7112 17.2719 11.1429 17.2707 10.5745ZM8.39025 11.6683C8.11904 11.6689 7.84388 11.6695 7.56305 11.6695C7.65106 11.5485 7.70606 11.477 7.76656 11.4055C8.48708 10.498 9.20761 9.58497 9.92813 8.66645C10.1371 8.39694 10.3461 8.12743 10.4781 7.81392C10.6267 7.45091 10.4671 7.10439 10.0931 6.97789C9.92263 6.93389 9.75212 6.91189 9.57612 6.91739C8.59709 6.91189 7.61255 6.91189 6.63352 6.91739C6.49602 6.91739 6.35851 6.93389 6.22651 6.96689C6.0175 7.01639 5.8525 7.1869 5.803 7.3959C5.73149 7.70391 5.924 8.01742 6.23751 8.08893C6.36951 8.11643 6.50702 8.13293 6.64452 8.13293C6.94153 8.13568 7.23992 8.13568 7.53831 8.13568C7.83669 8.13568 8.13507 8.13568 8.43208 8.13843C8.44946 8.13988 8.46761 8.13789 8.48591 8.13589C8.53711 8.13029 8.58957 8.12455 8.63009 8.19343C8.58059 8.25393 8.53109 8.31993 8.48159 8.38592L8.48158 8.38594C7.62905 9.46397 6.77653 10.5475 5.9295 11.6255C5.72049 11.895 5.61049 12.1921 5.76449 12.5221C5.9185 12.8521 6.23201 12.9181 6.55102 12.9346C6.73548 12.9464 6.91713 12.9441 7.09998 12.9419C7.17339 12.941 7.24699 12.9401 7.32104 12.9401C7.54397 12.9401 7.76655 12.9404 7.98896 12.9408C8.65551 12.9418 9.32053 12.9428 9.98863 12.9346C10.4616 12.9291 10.7147 12.6376 10.6652 12.2031C10.6212 11.8565 10.3846 11.675 9.95013 11.6695C9.43683 11.6659 8.92112 11.6671 8.39025 11.6683Z" fill="#A9ACAA"/>
</g>
<defs>
<clipPath id="clip0_172_17599">
<rect x="0.153854" width="24" height="24" rx="2.76923" fill="white"/>
</clipPath>
</defs>
</svg>
