<svg width="26" height="26" viewBox="0 0 26 26" fill="none" xmlns="http://www.w3.org/2000/svg">
<g clip-path="url(#clip0_1944_2839)">
<rect width="26" height="26" rx="2" fill="white"/>
<path d="M7.86471 26.9864C6.11138 26.9864 4.35163 27.0443 2.5983 26.98C0.523846 26.8965 -1.0625 25.156 -1.0625 23.0816C-1.0625 16.383 -1.04966 9.68435 -1.0625 2.97931C-1.0625 0.686495 0.729365 -0.912696 2.79097 -0.970498C4.94892 -1.0283 7.11328 -0.983343 9.27765 -0.983343C9.31618 -0.983343 9.36756 -1.00261 9.38683 -0.938386C9.37399 -0.822782 9.25838 -0.809937 9.18774 -0.764979C7.91609 -0.0199746 6.75363 0.872746 5.77741 1.97741C4.16538 3.80139 3.04787 5.89511 2.66895 8.32922C2.00101 12.6258 3.3433 16.2738 6.38112 19.318C6.92061 19.8639 6.99126 20.2878 6.56095 21.02C6.04073 21.8999 5.25077 22.4972 4.40943 23.0431C4.31952 23.0944 4.2296 23.1587 4.13969 23.2165C4.00482 23.3321 4.08831 23.3899 4.20391 23.4413C4.2296 23.4991 4.26171 23.5504 4.30025 23.6018C5.03883 24.2569 5.73888 24.957 6.46462 25.6249C6.80501 25.9396 7.1454 26.2671 7.47294 26.5947C7.60781 26.7167 7.8326 26.7552 7.86471 26.9864Z" fill="#006FFB"/>
<path d="M7.86392 26.9864C7.83181 26.7616 7.60702 26.7231 7.47215 26.5882C7.14461 26.2543 6.80422 25.9331 6.46383 25.6184C5.73809 24.9505 5.03804 24.2505 4.29946 23.5954C4.26093 23.544 4.22881 23.4926 4.20312 23.4348C5.84085 23.7559 7.44004 23.5376 9.01354 23.0559C9.54661 22.8953 10.0797 22.7348 10.6192 22.5999C10.9852 22.5035 11.3706 22.5228 11.7238 22.6513C15.7957 24.0514 19.8161 23.9229 23.7723 22.1888C25.3844 21.476 26.8551 20.474 28.1011 19.2217C28.1653 19.1574 28.2103 19.0611 28.3259 19.0547C28.3837 19.1446 28.3515 19.2409 28.3515 19.3373V23.0944C28.3644 25.2395 26.6432 26.9864 24.4981 27.0057H24.466C22.1539 27.0185 19.8418 27.0057 17.5297 27.0057H8.24927C8.12082 26.9928 7.99237 26.9864 7.86392 26.9864Z" fill="#006FFB"/>
<path fill-rule="evenodd" clip-rule="evenodd" d="M15.4732 9.10199C15.2289 9.14966 15.08 9.32246 14.937 9.50717C14.1921 8.85769 13.3699 8.81598 12.5595 9.29862C11.5823 9.87064 11.2188 10.8002 11.344 11.8906C11.4631 12.8976 11.8981 13.7258 12.9587 14.0714C13.6201 14.2859 14.2339 14.2084 14.7761 13.7675C14.9191 13.6543 14.9608 13.6781 15.0621 13.8033C15.2587 14.0595 15.5984 14.1489 15.8963 14.0356C16.1882 13.9463 16.3908 13.6722 16.3908 13.3623C16.4028 12.1706 16.4087 10.9789 16.3908 9.78722C16.3849 9.31054 15.9439 9.00665 15.4732 9.10199ZM13.0779 12.403C12.923 12.1945 12.8396 11.9442 12.8276 11.682C12.8217 10.8419 13.2805 10.3354 13.9359 10.3771C14.216 10.3831 14.4782 10.5201 14.645 10.7525C14.9787 11.2053 14.9787 11.9502 14.645 12.403C14.5854 12.4805 14.5199 12.546 14.4484 12.5996C14.0134 12.9214 13.3997 12.832 13.0779 12.403ZM21.4556 9.00069C20.0255 9.0424 19.0185 10.1864 19.0662 11.7178C19.0424 13.2074 20.2758 14.3336 21.831 14.1787C23.2551 14.0356 24.1786 12.9691 24.131 11.4616C24.0833 9.97193 22.975 8.95303 21.4556 9.00069ZM20.818 12.409C20.6393 12.1647 20.5499 11.8727 20.5618 11.5748C20.5618 10.83 21.0147 10.3414 21.6582 10.3771C21.9382 10.3831 22.2004 10.5261 22.3672 10.7525C22.7069 11.2053 22.7069 11.968 22.3613 12.4209C22.3077 12.4805 22.254 12.5401 22.1885 12.5877C21.7595 12.9214 21.1457 12.838 20.818 12.409ZM18.5432 11.4556C18.5425 11.1477 18.5419 10.8399 18.5419 10.532C18.5419 10.2224 18.5425 9.91213 18.5432 9.60162C18.5445 8.97995 18.5458 8.35739 18.5419 7.73749C18.5419 7.26081 18.238 6.96288 17.7851 6.96884C17.3442 6.96884 17.0522 7.26676 17.0463 7.72557C17.0423 7.91205 17.0436 8.09589 17.0449 8.2806C17.0456 8.37329 17.0463 8.46619 17.0463 8.55976V13.2968C17.0463 13.6722 17.2727 13.988 17.5706 14.0654C17.6421 14.0833 17.7196 14.0893 17.7911 14.0893C18.2141 14.0774 18.5478 13.7258 18.5419 13.3027C18.5458 12.687 18.5445 12.0713 18.5432 11.4556ZM8.92274 12.6405C8.62894 12.6412 8.33084 12.6419 8.02661 12.6419C8.12195 12.5108 8.18153 12.4333 8.24708 12.3559C9.02764 11.3727 9.80821 10.3836 10.5888 9.38854L10.5888 9.38853C10.8152 9.09657 11.0416 8.8046 11.1846 8.46497C11.3455 8.0717 11.1727 7.69632 10.7675 7.55927C10.5828 7.5116 10.3981 7.48777 10.2074 7.49373C9.14682 7.48777 8.08024 7.48777 7.01962 7.49373C6.87066 7.49373 6.7217 7.5116 6.57869 7.54735C6.35227 7.60098 6.17351 7.78569 6.11988 8.01212C6.04242 8.3458 6.25097 8.68543 6.59061 8.76289C6.73361 8.79269 6.88258 8.81056 7.03154 8.81056C7.3533 8.81354 7.67655 8.81354 7.9998 8.81354C8.32305 8.81354 8.6463 8.81354 8.96806 8.81652C8.98689 8.81809 9.00655 8.81594 9.02638 8.81377C9.08185 8.8077 9.13867 8.80149 9.18257 8.8761C9.12894 8.94165 9.07531 9.01315 9.02169 9.08465L9.02169 9.08465C8.09811 10.2525 7.17454 11.4264 6.25693 12.5942C6.03051 12.8862 5.91134 13.208 6.07818 13.5655C6.24501 13.923 6.58465 13.9945 6.93024 14.0124C7.13007 14.0251 7.32687 14.0227 7.52496 14.0203C7.60448 14.0193 7.68421 14.0183 7.76444 14.0183C8.00593 14.0183 8.24706 14.0187 8.488 14.0191C9.2101 14.0202 9.93054 14.0213 10.6543 14.0124C11.1668 14.0064 11.4408 13.6906 11.3872 13.2199C11.3396 12.8445 11.0833 12.6479 10.6126 12.6419C10.0565 12.6379 9.49786 12.6392 8.92274 12.6405Z" fill="#006FFB"/>
</g>
<defs>
<clipPath id="clip0_1944_2839">
<rect width="26" height="26" rx="2" fill="white"/>
</clipPath>
</defs>
</svg>
