<svg width="12" height="14" viewBox="0 0 12 14" fill="none" xmlns="http://www.w3.org/2000/svg">
<g clip-path="url(#clip0_1_260)">
<path d="M5.08274 10.4545L3.09323 8.46024L4.1835 7.36655L4.9326 8.11762L7.75084 4.45508L8.97242 5.39985L5.08274 10.4545Z" fill="#A4A5A8"/>
<path d="M5.99973 14L5.90986 13.9838C5.84798 13.973 4.38154 13.6995 2.91995 12.4277C1.58752 11.2682 0 9.02309 0 4.91001V2.33954H0.513925C3.73254 2.33954 5.60743 0.402513 5.62626 0.383088L5.99058 0L6.36728 0.372837C6.38612 0.391182 8.38369 2.33954 11.4893 2.33954H12.0038V4.91001C12.0038 6.71322 11.7003 8.30925 11.1018 9.65815C10.6408 10.7191 9.95149 11.6646 9.08328 12.4272C7.61792 13.6995 6.15203 13.9746 6.09014 13.9838L5.99973 14ZM1.02785 3.35607V4.91001C1.02785 7.8776 1.87757 10.1308 3.55334 11.6135C4.61025 12.5486 5.68492 12.8696 5.99973 12.9484C6.31293 12.8702 7.38867 12.5491 8.44612 11.6135C10.1219 10.1308 10.9716 7.8776 10.9716 4.91001V3.35553C8.49078 3.20715 6.73591 2.01904 6.0078 1.42876C5.298 2.02659 3.58509 3.21255 1.02785 3.35607Z" fill="#A4A5A8"/>
</g>
<defs>
<clipPath id="clip0_1_260">
<rect width="12" height="14" fill="white"/>
</clipPath>
</defs>
</svg>
