<svg width="14" height="14" viewBox="0 0 14 14" fill="none" xmlns="http://www.w3.org/2000/svg">
<g clip-path="url(#clip0_1_212)">
<path d="M8.00088 4.81498H8.67543C8.72106 4.76309 8.78067 4.72531 8.8472 4.70612L9.01895 4.2831L6.49876 1.90674V3.31887C6.49959 3.71541 6.65812 4.09547 6.93964 4.37587C7.22116 4.65627 7.60275 4.81416 8.00088 4.81498Z" fill="#A4A5A8"/>
<path d="M13.9906 0C13.366 0.143079 12.3854 0.933126 12.3854 0.933126L12.0138 1.83204L12.1262 1.29393C11.0926 2.0622 9.47489 4.12442 9.47489 4.12442L8.85031 5.66096L8.95025 5.03888C8.82221 5.26283 8.70666 5.49611 8.60048 5.72939C8.54739 5.8507 8.49118 5.97201 8.44434 6.09331C8.29756 6.45101 8.17265 6.80871 8.06647 7.15397C8.02587 7.27838 7.99151 7.39969 7.96028 7.52099C7.8541 7.90047 7.76979 8.26127 7.70421 8.58165C7.67923 8.70918 7.65736 8.83359 7.6355 8.94868C7.6355 8.94868 7.6355 8.96423 7.6355 8.97045C7.63448 8.96323 7.63448 8.9559 7.6355 8.94868C7.69484 8.82426 7.7573 8.70295 7.81975 8.58165C8.00713 8.21773 8.1945 7.86314 8.38187 7.52099L8.58799 7.15397C11.052 2.79938 13.4379 0.556764 13.4722 0.52877L13.7845 0.279936C13.7845 0.279936 13.5753 0.553653 13.5222 0.615862C11.3674 2.986 9.68413 6.0311 8.44121 8.58165L8.2632 8.94868C8.0852 9.3157 7.91969 9.67029 7.76354 10.0093L7.74481 10.0435C7.80631 10.0391 7.86708 10.0277 7.92593 10.0093C8.78161 9.76672 10.2525 8.36703 10.2525 8.36703L9.52487 8.3297L10.4149 8.13997C11.3518 7.30949 12.4229 5.06065 12.4229 5.06065L11.4486 5.22239L12.4916 4.77138C13.0975 4.31104 13.7408 1.69518 13.7408 1.69518L13.1568 1.7916L13.7814 1.44945C14.0656 0.945564 13.9906 0 13.9906 0Z" fill="#A4A5A8"/>
<path d="M7.10462 10.3919C6.94847 10.7371 6.79233 11.0917 6.64243 11.4556L6.48941 11.8196C6.48243 11.8408 6.47409 11.8616 6.46443 11.8818L6.41446 12.846C6.41446 12.846 6.56436 12.4634 6.83605 11.8196C6.8829 11.7076 6.93599 11.5832 6.9922 11.4556C7.12648 11.1446 7.28575 10.7838 7.46375 10.3919L7.62927 10.028C7.78541 9.69203 7.94156 9.33744 8.13206 8.9673L8.31318 8.60028C9.61544 5.96575 11.4798 2.69048 13.5753 0.513184C13.5753 0.513184 11.1582 2.84289 8.66607 7.29701L8.53179 7.53651C8.34442 7.87866 8.15704 8.23325 7.96966 8.59717C7.9072 8.71847 7.84475 8.83978 7.78541 8.96419C7.61365 9.30634 7.4419 9.66093 7.27326 10.0248L7.10462 10.3919Z" fill="#A4A5A8"/>
<path d="M8.66607 10.3921H7.97278L7.85723 10.417C7.68235 10.7933 7.52933 11.1448 7.39192 11.4558H8.66607V11.8198H7.23265C6.92036 12.5258 6.76109 12.9582 6.75485 12.9768C6.72795 13.046 6.68082 13.1055 6.61957 13.1476C6.55832 13.1898 6.48577 13.2126 6.41133 13.2132H6.33638C6.25076 13.1955 6.17436 13.1478 6.12107 13.0787C6.06778 13.0096 6.04113 12.9238 6.04595 12.8369L6.09591 11.8726C6.09441 11.8582 6.09441 11.8436 6.09591 11.8291H3.93799L4.42204 13.5865C4.44215 13.6787 4.44215 13.7742 4.42204 13.8664H8.07584C8.52259 13.8648 8.95057 13.6873 9.26647 13.3726C9.58237 13.058 9.76056 12.6317 9.7622 12.1868V9.3252C9.41759 9.61227 9.05111 9.87226 8.66607 10.1028V10.3921Z" fill="#A4A5A8"/>
<path d="M1.48025 10.7123H2.60762C2.7519 10.7128 2.89258 10.7571 3.01088 10.8394C3.12918 10.9217 3.21947 11.0379 3.26968 11.1726C3.46456 11.2053 3.64157 11.3055 3.76935 11.4557H6.24581C6.39571 11.0917 6.5581 10.7372 6.70175 10.3919H1.47401V10.0435H6.87039C7.01092 9.73249 7.15146 9.437 7.29199 9.14462C7.27365 9.09277 7.26621 9.03772 7.27012 8.98288H1.47401V8.61585H7.33259C7.39504 8.30481 7.47623 7.93156 7.57929 7.5552H1.47401V7.18817H7.68235C7.78541 6.84292 7.90719 6.48522 8.04772 6.12752H1.47401V5.7636H8.20075C8.31006 5.50855 8.43184 5.25971 8.56613 5.01088H8.00088C7.55442 5.01006 7.12644 4.83326 6.81046 4.51912C6.49447 4.20498 6.31616 3.77903 6.31451 3.33436V1.74805H2.12045C1.6737 1.74969 1.24572 1.92717 0.929823 2.24181C0.613923 2.55645 0.435728 2.98271 0.434082 3.42767V11.3624C0.544546 11.2717 0.677021 11.2116 0.818194 11.1882C0.86583 11.0505 0.955015 10.931 1.07353 10.8458C1.19205 10.7606 1.3341 10.7139 1.48025 10.7123ZM1.48025 4.32037H6.03033V4.68428H1.47401L1.48025 4.32037Z" fill="#A4A5A8"/>
<path d="M3.57884 11.8537C3.547 11.7651 3.4892 11.6881 3.41292 11.6327C3.33664 11.5772 3.24539 11.5459 3.151 11.5426H2.94802V11.4307C2.94802 11.3863 2.93919 11.3423 2.92205 11.3014C2.9049 11.2604 2.87978 11.2233 2.84813 11.192C2.81648 11.1608 2.77893 11.1361 2.73765 11.1194C2.69637 11.1027 2.65217 11.0943 2.60762 11.0947H1.48025C1.3908 11.0947 1.30501 11.1301 1.24176 11.1931C1.17851 11.2561 1.14298 11.3416 1.14298 11.4307V11.5426H0.939989C0.845379 11.545 0.753737 11.576 0.677295 11.6316C0.600852 11.6872 0.543246 11.7647 0.512152 11.8537L0.0124852 13.6733C-0.00106486 13.7117 -0.00482019 13.7528 0.00155392 13.7931C0.00792803 13.8333 0.0242344 13.8713 0.0490056 13.9037C0.0737768 13.936 0.106237 13.9618 0.143471 13.9786C0.180704 13.9954 0.221538 14.0027 0.262314 13.9999H3.82868C3.86944 14.003 3.91031 13.9958 3.94755 13.979C3.98479 13.9622 4.01719 13.9364 4.04177 13.9038C4.06634 13.8713 4.0823 13.8331 4.08817 13.7928C4.09405 13.7525 4.08966 13.7114 4.07539 13.6733L3.57884 11.8537Z" fill="#A4A5A8"/>
</g>
<defs>
<clipPath id="clip0_1_212">
<rect width="14" height="14" fill="white"/>
</clipPath>
</defs>
</svg>
