<svg width="14" height="14" viewBox="0 0 14 14" fill="none" xmlns="http://www.w3.org/2000/svg">
<g clip-path="url(#clip0_1_210)">
<path d="M11.9493 2.05056C11.3009 1.39839 10.5296 0.881344 9.68003 0.529361C8.83044 0.177377 7.91945 -0.00254109 6.99984 2.71111e-05C6.08022 -0.00254109 5.16924 0.177377 4.31964 0.529361C3.47005 0.881344 2.69874 1.39839 2.05038 2.05056C1.39821 2.69892 0.881156 3.47023 0.529172 4.31983C0.177189 5.16942 -0.00273101 6.08041 -0.000162808 7.00003C-0.00539849 7.92302 0.173226 8.83781 0.525286 9.69104C0.877346 10.5443 1.39579 11.3188 2.05038 11.9696C2.69874 12.6218 3.47005 13.1388 4.31964 13.4908C5.16924 13.8428 6.08022 14.0227 6.99984 14.0201C7.91945 14.0227 8.83044 13.8428 9.68003 13.4908C10.5296 13.1388 11.3009 12.6218 11.9493 11.9696C12.6015 11.3212 13.1185 10.5499 13.4705 9.70032C13.8225 8.85073 14.0024 7.93974 13.9998 7.02013C14.0024 6.10051 13.8225 5.18953 13.4705 4.33994C13.1185 3.49035 12.6015 2.71903 11.9493 2.07067V2.05056ZM12.4076 9.98739H10.3571C10.6395 9.15573 10.8006 8.28773 10.8356 7.41013H13.1635C13.1043 8.31438 12.8462 9.19441 12.4076 9.98739ZM6.99984 13.1195C6.0963 12.5561 5.36368 11.7567 4.88094 10.8076H9.11874C8.636 11.7567 7.90338 12.5561 6.99984 13.1195ZM4.51104 9.98739C4.2012 9.1613 4.02345 8.29155 3.98433 7.41013H10.0153C9.97623 8.29155 9.79848 9.1613 9.48864 9.98739H4.51104ZM0.836139 7.41013H3.16411C3.20101 8.28751 3.3621 9.15523 3.64257 9.98739H1.59203C1.15343 9.19441 0.895329 8.31438 0.836139 7.41013ZM1.59203 4.01266H3.64257C3.3621 4.84482 3.20101 5.71253 3.16411 6.58991H0.836139C0.894803 5.68557 1.15294 4.80542 1.59203 4.01266ZM6.99984 0.880557C7.90417 1.44303 8.63702 2.24263 9.11874 3.19245H4.88094C5.36266 2.24263 6.09551 1.44303 6.99984 0.880557ZM9.48864 4.01266C9.79887 4.83863 9.97663 5.70845 10.0153 6.58991H3.98433C4.02305 5.70845 4.20081 4.83863 4.51104 4.01266H9.48864ZM13.1635 6.58991H10.8356C10.8006 5.71231 10.6395 4.84431 10.3571 4.01266H12.4076C12.8467 4.80542 13.1049 5.68557 13.1635 6.58991ZM10.0314 3.19245C9.66089 2.37466 9.14143 1.63295 8.49955 1.0052C9.83368 1.33897 11.0181 2.10878 11.8649 3.19245H10.0314ZM5.50012 1.0052C4.86054 1.63402 4.34257 2.37553 3.97227 3.19245H2.13884C2.98519 2.11021 4.16783 1.34064 5.50012 1.0052ZM3.97227 10.8076C4.34257 11.6245 4.86054 12.366 5.50012 12.9948C4.16783 12.6594 2.98519 11.8898 2.13884 10.8076H3.97227ZM8.49955 12.9948C9.14143 12.3671 9.66089 11.6254 10.0314 10.8076H11.8649C11.0191 11.8905 9.83624 12.6603 8.50357 12.9948H8.49955Z" fill="#A4A5A8"/>
</g>
<defs>
<clipPath id="clip0_1_210">
<rect width="14" height="14" fill="white"/>
</clipPath>
</defs>
</svg>
